<svg id="Layer_1" data-name="Layer 1" xmlns="http://www.w3.org/2000/svg" width="500" height="500" viewBox="0 0 500 500"><defs><style>.cls-1{fill:#193965;}.cls-2{fill:#00a7e1;}.cls-3{fill:#f26722;}.cls-4{fill:#fff;}</style></defs><title>audio-visual2</title><path class="cls-1" d="M24.76,224c1.22-7.9,2.29-15.81,3.67-23.67a166.16,166.16,0,0,1,24.38-62.49c3-4.66,6.3-7.06,12.31-6.71,10.61.61,21.28.17,32.79.17-1.2,4-2.18,7.32-3.2,10.64-7,22.85-14.74,45.51-20.8,68.61-5.28,20.15-6.36,41.13-1.8,61.49C77,294,84.06,315.4,90.31,337c3,10.35,6.31,20.6,9.6,31.29a31.1,31.1,0,0,1-3.58.46c-11.61,0-23.22-.05-34.82.07A5.54,5.54,0,0,1,56,365.72C47.64,352,42.27,337.13,37.77,321.87,31,299,27.45,275.52,25.53,251.77a26.59,26.59,0,0,0-.77-3.58Z"/><path class="cls-2" d="M467.65,178.91V321.26c-1.41.07-2.88.21-4.35.21-25.08,0-50.16-.06-75.24.09-3.64,0-4.87-.95-4.75-4.68.27-8-.07-16.1.16-24.15.1-3.53-1.12-4.63-4.54-4.44-4.48.24-9,.13-13.47,0-2.43-.05-3.8.48-4.63,3.23-9,29.84-18.42,59.55-27.19,89.45-7.68,26.18-31.49,44.62-58.75,44.62h-91.5c-28.23,0-51.64-18.22-59.65-45.32-8.14-27.51-16.85-54.87-25.78-82.15-6.95-21.25-8.38-42.85-6.63-65,1.35-17,7.36-32.74,12.29-48.78,6.9-22.42,14-44.79,20.77-67.25,7.23-24,32-42.66,57.07-42.68,31.74,0,63.48-.27,95.22.09,17.58.2,32,7.79,43.83,20.83,7.1,7.83,10.69,17.15,13.61,27,7.05,23.81,14.27,47.58,21.42,71.37,1.46,4.88,2.73,9.84,4.54,14.59a5.81,5.81,0,0,0,4,3.17c5.24.38,10.52,0,15.78.2,3,.09,3.64-1.27,3.6-3.92-.1-8.36.05-16.73-.08-25.08,0-2.84.57-4.19,3.82-4.17,26,.11,52,.06,78,.08A23,23,0,0,1,467.65,178.91ZM300.89,250.54c.81-43.18-33.83-77.9-75.68-79.28-47-1.54-81.65,36.35-81.76,78.52-.1,42.37,34.3,80.28,81.24,79C266.44,327.74,301.21,293.43,300.89,250.54Z"/><path class="cls-3" d="M275.12,250.06c-.25,30.52-25.28,55.34-55.34,54.87a54.92,54.92,0,0,1-54.07-55.59c.24-29.71,25.2-54.49,54.57-54.18C250.7,195.48,275.37,220.18,275.12,250.06Zm-55-29.76c18,2,27.86,11.83,29.72,29.47h7.37c3.09-18.08-19.82-40.38-37.09-36.24Z"/><rect class="cls-4" x="379.39" y="178.22" width="4.89" height="145.85"/><rect class="cls-4" x="453.33" y="178.22" width="4.89" height="145.85"/><rect class="cls-4" x="362.69" y="200.97" width="4.89" height="102.09"/><rect class="cls-4" x="472.22" y="200.1" width="4.89" height="102.09"/><rect class="cls-4" x="396.09" y="157.4" width="4.89" height="173.56"/><rect class="cls-4" x="416.04" y="203.32" width="4.89" height="86.78"/><rect class="cls-4" x="340.31" y="207.76" width="4.89" height="86.78"/><rect class="cls-4" x="435.5" y="214.69" width="5.33" height="64.04"/><rect class="cls-4" x="323.59" y="219.13" width="5.33" height="64.04"/></svg>