<svg id="Layer_1" data-name="Layer 1" xmlns="http://www.w3.org/2000/svg" width="500" height="500" viewBox="0 0 500 500"><defs><style>.cls-1{fill:#193965;}.cls-2{fill:#00a7e1;}.cls-3{fill:#f26722;}.cls-4{fill:#fff;}</style></defs><title>audio-visual</title><path class="cls-1" d="M19.05,223c1.27-8.23,2.39-16.49,3.83-24.7a173.46,173.46,0,0,1,25.44-65.22c3.16-4.86,6.58-7.37,12.85-7,11.07.64,22.21.18,34.22.18-1.25,4.17-2.27,7.65-3.34,11.11-7.3,23.85-15.38,47.5-21.7,71.61-5.52,21-6.64,42.93-1.89,64.18,5.12,22.85,12.48,45.22,19,67.75,3.13,10.8,6.59,21.49,10,32.66a31.32,31.32,0,0,1-3.74.47c-12.11,0-24.23-.05-36.34.08a5.79,5.79,0,0,1-5.76-3.23c-8.72-14.28-14.32-29.84-19-45.76-7-23.89-10.77-48.38-12.77-73.17a29,29,0,0,0-.8-3.74Z"/><path class="cls-2" d="M481.3,175.88V324.45c-1.47.08-3,.22-4.53.22-26.18,0-52.36-.07-78.54.09-3.8,0-5.08-1-5-4.88.27-8.4-.08-16.81.16-25.21.11-3.69-1.17-4.83-4.74-4.64-4.67.26-9.37.14-14.05,0-2.54-.06-4,.5-4.84,3.37-9.38,31.15-19.23,62.15-28.38,93.36-8,27.33-32.87,46.58-61.32,46.57h-95.5c-29.47,0-53.9-19-62.26-47.29-8.49-28.73-17.59-57.28-26.9-85.75-7.26-22.18-8.75-44.72-6.92-67.81,1.4-17.76,7.68-34.16,12.83-50.91,7.19-23.4,14.59-46.74,21.67-70.18,7.55-25,33.41-44.54,59.57-44.55,33.13,0,66.26-.28,99.38.1,18.35.2,33.41,8.12,45.75,21.73,7.4,8.17,11.16,17.9,14.2,28.18,7.36,24.86,14.89,49.67,22.36,74.49,1.53,5.1,2.85,10.27,4.74,15.23a6,6,0,0,0,4.17,3.31c5.46.4,11,0,16.46.21,3.12.1,3.8-1.32,3.77-4.1-.12-8.72,0-17.45-.09-26.17,0-3,.6-4.37,4-4.35,27.14.11,54.29.07,81.44.08A22.87,22.87,0,0,1,481.3,175.88Zm-174,74.75c.85-45.06-35.31-81.3-79-82.74-49.06-1.61-85.22,37.94-85.33,82-.11,44.22,35.79,83.78,84.79,82.5C271.29,331.21,307.59,295.4,307.25,250.63Z"/><path class="cls-3" d="M280.36,250.14C280.1,282,254,307.9,222.6,307.4a57.32,57.32,0,0,1-56.44-58c.25-31,26.3-56.86,57-56.54C254.86,193.17,280.61,219,280.36,250.14ZM223,219.08c18.78,2.1,29.07,12.34,31,30.75h7.69C264.94,231,241,207.68,223,212Z"/><rect class="cls-4" x="389.18" y="175.16" width="5.1" height="152.22"/><rect class="cls-4" x="466.36" y="175.16" width="5.1" height="152.22"/><rect class="cls-4" x="371.75" y="198.9" width="5.1" height="106.56"/><rect class="cls-4" x="486.08" y="197.99" width="5.1" height="106.56"/><rect class="cls-4" x="406.61" y="153.43" width="5.1" height="181.14"/><rect class="cls-4" x="427.44" y="201.35" width="5.1" height="90.57"/><rect class="cls-4" x="348.4" y="205.98" width="5.1" height="90.57"/><rect class="cls-4" x="447.75" y="213.22" width="5.56" height="66.84"/><rect class="cls-4" x="330.94" y="217.85" width="5.56" height="66.84"/></svg>