<svg id="Layer_1" data-name="Layer 1" xmlns="http://www.w3.org/2000/svg" viewBox="0 0 452.98 281.99"><defs><style>.cls-1{fill:#173a64;}.cls-1,.cls-2,.cls-3,.cls-4,.cls-5,.cls-6{fill-rule:evenodd;}.cls-2{fill:#ffc82d;}.cls-3{fill:#f26722;}.cls-4{fill:#02a9e0;}.cls-5{fill:#6f993f;}.cls-6{fill:#df1b50;}.cls-7{fill:#010101;}</style></defs><title>CS_color_logo</title><g id="_Group_" data-name="&lt;Group&gt;"><path id="_Path_" data-name="&lt;Path&gt;" class="cls-1" d="M339.25,158.1l14.47,4.9-2.31,11.6-20.06-6.8,4.93-8.53A2.25,2.25,0,0,1,339.25,158.1Z"/><path id="_Path_2" data-name="&lt;Path&gt;" class="cls-2" d="M318.8,194.75l12.63-11.08,9.79,8.58-17.51,15.37-5.42-9.39A2.49,2.49,0,0,1,318.8,194.75Z"/><path id="_Path_3" data-name="&lt;Path&gt;" class="cls-3" d="M341.46,232.63l-3.61-18.13,13.56-4.59,5,25.13H344.49A2.74,2.74,0,0,1,341.46,232.63Z"/><path id="_Path_4" data-name="&lt;Path&gt;" class="cls-4" d="M388,231.88l-19.26-6.53,3.08-15.44L398.48,219l-6.56,11.36A3,3,0,0,1,388,231.88Z"/><path id="_Path_5" data-name="&lt;Path&gt;" class="cls-5" d="M411.81,188.93,395,203.68l-13-11.43,23.3-20.45,7.21,12.51A3.29,3.29,0,0,1,411.81,188.93Z"/><path id="_Path_6" data-name="&lt;Path&gt;" class="cls-6" d="M385,144.36l4.8,24.12-18,6.12-6.67-33.44H381C383.35,141.16,384.61,142.25,385,144.36Z"/></g><path class="cls-7" d="M78.64,71.35c-.54-18.55-.86-23.08-13.27-23.08-12.83,0-13.48,11.11-13.48,35.7,0,24.81.65,35.49,13.48,35.49,12.3,0,12.41-6.37,13.16-23.19l7.45.64c-1.3,19.42-1.73,28.59-20.61,28.59C44.66,125.5,44,111.47,44,84c0-27.29.64-41.64,21.35-41.64,19.42,0,20,7.34,20.61,28.05Z"/><path class="cls-7" d="M116.07,43.74c17.9,0,20.49,6.25,20.49,20.6,0,13.16-1.94,20.71-10.14,22.76l10.79,37H128.9L119.52,88c-1.08.11-2.27.11-3.45.11h-9.6v36H99V43.74Zm-9.6,5.6v32.9h11.11c10.14,0,12-4.2,12-17.58,0-11.11-1.4-15.32-13.05-15.32Z"/><path class="cls-7" d="M179.38,49.67H156V78.9H176l-.54,6H156v33.33h23.94v5.82H148.53V43.74h30.85Z"/><path class="cls-7" d="M232.77,124.09h-8.2l-4.2-20.71H200.74l-4.32,20.71H189.3L207,43.74h8ZM201.28,97.34h18.33l-9.06-41.42Z"/><path class="cls-7" d="M270.41,49.67H255.1v74.42h-7.45V49.67h-15V43.74h37.75Z"/><path class="cls-7" d="M288.75,124.09h-7.44V43.74h7.44Z"/><path class="cls-7" d="M325.74,124.09h-8L300.07,43.74h8.09l14,67.41,14.23-67.41h7.12Z"/><path class="cls-7" d="M385.71,49.67h-23.4V78.9h20.06l-.54,6H362.31v33.33h23.94v5.82H354.86V43.74h30.85Z"/><path class="cls-7" d="M79.07,173.46,68.18,175c-.43-6.25-.86-8.84-5.83-8.84-5.39,0-5.6,3.24-5.6,9.06,0,6.9,2.58,9.82,6.9,12.84,7.55,5.39,16.83,9.6,16.83,27.93,0,14.78-5.29,22.55-20,22.55-14.24,0-17.58-6.8-18.66-24.92l11.86-2.37c.65,12.29,1.84,16.18,6.91,16.18,5.5,0,5.82-3.56,5.82-12,0-9.6-3.45-12.29-9.49-16.71-6.47-4.64-13.59-11.12-13.59-23.84,0-12.19,4.31-19.53,18.77-19.53S78.64,163.32,79.07,173.46Z"/><path class="cls-7" d="M121.25,156.74v10.78H109.16v69.57H95.36V167.52H83.49V156.74Z"/><path class="cls-7" d="M141.63,156.74v55.33c0,11.11.11,15.32,5.39,15.32s5.4-4.21,5.4-15.32V156.74h13.91V213.9c0,15.43-2.26,24.6-19.31,24.6s-19.3-9-19.3-24.6V156.74Z"/><path class="cls-7" d="M194.59,156.74c23.3,0,25.13,13.37,25.13,40.23,0,29.34-1.62,40.12-24.38,40.12H176.58V156.74Zm-4.21,10.57v58.35h5.29c9,0,9.92-8.41,9.92-28.69,0-22.65-.32-29.66-10.68-29.66Z"/><path class="cls-7" d="M243,156.74v80.35H229.1V156.74Z"/><path class="cls-7" d="M296.62,197c0,28-.54,41.53-21.79,41.53s-22.43-14-22.43-41.53c0-27.29,1.19-41.64,22.43-41.64S296.62,169.14,296.62,197Zm-29.55,0c0,22.76,1,30.42,7.76,30.42S282,219.62,282,197s-.32-30.85-7.12-30.85S267.07,174.32,267.07,197Z"/></svg>