<svg xmlns="http://www.w3.org/2000/svg" viewBox="0 0 366.81 196.16"><defs><style>.cls-1{fill:#010101;}.cls-2{fill:#2a3990;}.cls-2,.cls-3,.cls-4,.cls-5,.cls-6,.cls-7{fill-rule:evenodd;}.cls-3{fill:#fbd703;}.cls-4{fill:#f68b1f;}.cls-5{fill:#00b5ef;}.cls-6{fill:#4eb748;}.cls-7{fill:#e11472;}</style></defs><title>CS_color_logo</title><g id="Layer_2" data-name="Layer 2"><g id="Layer_1-2" data-name="Layer 1"><path class="cls-1" d="M36.78,29c-.54-18.55-.86-23.08-13.27-23.08C10.68,5.93,10,17,10,41.63c0,24.81.65,35.49,13.48,35.49,12.3,0,12.4-6.36,13.16-23.19l7.44.65C42.82,74,42.39,83.16,23.51,83.16c-20.71,0-21.36-14-21.36-41.53C2.16,14.35,2.8,0,23.51,0c19.42,0,20,7.33,20.6,28Z"/><path class="cls-1" d="M74.21,1.4C92.11,1.4,94.7,7.66,94.7,22c0,13.16-1.94,20.71-10.14,22.76l10.79,37H87L77.66,45.63c-1.08.11-2.27.11-3.45.11h-9.6v36H57.17V1.4ZM64.61,7v32.9H75.72c10.14,0,12-4.21,12-17.58C87.69,11.22,86.29,7,74.64,7Z"/><path class="cls-1" d="M137.52,7.33H114.12V36.57h20.06l-.54,6H114.12V75.94h23.95v5.82H106.67V1.4h30.85Z"/><path class="cls-1" d="M190.91,81.76h-8.2l-4.21-20.71H158.88l-4.31,20.71h-7.12L165.13,1.4h8ZM159.42,55h18.34l-9.06-41.42Z"/><path class="cls-1" d="M228.55,7.33H213.24V81.76h-7.44V7.33h-15V1.4h37.75Z"/><path class="cls-1" d="M246.89,81.76h-7.44V1.4h7.44Z"/><path class="cls-1" d="M283.88,81.76h-8L258.21,1.4h8.09l14,67.42L294.56,1.4h7.12Z"/><path class="cls-1" d="M343.85,7.33H320.45V36.57h20.06l-.54,6H320.45V75.94h23.95v5.82H313V1.4h30.85Z"/><path class="cls-1" d="M37.21,131.12l-10.89,1.51c-.43-6.26-.86-8.84-5.82-8.84-5.39,0-5.61,3.24-5.61,9.06,0,6.9,2.59,9.82,6.9,12.84,7.55,5.39,16.83,9.6,16.83,27.94,0,14.78-5.29,22.54-20,22.54-14.24,0-17.58-6.8-18.66-24.92l11.86-2.37c.65,12.3,1.83,16.18,6.9,16.18,5.5,0,5.82-3.56,5.82-12,0-9.6-3.45-12.3-9.49-16.72-6.47-4.64-13.59-11.11-13.59-23.84C1.51,120.33,5.82,113,20.28,113S36.78,121,37.21,131.12Z"/><path class="cls-1" d="M79.39,114.4v10.79H67.3v69.57H53.5V125.19H41.63V114.4Z"/><path class="cls-1" d="M99.77,114.4v55.33c0,11.11.11,15.32,5.39,15.32s5.39-4.21,5.39-15.32V114.4h13.91v57.17c0,15.42-2.27,24.59-19.31,24.59s-19.31-9-19.31-24.59V114.4Z"/><path class="cls-1" d="M152.73,114.4c23.3,0,25.13,13.38,25.13,40.23,0,29.34-1.62,40.13-24.38,40.13H134.72V114.4ZM148.52,125v58.35h5.29c9,0,9.92-8.41,9.92-28.69,0-22.65-.32-29.66-10.68-29.66Z"/><path class="cls-1" d="M201.16,114.4v80.36H187.24V114.4Z"/><path class="cls-1" d="M254.76,154.63c0,28-.54,41.53-21.79,41.53s-22.44-14-22.44-41.53c0-27.29,1.19-41.63,22.44-41.63S254.76,126.81,254.76,154.63Zm-29.55,0c0,22.76,1,30.42,7.77,30.42s7.12-7.77,7.12-30.42-.32-30.85-7.12-30.85S225.21,132,225.21,154.63Z"/><g id="_Group_" data-name="&lt;Group&gt;"><path id="_Path_" data-name="&lt;Path&gt;" class="cls-2" d="M292.93,114.94l14.46,4.91-2.31,11.6L285,124.65l4.93-8.53A2.25,2.25,0,0,1,292.93,114.94Z"/><path id="_Path_2" data-name="&lt;Path&gt;" class="cls-3" d="M272.48,151.6l12.63-11.08,9.78,8.58-17.51,15.37L272,155.07A2.47,2.47,0,0,1,272.48,151.6Z"/><path id="_Path_3" data-name="&lt;Path&gt;" class="cls-4" d="M295.14,189.47l-3.61-18.13,13.55-4.6,5,25.13H298.16A2.72,2.72,0,0,1,295.14,189.47Z"/><path id="_Path_4" data-name="&lt;Path&gt;" class="cls-5" d="M341.64,188.72l-19.25-6.53,3.08-15.44,26.69,9.05-6.56,11.36A3,3,0,0,1,341.64,188.72Z"/><path id="_Path_5" data-name="&lt;Path&gt;" class="cls-6" d="M365.48,145.77l-16.81,14.75-13-11.42L359,128.65l7.21,12.5A3.29,3.29,0,0,1,365.48,145.77Z"/><path id="_Path_6" data-name="&lt;Path&gt;" class="cls-7" d="M338.7,101.2l4.81,24.13-18,6.12L318.8,98h15.87C337,98,338.28,99.1,338.7,101.2Z"/></g></g></g></svg>