<svg xmlns="http://www.w3.org/2000/svg" width="26.66" height="26.25" viewBox="0 0 26.66 26.25"><defs><style>.cls-1{fill:#fff;fill-rule:evenodd;}</style></defs><title>cs_loader</title><g id="Layer_2" data-name="Layer 2"><g id="Layer_1-2" data-name="Layer 1"><g id="_Group_" data-name="&lt;Group&gt;"><path id="_Path_" data-name="&lt;Path&gt;" class="cls-1" d="M6,4.74l4,1.37L9.4,9.35,3.79,7.45,5.17,5.07A.62.62,0,0,1,6,4.74Z"/><path id="_Path_2" data-name="&lt;Path&gt;" class="cls-1" d="M.28,15l3.53-3.1,2.74,2.4-4.9,4.3L.14,16A.68.68,0,0,1,.28,15Z"/><path id="_Path_3" data-name="&lt;Path&gt;" class="cls-1" d="M6.61,25.58l-1-5.07L9.4,19.23l1.4,7H7.46A.77.77,0,0,1,6.61,25.58Z"/><path id="_Path_4" data-name="&lt;Path&gt;" class="cls-1" d="M19.62,25.37l-5.38-1.83.86-4.31,7.46,2.53-1.84,3.17A.83.83,0,0,1,19.62,25.37Z"/><path id="_Path_5" data-name="&lt;Path&gt;" class="cls-1" d="M26.29,13.36l-4.7,4.12-3.65-3.19,6.52-5.72,2,3.5A.92.92,0,0,1,26.29,13.36Z"/><path id="_Path_6" data-name="&lt;Path&gt;" class="cls-1" d="M18.8.9l1.34,6.74-5,1.71L13.23,0h4.44A1,1,0,0,1,18.8.9Z"/></g></g></g></svg>