<svg id="Layer_1" data-name="Layer 1" xmlns="http://www.w3.org/2000/svg" xmlns:xlink="http://www.w3.org/1999/xlink" width="500" height="500" viewBox="0 0 500 500"><defs><style>.cls-1,.cls-8{fill:#90b93e;}.cls-2{fill:#fdfefe;}.cls-3{fill:#00a7e1;}.cls-4,.cls-5,.cls-8{stroke:#90b93e;}.cls-4,.cls-5,.cls-6,.cls-7,.cls-8{stroke-linecap:round;stroke-miterlimit:10;}.cls-4,.cls-5{stroke-width:12px;}.cls-4{fill:url(#linear-gradient);}.cls-5{fill:url(#linear-gradient-2);}.cls-6,.cls-7{fill:#02a9e0;}.cls-6{stroke:#fff;}.cls-6,.cls-7,.cls-8{stroke-width:13px;}.cls-7{stroke:#fafdfd;}</style><linearGradient id="linear-gradient" x1="120.28" y1="79.34" x2="274.7" y2="79.34" gradientTransform="matrix(-1, 0, 0, 1, 478.59, 0)" gradientUnits="userSpaceOnUse"><stop offset="0" stop-color="#00a7e1"/><stop offset="1" stop-color="#90b93e"/></linearGradient><linearGradient id="linear-gradient-2" x1="79.41" y1="405.26" x2="273.75" y2="405.26" xlink:href="#linear-gradient"/></defs><title>media-design8</title><g id="motion_2" data-name="motion 2"><path class="cls-1" d="M30.19,242.28A168.48,168.48,0,1,0,198.67,73.8,168.48,168.48,0,0,0,30.19,242.28Zm12.72,0A155.76,155.76,0,1,1,198.67,398,155.76,155.76,0,0,1,42.91,242.28Z"/><circle class="cls-2" cx="200.13" cy="240.31" r="154.3"/><path class="cls-3" d="M214.7,278.94a6.32,6.32,0,0,1,6.32-6.32H325.78a130.7,130.7,0,1,0-3.7,12.63H221A6.31,6.31,0,0,1,214.7,278.94Z"/><path class="cls-1" d="M472.59,272.62H325.78a130.1,130.1,0,0,1-3.7,12.63H472.59a6.32,6.32,0,1,0,0-12.63Z"/><line class="cls-4" x1="358.32" y1="79.34" x2="203.89" y2="79.34"/><line class="cls-5" x1="399.18" y1="405.26" x2="204.84" y2="405.26"/><line class="cls-6" x1="306.52" y1="226.63" x2="256.51" y2="226.63"/><line class="cls-7" x1="144.84" y1="185.91" x2="75.74" y2="185.91"/><line class="cls-8" x1="432.04" y1="226.63" x2="362.94" y2="226.63"/><line class="cls-8" x1="380.92" y1="172.65" x2="323.03" y2="172.65"/></g></svg>