<svg id="Layer_1" data-name="Layer 1" xmlns="http://www.w3.org/2000/svg" width="500" height="500" viewBox="0 0 500 500"><defs><style>.cls-1{fill:#72c5e8;opacity:0.66;}.cls-2{fill:#02a9e0;}.cls-3{fill:#173a64;}</style></defs><title>media-design</title><path class="cls-1" d="M98.94,238.78a124.73,124.73,0,0,1,85-118.22,124.72,124.72,0,1,0,0,236.44A124.75,124.75,0,0,1,98.94,238.78Z"/><path class="cls-2" d="M207.5,238.78a124.71,124.71,0,0,1,85-118.22,124.72,124.72,0,1,0,0,236.44,124.75,124.75,0,0,1-85-118.22Z"/><path class="cls-3" d="M362.78,114.05A124.73,124.73,0,1,0,487.5,238.78,124.42,124.42,0,0,0,362.78,114.05Z"/></svg>