<svg id="Layer_1" data-name="Layer 1" xmlns="http://www.w3.org/2000/svg" xmlns:xlink="http://www.w3.org/1999/xlink" width="500" height="500" viewBox="0 0 500 500"><defs><style>.cls-1,.cls-6{fill:#90b93e;}.cls-2,.cls-3{fill:#02a9e0;}.cls-3{stroke:#02a9e0;}.cls-3,.cls-4,.cls-5,.cls-6{stroke-linecap:round;stroke-miterlimit:10;}.cls-3,.cls-6{stroke-width:13px;}.cls-4,.cls-5{stroke-width:12px;}.cls-4{fill:url(#linear-gradient);stroke:url(#linear-gradient-2);}.cls-5{fill:url(#linear-gradient-3);stroke:url(#linear-gradient-4);}.cls-6{stroke:#90b93e;}</style><linearGradient id="linear-gradient" x1="139.8" y1="70.5" x2="298.73" y2="70.5" gradientUnits="userSpaceOnUse"><stop offset="0" stop-color="#00a7e1"/><stop offset="1" stop-color="#90b93e"/></linearGradient><linearGradient id="linear-gradient-2" x1="133.8" x2="304.73" xlink:href="#linear-gradient"/><linearGradient id="linear-gradient-3" x1="97.74" y1="405.93" x2="297.75" y2="405.93" xlink:href="#linear-gradient"/><linearGradient id="linear-gradient-4" x1="91.74" y1="405.93" x2="303.75" y2="405.93" xlink:href="#linear-gradient"/></defs><title>media-design3</title><g id="motion_2" data-name="motion 2"><path class="cls-1" d="M304.1,64.8A173.4,173.4,0,1,0,477.5,238.2,173.39,173.39,0,0,0,304.1,64.8Zm0,333.7A160.3,160.3,0,1,1,464.41,238.2,160.3,160.3,0,0,1,304.1,398.5Z"/><path class="cls-2" d="M304.1,103.73A134.47,134.47,0,1,0,438.57,238.2,134.47,134.47,0,0,0,304.1,103.73Zm0,258.78A124.32,124.32,0,1,1,428.42,238.2,124.31,124.31,0,0,1,304.1,362.51Z"/><line class="cls-3" x1="22.19" y1="275.93" x2="281.1" y2="275.93"/><line class="cls-4" x1="139.8" y1="70.5" x2="298.73" y2="70.5"/><line class="cls-5" x1="97.74" y1="405.93" x2="297.75" y2="405.93"/><line class="cls-3" x1="193.11" y1="222.09" x2="244.57" y2="222.09"/><line class="cls-3" x1="359.51" y1="180.18" x2="430.62" y2="180.18"/><line class="cls-6" x1="63.92" y1="222.09" x2="135.03" y2="222.09"/><line class="cls-6" x1="116.53" y1="166.54" x2="176.11" y2="166.54"/></g></svg>