<svg id="Layer_1" data-name="Layer 1" xmlns="http://www.w3.org/2000/svg" width="500" height="500" viewBox="0 0 500 500"><defs><style>.cls-1{fill:#173a64;}.cls-2,.cls-3{fill:#02a9e0;stroke:#02a9e0;stroke-linecap:round;stroke-miterlimit:10;}.cls-2{stroke-width:13px;}.cls-3{stroke-width:12px;}</style></defs><title>media-design2</title><g id="motion_2" data-name="motion 2"><path class="cls-1" d="M305,79.52a160,160,0,1,0,160,160A160,160,0,0,0,305,79.52Zm0,307.91A147.92,147.92,0,1,1,452.92,239.52,147.92,147.92,0,0,1,305,387.43Z"/><path class="cls-1" d="M305,115.43A124.09,124.09,0,1,0,429.08,239.52,124.09,124.09,0,0,0,305,115.43Zm0,238.8A114.72,114.72,0,1,1,419.71,239.52,114.71,114.71,0,0,1,305,354.23Z"/><line class="cls-2" x1="25.19" y1="276" x2="275.28" y2="276"/><line class="cls-3" x1="158.51" y1="86" x2="312.03" y2="86"/><line class="cls-3" x1="98.16" y1="393" x2="291.37" y2="393"/><line class="cls-2" x1="190.29" y1="224" x2="240" y2="224"/><line class="cls-2" x1="351.02" y1="183.52" x2="419.71" y2="183.52"/><line class="cls-2" x1="81.27" y1="224" x2="149.96" y2="224"/><line class="cls-2" x1="132.74" y1="170.34" x2="190.29" y2="170.34"/></g></svg>