<svg id="Layer_1" data-name="Layer 1" xmlns="http://www.w3.org/2000/svg" xmlns:xlink="http://www.w3.org/1999/xlink" width="500" height="500" viewBox="0 0 500 500"><defs><style>.cls-1,.cls-8{fill:#90b93e;}.cls-2{fill:#fdfefe;}.cls-3{fill:#00a7e1;}.cls-4,.cls-5,.cls-8{stroke:#90b93e;}.cls-4,.cls-5,.cls-6,.cls-7,.cls-8{stroke-linecap:round;stroke-miterlimit:10;}.cls-4,.cls-5{stroke-width:12px;}.cls-4{fill:url(#linear-gradient);}.cls-5{fill:url(#linear-gradient-2);}.cls-6,.cls-7{fill:#02a9e0;}.cls-6{stroke:#fff;}.cls-6,.cls-7,.cls-8{stroke-width:13px;}.cls-7{stroke:#fafdfd;}</style><linearGradient id="linear-gradient" x1="132.28" y1="79.34" x2="286.7" y2="79.34" gradientTransform="translate(6.5)" gradientUnits="userSpaceOnUse"><stop offset="0" stop-color="#00a7e1"/><stop offset="1" stop-color="#90b93e"/></linearGradient><linearGradient id="linear-gradient-2" x1="91.41" y1="405.26" x2="285.75" y2="405.26" xlink:href="#linear-gradient"/></defs><title>media-design7</title><g id="motion_2" data-name="motion 2"><path class="cls-1" d="M298.43,73.8A168.48,168.48,0,1,0,466.91,242.28,168.48,168.48,0,0,0,298.43,73.8Zm0,324.24A155.76,155.76,0,1,1,454.18,242.28,155.76,155.76,0,0,1,298.43,398Z"/><circle class="cls-2" cx="296.97" cy="240.31" r="154.3"/><path class="cls-3" d="M282.39,278.94a6.32,6.32,0,0,0-6.32-6.32H171.32A130.58,130.58,0,1,1,175,285.25H276.07A6.31,6.31,0,0,0,282.39,278.94Z"/><path class="cls-1" d="M24.5,272.62H171.32A127.31,127.31,0,0,0,175,285.25H24.5a6.32,6.32,0,0,1,0-12.63Z"/><line class="cls-4" x1="138.78" y1="79.34" x2="293.2" y2="79.34"/><line class="cls-5" x1="97.91" y1="405.26" x2="292.25" y2="405.26"/><line class="cls-6" x1="190.58" y1="226.63" x2="240.58" y2="226.63"/><line class="cls-7" x1="352.26" y1="185.91" x2="421.35" y2="185.91"/><line class="cls-8" x1="65.06" y1="226.63" x2="134.15" y2="226.63"/><line class="cls-8" x1="116.17" y1="172.65" x2="174.06" y2="172.65"/></g></svg>