<svg id="Layer_1" data-name="Layer 1" xmlns="http://www.w3.org/2000/svg" xmlns:xlink="http://www.w3.org/1999/xlink" width="500" height="500" viewBox="0 0 500 500"><defs><style>.cls-1,.cls-6{fill:#90b93e;}.cls-2,.cls-3{fill:#02a9e0;}.cls-3{stroke:#02a9e0;}.cls-3,.cls-4,.cls-5,.cls-6{stroke-linecap:round;stroke-miterlimit:10;}.cls-3,.cls-6{stroke-width:13px;}.cls-4,.cls-5{stroke-width:12px;}.cls-4{fill:url(#linear-gradient);stroke:url(#linear-gradient-2);}.cls-5{fill:url(#linear-gradient-3);stroke:url(#linear-gradient-4);}.cls-6{stroke:#90b93e;}</style><linearGradient id="linear-gradient" x1="139.8" y1="70.5" x2="298.73" y2="70.5" gradientTransform="matrix(-1, 0, 0, 1, 499.69, 0)" gradientUnits="userSpaceOnUse"><stop offset="0" stop-color="#00a7e1"/><stop offset="1" stop-color="#90b93e"/></linearGradient><linearGradient id="linear-gradient-2" x1="133.8" x2="304.73" xlink:href="#linear-gradient"/><linearGradient id="linear-gradient-3" x1="97.74" y1="405.93" x2="297.75" y2="405.93" xlink:href="#linear-gradient"/><linearGradient id="linear-gradient-4" x1="91.74" y1="405.93" x2="303.75" y2="405.93" xlink:href="#linear-gradient"/></defs><title>media-design4</title><g id="motion_2" data-name="motion 2"><path class="cls-1" d="M22.19,238.2A173.4,173.4,0,1,0,195.58,64.8,173.39,173.39,0,0,0,22.19,238.2Zm13.09,0a160.31,160.31,0,1,1,160.3,160.3A160.3,160.3,0,0,1,35.28,238.2Z"/><path class="cls-2" d="M61.11,238.2A134.47,134.47,0,1,0,195.58,103.73,134.48,134.48,0,0,0,61.11,238.2Zm10.16,0A124.32,124.32,0,1,1,195.58,362.51,124.32,124.32,0,0,1,71.27,238.2Z"/><line class="cls-3" x1="477.5" y1="275.93" x2="218.59" y2="275.93"/><line class="cls-4" x1="359.89" y1="70.5" x2="200.96" y2="70.5"/><line class="cls-5" x1="401.95" y1="405.93" x2="201.94" y2="405.93"/><line class="cls-3" x1="306.58" y1="222.09" x2="255.12" y2="222.09"/><line class="cls-3" x1="140.18" y1="180.18" x2="69.07" y2="180.18"/><line class="cls-6" x1="435.76" y1="222.09" x2="364.65" y2="222.09"/><line class="cls-6" x1="383.16" y1="166.54" x2="323.58" y2="166.54"/></g></svg>