<svg id="Layer_1" data-name="Layer 1" xmlns="http://www.w3.org/2000/svg" width="1098.18" height="318.64" viewBox="0 0 1098.18 318.64"><defs><style>.cls-1{opacity:0.2;}.cls-2{fill:#fa6600;}.cls-3{fill:#c1510a;}.cls-4{fill:#3f3f3f;}.cls-5{fill:#87d6f8;}.cls-6{fill:#003865;}.cls-7{fill:#90b82e;}.cls-8{fill:#5c8216;}.cls-9{fill:#7a7a7a;}.cls-10{fill:#fff;}.cls-11{fill:#006298;}.cls-12{fill:none;stroke:#3f3f3f;stroke-miterlimit:10;}</style></defs><title>animation_workflow</title><g id="small"><g class="cls-1"><rect class="cls-2" x="244.03" y="26.75" width="334" height="226.5"/></g><path class="cls-3" d="M361.48,26.72A5.22,5.22,0,0,1,359.75,31a7.37,7.37,0,0,1-4.92,1.47h-1.55v6.09h-3.64V21.38h5.48a7.35,7.35,0,0,1,4.74,1.34A4.89,4.89,0,0,1,361.48,26.72Zm-8.2,2.72h1.19a4,4,0,0,0,2.51-.66,2.77,2.77,0,0,0,.13-3.81,3.2,3.2,0,0,0-2.18-.61h-1.65Z" transform="translate(-26.64 -20.25)"/><path class="cls-3" d="M371.74,25.17a5.45,5.45,0,0,1,1.21.1l-.27,3.35a3.72,3.72,0,0,0-1.05-.12,3.87,3.87,0,0,0-2.67.88,3.15,3.15,0,0,0-.95,2.46v6.67h-3.58V25.41h2.71l.53,2.2h.17a5,5,0,0,1,1.65-1.77A4,4,0,0,1,371.74,25.17Z" transform="translate(-26.64 -20.25)"/><path class="cls-3" d="M381.26,38.75A6.74,6.74,0,0,1,376.32,37a6.6,6.6,0,0,1-1.79-4.94,7.27,7.27,0,0,1,1.65-5.1,5.88,5.88,0,0,1,4.55-1.8,5.75,5.75,0,0,1,4.33,1.59,6,6,0,0,1,1.54,4.37v1.73h-8.44a3.39,3.39,0,0,0,.9,2.38,3.17,3.17,0,0,0,2.36.86,9.93,9.93,0,0,0,2.24-.25,11.61,11.61,0,0,0,2.21-.78v2.76a8.49,8.49,0,0,1-2,.7A12.67,12.67,0,0,1,381.26,38.75Zm-.5-11a2.26,2.26,0,0,0-1.78.72,3.33,3.33,0,0,0-.74,2h5a2.92,2.92,0,0,0-.69-2,2.34,2.34,0,0,0-1.79-.76Z" transform="translate(-26.64 -20.25)"/><path class="cls-3" d="M388.35,33.54V30.61h6.29v2.93Z" transform="translate(-26.64 -20.25)"/><path class="cls-3" d="M409.35,26.72A5.22,5.22,0,0,1,407.62,31a7.4,7.4,0,0,1-4.91,1.47h-1.56v6.09h-3.64V21.38H403a7.35,7.35,0,0,1,4.74,1.34A4.89,4.89,0,0,1,409.35,26.72Zm-8.2,2.72h1.19a4,4,0,0,0,2.51-.66,2.3,2.3,0,0,0,.83-1.93A2.39,2.39,0,0,0,405,25a3.32,3.32,0,0,0-2.18-.6h-1.65Z" transform="translate(-26.64 -20.25)"/><path class="cls-3" d="M419.62,25.16a5.36,5.36,0,0,1,1.2.11l-.27,3.35a3.72,3.72,0,0,0-1.05-.12,3.87,3.87,0,0,0-2.67.88,3.23,3.23,0,0,0-.95,2.46v6.67H412.3V25.41H415l.53,2.2h.17a5,5,0,0,1,1.65-1.77A4.06,4.06,0,0,1,419.62,25.16Z" transform="translate(-26.64 -20.25)"/><path class="cls-3" d="M435.11,31.94a7,7,0,0,1-1.69,5,6.12,6.12,0,0,1-4.7,1.81,6.59,6.59,0,0,1-3.33-.83,5.44,5.44,0,0,1-2.21-2.37,7.91,7.91,0,0,1-.77-3.61,7,7,0,0,1,1.67-5,6.21,6.21,0,0,1,4.71-1.78,6.68,6.68,0,0,1,3.33.82,5.47,5.47,0,0,1,2.21,2.36A7.87,7.87,0,0,1,435.11,31.94Zm-9.06,0a5.47,5.47,0,0,0,.64,2.94,2.64,2.64,0,0,0,4.14,0,5.66,5.66,0,0,0,.62-2.94,5.41,5.41,0,0,0-.63-2.92,2.7,2.7,0,0,0-4.14,0A5.41,5.41,0,0,0,426.05,31.94Z" transform="translate(-26.64 -20.25)"/><path class="cls-3" d="M442.21,38.74A4.21,4.21,0,0,1,438.58,37a8.18,8.18,0,0,1-1.32-5,8.21,8.21,0,0,1,1.35-5,4.34,4.34,0,0,1,3.69-1.8,4.29,4.29,0,0,1,3.78,1.92h.11a14.27,14.27,0,0,1-.27-2.61V20.28h3.59V38.51h-2.74l-.69-1.7h-.16A4.07,4.07,0,0,1,442.21,38.74Zm1.25-2.84a2.4,2.4,0,0,0,2-.8,4.63,4.63,0,0,0,.7-2.71V32a5.41,5.41,0,0,0-.65-3,2.41,2.41,0,0,0-2.12-.91,2.1,2.1,0,0,0-1.85,1,5.51,5.51,0,0,0-.66,3,5.15,5.15,0,0,0,.66,2.9A2.22,2.22,0,0,0,443.46,35.9Z" transform="translate(-26.64 -20.25)"/><path class="cls-3" d="M462.53,38.51l-.48-1.68h-.19a3.74,3.74,0,0,1-1.63,1.42,5.49,5.49,0,0,1-2.4.49,4.57,4.57,0,0,1-3.48-1.23A5,5,0,0,1,453.18,34V25.41h3.57v7.65a3.69,3.69,0,0,0,.51,2.13,1.84,1.84,0,0,0,1.6.71,2.43,2.43,0,0,0,2.17-1,6.16,6.16,0,0,0,.67-3.32V25.41h3.57v13.1Z" transform="translate(-26.64 -20.25)"/><path class="cls-3" d="M474.34,38.74q-6.12,0-6.11-6.71a7.12,7.12,0,0,1,1.66-5.1,6.23,6.23,0,0,1,4.77-1.77,9.13,9.13,0,0,1,4.08.89l-1.06,2.77c-.56-.23-1.08-.41-1.57-.56a5.1,5.1,0,0,0-1.45-.22q-2.79,0-2.79,4c0,2.67.93,3.84,2.79,3.84a6.18,6.18,0,0,0,1.91-.28,6.69,6.69,0,0,0,1.76-.86V37.8a5.68,5.68,0,0,1-1.75.76A10.53,10.53,0,0,1,474.34,38.74Z" transform="translate(-26.64 -20.25)"/><path class="cls-3" d="M486.88,35.9a7.84,7.84,0,0,0,2.25-.41v2.66a8.19,8.19,0,0,1-3.28.59,4,4,0,0,1-3.12-1.08,4.76,4.76,0,0,1-1-3.25V28.09H480V26.58l2-1.2,1-2.76h2.28v2.79H489v2.68h-3.67v6.32a1.42,1.42,0,0,0,.43,1.12A1.74,1.74,0,0,0,486.88,35.9Z" transform="translate(-26.64 -20.25)"/><path class="cls-3" d="M491.63,22c0-1.16.65-1.75,1.94-1.75s1.95.59,1.95,1.75a1.7,1.7,0,0,1-.49,1.3,2.08,2.08,0,0,1-1.46.46C492.28,23.78,491.63,23.19,491.63,22Zm3.72,16.49h-3.57V25.41h3.57Z" transform="translate(-26.64 -20.25)"/><path class="cls-3" d="M511,31.93a7,7,0,0,1-1.69,5,6.12,6.12,0,0,1-4.7,1.8,6.62,6.62,0,0,1-3.32-.82,5.43,5.43,0,0,1-2.22-2.38,8,8,0,0,1-.77-3.61,7,7,0,0,1,1.67-5,6.13,6.13,0,0,1,4.71-1.78A6.55,6.55,0,0,1,508,26a5.56,5.56,0,0,1,2.22,2.36A8,8,0,0,1,511,31.93Zm-9.06,0a5.62,5.62,0,0,0,.64,3,2.64,2.64,0,0,0,4.14,0,5.6,5.6,0,0,0,.62-3,5.35,5.35,0,0,0-.63-2.91,2.64,2.64,0,0,0-4.14,0,5.44,5.44,0,0,0-.57,2.91Z" transform="translate(-26.64 -20.25)"/><path class="cls-3" d="M526.06,38.51h-3.58V30.86a3.7,3.7,0,0,0-.5-2.13,1.86,1.86,0,0,0-1.61-.71,2.4,2.4,0,0,0-2.16,1,6.16,6.16,0,0,0-.67,3.32v6.17H514V25.41h2.73l.48,1.67h.2A3.73,3.73,0,0,1,519,25.65a5.44,5.44,0,0,1,2.38-.49,4.58,4.58,0,0,1,3.47,1.24,4.94,4.94,0,0,1,1.21,3.6Z" transform="translate(-26.64 -20.25)"/><path class="cls-4" d="M31.9,103.76l1.91-8.4h3l-3.22,12.1v8.76H30v-8.76l-3.36-12.1h3.53Z" transform="translate(-26.64 -20.25)"/><path class="cls-4" d="M46.86,108.69c0,4.14-.06,7.84-5.18,7.84s-5.16-3.7-5.16-7.84.06-7.92,5.16-7.92S46.86,104.49,46.86,108.69Zm-6.89,0c0,4,.05,5.15,1.71,5.15s1.73-1.15,1.73-5.15,0-5.21-1.73-5.21S40,104.66,40,108.69Z" transform="translate(-26.64 -20.25)"/><path class="cls-4" d="M55,114.29a3.15,3.15,0,0,1-3.08,2.18c-2.66,0-3.33-2-3.33-4.06V101H52v11.59a1.09,1.09,0,0,0,1,1.16h.23c.65,0,1.12-.51,1.54-2V101H58.2v15.2H55.34A7.3,7.3,0,0,1,55,114.29Z" transform="translate(-26.64 -20.25)"/><path class="cls-4" d="M62.59,101a6.59,6.59,0,0,1,.28,2.07A3.59,3.59,0,0,1,66.48,101l-.28,3.39c-1.42,0-2.24.19-2.85,1.48V116.2H59.9V101Z" transform="translate(-26.64 -20.25)"/><path class="cls-4" d="M27.51,129H31.9c5.16,0,5.55,1.91,5.55,5.15,0,2.24-.7,4-2.72,4.48,2.49.54,3.36,2.33,3.36,4.85,0,3.58-.08,6.38-5.21,6.38H27.51Zm3.41,8.71h.93c2,0,2.1-1.12,2.1-3.25s-.11-2.74-1.91-2.74H30.92Zm0,9.49h1c2.61,0,2.69-1.06,2.69-3.58,0-2.35-.11-3.36-2.32-3.36H30.92Z" transform="translate(-26.64 -20.25)"/><path class="cls-4" d="M42.24,134.62a6.9,6.9,0,0,1,.28,2.07,3.59,3.59,0,0,1,3.61-2.07L45.85,138c-1.43,0-2.24.19-2.86,1.48v10.33H39.55v-15.2Z" transform="translate(-26.64 -20.25)"/><path class="cls-4" d="M50.58,131.51H47.16v-3.64h3.42Zm0,18.31H47.16v-15.2h3.42Z" transform="translate(-26.64 -20.25)"/><path class="cls-4" d="M52.59,149.82V127.87l3.45-.59v22.54Z" transform="translate(-26.64 -20.25)"/><path class="cls-4" d="M58.05,149.82V127.87l3.45-.59v22.54Z" transform="translate(-26.64 -20.25)"/><path class="cls-4" d="M66.93,131.51H63.51v-3.64h3.42Zm0,18.31H63.51v-15.2h3.42Z" transform="translate(-26.64 -20.25)"/><path class="cls-4" d="M77.77,139.8v6.58c0,1.09.5,1.2,1,1.2l-.28,2.24h-.67c-1.85,0-2.49-.73-2.69-1.26a3.27,3.27,0,0,1-3.22,1.57c-2.66,0-3.39-2.07-3.39-4.14,0-3.76.79-5.38,5.94-5.38v-1.2c0-1.71-.06-2.33-1.23-2.33-1,0-1.29.59-1.37,2.1L69,139c.2-3.17.76-4.59,4.17-4.59C77.07,134.37,77.77,136.19,77.77,139.8Zm-3.28,2.77c-2.27.14-2.58.73-2.58,3.19,0,1.37.23,1.82.93,1.82.89,0,1.43-.75,1.65-2.38Z" transform="translate(-26.64 -20.25)"/><path class="cls-4" d="M83,136.55a3.57,3.57,0,0,1,3.31-2.18c2.66,0,3.33,2,3.33,4.06v11.39H86.22V138.23c0-.84-.61-1.15-1.34-1.15s-1.15.51-1.65,2V149.8H79.78V134.6h2.86A9.18,9.18,0,0,1,83,136.55Z" transform="translate(-26.64 -20.25)"/><path class="cls-4" d="M95.07,134.62h3L97.79,137H95.07v8.79c0,.89.14,1.31.67,1.31s.73-.33,1.07-1.12l1.4,2.1A3.6,3.6,0,0,1,94.82,150c-2,0-3.19-1.12-3.19-3.69V137H90.48l.28-2.41h.87v-3.73l3.44-.56Z" transform="translate(-26.64 -20.25)"/><path class="cls-4" d="M31.12,162.56v20.86H27.51V162.56Z" transform="translate(-26.64 -20.25)"/><path class="cls-4" d="M42.85,183.42H40a7.88,7.88,0,0,1-.26-1.87,2.91,2.91,0,0,1-3,2.15c-3.67,0-3.86-3.41-3.86-7.31,0-5,.19-8.42,4.45-8.42a2,2,0,0,1,2.18,1.28v-7.78l3.36-.59Zm-6.52-7.17c0,3.48,0,4.79,1.12,4.79,1.45,0,1.79-1,2-2.52v-6.75c-.31-.75-.61-1.09-1.34-1.09C36.36,170.68,36.33,172.11,36.33,176.25Z" transform="translate(-26.64 -20.25)"/><path class="cls-4" d="M54.44,174.74v1.18h-6.6c0,2.77.08,5.12,2,5.12,1.46,0,1.68-.84,1.85-2.52l2.71.42c-.39,3.14-1.48,4.79-4.78,4.79-4.82,0-5.07-3.81-5.07-7.84,0-4.37.25-7.92,5-7.92S54.44,171.63,54.44,174.74Zm-6.55-.84h3.39c0-2.18-.06-3.53-1.68-3.53s-1.6,1.35-1.71,3.53Z" transform="translate(-26.64 -20.25)"/><path class="cls-4" d="M65,173.4V180c0,1.09.51,1.2,1,1.2l-.28,2.24h-.67c-1.85,0-2.5-.73-2.69-1.26a3.27,3.27,0,0,1-3.22,1.57c-2.66,0-3.39-2.07-3.39-4.14,0-3.76.78-5.38,5.94-5.38V173c0-1.71-.06-2.33-1.24-2.33-1,0-1.28.59-1.37,2.1l-2.88-.22c.19-3.17.75-4.59,4.17-4.59C64.27,168,65,169.79,65,173.4Zm-3.27,2.77c-2.27.14-2.58.73-2.58,3.19,0,1.37.22,1.82.92,1.82.9,0,1.43-.75,1.66-2.38Z" transform="translate(-26.64 -20.25)"/><path class="cls-4" d="M349.82,308.84a17.19,17.19,0,0,1,2.68-.21,4.38,4.38,0,0,1,3,.9,2.89,2.89,0,0,1,.94,2.26,3.14,3.14,0,0,1-.83,2.3,4.47,4.47,0,0,1-3.3,1.18,5.24,5.24,0,0,1-1.12-.09v4.32H349.8Zm1.39,5.2a5,5,0,0,0,1.16.11c1.68,0,2.7-.81,2.7-2.3s-1-2.11-2.54-2.11a5.32,5.32,0,0,0-1.32.11Z" transform="translate(-26.64 -20.25)"/><path class="cls-4" d="M358,314.17c0-.91,0-1.7-.06-2.42h1.23l.05,1.52h.06a2.32,2.32,0,0,1,2.15-1.69,1.34,1.34,0,0,1,.4,0V313a1.93,1.93,0,0,0-.48,0,2,2,0,0,0-1.89,1.8,3,3,0,0,0-.07.66v4.13H358Z" transform="translate(-26.64 -20.25)"/><path class="cls-4" d="M370.11,315.56a3.8,3.8,0,0,1-3.44,4.11h-.41a3.69,3.69,0,0,1-3.73-3.65c0-.11,0-.23,0-.35a3.79,3.79,0,0,1,3.43-4.1h.41a3.65,3.65,0,0,1,3.74,3.57A3,3,0,0,1,370.11,315.56Zm-6.14.08c0,1.7,1,3,2.35,3s2.35-1.26,2.35-3c0-1.31-.65-3-2.32-3s-2.35,1.53-2.35,3Z" transform="translate(-26.64 -20.25)"/><path class="cls-4" d="M378.58,308.13v9.37c0,.69,0,1.47.06,2h-1.26l-.07-1.34h0a2.87,2.87,0,0,1-2.64,1.52c-1.87,0-3.31-1.59-3.31-3.94,0-2.58,1.58-4.16,3.47-4.16a2.64,2.64,0,0,1,2.34,1.18h0v-4.63Zm-1.41,6.78a2.46,2.46,0,0,0-.07-.6,2.05,2.05,0,0,0-2-1.63c-1.46,0-2.32,1.28-2.32,3s.77,2.87,2.29,2.87a2.1,2.1,0,0,0,2.06-1.68,2.48,2.48,0,0,0,.07-.61Z" transform="translate(-26.64 -20.25)"/><path class="cls-4" d="M387.39,317.39a19.41,19.41,0,0,0,.07,2.11h-1.25l-.08-1.26h0a3,3,0,0,1-2.57,1.44c-1.21,0-2.67-.68-2.67-3.4v-4.53h1.41V316c0,1.48.45,2.47,1.73,2.47a2.06,2.06,0,0,0,1.86-1.28,2.18,2.18,0,0,0,.12-.72v-4.76h1.41Z" transform="translate(-26.64 -20.25)"/><path class="cls-4" d="M395.25,319.21a5.33,5.33,0,0,1-2.23.45,3.68,3.68,0,0,1-3.86-3.49,2.9,2.9,0,0,1,0-.51,3.94,3.94,0,0,1,3.75-4.12,2.81,2.81,0,0,1,.41,0,4.67,4.67,0,0,1,1.95.4L395,313a3.28,3.28,0,0,0-1.63-.37,2.69,2.69,0,0,0-2.75,2.63c0,.1,0,.2,0,.3a2.65,2.65,0,0,0,2.39,2.89h.3a4.12,4.12,0,0,0,1.73-.38Z" transform="translate(-26.64 -20.25)"/><path class="cls-4" d="M398.8,309.53v2.22h2v1.08h-2V317c0,1,.27,1.51,1.05,1.51a3.23,3.23,0,0,0,.82-.1l.06,1.06a3.5,3.5,0,0,1-1.24.19,2,2,0,0,1-1.52-.59,2.92,2.92,0,0,1-.55-2v-4.22h-1.2v-1.08h1.2V309.9Z" transform="translate(-26.64 -20.25)"/><path class="cls-4" d="M404,309.58a.88.88,0,0,1-1,.78.87.87,0,0,1-.78-.78.86.86,0,0,1,.84-.88h0a.84.84,0,0,1,.87.81Zm-1.57,9.92v-7.75h1.41v7.75Z" transform="translate(-26.64 -20.25)"/><path class="cls-4" d="M413.15,315.56a3.8,3.8,0,0,1-3.44,4.11h-.42a3.69,3.69,0,0,1-3.72-3.66c0-.11,0-.23,0-.34a3.79,3.79,0,0,1,3.43-4.1h.41a3.65,3.65,0,0,1,3.74,3.57A3,3,0,0,1,413.15,315.56Zm-6.14.08c0,1.7,1,3,2.35,3s2.35-1.26,2.35-3c0-1.31-.65-3-2.32-3s-2.39,1.53-2.39,3Z" transform="translate(-26.64 -20.25)"/><path class="cls-4" d="M414.93,313.85a19.5,19.5,0,0,0-.07-2.1h1.25l.08,1.28h0a2.85,2.85,0,0,1,2.56-1.45c1.08,0,2.74.64,2.74,3.29v4.63h-1.41V315c0-1.24-.46-2.28-1.79-2.28a2,2,0,0,0-1.89,1.44,2.05,2.05,0,0,0-.1.65v4.66h-1.4Z" transform="translate(-26.64 -20.25)"/><path class="cls-4" d="M427.24,308.86a20.1,20.1,0,0,1,3-.23,6.21,6.21,0,0,1,4.37,1.35,5,5,0,0,1,1.52,3.87,5.71,5.71,0,0,1-1.56,4.19,6.58,6.58,0,0,1-4.77,1.56,23.68,23.68,0,0,1-2.53-.13Zm1.4,9.54a9.53,9.53,0,0,0,1.41.08c3,0,4.59-1.67,4.59-4.58,0-2.55-1.42-4.16-4.37-4.16a8.1,8.1,0,0,0-1.63.14Z" transform="translate(-26.64 -20.25)"/><path class="cls-4" d="M438.7,315.88a2.49,2.49,0,0,0,2.25,2.69h.41a4.94,4.94,0,0,0,2.14-.4l.24,1a6.28,6.28,0,0,1-2.57.48,3.61,3.61,0,0,1-3.82-3.37,3.25,3.25,0,0,1,0-.54c0-2.33,1.37-4.17,3.63-4.17,2.53,0,3.2,2.22,3.2,3.65a4.74,4.74,0,0,1-.05.65Zm4.13-1a2,2,0,0,0-1.69-2.27l-.26,0a2.34,2.34,0,0,0-2.16,2.29Z" transform="translate(-26.64 -20.25)"/><path class="cls-4" d="M445.74,318.06a3.71,3.71,0,0,0,1.86.56c1,0,1.5-.51,1.5-1.15s-.4-1-1.44-1.43c-1.39-.49-2.05-1.26-2.05-2.19a2.4,2.4,0,0,1,2.49-2.29l.19,0a3.83,3.83,0,0,1,1.9.48l-.35,1a3.08,3.08,0,0,0-1.59-.45c-.83,0-1.29.48-1.29,1.06s.46.93,1.47,1.31c1.34.51,2,1.19,2,2.34,0,1.36-1,2.32-2.89,2.32a4.48,4.48,0,0,1-2.18-.53Z" transform="translate(-26.64 -20.25)"/><path class="cls-4" d="M453.84,309.58a.88.88,0,0,1-1,.78.87.87,0,0,1-.78-.78.86.86,0,0,1,.84-.88h0a.84.84,0,0,1,.87.81Zm-1.57,9.92v-7.75h1.41v7.75Z" transform="translate(-26.64 -20.25)"/><path class="cls-4" d="M462.69,311.75c0,.56-.07,1.19-.07,2.13v4.5c0,1.78-.35,2.86-1.1,3.54a4.13,4.13,0,0,1-2.82.93,5.07,5.07,0,0,1-2.58-.64l.36-1.08a4.32,4.32,0,0,0,2.27.61c1.44,0,2.5-.75,2.5-2.7v-.87h0a2.76,2.76,0,0,1-2.46,1.3c-1.92,0-3.3-1.63-3.3-3.78,0-2.62,1.71-4.11,3.49-4.11a2.58,2.58,0,0,1,2.42,1.34h0l.06-1.17Zm-1.46,3.06a2,2,0,0,0-.08-.64,2,2,0,0,0-2-1.49c-1.34,0-2.3,1.14-2.3,2.93,0,1.52.77,2.79,2.29,2.79a2.07,2.07,0,0,0,1.95-1.44,2.45,2.45,0,0,0,.11-.76Z" transform="translate(-26.64 -20.25)"/><path class="cls-4" d="M464.86,313.85c0-.8,0-1.46-.06-2.1H466l.08,1.28h0a2.85,2.85,0,0,1,2.56-1.45c1.07,0,2.74.64,2.74,3.29v4.63H470V315c0-1.24-.47-2.28-1.8-2.28a2,2,0,0,0-1.89,1.44,2.37,2.37,0,0,0-.09.65v4.66h-1.41Z" transform="translate(-26.64 -20.25)"/><path class="cls-4" d="M472.83,321.47a24.24,24.24,0,0,0,1-3.83l1.57-.16a20,20,0,0,1-1.52,3.89Z" transform="translate(-26.64 -20.25)"/><path class="cls-4" d="M488,319.15a6.93,6.93,0,0,1-2.85.51,5.06,5.06,0,0,1-5.33-5.46,5.36,5.36,0,0,1,5-5.66q.3,0,.6,0A5.62,5.62,0,0,1,488,309l-.34,1.13a5.13,5.13,0,0,0-2.18-.45c-2.53,0-4.21,1.62-4.21,4.45,0,2.64,1.52,4.34,4.15,4.34a5.54,5.54,0,0,0,2.27-.45Z" transform="translate(-26.64 -20.25)"/><path class="cls-4" d="M489.72,308.13h1.41V313h0a2.67,2.67,0,0,1,1-1,2.92,2.92,0,0,1,1.44-.4c1,0,2.71.64,2.71,3.31v4.61h-1.41v-4.45c0-1.25-.46-2.3-1.79-2.3a2,2,0,0,0-1.89,1.4,1.76,1.76,0,0,0-.1.68v4.67h-1.41Z" transform="translate(-26.64 -20.25)"/><path class="cls-4" d="M502.89,319.5l-.11-1h0a2.88,2.88,0,0,1-2.37,1.16,2.21,2.21,0,0,1-2.35-2.05,1.09,1.09,0,0,1,0-.18c0-1.87,1.66-2.9,4.65-2.88v-.16a1.59,1.59,0,0,0-1.37-1.79,1.7,1.7,0,0,0-.39,0,3.81,3.81,0,0,0-2,.57l-.32-.92a4.83,4.83,0,0,1,2.54-.69c2.37,0,2.95,1.61,2.95,3.17v2.89a11.62,11.62,0,0,0,.12,1.86Zm-.2-3.95c-1.54,0-3.29.24-3.29,1.74a1.25,1.25,0,0,0,1.14,1.35h.19a1.92,1.92,0,0,0,1.87-1.3,1.39,1.39,0,0,0,.09-.45Z" transform="translate(-26.64 -20.25)"/><path class="cls-4" d="M506.32,314.17c0-.91,0-1.7-.07-2.42h1.23v1.52h.07a2.31,2.31,0,0,1,2.14-1.69,1.34,1.34,0,0,1,.4,0V313a1.93,1.93,0,0,0-.48,0,2,2,0,0,0-1.89,1.8,3.68,3.68,0,0,0-.06.66v4.13h-1.39Z" transform="translate(-26.64 -20.25)"/><path class="cls-4" d="M515.76,319.5l-.11-1h0a2.88,2.88,0,0,1-2.37,1.16,2.2,2.2,0,0,1-2.36-2,1.28,1.28,0,0,1,0-.19c0-1.87,1.66-2.9,4.66-2.88v-.16a1.6,1.6,0,0,0-1.39-1.79,2.29,2.29,0,0,0-.37,0,3.81,3.81,0,0,0-2,.57l-.32-.92a4.85,4.85,0,0,1,2.54-.69c2.37,0,3,1.61,3,3.17v2.89a10.51,10.51,0,0,0,.13,1.86Zm-.21-3.95c-1.54,0-3.28.24-3.28,1.74a1.25,1.25,0,0,0,1.14,1.35h.19a1.94,1.94,0,0,0,1.87-1.3,1.38,1.38,0,0,0,.08-.45Z" transform="translate(-26.64 -20.25)"/><path class="cls-4" d="M524.7,319.21a5.31,5.31,0,0,1-2.22.45,3.68,3.68,0,0,1-3.87-3.48,3,3,0,0,1,0-.52,3.94,3.94,0,0,1,3.75-4.12,2.81,2.81,0,0,1,.41,0,4.74,4.74,0,0,1,2,.4l-.32,1.09a3.28,3.28,0,0,0-1.63-.37,2.92,2.92,0,0,0,0,5.83,4.12,4.12,0,0,0,1.73-.38Z" transform="translate(-26.64 -20.25)"/><path class="cls-4" d="M528.25,309.53v2.22h2v1.08h-2V317c0,1,.27,1.51,1.06,1.51a3.15,3.15,0,0,0,.81-.1l.07,1.06a3.55,3.55,0,0,1-1.25.19,2,2,0,0,1-1.52-.59,2.92,2.92,0,0,1-.54-2v-4.22h-1.21v-1.08h1.21V309.9Z" transform="translate(-26.64 -20.25)"/><path class="cls-4" d="M532.54,315.88a2.49,2.49,0,0,0,2.25,2.69h.41a4.94,4.94,0,0,0,2.14-.4l.24,1a6.36,6.36,0,0,1-2.58.48,3.6,3.6,0,0,1-3.81-3.36,3.37,3.37,0,0,1,0-.55c0-2.33,1.37-4.17,3.63-4.17,2.53,0,3.2,2.22,3.2,3.65a3.53,3.53,0,0,1,0,.65Zm4.13-1a2,2,0,0,0-1.69-2.27l-.26,0a2.34,2.34,0,0,0-2.16,2.29Z" transform="translate(-26.64 -20.25)"/><path class="cls-4" d="M539.77,314.17c0-.91,0-1.7-.06-2.42h1.23v1.52H541a2.32,2.32,0,0,1,2.15-1.69,1.34,1.34,0,0,1,.4,0V313a1.93,1.93,0,0,0-.48,0,2,2,0,0,0-1.89,1.8,4.93,4.93,0,0,0-.07.66v4.13h-1.39Z" transform="translate(-26.64 -20.25)"/><path class="cls-4" d="M548.44,308.86a20.1,20.1,0,0,1,3-.23,6.16,6.16,0,0,1,4.37,1.35,5,5,0,0,1,1.52,3.87,5.66,5.66,0,0,1-1.55,4.19A6.61,6.61,0,0,1,551,319.6a23.68,23.68,0,0,1-2.53-.13Zm1.4,9.54a9.32,9.32,0,0,0,1.4.08c3,0,4.6-1.67,4.6-4.58,0-2.55-1.43-4.16-4.37-4.16a8.1,8.1,0,0,0-1.63.14Z" transform="translate(-26.64 -20.25)"/><path class="cls-4" d="M559.9,315.88a2.49,2.49,0,0,0,2.25,2.69h.41a4.94,4.94,0,0,0,2.14-.4l.24,1a6.36,6.36,0,0,1-2.58.48,3.61,3.61,0,0,1-3.82-3.37,3.25,3.25,0,0,1,0-.54c0-2.33,1.38-4.17,3.64-4.17,2.53,0,3.2,2.22,3.2,3.65a3.53,3.53,0,0,1,0,.65Zm4.13-1a2,2,0,0,0-1.69-2.27l-.26,0a2.34,2.34,0,0,0-2.16,2.29Z" transform="translate(-26.64 -20.25)"/><path class="cls-4" d="M566.94,318.06a3.68,3.68,0,0,0,1.85.56c1,0,1.51-.51,1.51-1.15s-.4-1-1.44-1.43c-1.39-.49-2.05-1.26-2.05-2.19a2.38,2.38,0,0,1,2.49-2.28h.18a3.84,3.84,0,0,1,1.91.48l-.35,1a3.08,3.08,0,0,0-1.59-.45c-.83,0-1.3.48-1.3,1.06s.47.93,1.48,1.31c1.34.51,2,1.19,2,2.34,0,1.36-1.06,2.32-2.9,2.32a4.44,4.44,0,0,1-2.17-.53Z" transform="translate(-26.64 -20.25)"/><path class="cls-4" d="M575,309.58a.88.88,0,0,1-1,.78.87.87,0,0,1-.78-.78.86.86,0,0,1,.84-.88h0a.84.84,0,0,1,.87.81Zm-1.57,9.92v-7.75h1.41v7.75Z" transform="translate(-26.64 -20.25)"/><path class="cls-4" d="M583.88,311.75c0,.56-.06,1.19-.06,2.13v4.5c0,1.78-.35,2.86-1.1,3.54a4.13,4.13,0,0,1-2.82.93,5.07,5.07,0,0,1-2.58-.64l.35-1.08a4.36,4.36,0,0,0,2.28.61c1.44,0,2.49-.75,2.49-2.7v-.87h0a2.76,2.76,0,0,1-2.46,1.3c-1.92,0-3.3-1.63-3.3-3.78,0-2.62,1.71-4.11,3.49-4.11a2.58,2.58,0,0,1,2.42,1.34h0l.06-1.17Zm-1.45,3.06a2,2,0,0,0-.08-.64,2,2,0,0,0-2-1.49c-1.34,0-2.31,1.14-2.31,2.93,0,1.52.77,2.79,2.29,2.79a2.07,2.07,0,0,0,2-1.44,2.79,2.79,0,0,0,.11-.76Z" transform="translate(-26.64 -20.25)"/><path class="cls-4" d="M586.06,313.85a19.5,19.5,0,0,0-.07-2.1h1.25l.08,1.28h0a2.86,2.86,0,0,1,2.57-1.45c1.07,0,2.73.64,2.73,3.29v4.63h-1.41V315c0-1.24-.46-2.28-1.79-2.28a2,2,0,0,0-1.89,1.44,2.37,2.37,0,0,0-.09.65v4.66H586Z" transform="translate(-26.64 -20.25)"/><path class="cls-4" d="M429.82,338.7c-.31-.3-.6-.61-1-1.06a4.43,4.43,0,0,1-3.16,1.24,3.05,3.05,0,0,1-3.3-2.78,1.62,1.62,0,0,1,0-.22,3.54,3.54,0,0,1,2.11-3.15v-.05a3.69,3.69,0,0,1-.89-2.26,2.61,2.61,0,0,1,2.57-2.65h.16a2.25,2.25,0,0,1,2.39,2.08v.21c0,1.13-.66,2-2.37,2.88h0c.91,1.06,1.94,2.25,2.63,3a8,8,0,0,0,1-3.15h1.28a8.1,8.1,0,0,1-1.56,4c.58.61,1.14,1.22,1.78,1.91Zm-1.7-1.86c-.64-.7-1.84-2-3-3.39a2.66,2.66,0,0,0-1.39,2.19,2.13,2.13,0,0,0,2.08,2.18h.12a3,3,0,0,0,2.19-1Zm-3.28-6.58a3.05,3.05,0,0,0,.81,1.94c1.09-.62,1.8-1.2,1.8-2.11a1.26,1.26,0,0,0-1.14-1.38h-.11a1.4,1.4,0,0,0-1.37,1.43s0,.09,0,.13Z" transform="translate(-26.64 -20.25)"/><path class="cls-4" d="M437.88,335.31l-1.12,3.39h-1.44L439,327.91h1.68l3.68,10.79h-1.48l-1.16-3.39Zm3.53-1.09-1.05-3.11c-.24-.7-.4-1.34-.56-2h0c-.16.65-.34,1.3-.55,2l-1.05,3.12Z" transform="translate(-26.64 -20.25)"/><path class="cls-4" d="M445.83,333.37c0-.91,0-1.7-.07-2.42H447v1.52h.07a2.31,2.31,0,0,1,2.14-1.69,1.07,1.07,0,0,1,.4.05v1.32a1.93,1.93,0,0,0-.48,0,2,2,0,0,0-1.88,1.8,3,3,0,0,0-.07.66v4.13h-1.39Z" transform="translate(-26.64 -20.25)"/><path class="cls-4" d="M453.14,328.73V331h2v1h-2v4.17c0,1,.27,1.51,1.06,1.51a3.15,3.15,0,0,0,.81-.1l.07,1.06a3.55,3.55,0,0,1-1.25.19,2,2,0,0,1-1.52-.59,2.92,2.92,0,0,1-.55-2V332h-1.2v-1h1.2v-1.9Z" transform="translate(-26.64 -20.25)"/><path class="cls-4" d="M460.18,328.06a20.1,20.1,0,0,1,3-.23,6.16,6.16,0,0,1,4.37,1.35,5,5,0,0,1,1.52,3.87,5.66,5.66,0,0,1-1.55,4.19,6.67,6.67,0,0,1-4.77,1.56,23.68,23.68,0,0,1-2.53-.13Zm1.39,9.54a9.53,9.53,0,0,0,1.41.08c3,0,4.6-1.67,4.6-4.58,0-2.55-1.43-4.16-4.37-4.16a8.2,8.2,0,0,0-1.64.14Z" transform="translate(-26.64 -20.25)"/><path class="cls-4" d="M472.36,328.78a.88.88,0,0,1-1,.78.87.87,0,0,1-.78-.78.86.86,0,0,1,.84-.88h0a.84.84,0,0,1,.87.81Zm-1.57,9.92V331h1.41v7.75Z" transform="translate(-26.64 -20.25)"/><path class="cls-4" d="M474.53,333.37c0-.91,0-1.7-.06-2.42h1.23l.05,1.52h.06a2.32,2.32,0,0,1,2.15-1.69,1.07,1.07,0,0,1,.4.05v1.32a1.93,1.93,0,0,0-.48,0A2,2,0,0,0,476,334a4.93,4.93,0,0,0-.07.66v4.13h-1.39Z" transform="translate(-26.64 -20.25)"/><path class="cls-4" d="M480.39,335.08a2.49,2.49,0,0,0,2.25,2.69h.41a4.94,4.94,0,0,0,2.14-.4l.24,1a6.36,6.36,0,0,1-2.58.48,3.6,3.6,0,0,1-3.85-3.33,4.51,4.51,0,0,1,0-.52c0-2.34,1.38-4.18,3.64-4.18,2.53,0,3.2,2.22,3.2,3.65a4.74,4.74,0,0,1,0,.65Zm4.13-1a2,2,0,0,0-1.7-2.26l-.25,0a2.34,2.34,0,0,0-2.17,2.28Z" transform="translate(-26.64 -20.25)"/><path class="cls-4" d="M493.14,338.41a5.31,5.31,0,0,1-2.22.45,3.69,3.69,0,0,1-3.87-3.48c0-.16,0-.32,0-.47a3.94,3.94,0,0,1,3.75-4.12,2.81,2.81,0,0,1,.41,0,4.67,4.67,0,0,1,1.95.4l-.32,1.09a3.28,3.28,0,0,0-1.63-.37,2.92,2.92,0,0,0-.05,5.83,4.12,4.12,0,0,0,1.73-.38Z" transform="translate(-26.64 -20.25)"/><path class="cls-4" d="M496.69,328.73V331h2v1h-2v4.17c0,1,.27,1.51,1.06,1.51a3.15,3.15,0,0,0,.81-.1l.07,1.06a3.55,3.55,0,0,1-1.25.19,2,2,0,0,1-1.52-.59,2.92,2.92,0,0,1-.54-2V332h-1.2v-1h1.2v-1.9Z" transform="translate(-26.64 -20.25)"/><path class="cls-4" d="M501.86,328.78a.87.87,0,0,1-1.74,0,.85.85,0,0,1,.82-.88H501a.83.83,0,0,1,.86.8Zm-1.57,9.92V331h1.41v7.75Z" transform="translate(-26.64 -20.25)"/><path class="cls-4" d="M511.05,334.76a3.8,3.8,0,0,1-3.44,4.11h-.42a3.68,3.68,0,0,1-3.72-3.64,2.17,2.17,0,0,1,0-.36,3.79,3.79,0,0,1,3.43-4.1h.41a3.67,3.67,0,0,1,3.74,3.6A2.54,2.54,0,0,1,511.05,334.76Zm-6.15.08c0,1.7,1,3,2.35,3s2.36-1.27,2.36-3c0-1.31-.66-3-2.33-3S504.9,333.37,504.9,334.84Z" transform="translate(-26.64 -20.25)"/><path class="cls-4" d="M512.82,333.05a19.5,19.5,0,0,0-.07-2.1H514l.08,1.28h0a2.85,2.85,0,0,1,2.56-1.45c1.07,0,2.73.64,2.73,3.29v4.63H518v-4.47c0-1.24-.46-2.28-1.79-2.28a2,2,0,0,0-1.89,1.44,2.37,2.37,0,0,0-.09.65v4.66h-1.41Z" transform="translate(-26.64 -20.25)"/><path class="cls-3" d="M404.21,71.5H402.7l1.72-8c.35-1.53.6-2.59.77-3.16a6.84,6.84,0,0,1-1.22,1l-1.56,1-.7-1.11,3.94-2.5H407Z" transform="translate(-26.64 -20.25)"/><path class="cls-3" d="M409.44,67.38l.31-1.39H414l-.3,1.39Z" transform="translate(-26.64 -20.25)"/><path class="cls-3" d="M424,61.31a3.29,3.29,0,0,1-.88,2.33,4.32,4.32,0,0,1-2.47,1.23V65a2.89,2.89,0,0,1,1.72.94,2.78,2.78,0,0,1,.62,1.83,3.83,3.83,0,0,1-.54,2.06,3.69,3.69,0,0,1-1.59,1.39,5.62,5.62,0,0,1-2.49.51A8.18,8.18,0,0,1,415,71V69.56a7.79,7.79,0,0,0,1.74.66,6.74,6.74,0,0,0,1.67.24,3.25,3.25,0,0,0,2.22-.7,2.4,2.4,0,0,0,.79-1.91,2.18,2.18,0,0,0-.69-1.75,2.94,2.94,0,0,0-1.94-.59h-1.15l.27-1.26h1.23a3.72,3.72,0,0,0,2.4-.76,2.44,2.44,0,0,0,1-2,1.66,1.66,0,0,0-.51-1.28,1.93,1.93,0,0,0-1.38-.48,4,4,0,0,0-1.38.24,6.9,6.9,0,0,0-1.54.82l-.7-1a6.13,6.13,0,0,1,3.73-1.26,3.5,3.5,0,0,1,2.43.76A2.6,2.6,0,0,1,424,61.31Z" transform="translate(-26.64 -20.25)"/><path class="cls-3" d="M436.47,71.5l-.28-5.29V63.33h-.08l-.44,1L434.9,66l-2.56,5.48h-1.77l-.38-9.63h1.44l.16,5.22v.77c0,.86,0,1.65-.07,2.37h0c.28-.73.68-1.67,1.21-2.83l2.59-5.53h1.6l.32,5.22c0,1,.06,1.75.06,2.3v.84h.05c.17-.51.41-1.15.73-1.92s1.27-2.93,2.84-6.44h1.57l-4.45,9.63Z" transform="translate(-26.64 -20.25)"/><path class="cls-3" d="M446.39,71.68a3.36,3.36,0,0,1-2.54-1,3.66,3.66,0,0,1-.92-2.66,7.81,7.81,0,0,1,.65-3.16,5.89,5.89,0,0,1,1.74-2.36,3.75,3.75,0,0,1,2.38-.85,3,3,0,0,1,2,.59,2,2,0,0,1,.68,1.63,2.79,2.79,0,0,1-1.46,2.48,8.09,8.09,0,0,1-4.18.9h-.29V68a2.7,2.7,0,0,0,.54,1.8,2.06,2.06,0,0,0,1.67.65,4.82,4.82,0,0,0,1.14-.16,9.65,9.65,0,0,0,1.46-.58V71a7.77,7.77,0,0,1-1.46.54A6.08,6.08,0,0,1,446.39,71.68ZM447.61,63a2.33,2.33,0,0,0-1.7.82,5.51,5.51,0,0,0-1.22,2.3h.11a7.31,7.31,0,0,0,3.07-.52A1.64,1.64,0,0,0,448.94,64a1,1,0,0,0-.32-.77,1.4,1.4,0,0,0-1-.26Z" transform="translate(-26.64 -20.25)"/><path class="cls-3" d="M455.27,71.68a3.36,3.36,0,0,1-2.54-1A3.66,3.66,0,0,1,451.8,68a7.82,7.82,0,0,1,.66-3.16,5.71,5.71,0,0,1,1.73-2.36,3.77,3.77,0,0,1,2.39-.85,3,3,0,0,1,2,.59,2,2,0,0,1,.67,1.63,2.79,2.79,0,0,1-1.46,2.48,8,8,0,0,1-4.17.9h-.29V68a2.71,2.71,0,0,0,.55,1.8,2,2,0,0,0,1.67.65,4.82,4.82,0,0,0,1.14-.16,9.53,9.53,0,0,0,1.45-.58V71a7.77,7.77,0,0,1-1.46.54A6.08,6.08,0,0,1,455.27,71.68ZM456.49,63a2.33,2.33,0,0,0-1.7.82,5.51,5.51,0,0,0-1.22,2.3h.11a7.31,7.31,0,0,0,3.07-.52A1.65,1.65,0,0,0,457.81,64a1,1,0,0,0-.32-.77,1.38,1.38,0,0,0-1-.26Z" transform="translate(-26.64 -20.25)"/><path class="cls-3" d="M462.72,66.59l4.62-4.72h1.77L465,66l2.59,5.53H466l-2.07-4.61L462.53,68l-.72,3.52h-1.49l2.9-13.68h1.49l-1.13,5.3a30,30,0,0,1-.9,3.47Z" transform="translate(-26.64 -20.25)"/><path class="cls-3" d="M475.06,68.77a2.59,2.59,0,0,1-1,2.14,4.32,4.32,0,0,1-2.74.77,5.91,5.91,0,0,1-2.68-.61V69.68a5.24,5.24,0,0,0,1.33.57,4.48,4.48,0,0,0,1.31.2A2.56,2.56,0,0,0,473,70a1.36,1.36,0,0,0,.57-1.12,1.19,1.19,0,0,0-.31-.84,6.16,6.16,0,0,0-1.33-.94,5.33,5.33,0,0,1-1.61-1.26,2.33,2.33,0,0,1-.48-1.46,2.48,2.48,0,0,1,.89-2,3.54,3.54,0,0,1,2.34-.74,6.78,6.78,0,0,1,2.9.65l-.48,1.21-.49-.22a4.75,4.75,0,0,0-1.93-.38,2,2,0,0,0-1.29.38,1.24,1.24,0,0,0-.46,1,1.19,1.19,0,0,0,.31.84,5.57,5.57,0,0,0,1.29.91,8.13,8.13,0,0,1,1.35.9,2.74,2.74,0,0,1,.61.82A2.23,2.23,0,0,1,475.06,68.77Z" transform="translate(-26.64 -20.25)"/><g class="cls-1"><rect class="cls-5" x="594.71" y="26.75" width="220" height="226.5"/></g><path class="cls-6" d="M679.08,26.71a5.19,5.19,0,0,1-1.73,4.23,7.4,7.4,0,0,1-4.91,1.47h-1.56V38.5h-3.63V21.37h5.47a7.29,7.29,0,0,1,4.74,1.34A4.89,4.89,0,0,1,679.08,26.71Zm-8.2,2.72h1.19a4,4,0,0,0,2.51-.66,2.3,2.3,0,0,0,.83-1.93,2.35,2.35,0,0,0-.69-1.88,3.23,3.23,0,0,0-2.19-.61h-1.65Z" transform="translate(-26.64 -20.25)"/><path class="cls-6" d="M689.35,25.15a5.42,5.42,0,0,1,1.2.11l-.26,3.35a3.79,3.79,0,0,0-1.06-.12,3.87,3.87,0,0,0-2.67.88,3.23,3.23,0,0,0-.95,2.46V38.5H682V25.4h2.7l.53,2.2h.18a4.81,4.81,0,0,1,1.64-1.77A4.08,4.08,0,0,1,689.35,25.15Z" transform="translate(-26.64 -20.25)"/><path class="cls-6" d="M704.84,31.93a7,7,0,0,1-1.69,5,6.12,6.12,0,0,1-4.7,1.81,6.69,6.69,0,0,1-3.33-.83,5.5,5.5,0,0,1-2.21-2.37,7.91,7.91,0,0,1-.77-3.61,7,7,0,0,1,1.67-5,6.17,6.17,0,0,1,4.71-1.79,6.68,6.68,0,0,1,3.33.82,5.56,5.56,0,0,1,2.22,2.36A8,8,0,0,1,704.84,31.93Zm-9.06,0a5.47,5.47,0,0,0,.64,2.94,2.31,2.31,0,0,0,2.08,1,2.25,2.25,0,0,0,2.06-1,5.66,5.66,0,0,0,.62-2.94,5.41,5.41,0,0,0-.63-2.92,2.64,2.64,0,0,0-4.14,0A5.41,5.41,0,0,0,695.78,31.93Z" transform="translate(-26.64 -20.25)"/><path class="cls-6" d="M711.94,38.74a4.27,4.27,0,0,1-3.63-1.8A8.3,8.3,0,0,1,707,32a8.26,8.26,0,0,1,1.34-5,4.34,4.34,0,0,1,3.7-1.8,4.26,4.26,0,0,1,3.77,1.93h.12a14.37,14.37,0,0,1-.27-2.62V20.27h3.58V38.5H716.5l-.69-1.7h-.15A4.11,4.11,0,0,1,711.94,38.74Zm1.26-2.85a2.45,2.45,0,0,0,2-.8,4.7,4.7,0,0,0,.69-2.71V32a5.31,5.31,0,0,0-.65-3,2.42,2.42,0,0,0-2.11-.91,2.13,2.13,0,0,0-1.86,1,5.51,5.51,0,0,0-.66,3,5.08,5.08,0,0,0,.67,2.9A2.15,2.15,0,0,0,713.2,35.89Z" transform="translate(-26.64 -20.25)"/><path class="cls-6" d="M732.26,38.5l-.48-1.67h-.19A3.72,3.72,0,0,1,730,38.24a5.65,5.65,0,0,1-2.4.5,4.62,4.62,0,0,1-3.48-1.24,5,5,0,0,1-1.17-3.56V25.4h3.57v7.65a3.69,3.69,0,0,0,.51,2.13,1.84,1.84,0,0,0,1.6.71,2.43,2.43,0,0,0,2.17-1,6.21,6.21,0,0,0,.67-3.33V25.4H735V38.5Z" transform="translate(-26.64 -20.25)"/><path class="cls-6" d="M744.07,38.73Q738,38.73,738,32a7.12,7.12,0,0,1,1.66-5.1,6.23,6.23,0,0,1,4.77-1.77,9.13,9.13,0,0,1,4.08.89l-1.06,2.77c-.56-.23-1.08-.41-1.57-.56a5.09,5.09,0,0,0-1.45-.21q-2.79,0-2.79,4t2.79,3.84a6.18,6.18,0,0,0,1.91-.28,6.69,6.69,0,0,0,1.76-.86v3.06a5.68,5.68,0,0,1-1.75.76A10.28,10.28,0,0,1,744.07,38.73Z" transform="translate(-26.64 -20.25)"/><path class="cls-6" d="M756.61,35.89a7.84,7.84,0,0,0,2.25-.41v2.66a8,8,0,0,1-3.28.59,4,4,0,0,1-3.12-1.08,4.76,4.76,0,0,1-1-3.25V28.08h-1.71V26.57l2-1.19,1-2.77H755V25.4h3.67v2.68H755V34.4a1.42,1.42,0,0,0,.43,1.12A1.64,1.64,0,0,0,756.61,35.89Z" transform="translate(-26.64 -20.25)"/><path class="cls-6" d="M761.36,22c0-1.16.65-1.74,1.94-1.74s2,.58,2,1.74a1.7,1.7,0,0,1-.49,1.3,2,2,0,0,1-1.46.46C762,23.77,761.36,23.18,761.36,22Zm3.73,16.49h-3.58V25.4h3.58Z" transform="translate(-26.64 -20.25)"/><path class="cls-6" d="M780.74,31.93a7,7,0,0,1-1.69,5,6.12,6.12,0,0,1-4.69,1.8,6.58,6.58,0,0,1-3.33-.82,5.49,5.49,0,0,1-2.22-2.38,8,8,0,0,1-.77-3.6,7.07,7.07,0,0,1,1.67-5,6.2,6.2,0,0,1,4.72-1.78,6.65,6.65,0,0,1,3.32.82A5.46,5.46,0,0,1,780,28.33,8,8,0,0,1,780.74,31.93Zm-9.06,0a5.56,5.56,0,0,0,.64,2.94,2.29,2.29,0,0,0,2.08,1,2.25,2.25,0,0,0,2.06-1,5.46,5.46,0,0,0,.63-2.94,5.31,5.31,0,0,0-.64-2.92,2.67,2.67,0,0,0-3.76-.37,2.59,2.59,0,0,0-.37.37A5.31,5.31,0,0,0,771.68,31.93Z" transform="translate(-26.64 -20.25)"/><path class="cls-6" d="M795.79,38.5h-3.58V30.85a3.62,3.62,0,0,0-.5-2.13,1.84,1.84,0,0,0-1.6-.71,2.43,2.43,0,0,0-2.17,1,6.16,6.16,0,0,0-.67,3.32V38.5H783.7V25.4h2.73l.48,1.67h.2a3.67,3.67,0,0,1,1.64-1.43,5.48,5.48,0,0,1,2.39-.49,4.58,4.58,0,0,1,3.47,1.24A5,5,0,0,1,795.79,30Z" transform="translate(-26.64 -20.25)"/><path class="cls-6" d="M700.72,71.5h-7.9l.27-1.29,4.09-3.69,1.55-1.44a10,10,0,0,0,1.08-1.17,4.24,4.24,0,0,0,.63-1.09,3.26,3.26,0,0,0,.21-1.2,1.87,1.87,0,0,0-.53-1.38,2,2,0,0,0-1.43-.51,3.52,3.52,0,0,0-1.32.25,6.28,6.28,0,0,0-1.43.85l-.72-1a5.68,5.68,0,0,1,3.63-1.35,3.68,3.68,0,0,1,2.45.77,2.68,2.68,0,0,1,.9,2.14,4.62,4.62,0,0,1-.35,1.8,6.69,6.69,0,0,1-1.15,1.73,30.23,30.23,0,0,1-2.59,2.47L695,70.09v.07h6Z" transform="translate(-26.64 -20.25)"/><path class="cls-6" d="M703.11,67.38l.31-1.39h4.21l-.3,1.39Z" transform="translate(-26.64 -20.25)"/><path class="cls-6" d="M717.62,68.56h-2L715,71.5H713.5l.65-2.94h-5.77l.26-1.38,7.33-8.6h1.72l-1.82,8.64h2Zm-3.18-1.34c.27-1.29.5-2.38.68-3.28s.53-2.2,1-3.91h-.07c-.1.17-.29.45-.58.85s-.5.68-.64.85l-4.68,5.49Z" transform="translate(-26.64 -20.25)"/><path class="cls-6" d="M730.14,71.5l-.28-5.29V63.33h-.08l-.44,1L728.61,66,726,71.5h-1.77l-.38-9.63h1.44l.16,5.22v.77c0,.86,0,1.65-.07,2.37h0c.28-.73.68-1.67,1.21-2.83l2.59-5.53h1.6l.33,5.22c0,1,.05,1.75.05,2.3v.84h0c.17-.51.41-1.15.73-1.92s1.27-2.93,2.84-6.44h1.57L731.9,71.5Z" transform="translate(-26.64 -20.25)"/><path class="cls-6" d="M740.06,71.68a3.36,3.36,0,0,1-2.54-1A3.66,3.66,0,0,1,736.6,68a8,8,0,0,1,.65-3.16A5.89,5.89,0,0,1,739,62.5a3.75,3.75,0,0,1,2.38-.85,3,3,0,0,1,2,.59,2,2,0,0,1,.68,1.63,2.79,2.79,0,0,1-1.46,2.48,8.09,8.09,0,0,1-4.18.9h-.29V68a2.7,2.7,0,0,0,.54,1.8,2.06,2.06,0,0,0,1.67.65,4.82,4.82,0,0,0,1.14-.16,9.65,9.65,0,0,0,1.46-.58V71a7.77,7.77,0,0,1-1.46.54A6.08,6.08,0,0,1,740.06,71.68ZM741.28,63a2.33,2.33,0,0,0-1.7.82,5.51,5.51,0,0,0-1.22,2.3h.11a7.31,7.31,0,0,0,3.07-.52A1.64,1.64,0,0,0,742.61,64a1,1,0,0,0-.32-.77,1.4,1.4,0,0,0-1-.26Z" transform="translate(-26.64 -20.25)"/><path class="cls-6" d="M748.94,71.68a3.36,3.36,0,0,1-2.54-1,3.66,3.66,0,0,1-.93-2.66,7.82,7.82,0,0,1,.66-3.16,5.87,5.87,0,0,1,1.73-2.36,3.77,3.77,0,0,1,2.39-.85,3,3,0,0,1,2,.59,2,2,0,0,1,.67,1.63,2.78,2.78,0,0,1-1.45,2.48,8.09,8.09,0,0,1-4.18.9H747V68a2.7,2.7,0,0,0,.54,1.8,2,2,0,0,0,1.67.65,4.82,4.82,0,0,0,1.14-.16,9.53,9.53,0,0,0,1.45-.58V71a7.77,7.77,0,0,1-1.46.54A6,6,0,0,1,748.94,71.68ZM750.16,63a2.33,2.33,0,0,0-1.7.82,5.51,5.51,0,0,0-1.22,2.3h.11a7.31,7.31,0,0,0,3.07-.52A1.64,1.64,0,0,0,751.49,64a1,1,0,0,0-.32-.77,1.4,1.4,0,0,0-1-.26Z" transform="translate(-26.64 -20.25)"/><path class="cls-6" d="M756.39,66.59,761,61.87h1.77L758.66,66l2.59,5.53h-1.64l-2.07-4.61L756.21,68l-.73,3.52H754l2.9-13.68h1.49l-1.13,5.3a30,30,0,0,1-.9,3.47Z" transform="translate(-26.64 -20.25)"/><path class="cls-6" d="M768.73,68.77a2.59,2.59,0,0,1-1,2.14,4.32,4.32,0,0,1-2.74.77,5.91,5.91,0,0,1-2.68-.61V69.68a5.24,5.24,0,0,0,1.33.57,4.54,4.54,0,0,0,1.32.2,2.67,2.67,0,0,0,1.67-.44,1.35,1.35,0,0,0,.56-1.12,1.19,1.19,0,0,0-.31-.84,5.92,5.92,0,0,0-1.33-.94,5.33,5.33,0,0,1-1.61-1.26,2.33,2.33,0,0,1-.48-1.46,2.48,2.48,0,0,1,.89-2,3.54,3.54,0,0,1,2.34-.74,6.78,6.78,0,0,1,2.9.65l-.48,1.21-.49-.22a4.75,4.75,0,0,0-1.93-.38,2,2,0,0,0-1.29.38,1.24,1.24,0,0,0-.46,1,1.19,1.19,0,0,0,.31.84,5.57,5.57,0,0,0,1.29.91,8.13,8.13,0,0,1,1.35.9,2.74,2.74,0,0,1,.61.82A2.37,2.37,0,0,1,768.73,68.77Z" transform="translate(-26.64 -20.25)"/><g class="cls-1"><rect class="cls-7" x="831.69" y="27" width="120" height="226"/></g><path class="cls-8" d="M906.18,26.71a5.22,5.22,0,0,1-1.73,4.23,7.45,7.45,0,0,1-4.91,1.46H898v6.1h-3.63V21.36h5.47a7.29,7.29,0,0,1,4.74,1.34A4.94,4.94,0,0,1,906.18,26.71ZM898,29.43h1.19a4,4,0,0,0,2.51-.67,2.28,2.28,0,0,0,.83-1.92,2.38,2.38,0,0,0-.69-1.89,3.23,3.23,0,0,0-2.19-.61H898Z" transform="translate(-26.64 -20.25)"/><path class="cls-8" d="M921,31.92a7,7,0,0,1-1.69,5,6.09,6.09,0,0,1-4.69,1.81,6.59,6.59,0,0,1-3.33-.83,5.58,5.58,0,0,1-2.22-2.37,8,8,0,0,1-.77-3.61,7,7,0,0,1,1.67-5,6.15,6.15,0,0,1,4.72-1.78A6.62,6.62,0,0,1,918,26a5.48,5.48,0,0,1,2.22,2.35A8,8,0,0,1,921,31.92Zm-9.06,0a5.56,5.56,0,0,0,.64,2.94,2.64,2.64,0,0,0,4.14,0,5.49,5.49,0,0,0,.63-3,5.49,5.49,0,0,0-.64-2.92,2.68,2.68,0,0,0-3.77-.36,3.06,3.06,0,0,0-.36.36,5.31,5.31,0,0,0-.58,3Z" transform="translate(-26.64 -20.25)"/><path class="cls-8" d="M933.14,34.6a3.6,3.6,0,0,1-1.4,3.07,6.89,6.89,0,0,1-4.19,1.06,14.25,14.25,0,0,1-2.44-.19,9,9,0,0,1-1.89-.57V35a12,12,0,0,0,2.25.79,9,9,0,0,0,2.19.32c1.3,0,2-.38,2-1.13a.91.91,0,0,0-.26-.68,3.4,3.4,0,0,0-.89-.6c-.42-.23-1-.48-1.69-.78a10.47,10.47,0,0,1-2.22-1.17,3.35,3.35,0,0,1-1-1.24,4,4,0,0,1-.32-1.72,3.15,3.15,0,0,1,1.35-2.7,6.63,6.63,0,0,1,3.84-.95,10.81,10.81,0,0,1,4.61,1L932,28.72c-.66-.28-1.27-.52-1.84-.7a6.13,6.13,0,0,0-1.75-.26c-1,0-1.58.28-1.58.85a1,1,0,0,0,.51.83,13.93,13.93,0,0,0,2.23,1,10.21,10.21,0,0,1,2.25,1.16,3.43,3.43,0,0,1,1.06,1.24A3.92,3.92,0,0,1,933.14,34.6Z" transform="translate(-26.64 -20.25)"/><path class="cls-8" d="M941.44,35.88a7.84,7.84,0,0,0,2.25-.41v2.66a8,8,0,0,1-3.28.6,4,4,0,0,1-3.12-1.08,4.8,4.8,0,0,1-1-3.26V28.08H934.6V26.56l2-1.19,1-2.77h2.29v2.79h3.66v2.69h-3.66v6.31a1.4,1.4,0,0,0,.42,1.13A1.7,1.7,0,0,0,941.44,35.88Z" transform="translate(-26.64 -20.25)"/><path class="cls-8" d="M884.87,71.5h-1.51l1.72-8c.35-1.53.6-2.59.77-3.16a6.84,6.84,0,0,1-1.22,1l-1.56,1-.71-1.11,3.95-2.5h1.31Z" transform="translate(-26.64 -20.25)"/><path class="cls-8" d="M890.1,67.38l.31-1.39h4.21l-.3,1.39Z" transform="translate(-26.64 -20.25)"/><path class="cls-8" d="M904.66,61.31a3.3,3.3,0,0,1-.89,2.33,4.29,4.29,0,0,1-2.46,1.23V65a2.89,2.89,0,0,1,1.72.94,2.78,2.78,0,0,1,.62,1.83,3.83,3.83,0,0,1-.54,2.06,3.69,3.69,0,0,1-1.59,1.39,5.62,5.62,0,0,1-2.49.51,8.24,8.24,0,0,1-3.39-.7V69.59a7.69,7.69,0,0,0,1.75.66,6.74,6.74,0,0,0,1.67.24,3.25,3.25,0,0,0,2.22-.7,2.4,2.4,0,0,0,.79-1.91,2.21,2.21,0,0,0-.69-1.75,2.94,2.94,0,0,0-1.94-.59h-1.15l.27-1.26h1.22a3.73,3.73,0,0,0,2.41-.76,2.44,2.44,0,0,0,1-2,1.66,1.66,0,0,0-.51-1.28,2,2,0,0,0-1.38-.48,4,4,0,0,0-1.38.24,6.9,6.9,0,0,0-1.54.82l-.7-1a6.13,6.13,0,0,1,3.73-1.26,3.5,3.5,0,0,1,2.43.76A2.63,2.63,0,0,1,904.66,61.31Z" transform="translate(-26.64 -20.25)"/><path class="cls-8" d="M917.12,71.5l-.28-5.29V63.33h-.08l-.44,1L915.59,66,913,71.5h-1.77l-.38-9.63h1.44l.16,5.22v.77c0,.86,0,1.65-.07,2.37h0c.28-.73.68-1.67,1.21-2.83l2.59-5.53h1.6l.32,5.22c0,1,.06,1.75.06,2.3v.84h0c.17-.51.41-1.15.73-1.92s1.27-2.93,2.84-6.44h1.56l-4.44,9.63Z" transform="translate(-26.64 -20.25)"/><path class="cls-8" d="M927.05,71.68a3.36,3.36,0,0,1-2.54-1,3.66,3.66,0,0,1-.93-2.66,7.82,7.82,0,0,1,.66-3.16A5.83,5.83,0,0,1,926,62.5a3.75,3.75,0,0,1,2.38-.85,3,3,0,0,1,2,.59,2,2,0,0,1,.68,1.63,2.79,2.79,0,0,1-1.46,2.48,8.09,8.09,0,0,1-4.18.9h-.29V68a2.7,2.7,0,0,0,.54,1.8,2.06,2.06,0,0,0,1.67.65,4.82,4.82,0,0,0,1.14-.16,9.53,9.53,0,0,0,1.45-.58V71a7.43,7.43,0,0,1-1.45.54A6.08,6.08,0,0,1,927.05,71.68ZM928.27,63a2.33,2.33,0,0,0-1.7.82,5.51,5.51,0,0,0-1.22,2.3h.11a7.31,7.31,0,0,0,3.07-.52A1.64,1.64,0,0,0,929.6,64a1,1,0,0,0-.32-.77,1.39,1.39,0,0,0-1-.23Z" transform="translate(-26.64 -20.25)"/><path class="cls-8" d="M935.92,71.68a3.36,3.36,0,0,1-2.54-1,3.75,3.75,0,0,1-.92-2.66,7.82,7.82,0,0,1,.66-3.16,5.71,5.71,0,0,1,1.73-2.36,3.75,3.75,0,0,1,2.38-.85,3,3,0,0,1,2,.59,2,2,0,0,1,.67,1.63,2.79,2.79,0,0,1-1.46,2.48,8,8,0,0,1-4.17.9H934V68a2.7,2.7,0,0,0,.54,1.8,2.08,2.08,0,0,0,1.68.65,4.82,4.82,0,0,0,1.14-.16,9.53,9.53,0,0,0,1.45-.58V71a7.77,7.77,0,0,1-1.46.54A6.25,6.25,0,0,1,935.92,71.68ZM937.15,63a2.33,2.33,0,0,0-1.7.82,5.51,5.51,0,0,0-1.22,2.3h.1a7.38,7.38,0,0,0,3.08-.52A1.65,1.65,0,0,0,938.47,64a1,1,0,0,0-.32-.77,1.38,1.38,0,0,0-1-.26Z" transform="translate(-26.64 -20.25)"/><path class="cls-8" d="M943.38,66.59,948,61.87h1.77L945.65,66l2.59,5.53h-1.65l-2.06-4.61L943.19,68l-.72,3.52H941l2.9-13.68h1.49l-1.13,5.3a30,30,0,0,1-.9,3.47Z" transform="translate(-26.64 -20.25)"/><path class="cls-8" d="M955.72,68.77a2.59,2.59,0,0,1-1,2.14,4.32,4.32,0,0,1-2.74.77,5.91,5.91,0,0,1-2.68-.61V69.68a5.24,5.24,0,0,0,1.33.57,4.48,4.48,0,0,0,1.31.2,2.6,2.6,0,0,0,1.67-.44,1.36,1.36,0,0,0,.57-1.12,1.19,1.19,0,0,0-.31-.84,6.16,6.16,0,0,0-1.33-.94,5.49,5.49,0,0,1-1.62-1.26,2.38,2.38,0,0,1-.47-1.46,2.48,2.48,0,0,1,.89-2,3.54,3.54,0,0,1,2.34-.74,6.78,6.78,0,0,1,2.9.65l-.48,1.21-.49-.22a4.75,4.75,0,0,0-1.93-.38,2,2,0,0,0-1.29.38,1.24,1.24,0,0,0-.46,1,1.19,1.19,0,0,0,.31.84,5.57,5.57,0,0,0,1.29.91,7.14,7.14,0,0,1,1.34.9,2.62,2.62,0,0,1,.62.82A2.37,2.37,0,0,1,955.72,68.77Z" transform="translate(-26.64 -20.25)"/><path class="cls-4" d="M1037.4,101.76l1.91-8.4h3l-3.22,12.1v8.76h-3.58v-8.76l-3.36-12.1h3.53Z" transform="translate(-26.64 -20.25)"/><path class="cls-4" d="M1052.36,106.69c0,4.14-.06,7.84-5.18,7.84s-5.16-3.7-5.16-7.84.06-7.92,5.16-7.92S1052.36,102.49,1052.36,106.69Zm-6.89,0c0,4,0,5.15,1.71,5.15s1.73-1.15,1.73-5.15-.05-5.21-1.73-5.21S1045.47,102.66,1045.47,106.69Z" transform="translate(-26.64 -20.25)"/><path class="cls-4" d="M1060.5,112.29a3.15,3.15,0,0,1-3.08,2.18c-2.66,0-3.33-2-3.33-4.06V99h3.39v11.59a1.09,1.09,0,0,0,1,1.16h.23c.65,0,1.12-.51,1.54-2V99h3.45v15.2h-2.86A7.3,7.3,0,0,1,1060.5,112.29Z" transform="translate(-26.64 -20.25)"/><path class="cls-4" d="M1068.09,99a6.59,6.59,0,0,1,.28,2.07A3.61,3.61,0,0,1,1072,99l-.28,3.39c-1.42,0-2.24.19-2.85,1.48V114.2h-3.45V99Z" transform="translate(-26.64 -20.25)"/><path class="cls-4" d="M1041.6,127v2.8h-4.95v6h3.89l-.28,2.88h-3.61v9.21H1033V127Z" transform="translate(-26.64 -20.25)"/><path class="cls-4" d="M1046.17,129.51h-3.42v-3.64h3.42Zm0,18.31h-3.42v-15.2h3.42Z" transform="translate(-26.64 -20.25)"/><path class="cls-4" d="M1051.38,134.55a3.53,3.53,0,0,1,3.3-2.18c2.66,0,3.33,2,3.33,4.06v11.39h-3.39V136.23c0-.84-.61-1.15-1.34-1.15s-1.15.5-1.65,2V147.8h-3.45V132.6H1051A9.22,9.22,0,0,1,1051.38,134.55Z" transform="translate(-26.64 -20.25)"/><path class="cls-4" d="M1063.44,129.51H1060v-3.64h3.41Zm0,18.31H1060v-15.2h3.41Z" transform="translate(-26.64 -20.25)"/><path class="cls-4" d="M1073.41,135.84l-2.66.47c-.17-.92-.28-1.34-1.09-1.34s-1,.5-1,1.23a2.14,2.14,0,0,0,1.29,2.24c2.15,1.18,3.67,1.91,3.67,5s-1.35,4.71-4.48,4.71c-2.83,0-4.2-1.35-4.2-4.74l2.94-.45v.62c0,1.21.2,1.91,1.26,1.91,1.43,0,1.51-.57,1.51-1.71,0-1.46-.64-2-1.85-2.72-2.15-1.17-3.33-2.27-3.33-4.79s.87-3.94,4-3.94S1073,133.21,1073.41,135.84Z" transform="translate(-26.64 -20.25)"/><path class="cls-4" d="M1081.67,147.82V136.23c0-.84-.62-1.15-1.34-1.15s-1.15.5-1.66,2V147.8h-3.44V125.87l3.44-.59v9a3.27,3.27,0,0,1,3.06-1.87c2.66,0,3.33,2,3.33,4.06v11.39Z" transform="translate(-26.64 -20.25)"/><path class="cls-4" d="M1096.65,139.14v1.18H1090c0,2.77.09,5.12,2,5.12,1.45,0,1.68-.84,1.84-2.52l2.72.42c-.39,3.14-1.48,4.79-4.79,4.79-4.81,0-5.07-3.81-5.07-7.84,0-4.37.26-7.92,5-7.92S1096.65,136,1096.65,139.14Zm-6.55-.84h3.39c0-2.18-.06-3.53-1.68-3.53S1090.21,136.12,1090.1,138.3Z" transform="translate(-26.64 -20.25)"/><path class="cls-4" d="M1108.07,147.82h-2.85A7.49,7.49,0,0,1,1105,146a2.93,2.93,0,0,1-3,2.15c-3.67,0-3.86-3.41-3.86-7.31,0-5,.19-8.42,4.45-8.42a2,2,0,0,1,2.18,1.28v-7.78l3.36-.59Zm-6.52-7.17c0,3.47,0,4.79,1.12,4.79,1.46,0,1.79-1,2-2.52v-6.75c-.3-.75-.61-1.09-1.34-1.09-1.75,0-1.78,1.43-1.78,5.57Z" transform="translate(-26.64 -20.25)"/><path class="cls-4" d="M1038.86,176.75h-2.66l-.64,4.67h-3.42l3.72-20.86h3.78l3.78,20.86h-3.94Zm-2.41-2.86h2.13l-1-7.48Z" transform="translate(-26.64 -20.25)"/><path class="cls-4" d="M1047.76,168.15a3.57,3.57,0,0,1,3.31-2.18c2.66,0,3.33,2,3.33,4.06v11.39H1051V169.83c0-.84-.61-1.15-1.34-1.15s-1.15.51-1.65,2V181.4h-3.45V166.2h2.86A8.57,8.57,0,0,1,1047.76,168.15Z" transform="translate(-26.64 -20.25)"/><path class="cls-4" d="M1059.83,163.11h-3.41v-3.64h3.41Zm0,18.31h-3.41v-15.2h3.41Z" transform="translate(-26.64 -20.25)"/><path class="cls-4" d="M1071.4,181.42H1068V169.83a1.06,1.06,0,0,0-1-1.16h-.26c-.67,0-1,.51-1.51,2V181.4h-3.44V166.2h2.85a9.08,9.08,0,0,1,.34,1.93c.7-1.43,1.54-2.18,3-2.18a2.86,2.86,0,0,1,3.06,2.15c.72-1.4,1.56-2.15,3.05-2.15,2.66,0,3.3,2,3.3,4.06V181.4h-3.36V169.83c0-.84-.5-1.15-1.23-1.15s-1,.51-1.48,2Z" transform="translate(-26.64 -20.25)"/><path class="cls-4" d="M1088.31,171.4V178c0,1.09.5,1.2,1,1.2l-.28,2.24h-.67c-1.85,0-2.49-.73-2.69-1.26a3.27,3.27,0,0,1-3.22,1.57c-2.66,0-3.38-2.07-3.38-4.14,0-3.76.78-5.38,5.93-5.38V171c0-1.71,0-2.33-1.23-2.33-1,0-1.29.59-1.37,2.1l-2.89-.22c.2-3.17.76-4.59,4.17-4.59C1087.61,166,1088.31,167.79,1088.31,171.4Zm-3.28,2.77c-2.27.14-2.57.73-2.57,3.19,0,1.37.22,1.82.92,1.82.9,0,1.43-.75,1.65-2.38Z" transform="translate(-26.64 -20.25)"/><path class="cls-4" d="M1093.77,166.22h3l-.28,2.41h-2.71v8.79c0,.89.14,1.31.67,1.31s.73-.33,1.06-1.12l1.4,2.1a3.57,3.57,0,0,1-3.39,1.85c-2,0-3.19-1.12-3.19-3.69v-9.24h-1.15l.29-2.41h.86v-3.73l3.45-.56Z" transform="translate(-26.64 -20.25)"/><path class="cls-4" d="M1101.19,163.11h-3.42v-3.64h3.42Zm0,18.31h-3.42v-15.2h3.42Z" transform="translate(-26.64 -20.25)"/><path class="cls-4" d="M1113.25,173.89c0,4.14,0,7.84-5.18,7.84s-5.15-3.7-5.15-7.84.06-7.92,5.15-7.92S1113.25,169.69,1113.25,173.89Zm-6.88,0c0,4,.05,5.15,1.7,5.15s1.74-1.15,1.74-5.15-.06-5.21-1.74-5.21S1106.37,169.86,1106.37,173.89Z" transform="translate(-26.64 -20.25)"/><path class="cls-4" d="M1118.18,168.15a3.57,3.57,0,0,1,3.31-2.18c2.66,0,3.33,2,3.33,4.06v11.39h-3.39V169.83c0-.84-.62-1.15-1.34-1.15s-1.15.51-1.66,2V181.4H1115V166.2h2.86A9.23,9.23,0,0,1,1118.18,168.15Z" transform="translate(-26.64 -20.25)"/><path class="cls-4" d="M178.18,193.37a2.62,2.62,0,0,1-1,2.21,4.5,4.5,0,0,1-2.78.79,7,7,0,0,1-2.93-.49v-1.2a8.24,8.24,0,0,0,1.44.44,7.87,7.87,0,0,0,1.53.16,3.05,3.05,0,0,0,1.88-.48,1.54,1.54,0,0,0,.63-1.31,1.69,1.69,0,0,0-.23-.91,2,2,0,0,0-.74-.66,10.25,10.25,0,0,0-1.6-.68,5.16,5.16,0,0,1-2.13-1.27,2.77,2.77,0,0,1-.64-1.91,2.4,2.4,0,0,1,.93-2,3.8,3.8,0,0,1,2.46-.73,7.25,7.25,0,0,1,2.94.59l-.39,1.08a6.54,6.54,0,0,0-2.58-.56,2.47,2.47,0,0,0-1.54.43,1.39,1.39,0,0,0-.56,1.18,1.89,1.89,0,0,0,.2.91,2,2,0,0,0,.7.65,8,8,0,0,0,1.49.66,6,6,0,0,1,2.31,1.28A2.52,2.52,0,0,1,178.18,193.37Z" transform="translate(-26.64 -20.25)"/><path class="cls-4" d="M183.39,196.37a3.42,3.42,0,0,1-2.7-1.08,4.46,4.46,0,0,1-.95-3,4.51,4.51,0,0,1,1-3.11,3.46,3.46,0,0,1,2.76-1.1,5.64,5.64,0,0,1,1.16.12,3.6,3.6,0,0,1,.91.3l-.37,1a6.87,6.87,0,0,0-.88-.27,4,4,0,0,0-.85-.11c-1.63,0-2.44,1-2.44,3.13a3.75,3.75,0,0,0,.59,2.26,2.09,2.09,0,0,0,1.77.8,5.4,5.4,0,0,0,2.06-.44V196A4.29,4.29,0,0,1,183.39,196.37Z" transform="translate(-26.64 -20.25)"/><path class="cls-4" d="M191,188.05a4.19,4.19,0,0,1,1,.09l-.17,1.12a4.32,4.32,0,0,0-.88-.11,2.16,2.16,0,0,0-1.67.79,2.92,2.92,0,0,0-.69,2v4.3h-1.21v-8h1l.14,1.49h.06a3.66,3.66,0,0,1,1.07-1.21A2.42,2.42,0,0,1,191,188.05Z" transform="translate(-26.64 -20.25)"/><path class="cls-4" d="M193.35,186a.81.81,0,0,1,.2-.61.76.76,0,0,1,1,0,1,1,0,0,1,0,1.22.76.76,0,0,1-1,0A.85.85,0,0,1,193.35,186Zm1.32,10.2h-1.22v-8h1.22Z" transform="translate(-26.64 -20.25)"/><path class="cls-4" d="M201,196.37a3.52,3.52,0,0,1-1.43-.29,2.63,2.63,0,0,1-1.09-.89h-.09a9.91,9.91,0,0,1,.09,1.33v3.31h-1.22V188.19h1l.17,1.1h.06a2.78,2.78,0,0,1,1.09-.95,3.36,3.36,0,0,1,1.43-.29,3,3,0,0,1,2.46,1.09,5.79,5.79,0,0,1,0,6.13A3,3,0,0,1,201,196.37Zm-.18-7.29a2.17,2.17,0,0,0-1.78.68,3.61,3.61,0,0,0-.56,2.17v.27a4,4,0,0,0,.56,2.42,2.14,2.14,0,0,0,1.81.73,1.87,1.87,0,0,0,1.63-.84,4,4,0,0,0,.59-2.32,3.92,3.92,0,0,0-.59-2.31,1.92,1.92,0,0,0-1.68-.8Z" transform="translate(-26.64 -20.25)"/><path class="cls-4" d="M209,195.36a3.21,3.21,0,0,0,.62,0l.48-.1v.93a3,3,0,0,1-.59.16,4,4,0,0,1-.69.06c-1.55,0-2.33-.82-2.33-2.45v-4.78h-1.15v-.59l1.15-.5.52-1.72h.7v1.86H210v1h-2.33v4.72a1.62,1.62,0,0,0,.34,1.12A1.2,1.2,0,0,0,209,195.36Z" transform="translate(-26.64 -20.25)"/><circle class="cls-9" cx="165.86" cy="110.75" r="33.5"/><path class="cls-10" d="M194.94,144.13h-5.43l.09-14.87.07-2.44.11-2.67c-.91.89-1.54,1.48-1.89,1.76l-3,2.36-2.6-3.29,8.32-6.54h4.46Z" transform="translate(-26.64 -20.25)"/><path class="cls-4" d="M654.71,196l-1.24-3.18h-4L648.23,196h-1.18l4-10h1L656,196Zm-1.61-4.22-1.16-3.1c-.15-.39-.3-.87-.46-1.44a14,14,0,0,1-.43,1.44l-1.18,3.1Z" transform="translate(-26.64 -20.25)"/><path class="cls-4" d="M662.24,196v-4.85a2,2,0,0,0-.41-1.36,1.7,1.7,0,0,0-1.31-.45,2.16,2.16,0,0,0-1.72.63,3.19,3.19,0,0,0-.55,2.1V196h-1.13v-7.49H658l.18,1h.06a2.3,2.3,0,0,1,1-.85,3.11,3.11,0,0,1,1.4-.31,2.85,2.85,0,0,1,2,.66,2.77,2.77,0,0,1,.68,2.08V196Z" transform="translate(-26.64 -20.25)"/><path class="cls-4" d="M665.61,186.45a.74.74,0,0,1,.2-.57.65.65,0,0,1,.47-.18.7.7,0,0,1,.48.18.74.74,0,0,1,.19.57.75.75,0,0,1-.19.57.66.66,0,0,1-.48.19.59.59,0,0,1-.47-.19A.78.78,0,0,1,665.61,186.45Zm1.23,9.52h-1.13v-7.49h1.13Z" transform="translate(-26.64 -20.25)"/><path class="cls-4" d="M678.8,196v-4.9a2.09,2.09,0,0,0-.38-1.35,1.51,1.51,0,0,0-1.19-.44,1.93,1.93,0,0,0-1.57.61,3,3,0,0,0-.5,1.87V196H674v-4.9a2,2,0,0,0-.38-1.35,1.49,1.49,0,0,0-1.2-.44,1.86,1.86,0,0,0-1.56.64,3.49,3.49,0,0,0-.49,2.09v4h-1.14v-7.49h.92l.19,1h0a2.4,2.4,0,0,1,.91-.85,2.84,2.84,0,0,1,1.31-.31,2.22,2.22,0,0,1,2.29,1.27H675a2.42,2.42,0,0,1,1-.93,3.06,3.06,0,0,1,1.45-.34,2.5,2.5,0,0,1,1.9.66,2.94,2.94,0,0,1,.64,2.08V196Z" transform="translate(-26.64 -20.25)"/><path class="cls-4" d="M686.88,196l-.22-1.06h-.06a2.77,2.77,0,0,1-2.51,1.2,2.45,2.45,0,0,1-1.74-.58,2,2,0,0,1-.64-1.63c0-1.51,1.21-2.31,3.63-2.38h1.27V191a1.92,1.92,0,0,0-.37-1.31,1.57,1.57,0,0,0-1.22-.42,4.91,4.91,0,0,0-2.12.58l-.35-.87a5.49,5.49,0,0,1,1.22-.47,4.88,4.88,0,0,1,1.32-.17,2.87,2.87,0,0,1,2,.59,2.48,2.48,0,0,1,.64,1.91V196Zm-2.56-.8a2.25,2.25,0,0,0,1.66-.58,2.1,2.1,0,0,0,.61-1.63v-.67h-1.14a4.31,4.31,0,0,0-2,.42,1.27,1.27,0,0,0-.6,1.16,1.2,1.2,0,0,0,.38.94,1.54,1.54,0,0,0,1.09.33Z" transform="translate(-26.64 -20.25)"/><path class="cls-4" d="M692.48,195.17a2.81,2.81,0,0,0,.58,0l.44-.09v.86a1.67,1.67,0,0,1-.54.15,3.47,3.47,0,0,1-.64.06c-1.45,0-2.18-.77-2.18-2.29V189.4h-1.07v-.55l1.07-.47.48-1.6h.66v1.74h2.17v.88h-2.17v4.41a1.5,1.5,0,0,0,.32,1A1.13,1.13,0,0,0,692.48,195.17Z" transform="translate(-26.64 -20.25)"/><path class="cls-4" d="M694.91,186.45a.74.74,0,0,1,.19-.57.66.66,0,0,1,.48-.18.69.69,0,0,1,.47.18.74.74,0,0,1,.2.57.78.78,0,0,1-.2.57.69.69,0,0,1-.95,0A.75.75,0,0,1,694.91,186.45Zm1.23,9.52H695v-7.49h1.14Z" transform="translate(-26.64 -20.25)"/><path class="cls-4" d="M705,192.22a4.19,4.19,0,0,1-.92,2.86,3.25,3.25,0,0,1-2.55,1,3.4,3.4,0,0,1-1.79-.47,3.1,3.1,0,0,1-1.2-1.36,4.73,4.73,0,0,1-.42-2.06,4.18,4.18,0,0,1,.91-2.86,3.24,3.24,0,0,1,2.54-1,3.14,3.14,0,0,1,2.5,1A4.1,4.1,0,0,1,705,192.22Zm-5.71,0a3.55,3.55,0,0,0,.58,2.19,2,2,0,0,0,1.68.75,2,2,0,0,0,1.7-.75,3.61,3.61,0,0,0,.57-2.19,3.53,3.53,0,0,0-.57-2.17,2.32,2.32,0,0,0-3.39,0,3.51,3.51,0,0,0-.56,2.18Z" transform="translate(-26.64 -20.25)"/><path class="cls-4" d="M712.13,196v-4.85a1.91,1.91,0,0,0-.42-1.36,1.7,1.7,0,0,0-1.31-.45,2.19,2.19,0,0,0-1.72.63,3.27,3.27,0,0,0-.55,2.1V196H707v-7.49h.92l.19,1h0a2.3,2.3,0,0,1,1-.85,3.11,3.11,0,0,1,1.4-.31,2.85,2.85,0,0,1,2,.66,2.77,2.77,0,0,1,.68,2.08V196Z" transform="translate(-26.64 -20.25)"/><circle class="cls-11" cx="654.08" cy="110.75" r="33.5"/><path class="cls-10" d="M680.14,127.43a8.29,8.29,0,0,1,5.93,2.09,7.52,7.52,0,0,1,2.21,5.73,8.33,8.33,0,0,1-2.66,6.63c-1.75,1.55-4.29,2.33-7.62,2.32a14.9,14.9,0,0,1-6.93-1.39v-4.69a14.52,14.52,0,0,0,3.24,1.2,14.18,14.18,0,0,0,3.49.47q5,0,5-4.08c0-2.59-1.72-3.89-5.15-3.88a15.4,15.4,0,0,0-3.89.58l-2.16-1.16,1-13.1h13.94v4.61h-9.18l-.47,5,.61-.12A11.67,11.67,0,0,1,680.14,127.43Z" transform="translate(-26.64 -20.25)"/><path class="cls-4" d="M756,221.56a2.45,2.45,0,0,1-1,2.06,4.16,4.16,0,0,1-2.6.74,6.39,6.39,0,0,1-2.73-.46v-1.12a7.39,7.39,0,0,0,2.77.56,2.9,2.9,0,0,0,1.75-.44,1.45,1.45,0,0,0,.59-1.23,1.58,1.58,0,0,0-.21-.85,2.13,2.13,0,0,0-.69-.61,10.29,10.29,0,0,0-1.49-.64,4.63,4.63,0,0,1-2-1.18,2.62,2.62,0,0,1-.6-1.78,2.21,2.21,0,0,1,.87-1.84,3.55,3.55,0,0,1,2.29-.69,6.81,6.81,0,0,1,2.74.55l-.36,1a6.2,6.2,0,0,0-2.4-.52,2.35,2.35,0,0,0-1.45.4,1.31,1.31,0,0,0-.52,1.1,1.67,1.67,0,0,0,.2.85,1.7,1.7,0,0,0,.64.61,7.82,7.82,0,0,0,1.39.61,5.86,5.86,0,0,1,2.17,1.2A2.43,2.43,0,0,1,756,221.56Z" transform="translate(-26.64 -20.25)"/><path class="cls-4" d="M764.33,220.47a4.11,4.11,0,0,1-.93,2.86,3.21,3.21,0,0,1-2.55,1,3.37,3.37,0,0,1-1.78-.47,3.1,3.1,0,0,1-1.2-1.36,4.57,4.57,0,0,1-.43-2.06,4.19,4.19,0,0,1,.92-2.86,3.24,3.24,0,0,1,2.54-1,3.16,3.16,0,0,1,2.5,1A4.08,4.08,0,0,1,764.33,220.47Zm-5.71,0a3.61,3.61,0,0,0,.57,2.19,2.29,2.29,0,0,0,3.22.16,1.21,1.21,0,0,0,.16-.16,3.55,3.55,0,0,0,.58-2.19,3.48,3.48,0,0,0-.58-2.17,2.31,2.31,0,0,0-3.38,0A3.43,3.43,0,0,0,758.62,220.47Z" transform="translate(-26.64 -20.25)"/><path class="cls-4" d="M767.38,216.73v4.86a2,2,0,0,0,.42,1.37,1.7,1.7,0,0,0,1.31.45,2.14,2.14,0,0,0,1.71-.64,3.19,3.19,0,0,0,.55-2.1v-3.94h1.13v7.49h-.93l-.17-1h-.06a2.16,2.16,0,0,1-1,.84,3.11,3.11,0,0,1-1.41.3,2.92,2.92,0,0,1-2-.65,2.77,2.77,0,0,1-.68-2.08v-4.9Z" transform="translate(-26.64 -20.25)"/><path class="cls-4" d="M780,224.22v-4.85a1.91,1.91,0,0,0-.42-1.36,1.7,1.7,0,0,0-1.31-.45,2.19,2.19,0,0,0-1.72.63,3.27,3.27,0,0,0-.55,2.1v3.93h-1.13v-7.49h.92l.19,1h0a2.36,2.36,0,0,1,1-.85,3.11,3.11,0,0,1,1.4-.31,2.85,2.85,0,0,1,2,.66,2.77,2.77,0,0,1,.68,2.08v4.89Z" transform="translate(-26.64 -20.25)"/><path class="cls-4" d="M788.6,223.22h-.06a2.66,2.66,0,0,1-2.35,1.14,2.82,2.82,0,0,1-2.29-1,5.39,5.39,0,0,1,0-5.73,3,3,0,0,1,4.23-.32,3,3,0,0,1,.39.4h.09v-4.12h1.13v10.64h-.92Zm-2.27.19a2.06,2.06,0,0,0,1.69-.63,3.21,3.21,0,0,0,.52-2v-.24a3.8,3.8,0,0,0-.53-2.28,2,2,0,0,0-1.69-.68,1.74,1.74,0,0,0-1.53.78,3.9,3.9,0,0,0-.53,2.19,3.68,3.68,0,0,0,.53,2.17,1.8,1.8,0,0,0,1.54.69Z" transform="translate(-26.64 -20.25)"/><path class="cls-4" d="M797.05,224.22h-1.16v-10h5.57v1h-4.41v3.66h4.14v1h-4.14Z" transform="translate(-26.64 -20.25)"/><path class="cls-4" d="M809.77,224.22h-1.32l-2.69-4.39L803,224.22h-1.24l3.33-5.22-3.1-4.77h1.29l2.48,4,2.5-4h1.24L806.4,219Z" transform="translate(-26.64 -20.25)"/><path class="cls-4" d="M756,238.43a2.67,2.67,0,0,1,.48-1.57,5.05,5.05,0,0,1,1.7-1.38,8.47,8.47,0,0,1-.79-1,3.12,3.12,0,0,1-.33-.69,2.46,2.46,0,0,1-.12-.76,2,2,0,0,1,.67-1.6,2.77,2.77,0,0,1,1.86-.57,2.53,2.53,0,0,1,1.75.57,2,2,0,0,1,.63,1.59,2.2,2.2,0,0,1-.46,1.35,5.33,5.33,0,0,1-1.54,1.25l2.78,2.68a3.2,3.2,0,0,0,.61-1,6.86,6.86,0,0,0,.39-1.24h1.15a6.49,6.49,0,0,1-1.4,3l2,2h-1.56l-1.27-1.22a5.32,5.32,0,0,1-1.64,1,5.17,5.17,0,0,1-1.86.32,3.31,3.31,0,0,1-2.28-.73A2.54,2.54,0,0,1,756,238.43Zm3.12,1.71a3.79,3.79,0,0,0,2.73-1l-3-2.9a6.4,6.4,0,0,0-1.08.77,1.87,1.87,0,0,0-.61,1.44,1.58,1.58,0,0,0,.53,1.27,2.06,2.06,0,0,0,1.43.47ZM758.06,233a1.76,1.76,0,0,0,.24.9,5.77,5.77,0,0,0,.85,1,4.47,4.47,0,0,0,1.22-.94,1.58,1.58,0,0,0,.35-1,1.15,1.15,0,0,0-.35-.86,1.31,1.31,0,0,0-.94-.33,1.5,1.5,0,0,0-1,.32A1.13,1.13,0,0,0,758.06,233Z" transform="translate(-26.64 -20.25)"/><path class="cls-4" d="M774.88,241l-3.39-8.86h0c.06.7.09,1.54.09,2.5V241h-1.07V231h1.75l3.16,8.24h.06l3.19-8.24h1.74v10H779.2v-6.44q0-1.11.09-2.4h0L775.82,241Z" transform="translate(-26.64 -20.25)"/><path class="cls-4" d="M784,233.53v4.86a2,2,0,0,0,.42,1.37,1.7,1.7,0,0,0,1.31.45,2.16,2.16,0,0,0,1.72-.64,3.32,3.32,0,0,0,.54-2.1v-3.94h1.13V241h-.93l-.17-1h0a2.16,2.16,0,0,1-1,.84,3.11,3.11,0,0,1-1.41.3,2.84,2.84,0,0,1-2-.65,2.73,2.73,0,0,1-.68-2.08v-4.9Z" transform="translate(-26.64 -20.25)"/><path class="cls-4" d="M796.35,239a1.87,1.87,0,0,1-.78,1.61,3.58,3.58,0,0,1-2.18.57,4.83,4.83,0,0,1-2.33-.47v-1.06a4.92,4.92,0,0,0,1.16.43,4.38,4.38,0,0,0,1.19.16,2.7,2.7,0,0,0,1.37-.28.94.94,0,0,0,.48-.87,1,1,0,0,0-.38-.75,6.37,6.37,0,0,0-1.48-.73,8.73,8.73,0,0,1-1.49-.68,1.87,1.87,0,0,1-.65-.66,1.81,1.81,0,0,1,.53-2.33,3.44,3.44,0,0,1,2-.53,6.06,6.06,0,0,1,2.37.49l-.41.93a5.52,5.52,0,0,0-2-.47,2.36,2.36,0,0,0-1.22.26.76.76,0,0,0-.41.69.8.8,0,0,0,.16.52,1.46,1.46,0,0,0,.49.4,11.67,11.67,0,0,0,1.31.55,4.84,4.84,0,0,1,1.8,1A1.73,1.73,0,0,1,796.35,239Z" transform="translate(-26.64 -20.25)"/><path class="cls-4" d="M798.1,231.5a.75.75,0,0,1,.19-.57.73.73,0,0,1,1,0,.74.74,0,0,1,.19.57.75.75,0,0,1-.19.57.66.66,0,0,1-.48.19.63.63,0,0,1-.48-.19A.84.84,0,0,1,798.1,231.5Zm1.23,9.52H798.2v-7.49h1.13Z" transform="translate(-26.64 -20.25)"/><path class="cls-4" d="M804.73,241.16a3.22,3.22,0,0,1-2.52-1,5,5,0,0,1,0-5.74,3.24,3.24,0,0,1,2.58-1,4.9,4.9,0,0,1,1.08.12,4.2,4.2,0,0,1,.85.27l-.35,1a4.84,4.84,0,0,0-.82-.25,3.49,3.49,0,0,0-.79-.1q-2.28,0-2.28,2.91a3.39,3.39,0,0,0,.56,2.12,1.94,1.94,0,0,0,1.65.74,5.09,5.09,0,0,0,1.92-.41v1A4.06,4.06,0,0,1,804.73,241.16Z" transform="translate(-26.64 -20.25)"/><path class="cls-4" d="M750.18,192.07v4.15H749v-10h2.74a4.35,4.35,0,0,1,2.72.7,2.56,2.56,0,0,1,.87,2.12,2.66,2.66,0,0,1-2,2.68l2.72,4.49h-1.38l-2.42-4.15Zm0-1h1.59a2.78,2.78,0,0,0,1.81-.49,1.85,1.85,0,0,0,.57-1.47,1.69,1.69,0,0,0-.58-1.43,3.25,3.25,0,0,0-1.88-.43h-1.51Z" transform="translate(-26.64 -20.25)"/><path class="cls-4" d="M764,192.47a4.11,4.11,0,0,1-.93,2.86,3.24,3.24,0,0,1-2.54,1,3.4,3.4,0,0,1-1.79-.47,3.1,3.1,0,0,1-1.2-1.36,4.57,4.57,0,0,1-.43-2.06,4.19,4.19,0,0,1,.92-2.86,3.24,3.24,0,0,1,2.54-1,3.18,3.18,0,0,1,2.5,1A4.1,4.1,0,0,1,764,192.47Zm-5.71,0a3.61,3.61,0,0,0,.57,2.19,2.29,2.29,0,0,0,3.22.16,1.21,1.21,0,0,0,.16-.16,3.55,3.55,0,0,0,.58-2.19,3.48,3.48,0,0,0-.58-2.17,2.32,2.32,0,0,0-3.26-.12l-.12.12a3.56,3.56,0,0,0-.6,2.17Z" transform="translate(-26.64 -20.25)"/><path class="cls-4" d="M767,188.73v4.86a2,2,0,0,0,.42,1.37,1.7,1.7,0,0,0,1.31.45,2.14,2.14,0,0,0,1.71-.64,3.19,3.19,0,0,0,.55-2.1v-3.94h1.13v7.49h-.93l-.17-1h0a2.16,2.16,0,0,1-1,.84,3.11,3.11,0,0,1-1.41.3,2.92,2.92,0,0,1-2.05-.65,2.76,2.76,0,0,1-.67-2.08v-4.9Z" transform="translate(-26.64 -20.25)"/><path class="cls-4" d="M780.68,188.73v.72l-1.39.16a2.16,2.16,0,0,1,.35.63,2.57,2.57,0,0,1,.15.87,2.2,2.2,0,0,1-.76,1.76,3.06,3.06,0,0,1-2.06.65,3.32,3.32,0,0,1-.63,0,1.1,1.1,0,0,0-.72,1,.48.48,0,0,0,.25.46,2,2,0,0,0,.87.14h1.32a3,3,0,0,1,1.87.51,1.77,1.77,0,0,1,.66,1.5,2.13,2.13,0,0,1-1,1.89,5.28,5.28,0,0,1-2.91.65,4,4,0,0,1-2.27-.54,1.78,1.78,0,0,1-.8-1.55,1.71,1.71,0,0,1,.44-1.18,2.29,2.29,0,0,1,1.23-.68,1.16,1.16,0,0,1-.48-.4,1.13,1.13,0,0,1-.2-.64,1.22,1.22,0,0,1,.22-.71,2.34,2.34,0,0,1,.69-.6,2,2,0,0,1-.94-.81,2.34,2.34,0,0,1-.37-1.31,2.45,2.45,0,0,1,.74-1.9,3,3,0,0,1,2.09-.67,3.81,3.81,0,0,1,1.06.14Zm-6,8.75a1,1,0,0,0,.51.92,2.78,2.78,0,0,0,1.47.32,4.05,4.05,0,0,0,2.11-.43,1.31,1.31,0,0,0,.69-1.16.89.89,0,0,0-.37-.84,2.89,2.89,0,0,0-1.42-.24h-1.36a1.74,1.74,0,0,0-1.2.37,1.32,1.32,0,0,0-.4,1.06Zm.61-6.35a1.52,1.52,0,0,0,.45,1.19,1.71,1.71,0,0,0,1.23.4,1.45,1.45,0,0,0,1.66-1.2,1.41,1.41,0,0,0,0-.41,1.5,1.5,0,0,0-1.28-1.69,1.41,1.41,0,0,0-.41,0,1.64,1.64,0,0,0-1.23.43,1.76,1.76,0,0,0-.4,1.28Z" transform="translate(-26.64 -20.25)"/><path class="cls-4" d="M787.35,196.22v-4.85a1.91,1.91,0,0,0-.42-1.36,1.7,1.7,0,0,0-1.31-.45,2.13,2.13,0,0,0-1.72.64,3.27,3.27,0,0,0-.55,2.1v3.92h-1.13V185.58h1.13v3.22a6.7,6.7,0,0,1-.05,1h.07a2.24,2.24,0,0,1,1-.85,3,3,0,0,1,1.41-.31,2.84,2.84,0,0,1,2.06.65,2.7,2.7,0,0,1,.69,2.07v4.89Z" transform="translate(-26.64 -20.25)"/><path class="cls-4" d="M798.9,187.12a3.25,3.25,0,0,0-2.6,1.1,4.41,4.41,0,0,0-1,3,4.55,4.55,0,0,0,.92,3,3.31,3.31,0,0,0,2.63,1.07,9.1,9.1,0,0,0,2.38-.38v1a7.41,7.41,0,0,1-2.56.39,4.37,4.37,0,0,1-3.37-1.3,5.53,5.53,0,0,1-1.2-3.81,6,6,0,0,1,.58-2.71,4.13,4.13,0,0,1,1.67-1.79,5,5,0,0,1,2.56-.63,6.21,6.21,0,0,1,2.75.58l-.49,1A5.24,5.24,0,0,0,798.9,187.12Z" transform="translate(-26.64 -20.25)"/><path class="cls-4" d="M804.35,188.73v4.86a2,2,0,0,0,.41,1.37,1.7,1.7,0,0,0,1.31.45,2.16,2.16,0,0,0,1.72-.64,3.32,3.32,0,0,0,.54-2.1v-3.94h1.14v7.49h-.94l-.16-1h-.06a2.28,2.28,0,0,1-1,.84,3.11,3.11,0,0,1-1.41.3,2.84,2.84,0,0,1-2-.65,2.77,2.77,0,0,1-.68-2.08v-4.9Z" transform="translate(-26.64 -20.25)"/><path class="cls-4" d="M814.29,195.42a2.91,2.91,0,0,0,.59,0l.44-.09v.86a2.39,2.39,0,0,1-.54.15,3.49,3.49,0,0,1-.65.06c-1.45,0-2.17-.77-2.17-2.29v-4.46h-1.08v-.55l1.08-.47.47-1.6h.66v1.74h2.17v.88h-2.17V194a1.57,1.57,0,0,0,.32,1A1.11,1.11,0,0,0,814.29,195.42Z" transform="translate(-26.64 -20.25)"/><circle class="cls-11" cx="754.99" cy="111" r="33.5"/><path class="cls-10" d="M772.51,133.18q0-7.62,3.23-11.35t9.66-3.73a16.53,16.53,0,0,1,3.44.27v4.34a13.94,13.94,0,0,0-3.09-.35,10.66,10.66,0,0,0-4.56.84,5.64,5.64,0,0,0-2.65,2.5,11.49,11.49,0,0,0-1,4.69h.23a6,6,0,0,1,5.57-3,6.88,6.88,0,0,1,5.39,2.16,8.62,8.62,0,0,1,2,6,9,9,0,0,1-2.33,6.51,8.5,8.5,0,0,1-6.43,2.4,9.17,9.17,0,0,1-5-1.32,8.4,8.4,0,0,1-3.27-3.85A14.58,14.58,0,0,1,772.51,133.18Zm9.29,6.93a3.22,3.22,0,0,0,2.67-1.17,5.2,5.2,0,0,0,.93-3.33,4.6,4.6,0,0,0-.87-3,3.2,3.2,0,0,0-2.63-1.08,4,4,0,0,0-2.82,1.07,3.27,3.27,0,0,0-1.17,2.5,5.65,5.65,0,0,0,1.1,3.53,3.36,3.36,0,0,0,2.79,1.48Z" transform="translate(-26.64 -20.25)"/><path class="cls-4" d="M892.13,196.22H891v-10h5.58v1h-4.41v3.66h4.14v1h-4.14Z" transform="translate(-26.64 -20.25)"/><path class="cls-4" d="M897.92,186.7a.75.75,0,0,1,.19-.57.72.72,0,0,1,.95,0,.71.71,0,0,1,.2.57.74.74,0,0,1-.2.57.69.69,0,0,1-.95,0A.84.84,0,0,1,897.92,186.7Zm1.23,9.52H898v-7.49h1.13Z" transform="translate(-26.64 -20.25)"/><path class="cls-4" d="M906.69,196.22v-4.85a1.91,1.91,0,0,0-.42-1.36,1.7,1.7,0,0,0-1.31-.45,2.19,2.19,0,0,0-1.72.63,3.27,3.27,0,0,0-.55,2.1v3.93h-1.13v-7.49h.92l.19,1h.05a2.36,2.36,0,0,1,1-.85,3.11,3.11,0,0,1,1.4-.31,2.85,2.85,0,0,1,2,.66,2.77,2.77,0,0,1,.68,2.08v4.89Z" transform="translate(-26.64 -20.25)"/><path class="cls-4" d="M914.76,196.22l-.23-1.06h0a2.77,2.77,0,0,1-2.51,1.2,2.48,2.48,0,0,1-1.75-.58,2.07,2.07,0,0,1-.63-1.63c0-1.51,1.21-2.31,3.63-2.38h1.27v-.46a1.86,1.86,0,0,0-.38-1.31,1.53,1.53,0,0,0-1.21-.42,4.91,4.91,0,0,0-2.12.58l-.35-.87a5.49,5.49,0,0,1,1.22-.47,4.88,4.88,0,0,1,1.32-.17,2.83,2.83,0,0,1,2,.59,2.49,2.49,0,0,1,.65,1.91v5.11Zm-2.56-.8a2.25,2.25,0,0,0,1.66-.58,2.19,2.19,0,0,0,.61-1.63v-.67h-1.14a4.31,4.31,0,0,0-2,.42,1.27,1.27,0,0,0-.6,1.16,1.19,1.19,0,0,0,.37.94A1.62,1.62,0,0,0,912.2,195.42Z" transform="translate(-26.64 -20.25)"/><path class="cls-4" d="M919.07,196.22h-1.13V185.58h1.13Z" transform="translate(-26.64 -20.25)"/><path class="cls-4" d="M929.57,187.12a3.32,3.32,0,0,0-2.61,1.1,4.41,4.41,0,0,0-1,3,4.55,4.55,0,0,0,.92,3,3.29,3.29,0,0,0,2.62,1.07,9.24,9.24,0,0,0,2.39-.38v1a7.41,7.41,0,0,1-2.56.39A4.32,4.32,0,0,1,926,195a5.53,5.53,0,0,1-1.2-3.81,6.17,6.17,0,0,1,.57-2.71,4.24,4.24,0,0,1,1.67-1.79,5.13,5.13,0,0,1,2.57-.63,6.21,6.21,0,0,1,2.75.58l-.49,1A5.37,5.37,0,0,0,929.57,187.12Z" transform="translate(-26.64 -20.25)"/><path class="cls-4" d="M935,188.73v4.86a2,2,0,0,0,.42,1.37,1.7,1.7,0,0,0,1.31.45,2.16,2.16,0,0,0,1.72-.64,3.32,3.32,0,0,0,.54-2.1v-3.94h1.13v7.49h-.93l-.17-1h0a2.16,2.16,0,0,1-1,.84,3.11,3.11,0,0,1-1.41.3,2.84,2.84,0,0,1-2-.65,2.73,2.73,0,0,1-.68-2.08v-4.9Z" transform="translate(-26.64 -20.25)"/><path class="cls-4" d="M945,195.42a2.81,2.81,0,0,0,.58,0l.45-.09v.86a2.64,2.64,0,0,1-.55.15,3.47,3.47,0,0,1-.64.06c-1.45,0-2.18-.77-2.18-2.29v-4.46h-1.07v-.55l1.07-.47.48-1.6h.66v1.74H946v.88H943.8V194a1.5,1.5,0,0,0,.32,1A1.11,1.11,0,0,0,945,195.42Z" transform="translate(-26.64 -20.25)"/><circle class="cls-8" cx="891.3" cy="111" r="33.5"/><path class="cls-10" d="M911.55,144.1,921.2,123H908.52v-4.57H927v3.41l-9.72,22.25Z" transform="translate(-26.64 -20.25)"/><polyline class="cls-12" points="654.92 253.25 654.92 273.25 245.17 273.25 245.17 253.25"/><path class="cls-9" d="M628.5,134a2.89,2.89,0,0,1-.87,2.13l-15.26,15.26a3,3,0,0,1-4.24,0l-1.76-1.76a3,3,0,0,1,0-4.24l0,0,6.87-6.87h-16.5a2.48,2.48,0,0,1-2-.88,3.11,3.11,0,0,1-.76-2.12v-3a3.11,3.11,0,0,1,.76-2.12,2.48,2.48,0,0,1,2-.88h16.5l-6.87-6.89a2.94,2.94,0,0,1,0-4.17l0,0,1.76-1.76a3,3,0,0,1,4.24,0l15.26,15.26A2.76,2.76,0,0,1,628.5,134Z" transform="translate(-26.64 -20.25)"/><path class="cls-9" d="M276.5,134a2.89,2.89,0,0,1-.87,2.13l-15.26,15.26a3,3,0,0,1-4.24,0l-1.76-1.76a3,3,0,0,1,0-4.24l0,0,6.87-6.87h-16.5a2.48,2.48,0,0,1-2-.88,3.11,3.11,0,0,1-.76-2.12v-3a3.11,3.11,0,0,1,.76-2.12,2.48,2.48,0,0,1,2-.88h16.5l-6.87-6.89a2.94,2.94,0,0,1-.05-4.17l.05,0,1.76-1.76a3,3,0,0,1,4.24,0l15.26,15.26A2.76,2.76,0,0,1,276.5,134Z" transform="translate(-26.64 -20.25)"/><path class="cls-9" d="M146.5,134a2.89,2.89,0,0,1-.87,2.13l-15.26,15.26a3,3,0,0,1-4.24,0l-1.76-1.76a3,3,0,0,1,0-4.24l0,0,6.87-6.87h-16.5a2.48,2.48,0,0,1-2-.88,3.11,3.11,0,0,1-.76-2.12v-3a3.11,3.11,0,0,1,.76-2.12,2.48,2.48,0,0,1,2-.88h16.5l-6.87-6.89a2.94,2.94,0,0,1-.05-4.17l.05,0,1.76-1.76a3,3,0,0,1,4.24,0l15.26,15.26A2.76,2.76,0,0,1,146.5,134Z" transform="translate(-26.64 -20.25)"/><path class="cls-9" d="M1018.5,134a2.89,2.89,0,0,1-.87,2.13l-15.26,15.26a3,3,0,0,1-4.24,0l-1.76-1.76a3,3,0,0,1,0-4.24l0,0,6.87-6.87h-27.5a2.48,2.48,0,0,1-2-.88,3.11,3.11,0,0,1-.76-2.12v-3a3.11,3.11,0,0,1,.76-2.12,2.48,2.48,0,0,1,2-.88h27.5l-6.87-6.89a2.94,2.94,0,0,1,0-4.17l0,0,1.76-1.76a3,3,0,0,1,4.24,0l15.26,15.26A2.76,2.76,0,0,1,1018.5,134Z" transform="translate(-26.64 -20.25)"/><path class="cls-9" d="M865,134a2.88,2.88,0,0,1-.86,2.13L848.9,151.39a3,3,0,0,1-4.24,0l-1.76-1.76a3,3,0,0,1,0-4.24l0,0,6.87-6.87h-16.5a2.44,2.44,0,0,1-2-.88,3.17,3.17,0,0,1-.77-2.12v-3a3.12,3.12,0,0,1,.77-2.12,2.44,2.44,0,0,1,2-.88h16.5l-6.87-6.89a2.94,2.94,0,0,1,0-4.17l0,0,1.76-1.76a2.85,2.85,0,0,1,2.11-.89,2.91,2.91,0,0,1,2.13.89l15.26,15.26A2.78,2.78,0,0,1,865,134Z" transform="translate(-26.64 -20.25)"/><path class="cls-4" d="M401.38,193.56a2.46,2.46,0,0,1-.95,2.06,4.16,4.16,0,0,1-2.6.74,6.41,6.41,0,0,1-2.74-.46v-1.12a7.39,7.39,0,0,0,2.78.56,2.9,2.9,0,0,0,1.75-.44,1.46,1.46,0,0,0,.59-1.23,1.58,1.58,0,0,0-.21-.85,2,2,0,0,0-.7-.61,9.72,9.72,0,0,0-1.48-.64,4.79,4.79,0,0,1-2-1.18,2.62,2.62,0,0,1-.6-1.78,2.21,2.21,0,0,1,.87-1.84,3.59,3.59,0,0,1,2.3-.69,6.81,6.81,0,0,1,2.74.55l-.36,1a6.25,6.25,0,0,0-2.41-.52,2.3,2.3,0,0,0-1.44.4,1.29,1.29,0,0,0-.52,1.1,1.5,1.5,0,0,0,.84,1.46,7.82,7.82,0,0,0,1.39.61,5.61,5.61,0,0,1,2.16,1.2A2.35,2.35,0,0,1,401.38,193.56Z" transform="translate(-26.64 -20.25)"/><path class="cls-4" d="M405.68,195.42a2.81,2.81,0,0,0,.58,0l.44-.09v.86a1.67,1.67,0,0,1-.54.15,3.49,3.49,0,0,1-.65.06c-1.45,0-2.17-.77-2.17-2.29v-4.46h-1.07v-.55l1.07-.47.48-1.6h.65v1.74h2.18v.88h-2.18V194a1.57,1.57,0,0,0,.32,1A1.15,1.15,0,0,0,405.68,195.42Z" transform="translate(-26.64 -20.25)"/><path class="cls-4" d="M414.67,192.47a4.11,4.11,0,0,1-.93,2.86,3.21,3.21,0,0,1-2.55,1,3.37,3.37,0,0,1-1.78-.47,3.1,3.1,0,0,1-1.2-1.36,4.57,4.57,0,0,1-.43-2.06,4.19,4.19,0,0,1,.92-2.86,3.24,3.24,0,0,1,2.54-1,3.18,3.18,0,0,1,2.5,1A4.1,4.1,0,0,1,414.67,192.47Zm-5.71,0a3.61,3.61,0,0,0,.57,2.19,2.29,2.29,0,0,0,3.22.16,1.21,1.21,0,0,0,.16-.16,3.55,3.55,0,0,0,.58-2.19,3.48,3.48,0,0,0-.58-2.17,2.31,2.31,0,0,0-3.38,0,3.48,3.48,0,0,0-.53,2.18Z" transform="translate(-26.64 -20.25)"/><path class="cls-4" d="M420.07,188.59a5.47,5.47,0,0,1,.9.08l-.16,1.06a3.76,3.76,0,0,0-.82-.11,2,2,0,0,0-1.55.74,2.7,2.7,0,0,0-.65,1.84v4h-1.13v-7.49h.93l.13,1.39h.06a3.2,3.2,0,0,1,1-1.13A2.19,2.19,0,0,1,420.07,188.59Z" transform="translate(-26.64 -20.25)"/><path class="cls-4" d="M421.18,188.73h1.22L424,193a17.24,17.24,0,0,1,.67,2.11h.05c.06-.23.19-.63.38-1.19s.8-2.29,1.85-5.19h1.22L425,197.26a4.35,4.35,0,0,1-1.12,1.8,2.42,2.42,0,0,1-1.57.52,4.2,4.2,0,0,1-1-.11v-.91a4.78,4.78,0,0,0,.84.08,1.75,1.75,0,0,0,1.67-1.31l.41-1.07Z" transform="translate(-26.64 -20.25)"/><path class="cls-4" d="M432.91,188.61a2.76,2.76,0,0,1,2.29,1,5.43,5.43,0,0,1,0,5.73,2.76,2.76,0,0,1-2.29,1,3.24,3.24,0,0,1-1.34-.27,2.51,2.51,0,0,1-1-.83h-.08l-.24,1h-.82V185.58h1.14v2.59q0,.87-.06,1.56h.06A2.7,2.7,0,0,1,432.91,188.61Zm-.16.95a2,2,0,0,0-1.68.66,3.78,3.78,0,0,0-.51,2.25,3.74,3.74,0,0,0,.53,2.26,2,2,0,0,0,1.68.68,1.75,1.75,0,0,0,1.56-.76,4,4,0,0,0,.52-2.19,3.81,3.81,0,0,0-.52-2.19A1.83,1.83,0,0,0,432.75,189.56Z" transform="translate(-26.64 -20.25)"/><path class="cls-4" d="M444.47,192.47a4.19,4.19,0,0,1-.92,2.86,3.25,3.25,0,0,1-2.55,1,3.4,3.4,0,0,1-1.79-.47,3.1,3.1,0,0,1-1.2-1.36,4.73,4.73,0,0,1-.42-2.06,4.18,4.18,0,0,1,.91-2.86,3.25,3.25,0,0,1,2.55-1,3.16,3.16,0,0,1,2.49,1A4.1,4.1,0,0,1,444.47,192.47Zm-5.71,0a3.55,3.55,0,0,0,.58,2.19,2.28,2.28,0,0,0,3.38,0,3.61,3.61,0,0,0,.57-2.19,3.53,3.53,0,0,0-.57-2.17,2.32,2.32,0,0,0-3.39,0A3.43,3.43,0,0,0,438.76,192.47Z" transform="translate(-26.64 -20.25)"/><path class="cls-4" d="M451.07,196.22l-.23-1.06h0a2.77,2.77,0,0,1-2.51,1.2,2.48,2.48,0,0,1-1.75-.58,2.07,2.07,0,0,1-.63-1.63c0-1.51,1.21-2.31,3.63-2.38h1.27v-.46a1.93,1.93,0,0,0-.38-1.31,1.55,1.55,0,0,0-1.21-.42,4.91,4.91,0,0,0-2.12.58l-.35-.87a5.24,5.24,0,0,1,1.21-.47,5,5,0,0,1,1.33-.17,2.83,2.83,0,0,1,2,.59,2.49,2.49,0,0,1,.65,1.91v5.11Zm-2.57-.8a2.29,2.29,0,0,0,1.67-.58,2.16,2.16,0,0,0,.6-1.63v-.67h-1.13a4.39,4.39,0,0,0-1.95.42,1.27,1.27,0,0,0-.6,1.16,1.15,1.15,0,0,0,.37.94A1.57,1.57,0,0,0,448.5,195.42Z" transform="translate(-26.64 -20.25)"/><path class="cls-4" d="M457.66,188.59a4.56,4.56,0,0,1,.9.08l-.16,1.06a3.76,3.76,0,0,0-.82-.11,2,2,0,0,0-1.55.74,2.7,2.7,0,0,0-.65,1.84v4h-1.13v-7.49h.93l.13,1.39h.06a3.2,3.2,0,0,1,1-1.13A2.19,2.19,0,0,1,457.66,188.59Z" transform="translate(-26.64 -20.25)"/><path class="cls-4" d="M465.06,195.22H465a2.66,2.66,0,0,1-2.35,1.14,2.82,2.82,0,0,1-2.29-1,4.46,4.46,0,0,1-.82-2.85,4.54,4.54,0,0,1,.82-2.88,3,3,0,0,1,4.23-.33,2.59,2.59,0,0,1,.4.41h.08v-4.07h1.13v10.64h-.92Zm-2.27.19a2.06,2.06,0,0,0,1.69-.63,3.27,3.27,0,0,0,.52-2v-.24a3.8,3.8,0,0,0-.53-2.28,2,2,0,0,0-1.69-.68,1.74,1.74,0,0,0-1.53.78,3.9,3.9,0,0,0-.53,2.19,3.68,3.68,0,0,0,.53,2.17A1.8,1.8,0,0,0,462.79,195.41Z" transform="translate(-26.64 -20.25)"/><path class="cls-4" d="M473.37,194.18a1.87,1.87,0,0,1-.78,1.61,3.58,3.58,0,0,1-2.18.57,4.83,4.83,0,0,1-2.33-.47v-1.06a4.92,4.92,0,0,0,1.16.43,4.38,4.38,0,0,0,1.19.16,2.7,2.7,0,0,0,1.37-.28.94.94,0,0,0,.48-.87,1,1,0,0,0-.38-.75,6.37,6.37,0,0,0-1.48-.73,8.73,8.73,0,0,1-1.49-.68,1.87,1.87,0,0,1-.65-.66,1.81,1.81,0,0,1,.53-2.33,3.44,3.44,0,0,1,2-.53,6.06,6.06,0,0,1,2.37.49l-.41.93a5.52,5.52,0,0,0-2-.47,2.36,2.36,0,0,0-1.22.26.76.76,0,0,0-.41.69.8.8,0,0,0,.16.52,1.46,1.46,0,0,0,.49.4,11.67,11.67,0,0,0,1.31.55,4.84,4.84,0,0,1,1.8,1A1.73,1.73,0,0,1,473.37,194.18Z" transform="translate(-26.64 -20.25)"/><path class="cls-4" d="M393.27,220.07v4.15h-1.16v-10h2.74a4.26,4.26,0,0,1,2.71.7,2.55,2.55,0,0,1,.88,2.12,2.66,2.66,0,0,1-2,2.68l2.72,4.49h-1.38l-2.42-4.15Zm0-1h1.59a2.78,2.78,0,0,0,1.81-.49,1.85,1.85,0,0,0,.57-1.47,1.67,1.67,0,0,0-.59-1.43,3.22,3.22,0,0,0-1.87-.43h-1.51Z" transform="translate(-26.64 -20.25)"/><path class="cls-4" d="M403.75,224.36a3.45,3.45,0,0,1-2.62-1,3.93,3.93,0,0,1-1-2.81,4.37,4.37,0,0,1,.89-2.88,3,3,0,0,1,2.4-1.07,2.83,2.83,0,0,1,2.23.93,3.54,3.54,0,0,1,.82,2.44v.72h-5.16a3,3,0,0,0,.66,2,2.28,2.28,0,0,0,1.78.69,6,6,0,0,0,2.4-.51v1a5.87,5.87,0,0,1-1.14.38A6.71,6.71,0,0,1,403.75,224.36Zm-.3-6.82a1.87,1.87,0,0,0-1.44.59,2.65,2.65,0,0,0-.63,1.63h3.91a2.51,2.51,0,0,0-.48-1.65,1.67,1.67,0,0,0-1.36-.57Z" transform="translate(-26.64 -20.25)"/><path class="cls-4" d="M411.44,224.36a3.18,3.18,0,0,1-2.52-1,4.11,4.11,0,0,1-.89-2.84,4.22,4.22,0,0,1,.9-2.9,3.24,3.24,0,0,1,2.58-1,4.9,4.9,0,0,1,1.08.12,4.2,4.2,0,0,1,.85.27l-.35,1a4.84,4.84,0,0,0-.82-.25,3.47,3.47,0,0,0-.78-.1c-1.53,0-2.29,1-2.29,2.91a3.46,3.46,0,0,0,.56,2.12,1.94,1.94,0,0,0,1.65.74,5.09,5.09,0,0,0,1.92-.41v1A4.08,4.08,0,0,1,411.44,224.36Z" transform="translate(-26.64 -20.25)"/><path class="cls-4" d="M421.58,220.47a4.11,4.11,0,0,1-.93,2.86,3.21,3.21,0,0,1-2.55,1,3.37,3.37,0,0,1-1.78-.47,3.1,3.1,0,0,1-1.2-1.36,4.57,4.57,0,0,1-.43-2.06,4.19,4.19,0,0,1,.92-2.86,3.24,3.24,0,0,1,2.54-1,3.16,3.16,0,0,1,2.5,1A4.08,4.08,0,0,1,421.58,220.47Zm-5.71,0a3.61,3.61,0,0,0,.57,2.19,2.29,2.29,0,0,0,3.22.16,1.21,1.21,0,0,0,.16-.16,3.55,3.55,0,0,0,.58-2.19,3.48,3.48,0,0,0-.58-2.17,2.31,2.31,0,0,0-3.28-.11,1.14,1.14,0,0,0-.11.11A3.61,3.61,0,0,0,415.87,220.47Z" transform="translate(-26.64 -20.25)"/><path class="cls-4" d="M427,216.59a5.47,5.47,0,0,1,.9.08l-.16,1.06a3.76,3.76,0,0,0-.82-.11,2,2,0,0,0-1.56.74,2.74,2.74,0,0,0-.64,1.84v4h-1.14v-7.49h.94l.13,1.39h.06a3.2,3.2,0,0,1,1-1.13A2.19,2.19,0,0,1,427,216.59Z" transform="translate(-26.64 -20.25)"/><path class="cls-4" d="M434.38,223.22h-.06a2.69,2.69,0,0,1-2.35,1.14,2.76,2.76,0,0,1-2.29-1,4.34,4.34,0,0,1-.82-2.85,4.54,4.54,0,0,1,.82-2.88,2.76,2.76,0,0,1,2.29-1,2.71,2.71,0,0,1,2.33,1.11h.09l-.05-.54v-3.58h1.13v10.64h-.92Zm-2.27.19a2,2,0,0,0,1.68-.63,3.21,3.21,0,0,0,.53-2v-.24a3.8,3.8,0,0,0-.53-2.28,2,2,0,0,0-1.69-.68,1.74,1.74,0,0,0-1.53.78,3.82,3.82,0,0,0-.53,2.19,3.74,3.74,0,0,0,.52,2.17,1.82,1.82,0,0,0,1.55.69Z" transform="translate(-26.64 -20.25)"/><path class="cls-4" d="M448,224.22,446.7,221h-4l-1.23,3.18h-1.18l3.95-10h1l3.93,10ZM446.34,220l-1.16-3.1c-.15-.39-.31-.87-.47-1.44a11.92,11.92,0,0,1-.43,1.44l-1.17,3.1Z" transform="translate(-26.64 -20.25)"/><path class="cls-4" d="M451.42,216.73v4.86a2,2,0,0,0,.42,1.37,1.68,1.68,0,0,0,1.3.45,2.16,2.16,0,0,0,1.72-.64,3.27,3.27,0,0,0,.55-2.1v-3.94h1.13v7.49h-.94l-.16-1h-.06a2.22,2.22,0,0,1-1,.84,3.11,3.11,0,0,1-1.41.3,2.92,2.92,0,0,1-2.05-.65,2.77,2.77,0,0,1-.68-2.08v-4.9Z" transform="translate(-26.64 -20.25)"/><path class="cls-4" d="M464.05,223.22H464a2.68,2.68,0,0,1-2.36,1.14,2.74,2.74,0,0,1-2.28-1,4.34,4.34,0,0,1-.82-2.85,4.42,4.42,0,0,1,.82-2.88,3.12,3.12,0,0,1,4.64.07h.09l0-.54v-3.58h1.13v10.64h-.92Zm-2.27.19a2.07,2.07,0,0,0,1.68-.63,3.21,3.21,0,0,0,.53-2v-.24a3.8,3.8,0,0,0-.53-2.28,2,2,0,0,0-1.7-.68,1.71,1.71,0,0,0-1.52.78,3.82,3.82,0,0,0-.53,2.19,3.74,3.74,0,0,0,.52,2.17A1.82,1.82,0,0,0,461.78,223.41Z" transform="translate(-26.64 -20.25)"/><path class="cls-4" d="M467.43,214.7a.74.74,0,0,1,.19-.57.72.72,0,0,1,.95,0,.74.74,0,0,1,.2.57.78.78,0,0,1-.2.57.69.69,0,0,1-.95,0A.75.75,0,0,1,467.43,214.7Zm1.23,9.52h-1.13v-7.49h1.13Z" transform="translate(-26.64 -20.25)"/><path class="cls-4" d="M477.53,220.47a4.11,4.11,0,0,1-.92,2.86,3.21,3.21,0,0,1-2.55,1,3.37,3.37,0,0,1-1.78-.47,3.18,3.18,0,0,1-1.21-1.36,4.73,4.73,0,0,1-.42-2.06,4.19,4.19,0,0,1,.92-2.86,3.24,3.24,0,0,1,2.54-1,3.16,3.16,0,0,1,2.5,1A4.12,4.12,0,0,1,477.53,220.47Zm-5.7,0a3.61,3.61,0,0,0,.57,2.19,2.29,2.29,0,0,0,3.22.16,1.21,1.21,0,0,0,.16-.16,3.55,3.55,0,0,0,.58-2.19,3.48,3.48,0,0,0-.58-2.17,2.31,2.31,0,0,0-3.28-.11,1.14,1.14,0,0,0-.11.11A3.46,3.46,0,0,0,471.83,220.47Z" transform="translate(-26.64 -20.25)"/><circle class="cls-2" cx="411.81" cy="110.75" r="33.5"/><path class="cls-10" d="M448.62,124.27a6.09,6.09,0,0,1-1.53,4.07,7.54,7.54,0,0,1-4.13,2.25v.1a8.3,8.3,0,0,1,4.68,2,5.3,5.3,0,0,1,1.53,4.08,6.87,6.87,0,0,1-2.79,5.73c-1.81,1.34-4.39,2-7.71,1.93a18.84,18.84,0,0,1-7.4-1.51l.08-4.63a17.37,17.37,0,0,0,3.27,1.29,13.67,13.67,0,0,0,3.54.54,7,7,0,0,0,4-.85,3.34,3.34,0,0,0,1.33-2.91,2.64,2.64,0,0,0-1.43-2.59,10.81,10.81,0,0,0-4.7-.84h-1.95l.07-4.17h2a9.12,9.12,0,0,0,4.38-.7,2.84,2.84,0,0,0,1.43-2.66c0-1.94-1.17-2.94-3.61-3a8.36,8.36,0,0,0-2.58.38,12.25,12.25,0,0,0-2.94,1.41l-2.44-3.79a14,14,0,0,1,8.42-2.39,10.83,10.83,0,0,1,6.28,1.73A5.17,5.17,0,0,1,448.62,124.27Z" transform="translate(-26.64 -20.25)"/><path class="cls-4" d="M523.83,224.22v-10H525v8.94h4.41v1.05Z" transform="translate(-26.64 -20.25)"/><path class="cls-4" d="M535.53,224.22l-.22-1.06h-.06a3.18,3.18,0,0,1-1.11,1,3.34,3.34,0,0,1-1.4.25,2.45,2.45,0,0,1-1.74-.58,2.07,2.07,0,0,1-.63-1.63c0-1.51,1.21-2.31,3.63-2.38h1.27v-.46a1.93,1.93,0,0,0-.38-1.31,1.57,1.57,0,0,0-1.22-.42,4.91,4.91,0,0,0-2.12.58l-.34-.87a5.24,5.24,0,0,1,1.21-.47,4.88,4.88,0,0,1,1.32-.17,2.87,2.87,0,0,1,2,.59,2.48,2.48,0,0,1,.64,1.91v5.11Zm-2.56-.8a2.25,2.25,0,0,0,1.66-.58,2.1,2.1,0,0,0,.61-1.63v-.67H534.1a4.31,4.31,0,0,0-2,.42,1.27,1.27,0,0,0-.6,1.16,1.2,1.2,0,0,0,.38.94,1.56,1.56,0,0,0,1.12.36Z" transform="translate(-26.64 -20.25)"/><path class="cls-4" d="M537.52,216.73h1.22l1.64,4.27a17.24,17.24,0,0,1,.67,2.11h.05c.06-.23.19-.63.38-1.19s.8-2.29,1.85-5.19h1.22l-3.22,8.53a4.35,4.35,0,0,1-1.12,1.8,2.35,2.35,0,0,1-1.57.52,4.79,4.79,0,0,1-1-.11v-.91a4.78,4.78,0,0,0,.84.08,1.75,1.75,0,0,0,1.67-1.31l.41-1.07Z" transform="translate(-26.64 -20.25)"/><path class="cls-4" d="M552.23,220.47a4.11,4.11,0,0,1-.92,2.86,3.21,3.21,0,0,1-2.55,1,3.37,3.37,0,0,1-1.78-.47,3.18,3.18,0,0,1-1.21-1.36,4.73,4.73,0,0,1-.42-2.06,4.11,4.11,0,0,1,.92-2.86,3.24,3.24,0,0,1,2.54-1,3.16,3.16,0,0,1,2.5,1A4.12,4.12,0,0,1,552.23,220.47Zm-5.7,0a3.61,3.61,0,0,0,.57,2.19,2.29,2.29,0,0,0,3.22.16l.16-.16a3.55,3.55,0,0,0,.58-2.19,3.48,3.48,0,0,0-.58-2.17,2.32,2.32,0,0,0-3.39,0,3.51,3.51,0,0,0-.56,2.18Z" transform="translate(-26.64 -20.25)"/><path class="cls-4" d="M555.29,216.73v4.86a2,2,0,0,0,.42,1.37,1.68,1.68,0,0,0,1.3.45,2.16,2.16,0,0,0,1.72-.64,3.32,3.32,0,0,0,.54-2.1v-3.94h1.14v7.49h-.94l-.16-1h-.06a2.28,2.28,0,0,1-1,.84,3.11,3.11,0,0,1-1.41.3,2.91,2.91,0,0,1-2-.65,2.77,2.77,0,0,1-.68-2.08v-4.9Z" transform="translate(-26.64 -20.25)"/><path class="cls-4" d="M565.24,223.42a2.81,2.81,0,0,0,.58,0l.44-.09v.86a1.67,1.67,0,0,1-.54.15,3.49,3.49,0,0,1-.65.06c-1.45,0-2.17-.77-2.17-2.29v-4.46h-1.08v-.55l1.08-.47.48-1.6H564v1.74h2.18v.88H564V222a1.57,1.57,0,0,0,.32,1A1.12,1.12,0,0,0,565.24,223.42Z" transform="translate(-26.64 -20.25)"/><path class="cls-4" d="M572.59,222.18a1.87,1.87,0,0,1-.78,1.61,3.61,3.61,0,0,1-2.19.57,4.77,4.77,0,0,1-2.32-.47v-1.06a4.92,4.92,0,0,0,1.16.43,4.38,4.38,0,0,0,1.19.16,2.7,2.7,0,0,0,1.37-.28.94.94,0,0,0,.48-.87,1,1,0,0,0-.38-.75,6.37,6.37,0,0,0-1.48-.73,8,8,0,0,1-1.49-.68,2.08,2.08,0,0,1-.66-.66,1.69,1.69,0,0,1-.21-.88,1.71,1.71,0,0,1,.74-1.45,3.52,3.52,0,0,1,2.05-.53,6,6,0,0,1,2.36.49l-.4.93a5.52,5.52,0,0,0-2-.47,2.27,2.27,0,0,0-1.22.26.76.76,0,0,0-.41.69,1,1,0,0,0,.15.52,1.76,1.76,0,0,0,.5.4,10.06,10.06,0,0,0,1.31.55,4.84,4.84,0,0,1,1.8,1A1.76,1.76,0,0,1,572.59,222.18Z" transform="translate(-26.64 -20.25)"/><path class="cls-4" d="M526.78,196.22,525.54,193h-4l-1.23,3.18h-1.18l4-10h1l3.93,10ZM525.17,192,524,188.9c-.15-.39-.3-.87-.46-1.44a14,14,0,0,1-.43,1.44l-1.18,3.1Z" transform="translate(-26.64 -20.25)"/><path class="cls-4" d="M534.31,196.22v-4.85a2,2,0,0,0-.41-1.36,1.7,1.7,0,0,0-1.31-.45,2.16,2.16,0,0,0-1.72.63,3.19,3.19,0,0,0-.55,2.1v3.93h-1.13v-7.49h.92l.18,1h.06a2.36,2.36,0,0,1,1-.85,3.11,3.11,0,0,1,1.4-.31,2.81,2.81,0,0,1,2,.66,2.74,2.74,0,0,1,.69,2.08v4.89Z" transform="translate(-26.64 -20.25)"/><path class="cls-4" d="M537.68,186.7a.74.74,0,0,1,.2-.57.65.65,0,0,1,.47-.18.7.7,0,0,1,.48.18.74.74,0,0,1,.19.57.75.75,0,0,1-.19.57.66.66,0,0,1-.48.19.59.59,0,0,1-.47-.19A.78.78,0,0,1,537.68,186.7Zm1.23,9.52h-1.13v-7.49h1.13Z" transform="translate(-26.64 -20.25)"/><path class="cls-4" d="M550.87,196.22v-4.87a2.09,2.09,0,0,0-.38-1.35,1.51,1.51,0,0,0-1.19-.44,1.93,1.93,0,0,0-1.57.61,3,3,0,0,0-.5,1.87v4.18h-1.14v-4.87a2.09,2.09,0,0,0-.38-1.35,1.49,1.49,0,0,0-1.2-.44,1.86,1.86,0,0,0-1.56.64,3.49,3.49,0,0,0-.49,2.09v3.93h-1.14v-7.49h.92l.19,1h.05a2.4,2.4,0,0,1,.91-.85,2.81,2.81,0,0,1,1.31-.31,2.23,2.23,0,0,1,2.29,1.27h.06a2.42,2.42,0,0,1,1-.93,3.06,3.06,0,0,1,1.45-.34,2.5,2.5,0,0,1,1.9.66,2.9,2.9,0,0,1,.63,2.08v4.89Z" transform="translate(-26.64 -20.25)"/><path class="cls-4" d="M559,196.22l-.23-1.06h0a2.77,2.77,0,0,1-2.51,1.2,2.48,2.48,0,0,1-1.75-.58,2.07,2.07,0,0,1-.63-1.63c0-1.51,1.21-2.31,3.63-2.38h1.27v-.46a1.86,1.86,0,0,0-.38-1.31,1.53,1.53,0,0,0-1.21-.42,4.91,4.91,0,0,0-2.12.58l-.35-.87a5.49,5.49,0,0,1,1.22-.47,4.88,4.88,0,0,1,1.32-.17,2.87,2.87,0,0,1,2,.59,2.48,2.48,0,0,1,.64,1.91v5.11Zm-2.56-.8a2.25,2.25,0,0,0,1.66-.58,2.19,2.19,0,0,0,.61-1.63v-.67h-1.14a4.39,4.39,0,0,0-2,.42,1.27,1.27,0,0,0-.6,1.16,1.19,1.19,0,0,0,.37.94,1.59,1.59,0,0,0,1,.36Z" transform="translate(-26.64 -20.25)"/><path class="cls-4" d="M564.55,195.42a2.81,2.81,0,0,0,.58,0l.44-.09v.86a1.67,1.67,0,0,1-.54.15,3.49,3.49,0,0,1-.65.06c-1.44,0-2.17-.77-2.17-2.29v-4.46h-1.07v-.55l1.07-.47.48-1.6h.66v1.74h2.17v.88h-2.17V194a1.5,1.5,0,0,0,.32,1A1.11,1.11,0,0,0,564.55,195.42Z" transform="translate(-26.64 -20.25)"/><path class="cls-4" d="M567,186.7a.74.74,0,0,1,.19-.57.66.66,0,0,1,.48-.18.69.69,0,0,1,.47.18.74.74,0,0,1,.2.57.78.78,0,0,1-.2.57.68.68,0,0,1-.47.19.61.61,0,0,1-.48-.19A.75.75,0,0,1,567,186.7Zm1.23,9.52h-1.14v-7.49h1.14Z" transform="translate(-26.64 -20.25)"/><path class="cls-4" d="M573.61,196.36a3.18,3.18,0,0,1-2.52-1,4.11,4.11,0,0,1-.89-2.84,4.22,4.22,0,0,1,.9-2.9,3.24,3.24,0,0,1,2.58-1,4.9,4.9,0,0,1,1.08.12,4.2,4.2,0,0,1,.85.27l-.35,1a4.84,4.84,0,0,0-.82-.25,3.49,3.49,0,0,0-.79-.1q-2.28,0-2.28,2.91a3.46,3.46,0,0,0,.56,2.12,1.94,1.94,0,0,0,1.65.74,5.09,5.09,0,0,0,1.92-.41v1A4.08,4.08,0,0,1,573.61,196.36Z" transform="translate(-26.64 -20.25)"/><circle class="cls-2" cx="520.96" cy="110.75" r="33.5"/><path class="cls-10" d="M556.21,138.77h-3.1v5.33H547.8v-5.33h-11V135l11.26-16.6h5v16.16h3.1Zm-8.41-4.21V130.2c0-.73,0-1.78.09-3.17s.11-2.18.14-2.41h-.14a19.4,19.4,0,0,1-1.56,2.82l-4.71,7.12Z" transform="translate(-26.64 -20.25)"/><circle class="cls-2" cx="300.9" cy="110.75" r="33.5"/><path class="cls-10" d="M335.57,144.1h-18v-3.78L324,133.8c1.91-2,3.15-3.31,3.74-4.07a9.19,9.19,0,0,0,1.27-2.1,5.51,5.51,0,0,0,.38-2,2.92,2.92,0,0,0-.85-2.31,3.36,3.36,0,0,0-2.28-.75,6.61,6.61,0,0,0-2.9.68,15.56,15.56,0,0,0-2.93,2l-2.95-3.49a19.56,19.56,0,0,1,3.14-2.29,11.46,11.46,0,0,1,2.73-1,14.08,14.08,0,0,1,3.3-.36,9.74,9.74,0,0,1,4.25.88,6.79,6.79,0,0,1,2.87,2.46,6.51,6.51,0,0,1,1,3.62,8.83,8.83,0,0,1-.62,3.33,12.85,12.85,0,0,1-1.94,3.19,47.17,47.17,0,0,1-4.61,4.66l-3.31,3.11v.25h11.2Z" transform="translate(-26.64 -20.25)"/><path class="cls-4" d="M315.81,193.56a2.45,2.45,0,0,1-1,2.06,4.13,4.13,0,0,1-2.59.74,6.41,6.41,0,0,1-2.74-.46v-1.12a7.39,7.39,0,0,0,2.78.56,2.9,2.9,0,0,0,1.75-.44,1.46,1.46,0,0,0,.59-1.23,1.58,1.58,0,0,0-.21-.85,2,2,0,0,0-.7-.61,10.29,10.29,0,0,0-1.49-.64,4.63,4.63,0,0,1-2-1.18,2.62,2.62,0,0,1-.6-1.78,2.21,2.21,0,0,1,.87-1.84,3.59,3.59,0,0,1,2.3-.69,6.81,6.81,0,0,1,2.74.55l-.36,1a6.25,6.25,0,0,0-2.41-.52,2.3,2.3,0,0,0-1.44.4,1.29,1.29,0,0,0-.52,1.1,1.5,1.5,0,0,0,.84,1.46,7.82,7.82,0,0,0,1.39.61,5.61,5.61,0,0,1,2.16,1.2A2.43,2.43,0,0,1,315.81,193.56Z" transform="translate(-26.64 -20.25)"/><path class="cls-4" d="M320.1,195.42a2.91,2.91,0,0,0,.59,0l.44-.09v.86a1.67,1.67,0,0,1-.54.15,3.49,3.49,0,0,1-.65.06c-1.45,0-2.17-.77-2.17-2.29v-4.46h-1.08v-.55l1.08-.47.48-1.6h.65v1.74h2.18v.88H318.9V194a1.57,1.57,0,0,0,.32,1A1.11,1.11,0,0,0,320.1,195.42Z" transform="translate(-26.64 -20.25)"/><path class="cls-4" d="M329.09,192.47a4.11,4.11,0,0,1-.92,2.86,3.21,3.21,0,0,1-2.55,1,3.37,3.37,0,0,1-1.78-.47,3.18,3.18,0,0,1-1.21-1.36,4.73,4.73,0,0,1-.42-2.06,4.19,4.19,0,0,1,.92-2.86,3.24,3.24,0,0,1,2.54-1,3.18,3.18,0,0,1,2.5,1A4.13,4.13,0,0,1,329.09,192.47Zm-5.7,0a3.61,3.61,0,0,0,.57,2.19,2.29,2.29,0,0,0,3.22.16,1.21,1.21,0,0,0,.16-.16,3.55,3.55,0,0,0,.58-2.19,3.48,3.48,0,0,0-.58-2.17,2.31,2.31,0,0,0-3.28-.11,1.14,1.14,0,0,0-.11.11,3.61,3.61,0,0,0-.56,2.17Z" transform="translate(-26.64 -20.25)"/><path class="cls-4" d="M334.5,188.59a5.47,5.47,0,0,1,.9.08l-.16,1.06a3.76,3.76,0,0,0-.82-.11,2,2,0,0,0-1.56.74,2.74,2.74,0,0,0-.64,1.84v4h-1.14v-7.49H332l.13,1.39h.05a3.2,3.2,0,0,1,1-1.13A2.21,2.21,0,0,1,334.5,188.59Z" transform="translate(-26.64 -20.25)"/><path class="cls-4" d="M335.61,188.73h1.22l1.64,4.27a17.24,17.24,0,0,1,.67,2.11h.05c.06-.23.18-.63.37-1.19s.81-2.29,1.86-5.19h1.22l-3.22,8.53a4.35,4.35,0,0,1-1.12,1.8,2.42,2.42,0,0,1-1.57.52,4.79,4.79,0,0,1-1-.11v-.91a4.8,4.8,0,0,0,.85.08,1.73,1.73,0,0,0,1.66-1.31l.42-1.07Z" transform="translate(-26.64 -20.25)"/><path class="cls-4" d="M291,209.13a5,5,0,0,1-1.35,3.78,5.25,5.25,0,0,1-3.86,1.31H283v-10h3.06a4.48,4.48,0,0,1,4.92,4,4.61,4.61,0,0,1,0,.91Zm-1.23,0a4.07,4.07,0,0,0-1-2.95,4,4,0,0,0-2.92-1h-1.69v8h1.42a4.32,4.32,0,0,0,3.12-1,4,4,0,0,0,1.06-3Z" transform="translate(-26.64 -20.25)"/><path class="cls-4" d="M296.21,214.36a3.45,3.45,0,0,1-2.62-1,3.93,3.93,0,0,1-1-2.81,4.37,4.37,0,0,1,.89-2.88,3,3,0,0,1,2.4-1.07,2.8,2.8,0,0,1,2.22.93A3.51,3.51,0,0,1,299,210v.72h-5.2a3,3,0,0,0,.67,2,2.28,2.28,0,0,0,1.78.69,6,6,0,0,0,2.39-.51v1a6.26,6.26,0,0,1-1.13.38A7.1,7.1,0,0,1,296.21,214.36Zm-.31-6.82a1.87,1.87,0,0,0-1.44.59,2.77,2.77,0,0,0-.63,1.63h3.92a2.51,2.51,0,0,0-.48-1.65,1.7,1.7,0,0,0-1.37-.57Z" transform="translate(-26.64 -20.25)"/><path class="cls-4" d="M302.54,214.22l-2.84-7.49h1.21l1.62,4.44c.36,1,.57,1.72.64,2h.05a13.09,13.09,0,0,1,.48-1.5c.27-.76.86-2.42,1.79-5h1.22l-2.84,7.49Z" transform="translate(-26.64 -20.25)"/><path class="cls-4" d="M311.08,214.36a3.45,3.45,0,0,1-2.62-1,3.93,3.93,0,0,1-1-2.81,4.32,4.32,0,0,1,.89-2.88,3,3,0,0,1,2.39-1.07,2.82,2.82,0,0,1,2.23.93,3.54,3.54,0,0,1,.82,2.44v.72h-5.16a3,3,0,0,0,.67,2,2.27,2.27,0,0,0,1.78.69,6,6,0,0,0,2.39-.51v1a5.87,5.87,0,0,1-1.14.38A6.53,6.53,0,0,1,311.08,214.36Zm-.31-6.82a1.87,1.87,0,0,0-1.44.59,2.65,2.65,0,0,0-.63,1.63h3.92a2.51,2.51,0,0,0-.48-1.65,1.7,1.7,0,0,0-1.37-.57Z" transform="translate(-26.64 -20.25)"/><path class="cls-4" d="M316.9,214.22h-1.13V203.58h1.13Z" transform="translate(-26.64 -20.25)"/><path class="cls-4" d="M325.78,210.47a4.11,4.11,0,0,1-.93,2.86,3.21,3.21,0,0,1-2.55,1,3.37,3.37,0,0,1-1.78-.47,3.1,3.1,0,0,1-1.2-1.36,4.57,4.57,0,0,1-.43-2.06,4.19,4.19,0,0,1,.92-2.86,3.24,3.24,0,0,1,2.54-1,3.16,3.16,0,0,1,2.5,1A4.08,4.08,0,0,1,325.78,210.47Zm-5.71,0a3.61,3.61,0,0,0,.57,2.19,2.29,2.29,0,0,0,3.22.16,1.21,1.21,0,0,0,.16-.16,3.55,3.55,0,0,0,.58-2.19,3.48,3.48,0,0,0-.58-2.17,2.31,2.31,0,0,0-3.28-.11,1.14,1.14,0,0,0-.11.11A3.61,3.61,0,0,0,320.07,210.47Z" transform="translate(-26.64 -20.25)"/><path class="cls-4" d="M331.25,214.36a3.24,3.24,0,0,1-1.34-.27,2.51,2.51,0,0,1-1-.83h-.08a10.32,10.32,0,0,1,.08,1.24v3.08h-1.14V206.73h.93l.15,1h.06a2.57,2.57,0,0,1,1-.88,3.06,3.06,0,0,1,1.33-.28,2.78,2.78,0,0,1,2.3,1,5.43,5.43,0,0,1,0,5.73A2.79,2.79,0,0,1,331.25,214.36Zm-.16-6.8a2,2,0,0,0-1.66.63,3.21,3.21,0,0,0-.53,2v.25a3.74,3.74,0,0,0,.53,2.26,2,2,0,0,0,1.68.68,1.77,1.77,0,0,0,1.53-.79,3.74,3.74,0,0,0,.55-2.16,3.61,3.61,0,0,0-.55-2.15A1.83,1.83,0,0,0,331.09,207.56Z" transform="translate(-26.64 -20.25)"/><path class="cls-4" d="M345.89,214.22v-4.87a2,2,0,0,0-.38-1.35,1.47,1.47,0,0,0-1.19-.44,1.88,1.88,0,0,0-1.56.61,2.89,2.89,0,0,0-.51,1.87v4.18h-1.13v-4.87a2,2,0,0,0-.39-1.35,1.47,1.47,0,0,0-1.19-.44,1.87,1.87,0,0,0-1.57.64,3.49,3.49,0,0,0-.49,2.09v3.93h-1.14v-7.49h.93l.18,1h.06a2.23,2.23,0,0,1,.9-.85,2.84,2.84,0,0,1,1.31-.31,2.23,2.23,0,0,1,2.3,1.27h.05a2.49,2.49,0,0,1,1-.93,3.19,3.19,0,0,1,1.45-.34,2.58,2.58,0,0,1,1.91.66,2.9,2.9,0,0,1,.63,2.08v4.89Z" transform="translate(-26.64 -20.25)"/><path class="cls-4" d="M352.53,214.36a3.45,3.45,0,0,1-2.62-1,3.93,3.93,0,0,1-1-2.81,4.37,4.37,0,0,1,.89-2.88,3,3,0,0,1,2.4-1.07,2.83,2.83,0,0,1,2.23.93,3.54,3.54,0,0,1,.82,2.44v.72h-5.17a3,3,0,0,0,.67,2,2.28,2.28,0,0,0,1.78.69,6,6,0,0,0,2.39-.51v1a6.26,6.26,0,0,1-1.13.38A6.71,6.71,0,0,1,352.53,214.36Zm-.31-6.82a1.87,1.87,0,0,0-1.44.59,2.77,2.77,0,0,0-.63,1.63h3.92a2.51,2.51,0,0,0-.48-1.65,1.69,1.69,0,0,0-1.37-.57Z" transform="translate(-26.64 -20.25)"/><path class="cls-4" d="M362.35,214.22v-4.85a1.91,1.91,0,0,0-.42-1.36,1.7,1.7,0,0,0-1.31-.45,2.19,2.19,0,0,0-1.72.63,3.32,3.32,0,0,0-.54,2.1v3.93h-1.14v-7.49h.92l.19,1h.05a2.36,2.36,0,0,1,1-.85,3.11,3.11,0,0,1,1.4-.31,2.85,2.85,0,0,1,2,.66,2.77,2.77,0,0,1,.68,2.08v4.89Z" transform="translate(-26.64 -20.25)"/><path class="cls-4" d="M368.23,213.42a2.81,2.81,0,0,0,.58,0l.45-.09v.86a2.39,2.39,0,0,1-.54.15,3.49,3.49,0,0,1-.65.06c-1.45,0-2.17-.77-2.17-2.29v-4.46h-1.08v-.55l1.08-.47.47-1.6H367v1.74h2.17v.88H367V212a1.57,1.57,0,0,0,.32,1A1.14,1.14,0,0,0,368.23,213.42Z" transform="translate(-26.64 -20.25)"/></g></svg>