<!-- Generator: Adobe Illustrator 19.2.0, SVG Export Plug-In  -->
<svg version="1.1"
	 xmlns="http://www.w3.org/2000/svg" xmlns:xlink="http://www.w3.org/1999/xlink" xmlns:a="http://ns.adobe.com/AdobeSVGViewerExtensions/3.0/"
	 x="0px" y="0px" width="569.5px" height="183.5px" viewBox="0 0 569.5 183.5" style="enable-background:new 0 0 569.5 183.5;"
	 xml:space="preserve">
<style type="text/css">
	.st0{opacity:0.33;}
	.st1{fill:#6F6C5A;}
	
		.st2{fill:none;stroke:#6F6C5A;stroke-width:1.5;stroke-linecap:round;stroke-linejoin:round;stroke-miterlimit:10;stroke-dasharray:5.000000e-02,3;}
	.st3{fill:#6F6B5A;}
</style>
<defs>
</defs>
<g class="st0">
	<path class="st1" d="M568.8,140.2c-0.4,0-0.8-0.3-0.8-0.8s0.3-0.8,0.7-0.8h0c0.4,0,0.8,0.3,0.8,0.8S569.2,140.2,568.8,140.2z
		 M565.8,140.2c-0.4,0-0.8-0.3-0.8-0.8s0.3-0.8,0.7-0.8h0c0.4,0,0.8,0.3,0.8,0.8S566.2,140.2,565.8,140.2z M562.7,140.2
		c-0.4,0-0.8-0.3-0.8-0.8s0.3-0.8,0.7-0.8h0c0.4,0,0.8,0.3,0.8,0.8S563.1,140.2,562.7,140.2z M559.7,140.2c-0.4,0-0.8-0.3-0.8-0.8
		s0.3-0.8,0.7-0.8h0c0.4,0,0.8,0.3,0.8,0.8S560.1,140.2,559.7,140.2z M556.6,140.2c-0.4,0-0.8-0.3-0.8-0.8s0.3-0.8,0.7-0.8h0
		c0.4,0,0.8,0.3,0.8,0.8S557,140.2,556.6,140.2z M553.6,140.2c-0.4,0-0.8-0.3-0.8-0.8s0.3-0.8,0.7-0.8h0.1c0.4,0,0.8,0.3,0.8,0.8
		S554,140.2,553.6,140.2z M550.5,140.2c-0.4,0-0.8-0.3-0.8-0.8s0.3-0.8,0.7-0.8h0c0.4,0,0.8,0.3,0.8,0.8S550.9,140.2,550.5,140.2z
		 M547.5,140.2c-0.4,0-0.8-0.3-0.8-0.8s0.3-0.8,0.7-0.8h0c0.4,0,0.8,0.3,0.8,0.8S547.9,140.2,547.5,140.2z M544.4,140.2
		c-0.4,0-0.8-0.3-0.8-0.8s0.3-0.8,0.7-0.8h0c0.4,0,0.8,0.3,0.8,0.8S544.8,140.2,544.4,140.2z M541.4,140.2c-0.4,0-0.8-0.3-0.8-0.8
		s0.3-0.8,0.7-0.8h0c0.4,0,0.8,0.3,0.8,0.8S541.8,140.2,541.4,140.2z M538.3,140.2c-0.4,0-0.8-0.3-0.8-0.8s0.3-0.8,0.7-0.8h0.1
		c0.4,0,0.8,0.3,0.8,0.8S538.7,140.2,538.3,140.2z M535.3,140.2c-0.4,0-0.8-0.3-0.8-0.8s0.3-0.8,0.7-0.8h0c0.4,0,0.8,0.3,0.8,0.8
		S535.7,140.2,535.3,140.2z M532.2,140.2c-0.4,0-0.8-0.3-0.8-0.8s0.3-0.8,0.7-0.8h0c0.4,0,0.8,0.3,0.8,0.8S532.6,140.2,532.2,140.2z
		 M529.2,140.2c-0.4,0-0.8-0.3-0.8-0.8s0.3-0.8,0.7-0.8h0c0.4,0,0.8,0.3,0.8,0.8S529.6,140.2,529.2,140.2z M526.1,140.2
		c-0.4,0-0.8-0.3-0.8-0.8s0.3-0.8,0.7-0.8h0c0.4,0,0.8,0.3,0.8,0.8S526.5,140.2,526.1,140.2z M523.1,140.2c-0.4,0-0.8-0.3-0.8-0.8
		s0.3-0.8,0.7-0.8h0.1c0.4,0,0.8,0.3,0.8,0.8S523.5,140.2,523.1,140.2z M520,140.2c-0.4,0-0.8-0.3-0.8-0.8s0.3-0.8,0.7-0.8h0
		c0.4,0,0.8,0.3,0.8,0.8S520.4,140.2,520,140.2z M517,140.2c-0.4,0-0.8-0.3-0.8-0.8s0.3-0.8,0.7-0.8h0c0.4,0,0.8,0.3,0.8,0.8
		S517.4,140.2,517,140.2z M513.9,140.2c-0.4,0-0.8-0.3-0.8-0.8s0.3-0.8,0.7-0.8h0c0.4,0,0.8,0.3,0.8,0.8S514.3,140.2,513.9,140.2z
		 M510.9,140.2c-0.4,0-0.8-0.3-0.8-0.8s0.3-0.8,0.7-0.8h0.1c0.4,0,0.8,0.3,0.8,0.8S511.3,140.2,510.9,140.2z M507.8,140.2
		c-0.4,0-0.8-0.3-0.8-0.8s0.3-0.8,0.7-0.8h0c0.4,0,0.8,0.3,0.8,0.8S508.2,140.2,507.8,140.2z M504.8,140.2c-0.4,0-0.8-0.3-0.8-0.8
		s0.3-0.8,0.7-0.8h0c0.4,0,0.8,0.3,0.8,0.8S505.2,140.2,504.8,140.2z M501.7,140.2c-0.4,0-0.8-0.3-0.8-0.8s0.3-0.8,0.7-0.8h0
		c0.4,0,0.8,0.3,0.8,0.8S502.1,140.2,501.7,140.2z M498.7,140.2c-0.4,0-0.8-0.3-0.8-0.8s0.3-0.8,0.7-0.8h0c0.4,0,0.8,0.3,0.8,0.8
		S499.1,140.2,498.7,140.2z M495.6,140.2c-0.4,0-0.8-0.3-0.8-0.8s0.3-0.8,0.7-0.8h0.1c0.4,0,0.8,0.3,0.8,0.8S496,140.2,495.6,140.2z
		 M492.6,140.2c-0.4,0-0.8-0.3-0.8-0.8s0.3-0.8,0.7-0.8h0c0.4,0,0.8,0.3,0.8,0.8S493,140.2,492.6,140.2z M489.5,140.2
		c-0.4,0-0.8-0.3-0.8-0.8s0.3-0.8,0.7-0.8h0c0.4,0,0.8,0.3,0.8,0.8S489.9,140.2,489.5,140.2z M486.5,140.2c-0.4,0-0.8-0.3-0.8-0.8
		s0.3-0.8,0.7-0.8h0c0.4,0,0.8,0.3,0.8,0.8S486.9,140.2,486.5,140.2z M483.4,140.2c-0.4,0-0.8-0.3-0.8-0.8s0.3-0.8,0.7-0.8h0
		c0.4,0,0.8,0.3,0.8,0.8S483.8,140.2,483.4,140.2z M480.4,140.2c-0.4,0-0.8-0.3-0.8-0.8s0.3-0.8,0.7-0.8h0.1c0.4,0,0.8,0.3,0.8,0.8
		S480.8,140.2,480.4,140.2z M477.3,140.2c-0.4,0-0.8-0.3-0.8-0.8s0.3-0.8,0.7-0.8h0c0.4,0,0.8,0.3,0.8,0.8S477.7,140.2,477.3,140.2z
		 M474.3,140.2c-0.4,0-0.8-0.3-0.8-0.8s0.3-0.8,0.7-0.8h0c0.4,0,0.8,0.3,0.8,0.8S474.7,140.2,474.3,140.2z M471.2,140.2
		c-0.4,0-0.8-0.3-0.8-0.8s0.3-0.8,0.7-0.8h0c0.4,0,0.8,0.3,0.8,0.8S471.6,140.2,471.2,140.2z M468.2,140.2c-0.4,0-0.8-0.3-0.8-0.8
		s0.3-0.8,0.7-0.8h0c0.4,0,0.8,0.3,0.8,0.8S468.6,140.2,468.2,140.2z M465.1,140.2c-0.4,0-0.8-0.3-0.8-0.8s0.3-0.8,0.7-0.8h0.1
		c0.4,0,0.8,0.3,0.8,0.8S465.5,140.2,465.1,140.2z M462.1,140.2c-0.4,0-0.8-0.3-0.8-0.8s0.3-0.8,0.7-0.8h0c0.4,0,0.8,0.3,0.8,0.8
		S462.5,140.2,462.1,140.2z M459,140.2c-0.4,0-0.8-0.3-0.8-0.8s0.3-0.8,0.7-0.8h0c0.4,0,0.8,0.3,0.8,0.8S459.4,140.2,459,140.2z
		 M456,140.2c-0.4,0-0.8-0.3-0.8-0.8s0.3-0.8,0.7-0.8h0c0.4,0,0.8,0.3,0.8,0.8S456.4,140.2,456,140.2z M452.9,140.2
		c-0.4,0-0.8-0.3-0.8-0.8s0.3-0.8,0.7-0.8h0c0.4,0,0.8,0.3,0.8,0.8S453.3,140.2,452.9,140.2z M449.9,140.2c-0.4,0-0.8-0.3-0.8-0.8
		s0.3-0.8,0.7-0.8h0.1c0.4,0,0.8,0.3,0.8,0.8S450.3,140.2,449.9,140.2z M446.8,140.2c-0.4,0-0.8-0.3-0.8-0.8s0.3-0.8,0.7-0.8h0
		c0.4,0,0.8,0.3,0.8,0.8S447.2,140.2,446.8,140.2z M443.8,140.2c-0.4,0-0.8-0.3-0.8-0.8s0.3-0.8,0.7-0.8h0c0.4,0,0.8,0.3,0.8,0.8
		S444.2,140.2,443.8,140.2z M440.7,140.2c-0.4,0-0.8-0.3-0.8-0.8s0.3-0.8,0.7-0.8h0c0.4,0,0.8,0.3,0.8,0.8S441.1,140.2,440.7,140.2z
		 M437.7,140.2c-0.4,0-0.8-0.3-0.8-0.8s0.3-0.8,0.7-0.8h0c0.4,0,0.8,0.3,0.8,0.8S438.1,140.2,437.7,140.2z M434.6,140.2
		c-0.4,0-0.8-0.3-0.8-0.8s0.3-0.8,0.7-0.8h0.1c0.4,0,0.8,0.3,0.8,0.8S435,140.2,434.6,140.2z M431.6,140.2c-0.4,0-0.8-0.3-0.8-0.8
		s0.3-0.8,0.7-0.8h0c0.4,0,0.8,0.3,0.8,0.8S432,140.2,431.6,140.2z M428.5,140.2c-0.4,0-0.8-0.3-0.8-0.8s0.3-0.8,0.7-0.8h0
		c0.4,0,0.8,0.3,0.8,0.8S428.9,140.2,428.5,140.2z M425.5,140.2c-0.4,0-0.8-0.3-0.8-0.8s0.3-0.8,0.7-0.8h0c0.4,0,0.8,0.3,0.8,0.8
		S425.9,140.2,425.5,140.2z M422.4,140.2c-0.4,0-0.8-0.3-0.8-0.8s0.3-0.8,0.7-0.8h0c0.4,0,0.8,0.3,0.8,0.8S422.8,140.2,422.4,140.2z
		 M419.4,140.2c-0.4,0-0.8-0.3-0.8-0.8s0.3-0.8,0.7-0.8h0.1c0.4,0,0.8,0.3,0.8,0.8S419.8,140.2,419.4,140.2z M416.3,140.2
		c-0.4,0-0.8-0.3-0.8-0.8s0.3-0.8,0.7-0.8h0c0.4,0,0.8,0.3,0.8,0.8S416.7,140.2,416.3,140.2z M413.3,140.2c-0.4,0-0.8-0.3-0.8-0.8
		s0.3-0.8,0.7-0.8h0c0.4,0,0.8,0.3,0.8,0.8S413.7,140.2,413.3,140.2z M410.2,140.2c-0.4,0-0.8-0.3-0.8-0.8s0.3-0.8,0.7-0.8h0
		c0.4,0,0.8,0.3,0.8,0.8S410.6,140.2,410.2,140.2z M407.2,140.2c-0.4,0-0.8-0.3-0.8-0.8s0.3-0.8,0.7-0.8h0.1c0.4,0,0.8,0.3,0.8,0.8
		S407.6,140.2,407.2,140.2z M404.1,140.2c-0.4,0-0.8-0.3-0.8-0.8s0.3-0.8,0.7-0.8h0c0.4,0,0.8,0.3,0.8,0.8S404.5,140.2,404.1,140.2z
		 M401.1,140.2c-0.4,0-0.8-0.3-0.8-0.8s0.3-0.8,0.7-0.8h0c0.4,0,0.8,0.3,0.8,0.8S401.5,140.2,401.1,140.2z M398,140.2
		c-0.4,0-0.8-0.3-0.8-0.8s0.3-0.8,0.7-0.8h0c0.4,0,0.8,0.3,0.8,0.8S398.4,140.2,398,140.2z M395,140.2c-0.4,0-0.8-0.3-0.8-0.8
		s0.3-0.8,0.7-0.8h0c0.4,0,0.8,0.3,0.8,0.8S395.4,140.2,395,140.2z M391.9,140.2c-0.4,0-0.8-0.3-0.8-0.8s0.3-0.8,0.7-0.8h0.1
		c0.4,0,0.8,0.3,0.8,0.8S392.3,140.2,391.9,140.2z M388.9,140.2c-0.4,0-0.8-0.3-0.8-0.8s0.3-0.8,0.7-0.8h0c0.4,0,0.8,0.3,0.8,0.8
		S389.3,140.2,388.9,140.2z M385.8,140.2c-0.4,0-0.8-0.3-0.8-0.8s0.3-0.8,0.7-0.8h0c0.4,0,0.8,0.3,0.8,0.8S386.2,140.2,385.8,140.2z
		 M382.8,140.2c-0.4,0-0.8-0.3-0.8-0.8s0.3-0.8,0.7-0.8h0c0.4,0,0.8,0.3,0.8,0.8S383.2,140.2,382.8,140.2z M379.7,140.2
		c-0.4,0-0.8-0.3-0.8-0.8s0.3-0.8,0.7-0.8h0c0.4,0,0.8,0.3,0.8,0.8S380.1,140.2,379.7,140.2z M376.7,140.2c-0.4,0-0.8-0.3-0.8-0.8
		s0.3-0.8,0.7-0.8h0.1c0.4,0,0.8,0.3,0.8,0.8S377.1,140.2,376.7,140.2z M373.6,140.2c-0.4,0-0.8-0.3-0.8-0.8s0.3-0.8,0.7-0.8h0
		c0.4,0,0.8,0.3,0.8,0.8S374,140.2,373.6,140.2z M370.6,140.2c-0.4,0-0.8-0.3-0.8-0.8s0.3-0.8,0.7-0.8h0c0.4,0,0.8,0.3,0.8,0.8
		S371,140.2,370.6,140.2z M367.5,140.2c-0.4,0-0.8-0.3-0.8-0.8s0.3-0.8,0.7-0.8h0c0.4,0,0.8,0.3,0.8,0.8S367.9,140.2,367.5,140.2z
		 M364.5,140.2c-0.4,0-0.8-0.3-0.8-0.8s0.3-0.8,0.7-0.8h0c0.4,0,0.8,0.3,0.8,0.8S364.9,140.2,364.5,140.2z M361.4,140.2
		c-0.4,0-0.8-0.3-0.8-0.8s0.3-0.8,0.7-0.8h0.1c0.4,0,0.8,0.3,0.8,0.8S361.8,140.2,361.4,140.2z M358.4,140.2c-0.4,0-0.8-0.3-0.8-0.8
		s0.3-0.8,0.7-0.8h0c0.4,0,0.8,0.3,0.8,0.8S358.8,140.2,358.4,140.2z M355.3,140.2c-0.4,0-0.8-0.3-0.8-0.8s0.3-0.8,0.7-0.8h0
		c0.4,0,0.8,0.3,0.8,0.8S355.7,140.2,355.3,140.2z M352.3,140.2c-0.4,0-0.8-0.3-0.8-0.8s0.3-0.8,0.7-0.8h0c0.4,0,0.8,0.3,0.8,0.8
		S352.7,140.2,352.3,140.2z M349.2,140.2c-0.4,0-0.8-0.3-0.8-0.8s0.3-0.8,0.7-0.8h0c0.4,0,0.8,0.3,0.8,0.8S349.6,140.2,349.2,140.2z
		 M346.2,140.2c-0.4,0-0.8-0.3-0.8-0.8s0.3-0.8,0.7-0.8h0.1c0.4,0,0.8,0.3,0.8,0.8S346.6,140.2,346.2,140.2z M343.1,140.2
		c-0.4,0-0.8-0.3-0.8-0.8s0.3-0.8,0.7-0.8h0c0.4,0,0.8,0.3,0.8,0.8S343.5,140.2,343.1,140.2z M340.1,140.2c-0.4,0-0.8-0.3-0.8-0.8
		s0.3-0.8,0.7-0.8h0c0.4,0,0.8,0.3,0.8,0.8S340.5,140.2,340.1,140.2z M337,140.2c-0.4,0-0.8-0.3-0.8-0.8s0.3-0.8,0.7-0.8h0
		c0.4,0,0.8,0.3,0.8,0.8S337.4,140.2,337,140.2z M334,140.2c-0.4,0-0.8-0.3-0.8-0.8s0.3-0.8,0.7-0.8h0c0.4,0,0.8,0.3,0.8,0.8
		S334.4,140.2,334,140.2z M330.9,140.2c-0.4,0-0.8-0.3-0.8-0.8s0.3-0.8,0.7-0.8h0.1c0.4,0,0.8,0.3,0.8,0.8S331.3,140.2,330.9,140.2z
		 M327.9,140.2c-0.4,0-0.8-0.3-0.8-0.8s0.3-0.8,0.7-0.8h0c0.4,0,0.8,0.3,0.8,0.8S328.3,140.2,327.9,140.2z M324.8,140.2
		c-0.4,0-0.8-0.3-0.8-0.8s0.3-0.8,0.7-0.8h0c0.4,0,0.8,0.3,0.8,0.8S325.2,140.2,324.8,140.2z M321.8,140.2c-0.4,0-0.8-0.3-0.8-0.8
		s0.3-0.8,0.7-0.8h0c0.4,0,0.8,0.3,0.8,0.8S322.2,140.2,321.8,140.2z M318.7,140.2c-0.4,0-0.8-0.3-0.8-0.8s0.3-0.8,0.7-0.8h0.1
		c0.4,0,0.8,0.3,0.8,0.8S319.1,140.2,318.7,140.2z M315.7,140.2c-0.4,0-0.8-0.3-0.8-0.8s0.3-0.8,0.7-0.8h0c0.4,0,0.8,0.3,0.8,0.8
		S316.1,140.2,315.7,140.2z M312.6,140.2c-0.4,0-0.8-0.3-0.8-0.8s0.3-0.8,0.7-0.8h0c0.4,0,0.8,0.3,0.8,0.8S313,140.2,312.6,140.2z
		 M309.6,140.2c-0.4,0-0.8-0.3-0.8-0.8s0.3-0.8,0.7-0.8h0c0.4,0,0.8,0.3,0.8,0.8S310,140.2,309.6,140.2z M306.5,140.2
		c-0.4,0-0.8-0.3-0.8-0.8s0.3-0.8,0.7-0.8h0c0.4,0,0.8,0.3,0.8,0.8S306.9,140.2,306.5,140.2z M303.5,140.2c-0.4,0-0.8-0.3-0.8-0.8
		s0.3-0.8,0.7-0.8h0.1c0.4,0,0.8,0.3,0.8,0.8S303.9,140.2,303.5,140.2z M300.4,140.2c-0.4,0-0.8-0.3-0.8-0.8s0.3-0.8,0.7-0.8h0
		c0.4,0,0.8,0.3,0.8,0.8S300.8,140.2,300.4,140.2z M297.4,140.2c-0.4,0-0.8-0.3-0.8-0.8s0.3-0.8,0.7-0.8h0c0.4,0,0.8,0.3,0.8,0.8
		S297.8,140.2,297.4,140.2z M294.3,140.2c-0.4,0-0.8-0.3-0.8-0.8s0.3-0.8,0.7-0.8h0c0.4,0,0.8,0.3,0.8,0.8S294.7,140.2,294.3,140.2z
		 M291.3,140.2c-0.4,0-0.8-0.3-0.8-0.8s0.3-0.8,0.7-0.8h0c0.4,0,0.8,0.3,0.8,0.8S291.7,140.2,291.3,140.2z M288.2,140.2
		c-0.4,0-0.8-0.3-0.8-0.8s0.3-0.8,0.7-0.8h0c0.4,0,0.8,0.3,0.8,0.8S288.6,140.2,288.2,140.2z M285.2,140.2c-0.4,0-0.8-0.3-0.8-0.8
		s0.3-0.8,0.7-0.8h0c0.4,0,0.8,0.3,0.8,0.8S285.6,140.2,285.2,140.2z M282.1,140.2c-0.4,0-0.8-0.3-0.8-0.8s0.3-0.8,0.7-0.8h0.1
		c0.4,0,0.8,0.3,0.8,0.8S282.5,140.2,282.1,140.2z M279.1,140.2c-0.4,0-0.8-0.3-0.8-0.8s0.3-0.8,0.7-0.8h0c0.4,0,0.8,0.3,0.8,0.8
		S279.5,140.2,279.1,140.2z M276,140.2c-0.4,0-0.8-0.3-0.8-0.8s0.3-0.8,0.7-0.8h0c0.4,0,0.8,0.3,0.8,0.8S276.4,140.2,276,140.2z
		 M273,140.2c-0.4,0-0.8-0.3-0.8-0.8s0.3-0.8,0.7-0.8h0.1c0.4,0,0.8,0.3,0.8,0.8S273.4,140.2,273,140.2z M269.9,140.2
		c-0.4,0-0.8-0.3-0.8-0.8s0.3-0.8,0.7-0.8h0c0.4,0,0.8,0.3,0.8,0.8S270.3,140.2,269.9,140.2z M266.9,140.2c-0.4,0-0.8-0.3-0.8-0.8
		s0.3-0.8,0.7-0.8h0.1c0.4,0,0.8,0.3,0.8,0.8S267.3,140.2,266.9,140.2z M263.8,140.2c-0.4,0-0.8-0.3-0.8-0.8s0.3-0.8,0.7-0.8h0
		c0.4,0,0.8,0.3,0.8,0.8S264.2,140.2,263.8,140.2z M260.8,140.2c-0.4,0-0.8-0.3-0.8-0.8s0.3-0.8,0.7-0.8h0c0.4,0,0.8,0.3,0.8,0.8
		S261.2,140.2,260.8,140.2z M257.7,140.2c-0.4,0-0.8-0.3-0.8-0.8s0.3-0.8,0.7-0.8h0.1c0.4,0,0.8,0.3,0.8,0.8
		S258.1,140.2,257.7,140.2z M254.7,140.2c-0.4,0-0.8-0.3-0.8-0.8s0.3-0.8,0.7-0.8h0c0.4,0,0.8,0.3,0.8,0.8S255.1,140.2,254.7,140.2z
		 M251.6,140.2c-0.4,0-0.8-0.3-0.8-0.8s0.3-0.8,0.7-0.8h0.1c0.4,0,0.8,0.3,0.8,0.8S252,140.2,251.6,140.2z M248.6,140.2
		c-0.4,0-0.8-0.3-0.8-0.8s0.3-0.8,0.7-0.8h0c0.4,0,0.8,0.3,0.8,0.8S249,140.2,248.6,140.2z M245.5,140.2c-0.4,0-0.8-0.3-0.8-0.8
		s0.3-0.8,0.7-0.8h0c0.4,0,0.8,0.3,0.8,0.8S245.9,140.2,245.5,140.2z M242.5,140.2c-0.4,0-0.8-0.3-0.8-0.8s0.3-0.8,0.7-0.8h0.1
		c0.4,0,0.8,0.3,0.8,0.8S242.9,140.2,242.5,140.2z M239.4,140.2c-0.4,0-0.8-0.3-0.8-0.8s0.3-0.8,0.7-0.8h0c0.4,0,0.8,0.3,0.8,0.8
		S239.8,140.2,239.4,140.2z M236.4,140.2c-0.4,0-0.8-0.3-0.8-0.8s0.3-0.8,0.7-0.8h0c0.4,0,0.8,0.3,0.8,0.8S236.8,140.2,236.4,140.2z
		 M233.3,140.2c-0.4,0-0.8-0.3-0.8-0.8s0.3-0.8,0.7-0.8h0.1c0.4,0,0.8,0.3,0.8,0.8S233.7,140.2,233.3,140.2z M230.3,140.2
		c-0.4,0-0.8-0.3-0.8-0.8s0.3-0.8,0.7-0.8h0c0.4,0,0.8,0.3,0.8,0.8S230.7,140.2,230.3,140.2z M227.2,140.2c-0.4,0-0.8-0.3-0.8-0.8
		s0.3-0.8,0.7-0.8h0.1c0.4,0,0.8,0.3,0.8,0.8S227.6,140.2,227.2,140.2z M224.2,140.2c-0.4,0-0.8-0.3-0.8-0.8s0.3-0.8,0.7-0.8h0
		c0.4,0,0.8,0.3,0.8,0.8S224.6,140.2,224.2,140.2z M221.1,140.2c-0.4,0-0.8-0.3-0.8-0.8s0.3-0.8,0.7-0.8h0c0.4,0,0.8,0.3,0.8,0.8
		S221.5,140.2,221.1,140.2z M218.1,140.2c-0.4,0-0.8-0.3-0.8-0.8s0.3-0.8,0.7-0.8h0.1c0.4,0,0.8,0.3,0.8,0.8
		S218.5,140.2,218.1,140.2z M215,140.2c-0.4,0-0.8-0.3-0.8-0.8s0.3-0.8,0.7-0.8h0c0.4,0,0.8,0.3,0.8,0.8S215.4,140.2,215,140.2z
		 M212,140.2c-0.4,0-0.8-0.3-0.8-0.8s0.3-0.8,0.7-0.8h0c0.4,0,0.8,0.3,0.8,0.8S212.4,140.2,212,140.2z M208.9,140.2
		c-0.4,0-0.8-0.3-0.8-0.8s0.3-0.8,0.7-0.8h0.1c0.4,0,0.8,0.3,0.8,0.8S209.3,140.2,208.9,140.2z M205.9,140.2c-0.4,0-0.8-0.3-0.8-0.8
		s0.3-0.8,0.7-0.8h0c0.4,0,0.8,0.3,0.8,0.8S206.3,140.2,205.9,140.2z M202.8,140.2c-0.4,0-0.8-0.3-0.8-0.8s0.3-0.8,0.7-0.8h0.1
		c0.4,0,0.8,0.3,0.8,0.8S203.2,140.2,202.8,140.2z M199.8,140.2c-0.4,0-0.8-0.3-0.8-0.8s0.3-0.8,0.7-0.8h0c0.4,0,0.8,0.3,0.8,0.8
		S200.2,140.2,199.8,140.2z M196.7,140.2c-0.4,0-0.8-0.3-0.8-0.8s0.3-0.8,0.7-0.8h0c0.4,0,0.8,0.3,0.8,0.8S197.1,140.2,196.7,140.2z
		 M193.7,140.2c-0.4,0-0.8-0.3-0.8-0.8s0.3-0.8,0.7-0.8h0.1c0.4,0,0.8,0.3,0.8,0.8S194.1,140.2,193.7,140.2z M190.6,140.2
		c-0.4,0-0.8-0.3-0.8-0.8s0.3-0.8,0.7-0.8h0c0.4,0,0.8,0.3,0.8,0.8S191,140.2,190.6,140.2z M187.6,140.2c-0.4,0-0.8-0.3-0.8-0.8
		s0.3-0.8,0.7-0.8h0.1c0.4,0,0.8,0.3,0.8,0.8S188,140.2,187.6,140.2z M184.5,140.2c-0.4,0-0.8-0.3-0.8-0.8s0.3-0.8,0.7-0.8h0
		c0.4,0,0.8,0.3,0.8,0.8S184.9,140.2,184.5,140.2z M181.5,140.2c-0.4,0-0.8-0.3-0.8-0.8s0.3-0.8,0.7-0.8h0c0.4,0,0.8,0.3,0.8,0.8
		S181.9,140.2,181.5,140.2z M178.4,140.2c-0.4,0-0.8-0.3-0.8-0.8s0.3-0.8,0.7-0.8h0.1c0.4,0,0.8,0.3,0.8,0.8
		S178.8,140.2,178.4,140.2z M175.4,140.2c-0.4,0-0.8-0.3-0.8-0.8s0.3-0.8,0.7-0.8h0c0.4,0,0.8,0.3,0.8,0.8S175.8,140.2,175.4,140.2z
		 M172.3,140.2c-0.4,0-0.8-0.3-0.8-0.8s0.3-0.8,0.7-0.8h0c0.4,0,0.8,0.3,0.8,0.8S172.7,140.2,172.3,140.2z M169.3,140.2
		c-0.4,0-0.8-0.3-0.8-0.8s0.3-0.8,0.7-0.8h0.1c0.4,0,0.8,0.3,0.8,0.8S169.7,140.2,169.3,140.2z M166.2,140.2c-0.4,0-0.8-0.3-0.8-0.8
		s0.3-0.8,0.7-0.8h0c0.4,0,0.8,0.3,0.8,0.8S166.6,140.2,166.2,140.2z M163.2,140.2c-0.4,0-0.8-0.3-0.8-0.8s0.3-0.8,0.7-0.8h0.1
		c0.4,0,0.8,0.3,0.8,0.8S163.6,140.2,163.2,140.2z M160.1,140.2c-0.4,0-0.8-0.3-0.8-0.8s0.3-0.8,0.7-0.8h0c0.4,0,0.8,0.3,0.8,0.8
		S160.5,140.2,160.1,140.2z M157.1,140.2c-0.4,0-0.8-0.3-0.8-0.8s0.3-0.8,0.7-0.8h0c0.4,0,0.8,0.3,0.8,0.8S157.5,140.2,157.1,140.2z
		 M154,140.2c-0.4,0-0.8-0.3-0.8-0.8s0.3-0.8,0.7-0.8h0.1c0.4,0,0.8,0.3,0.8,0.8S154.4,140.2,154,140.2z M151,140.2
		c-0.4,0-0.8-0.3-0.8-0.8s0.3-0.8,0.7-0.8h0c0.4,0,0.8,0.3,0.8,0.8S151.4,140.2,151,140.2z M147.9,140.2c-0.4,0-0.8-0.3-0.8-0.8
		s0.3-0.8,0.7-0.8h0.1c0.4,0,0.8,0.3,0.8,0.8S148.3,140.2,147.9,140.2z M144.9,140.2c-0.4,0-0.8-0.3-0.8-0.8s0.3-0.8,0.7-0.8h0
		c0.4,0,0.8,0.3,0.8,0.8S145.3,140.2,144.9,140.2z M141.8,140.2c-0.4,0-0.8-0.3-0.8-0.8s0.3-0.8,0.7-0.8h0c0.4,0,0.8,0.3,0.8,0.8
		S142.2,140.2,141.8,140.2z M138.8,140.2c-0.4,0-0.8-0.3-0.8-0.8s0.3-0.8,0.7-0.8h0.1c0.4,0,0.8,0.3,0.8,0.8
		S139.2,140.2,138.8,140.2z M135.7,140.2c-0.4,0-0.8-0.3-0.8-0.8s0.3-0.8,0.7-0.8h0c0.4,0,0.8,0.3,0.8,0.8S136.1,140.2,135.7,140.2z
		 M132.7,140.2c-0.4,0-0.8-0.3-0.8-0.8s0.3-0.8,0.7-0.8h0.1c0.4,0,0.8,0.3,0.8,0.8S133.1,140.2,132.7,140.2z M129.6,140.2
		c-0.4,0-0.8-0.3-0.8-0.8s0.3-0.8,0.7-0.8h0c0.4,0,0.8,0.3,0.8,0.8S130,140.2,129.6,140.2z M126.6,140.2c-0.4,0-0.8-0.3-0.8-0.8
		s0.3-0.8,0.7-0.8h0c0.4,0,0.8,0.3,0.8,0.8S127,140.2,126.6,140.2z M123.5,140.2c-0.4,0-0.8-0.3-0.8-0.8s0.3-0.8,0.7-0.8h0.1
		c0.4,0,0.8,0.3,0.8,0.8S123.9,140.2,123.5,140.2z M120.5,140.2c-0.4,0-0.8-0.3-0.8-0.8s0.3-0.8,0.7-0.8h0c0.4,0,0.8,0.3,0.8,0.8
		S120.9,140.2,120.5,140.2z M117.4,140.2c-0.4,0-0.8-0.3-0.8-0.8s0.3-0.8,0.7-0.8h0.1c0.4,0,0.8,0.3,0.8,0.8
		S117.8,140.2,117.4,140.2z M114.4,140.2c-0.4,0-0.8-0.3-0.8-0.8s0.3-0.8,0.7-0.8h0c0.4,0,0.8,0.3,0.8,0.8S114.8,140.2,114.4,140.2z
		 M111.3,140.2c-0.4,0-0.8-0.3-0.8-0.8s0.3-0.8,0.7-0.8h0c0.4,0,0.8,0.3,0.8,0.8S111.7,140.2,111.3,140.2z M108.3,140.2
		c-0.4,0-0.8-0.3-0.8-0.8s0.3-0.8,0.7-0.8h0.1c0.4,0,0.8,0.3,0.8,0.8S108.7,140.2,108.3,140.2z M105.2,140.2c-0.4,0-0.8-0.3-0.8-0.8
		s0.3-0.8,0.7-0.8h0c0.4,0,0.8,0.3,0.8,0.8S105.6,140.2,105.2,140.2z M102.2,140.2c-0.4,0-0.8-0.3-0.8-0.8s0.3-0.8,0.7-0.8h0.1
		c0.4,0,0.8,0.3,0.8,0.8S102.6,140.2,102.2,140.2z M99.1,140.2c-0.4,0-0.8-0.3-0.8-0.8s0.3-0.8,0.7-0.8h0c0.4,0,0.8,0.3,0.8,0.8
		S99.5,140.2,99.1,140.2z M96.1,140.2c-0.4,0-0.8-0.3-0.8-0.8s0.3-0.8,0.7-0.8h0c0.4,0,0.8,0.3,0.8,0.8S96.5,140.2,96.1,140.2z
		 M93,140.2c-0.4,0-0.8-0.3-0.8-0.8s0.3-0.8,0.7-0.8H93c0.4,0,0.8,0.3,0.8,0.8S93.4,140.2,93,140.2z M90,140.2
		c-0.4,0-0.8-0.3-0.8-0.8s0.3-0.8,0.7-0.8h0c0.4,0,0.8,0.3,0.8,0.8S90.4,140.2,90,140.2z M86.9,140.2c-0.4,0-0.8-0.3-0.8-0.8
		s0.3-0.8,0.7-0.8h0.1c0.4,0,0.8,0.3,0.8,0.8S87.3,140.2,86.9,140.2z M83.9,140.2c-0.4,0-0.8-0.3-0.8-0.8s0.3-0.8,0.7-0.8h0
		c0.4,0,0.8,0.3,0.8,0.8S84.3,140.2,83.9,140.2z M80.8,140.2c-0.4,0-0.8-0.3-0.8-0.8s0.3-0.8,0.7-0.8h0c0.4,0,0.8,0.3,0.8,0.8
		S81.2,140.2,80.8,140.2z M77.8,140.2c-0.4,0-0.8-0.3-0.8-0.8s0.3-0.8,0.7-0.8h0.1c0.4,0,0.8,0.3,0.8,0.8S78.2,140.2,77.8,140.2z
		 M74.7,140.2c-0.4,0-0.8-0.3-0.8-0.8s0.3-0.8,0.7-0.8h0c0.4,0,0.8,0.3,0.8,0.8S75.1,140.2,74.7,140.2z M71.7,140.2
		c-0.4,0-0.8-0.3-0.8-0.8s0.3-0.8,0.7-0.8h0.1c0.4,0,0.8,0.3,0.8,0.8S72.1,140.2,71.7,140.2z M68.6,140.2c-0.4,0-0.8-0.3-0.8-0.8
		s0.3-0.8,0.7-0.8h0c0.4,0,0.8,0.3,0.8,0.8S69,140.2,68.6,140.2z M65.6,140.2c-0.4,0-0.8-0.3-0.8-0.8s0.3-0.8,0.7-0.8h0
		c0.4,0,0.8,0.3,0.8,0.8S66,140.2,65.6,140.2z M62.5,140.2c-0.4,0-0.8-0.3-0.8-0.8s0.3-0.8,0.7-0.8h0.1c0.4,0,0.8,0.3,0.8,0.8
		S62.9,140.2,62.5,140.2z M59.5,140.2c-0.4,0-0.8-0.3-0.8-0.8s0.3-0.8,0.7-0.8h0c0.4,0,0.8,0.3,0.8,0.8S59.9,140.2,59.5,140.2z
		 M56.4,140.2c-0.4,0-0.8-0.3-0.8-0.8s0.3-0.8,0.7-0.8h0.1c0.4,0,0.8,0.3,0.8,0.8S56.8,140.2,56.4,140.2z M53.4,140.2
		c-0.4,0-0.8-0.3-0.8-0.8s0.3-0.8,0.7-0.8h0c0.4,0,0.8,0.3,0.8,0.8S53.8,140.2,53.4,140.2z M50.3,140.2c-0.4,0-0.8-0.3-0.8-0.8
		s0.3-0.8,0.7-0.8h0c0.4,0,0.8,0.3,0.8,0.8S50.7,140.2,50.3,140.2z M47.3,140.2c-0.4,0-0.8-0.3-0.8-0.8s0.3-0.8,0.7-0.8h0.1
		c0.4,0,0.8,0.3,0.8,0.8S47.7,140.2,47.3,140.2z M44.2,140.2c-0.4,0-0.8-0.3-0.8-0.8s0.3-0.8,0.7-0.8h0c0.4,0,0.8,0.3,0.8,0.8
		S44.6,140.2,44.2,140.2z M41.2,140.2c-0.4,0-0.8-0.3-0.8-0.8s0.3-0.8,0.7-0.8h0.1c0.4,0,0.8,0.3,0.8,0.8S41.6,140.2,41.2,140.2z
		 M38.1,140.2c-0.4,0-0.8-0.3-0.8-0.8s0.3-0.8,0.7-0.8h0c0.4,0,0.8,0.3,0.8,0.8S38.5,140.2,38.1,140.2z"/>
	<path class="st1" d="M568.8,72.7c-0.4,0-0.8-0.3-0.8-0.8s0.3-0.8,0.7-0.8h0c0.4,0,0.8,0.3,0.8,0.8S569.2,72.7,568.8,72.7z
		 M565.8,72.7c-0.4,0-0.8-0.3-0.8-0.8s0.3-0.8,0.7-0.8h0c0.4,0,0.8,0.3,0.8,0.8S566.2,72.7,565.8,72.7z M562.7,72.7
		c-0.4,0-0.8-0.3-0.8-0.8s0.3-0.8,0.7-0.8h0c0.4,0,0.8,0.3,0.8,0.8S563.1,72.7,562.7,72.7z M559.7,72.7c-0.4,0-0.8-0.3-0.8-0.8
		s0.3-0.8,0.7-0.8h0c0.4,0,0.8,0.3,0.8,0.8S560.1,72.7,559.7,72.7z M556.6,72.7c-0.4,0-0.8-0.3-0.8-0.8s0.3-0.8,0.7-0.8h0
		c0.4,0,0.8,0.3,0.8,0.8S557,72.7,556.6,72.7z M553.6,72.7c-0.4,0-0.8-0.3-0.8-0.8s0.3-0.8,0.7-0.8h0.1c0.4,0,0.8,0.3,0.8,0.8
		S554,72.7,553.6,72.7z M550.5,72.7c-0.4,0-0.8-0.3-0.8-0.8s0.3-0.8,0.7-0.8h0c0.4,0,0.8,0.3,0.8,0.8S550.9,72.7,550.5,72.7z
		 M547.5,72.7c-0.4,0-0.8-0.3-0.8-0.8s0.3-0.8,0.7-0.8h0c0.4,0,0.8,0.3,0.8,0.8S547.9,72.7,547.5,72.7z M544.4,72.7
		c-0.4,0-0.8-0.3-0.8-0.8s0.3-0.8,0.7-0.8h0c0.4,0,0.8,0.3,0.8,0.8S544.8,72.7,544.4,72.7z M541.4,72.7c-0.4,0-0.8-0.3-0.8-0.8
		s0.3-0.8,0.7-0.8h0c0.4,0,0.8,0.3,0.8,0.8S541.8,72.7,541.4,72.7z M538.3,72.7c-0.4,0-0.8-0.3-0.8-0.8s0.3-0.8,0.7-0.8h0.1
		c0.4,0,0.8,0.3,0.8,0.8S538.7,72.7,538.3,72.7z M535.3,72.7c-0.4,0-0.8-0.3-0.8-0.8s0.3-0.8,0.7-0.8h0c0.4,0,0.8,0.3,0.8,0.8
		S535.7,72.7,535.3,72.7z M532.2,72.7c-0.4,0-0.8-0.3-0.8-0.8s0.3-0.8,0.7-0.8h0c0.4,0,0.8,0.3,0.8,0.8S532.6,72.7,532.2,72.7z
		 M529.2,72.7c-0.4,0-0.8-0.3-0.8-0.8s0.3-0.8,0.7-0.8h0c0.4,0,0.8,0.3,0.8,0.8S529.6,72.7,529.2,72.7z M526.1,72.7
		c-0.4,0-0.8-0.3-0.8-0.8s0.3-0.8,0.7-0.8h0c0.4,0,0.8,0.3,0.8,0.8S526.5,72.7,526.1,72.7z M523.1,72.7c-0.4,0-0.8-0.3-0.8-0.8
		s0.3-0.8,0.7-0.8h0.1c0.4,0,0.8,0.3,0.8,0.8S523.5,72.7,523.1,72.7z M520,72.7c-0.4,0-0.8-0.3-0.8-0.8s0.3-0.8,0.7-0.8h0
		c0.4,0,0.8,0.3,0.8,0.8S520.4,72.7,520,72.7z M517,72.7c-0.4,0-0.8-0.3-0.8-0.8s0.3-0.8,0.7-0.8h0c0.4,0,0.8,0.3,0.8,0.8
		S517.4,72.7,517,72.7z M513.9,72.7c-0.4,0-0.8-0.3-0.8-0.8s0.3-0.8,0.7-0.8h0c0.4,0,0.8,0.3,0.8,0.8S514.3,72.7,513.9,72.7z
		 M510.9,72.7c-0.4,0-0.8-0.3-0.8-0.8s0.3-0.8,0.7-0.8h0.1c0.4,0,0.8,0.3,0.8,0.8S511.3,72.7,510.9,72.7z M507.8,72.7
		c-0.4,0-0.8-0.3-0.8-0.8s0.3-0.8,0.7-0.8h0c0.4,0,0.8,0.3,0.8,0.8S508.2,72.7,507.8,72.7z M504.8,72.7c-0.4,0-0.8-0.3-0.8-0.8
		s0.3-0.8,0.7-0.8h0c0.4,0,0.8,0.3,0.8,0.8S505.2,72.7,504.8,72.7z M501.7,72.7c-0.4,0-0.8-0.3-0.8-0.8s0.3-0.8,0.7-0.8h0
		c0.4,0,0.8,0.3,0.8,0.8S502.1,72.7,501.7,72.7z M498.7,72.7c-0.4,0-0.8-0.3-0.8-0.8s0.3-0.8,0.7-0.8h0c0.4,0,0.8,0.3,0.8,0.8
		S499.1,72.7,498.7,72.7z M495.6,72.7c-0.4,0-0.8-0.3-0.8-0.8s0.3-0.8,0.7-0.8h0.1c0.4,0,0.8,0.3,0.8,0.8S496,72.7,495.6,72.7z
		 M492.6,72.7c-0.4,0-0.8-0.3-0.8-0.8s0.3-0.8,0.7-0.8h0c0.4,0,0.8,0.3,0.8,0.8S493,72.7,492.6,72.7z M489.5,72.7
		c-0.4,0-0.8-0.3-0.8-0.8s0.3-0.8,0.7-0.8h0c0.4,0,0.8,0.3,0.8,0.8S489.9,72.7,489.5,72.7z M486.5,72.7c-0.4,0-0.8-0.3-0.8-0.8
		s0.3-0.8,0.7-0.8h0c0.4,0,0.8,0.3,0.8,0.8S486.9,72.7,486.5,72.7z M483.4,72.7c-0.4,0-0.8-0.3-0.8-0.8s0.3-0.8,0.7-0.8h0
		c0.4,0,0.8,0.3,0.8,0.8S483.8,72.7,483.4,72.7z M480.4,72.7c-0.4,0-0.8-0.3-0.8-0.8s0.3-0.8,0.7-0.8h0.1c0.4,0,0.8,0.3,0.8,0.8
		S480.8,72.7,480.4,72.7z M477.3,72.7c-0.4,0-0.8-0.3-0.8-0.8s0.3-0.8,0.7-0.8h0c0.4,0,0.8,0.3,0.8,0.8S477.7,72.7,477.3,72.7z
		 M474.3,72.7c-0.4,0-0.8-0.3-0.8-0.8s0.3-0.8,0.7-0.8h0c0.4,0,0.8,0.3,0.8,0.8S474.7,72.7,474.3,72.7z M471.2,72.7
		c-0.4,0-0.8-0.3-0.8-0.8s0.3-0.8,0.7-0.8h0c0.4,0,0.8,0.3,0.8,0.8S471.6,72.7,471.2,72.7z M468.2,72.7c-0.4,0-0.8-0.3-0.8-0.8
		s0.3-0.8,0.7-0.8h0c0.4,0,0.8,0.3,0.8,0.8S468.6,72.7,468.2,72.7z M465.1,72.7c-0.4,0-0.8-0.3-0.8-0.8s0.3-0.8,0.7-0.8h0.1
		c0.4,0,0.8,0.3,0.8,0.8S465.5,72.7,465.1,72.7z M462.1,72.7c-0.4,0-0.8-0.3-0.8-0.8s0.3-0.8,0.7-0.8h0c0.4,0,0.8,0.3,0.8,0.8
		S462.5,72.7,462.1,72.7z M459,72.7c-0.4,0-0.8-0.3-0.8-0.8s0.3-0.8,0.7-0.8h0c0.4,0,0.8,0.3,0.8,0.8S459.4,72.7,459,72.7z
		 M456,72.7c-0.4,0-0.8-0.3-0.8-0.8s0.3-0.8,0.7-0.8h0c0.4,0,0.8,0.3,0.8,0.8S456.4,72.7,456,72.7z M452.9,72.7
		c-0.4,0-0.8-0.3-0.8-0.8s0.3-0.8,0.7-0.8h0c0.4,0,0.8,0.3,0.8,0.8S453.3,72.7,452.9,72.7z M449.9,72.7c-0.4,0-0.8-0.3-0.8-0.8
		s0.3-0.8,0.7-0.8h0.1c0.4,0,0.8,0.3,0.8,0.8S450.3,72.7,449.9,72.7z M446.8,72.7c-0.4,0-0.8-0.3-0.8-0.8s0.3-0.8,0.7-0.8h0
		c0.4,0,0.8,0.3,0.8,0.8S447.2,72.7,446.8,72.7z M443.8,72.7c-0.4,0-0.8-0.3-0.8-0.8s0.3-0.8,0.7-0.8h0c0.4,0,0.8,0.3,0.8,0.8
		S444.2,72.7,443.8,72.7z M440.7,72.7c-0.4,0-0.8-0.3-0.8-0.8s0.3-0.8,0.7-0.8h0c0.4,0,0.8,0.3,0.8,0.8S441.1,72.7,440.7,72.7z
		 M437.7,72.7c-0.4,0-0.8-0.3-0.8-0.8s0.3-0.8,0.7-0.8h0c0.4,0,0.8,0.3,0.8,0.8S438.1,72.7,437.7,72.7z M434.6,72.7
		c-0.4,0-0.8-0.3-0.8-0.8s0.3-0.8,0.7-0.8h0.1c0.4,0,0.8,0.3,0.8,0.8S435,72.7,434.6,72.7z M431.6,72.7c-0.4,0-0.8-0.3-0.8-0.8
		s0.3-0.8,0.7-0.8h0c0.4,0,0.8,0.3,0.8,0.8S432,72.7,431.6,72.7z M428.5,72.7c-0.4,0-0.8-0.3-0.8-0.8s0.3-0.8,0.7-0.8h0
		c0.4,0,0.8,0.3,0.8,0.8S428.9,72.7,428.5,72.7z M425.5,72.7c-0.4,0-0.8-0.3-0.8-0.8s0.3-0.8,0.7-0.8h0c0.4,0,0.8,0.3,0.8,0.8
		S425.9,72.7,425.5,72.7z M422.4,72.7c-0.4,0-0.8-0.3-0.8-0.8s0.3-0.8,0.7-0.8h0c0.4,0,0.8,0.3,0.8,0.8S422.8,72.7,422.4,72.7z
		 M419.4,72.7c-0.4,0-0.8-0.3-0.8-0.8s0.3-0.8,0.7-0.8h0.1c0.4,0,0.8,0.3,0.8,0.8S419.8,72.7,419.4,72.7z M416.3,72.7
		c-0.4,0-0.8-0.3-0.8-0.8s0.3-0.8,0.7-0.8h0c0.4,0,0.8,0.3,0.8,0.8S416.7,72.7,416.3,72.7z M413.3,72.7c-0.4,0-0.8-0.3-0.8-0.8
		s0.3-0.8,0.7-0.8h0c0.4,0,0.8,0.3,0.8,0.8S413.7,72.7,413.3,72.7z M410.2,72.7c-0.4,0-0.8-0.3-0.8-0.8s0.3-0.8,0.7-0.8h0
		c0.4,0,0.8,0.3,0.8,0.8S410.6,72.7,410.2,72.7z M407.2,72.7c-0.4,0-0.8-0.3-0.8-0.8s0.3-0.8,0.7-0.8h0.1c0.4,0,0.8,0.3,0.8,0.8
		S407.6,72.7,407.2,72.7z M404.1,72.7c-0.4,0-0.8-0.3-0.8-0.8s0.3-0.8,0.7-0.8h0c0.4,0,0.8,0.3,0.8,0.8S404.5,72.7,404.1,72.7z
		 M401.1,72.7c-0.4,0-0.8-0.3-0.8-0.8s0.3-0.8,0.7-0.8h0c0.4,0,0.8,0.3,0.8,0.8S401.5,72.7,401.1,72.7z M398,72.7
		c-0.4,0-0.8-0.3-0.8-0.8s0.3-0.8,0.7-0.8h0c0.4,0,0.8,0.3,0.8,0.8S398.4,72.7,398,72.7z M395,72.7c-0.4,0-0.8-0.3-0.8-0.8
		s0.3-0.8,0.7-0.8h0c0.4,0,0.8,0.3,0.8,0.8S395.4,72.7,395,72.7z M391.9,72.7c-0.4,0-0.8-0.3-0.8-0.8s0.3-0.8,0.7-0.8h0.1
		c0.4,0,0.8,0.3,0.8,0.8S392.3,72.7,391.9,72.7z M388.9,72.7c-0.4,0-0.8-0.3-0.8-0.8s0.3-0.8,0.7-0.8h0c0.4,0,0.8,0.3,0.8,0.8
		S389.3,72.7,388.9,72.7z M385.8,72.7c-0.4,0-0.8-0.3-0.8-0.8s0.3-0.8,0.7-0.8h0c0.4,0,0.8,0.3,0.8,0.8S386.2,72.7,385.8,72.7z
		 M382.8,72.7c-0.4,0-0.8-0.3-0.8-0.8s0.3-0.8,0.7-0.8h0c0.4,0,0.8,0.3,0.8,0.8S383.2,72.7,382.8,72.7z M379.7,72.7
		c-0.4,0-0.8-0.3-0.8-0.8s0.3-0.8,0.7-0.8h0c0.4,0,0.8,0.3,0.8,0.8S380.1,72.7,379.7,72.7z M376.7,72.7c-0.4,0-0.8-0.3-0.8-0.8
		s0.3-0.8,0.7-0.8h0.1c0.4,0,0.8,0.3,0.8,0.8S377.1,72.7,376.7,72.7z M373.6,72.7c-0.4,0-0.8-0.3-0.8-0.8s0.3-0.8,0.7-0.8h0
		c0.4,0,0.8,0.3,0.8,0.8S374,72.7,373.6,72.7z M370.6,72.7c-0.4,0-0.8-0.3-0.8-0.8s0.3-0.8,0.7-0.8h0c0.4,0,0.8,0.3,0.8,0.8
		S371,72.7,370.6,72.7z M367.5,72.7c-0.4,0-0.8-0.3-0.8-0.8s0.3-0.8,0.7-0.8h0c0.4,0,0.8,0.3,0.8,0.8S367.9,72.7,367.5,72.7z
		 M364.5,72.7c-0.4,0-0.8-0.3-0.8-0.8s0.3-0.8,0.7-0.8h0c0.4,0,0.8,0.3,0.8,0.8S364.9,72.7,364.5,72.7z M361.4,72.7
		c-0.4,0-0.8-0.3-0.8-0.8s0.3-0.8,0.7-0.8h0.1c0.4,0,0.8,0.3,0.8,0.8S361.8,72.7,361.4,72.7z M358.4,72.7c-0.4,0-0.8-0.3-0.8-0.8
		s0.3-0.8,0.7-0.8h0c0.4,0,0.8,0.3,0.8,0.8S358.8,72.7,358.4,72.7z M355.3,72.7c-0.4,0-0.8-0.3-0.8-0.8s0.3-0.8,0.7-0.8h0
		c0.4,0,0.8,0.3,0.8,0.8S355.7,72.7,355.3,72.7z M352.3,72.7c-0.4,0-0.8-0.3-0.8-0.8s0.3-0.8,0.7-0.8h0c0.4,0,0.8,0.3,0.8,0.8
		S352.7,72.7,352.3,72.7z M349.2,72.7c-0.4,0-0.8-0.3-0.8-0.8s0.3-0.8,0.7-0.8h0c0.4,0,0.8,0.3,0.8,0.8S349.6,72.7,349.2,72.7z
		 M346.2,72.7c-0.4,0-0.8-0.3-0.8-0.8s0.3-0.8,0.7-0.8h0.1c0.4,0,0.8,0.3,0.8,0.8S346.6,72.7,346.2,72.7z M343.1,72.7
		c-0.4,0-0.8-0.3-0.8-0.8s0.3-0.8,0.7-0.8h0c0.4,0,0.8,0.3,0.8,0.8S343.5,72.7,343.1,72.7z M340.1,72.7c-0.4,0-0.8-0.3-0.8-0.8
		s0.3-0.8,0.7-0.8h0c0.4,0,0.8,0.3,0.8,0.8S340.5,72.7,340.1,72.7z M337,72.7c-0.4,0-0.8-0.3-0.8-0.8s0.3-0.8,0.7-0.8h0
		c0.4,0,0.8,0.3,0.8,0.8S337.4,72.7,337,72.7z M334,72.7c-0.4,0-0.8-0.3-0.8-0.8s0.3-0.8,0.7-0.8h0c0.4,0,0.8,0.3,0.8,0.8
		S334.4,72.7,334,72.7z M330.9,72.7c-0.4,0-0.8-0.3-0.8-0.8s0.3-0.8,0.7-0.8h0.1c0.4,0,0.8,0.3,0.8,0.8S331.3,72.7,330.9,72.7z
		 M327.9,72.7c-0.4,0-0.8-0.3-0.8-0.8s0.3-0.8,0.7-0.8h0c0.4,0,0.8,0.3,0.8,0.8S328.3,72.7,327.9,72.7z M324.8,72.7
		c-0.4,0-0.8-0.3-0.8-0.8s0.3-0.8,0.7-0.8h0c0.4,0,0.8,0.3,0.8,0.8S325.2,72.7,324.8,72.7z M321.8,72.7c-0.4,0-0.8-0.3-0.8-0.8
		s0.3-0.8,0.7-0.8h0c0.4,0,0.8,0.3,0.8,0.8S322.2,72.7,321.8,72.7z M318.7,72.7c-0.4,0-0.8-0.3-0.8-0.8s0.3-0.8,0.7-0.8h0.1
		c0.4,0,0.8,0.3,0.8,0.8S319.1,72.7,318.7,72.7z M315.7,72.7c-0.4,0-0.8-0.3-0.8-0.8s0.3-0.8,0.7-0.8h0c0.4,0,0.8,0.3,0.8,0.8
		S316.1,72.7,315.7,72.7z M312.6,72.7c-0.4,0-0.8-0.3-0.8-0.8s0.3-0.8,0.7-0.8h0c0.4,0,0.8,0.3,0.8,0.8S313,72.7,312.6,72.7z
		 M309.6,72.7c-0.4,0-0.8-0.3-0.8-0.8s0.3-0.8,0.7-0.8h0c0.4,0,0.8,0.3,0.8,0.8S310,72.7,309.6,72.7z M306.5,72.7
		c-0.4,0-0.8-0.3-0.8-0.8s0.3-0.8,0.7-0.8h0c0.4,0,0.8,0.3,0.8,0.8S306.9,72.7,306.5,72.7z M303.5,72.7c-0.4,0-0.8-0.3-0.8-0.8
		s0.3-0.8,0.7-0.8h0.1c0.4,0,0.8,0.3,0.8,0.8S303.9,72.7,303.5,72.7z M300.4,72.7c-0.4,0-0.8-0.3-0.8-0.8s0.3-0.8,0.7-0.8h0
		c0.4,0,0.8,0.3,0.8,0.8S300.8,72.7,300.4,72.7z M297.4,72.7c-0.4,0-0.8-0.3-0.8-0.8s0.3-0.8,0.7-0.8h0c0.4,0,0.8,0.3,0.8,0.8
		S297.8,72.7,297.4,72.7z M294.3,72.7c-0.4,0-0.8-0.3-0.8-0.8s0.3-0.8,0.7-0.8h0c0.4,0,0.8,0.3,0.8,0.8S294.7,72.7,294.3,72.7z
		 M291.3,72.7c-0.4,0-0.8-0.3-0.8-0.8s0.3-0.8,0.7-0.8h0c0.4,0,0.8,0.3,0.8,0.8S291.7,72.7,291.3,72.7z M288.2,72.7
		c-0.4,0-0.8-0.3-0.8-0.8s0.3-0.8,0.7-0.8h0c0.4,0,0.8,0.3,0.8,0.8S288.6,72.7,288.2,72.7z M285.2,72.7c-0.4,0-0.8-0.3-0.8-0.8
		s0.3-0.8,0.7-0.8h0c0.4,0,0.8,0.3,0.8,0.8S285.6,72.7,285.2,72.7z M282.1,72.7c-0.4,0-0.8-0.3-0.8-0.8s0.3-0.8,0.7-0.8h0.1
		c0.4,0,0.8,0.3,0.8,0.8S282.5,72.7,282.1,72.7z M279.1,72.7c-0.4,0-0.8-0.3-0.8-0.8s0.3-0.8,0.7-0.8h0c0.4,0,0.8,0.3,0.8,0.8
		S279.5,72.7,279.1,72.7z M276,72.7c-0.4,0-0.8-0.3-0.8-0.8s0.3-0.8,0.7-0.8h0c0.4,0,0.8,0.3,0.8,0.8S276.4,72.7,276,72.7z
		 M273,72.7c-0.4,0-0.8-0.3-0.8-0.8s0.3-0.8,0.7-0.8h0.1c0.4,0,0.8,0.3,0.8,0.8S273.4,72.7,273,72.7z M269.9,72.7
		c-0.4,0-0.8-0.3-0.8-0.8s0.3-0.8,0.7-0.8h0c0.4,0,0.8,0.3,0.8,0.8S270.3,72.7,269.9,72.7z M266.9,72.7c-0.4,0-0.8-0.3-0.8-0.8
		s0.3-0.8,0.7-0.8h0.1c0.4,0,0.8,0.3,0.8,0.8S267.3,72.7,266.9,72.7z M263.8,72.7c-0.4,0-0.8-0.3-0.8-0.8s0.3-0.8,0.7-0.8h0
		c0.4,0,0.8,0.3,0.8,0.8S264.2,72.7,263.8,72.7z M260.8,72.7c-0.4,0-0.8-0.3-0.8-0.8s0.3-0.8,0.7-0.8h0c0.4,0,0.8,0.3,0.8,0.8
		S261.2,72.7,260.8,72.7z M257.7,72.7c-0.4,0-0.8-0.3-0.8-0.8s0.3-0.8,0.7-0.8h0.1c0.4,0,0.8,0.3,0.8,0.8S258.1,72.7,257.7,72.7z
		 M254.7,72.7c-0.4,0-0.8-0.3-0.8-0.8s0.3-0.8,0.7-0.8h0c0.4,0,0.8,0.3,0.8,0.8S255.1,72.7,254.7,72.7z M251.6,72.7
		c-0.4,0-0.8-0.3-0.8-0.8s0.3-0.8,0.7-0.8h0.1c0.4,0,0.8,0.3,0.8,0.8S252,72.7,251.6,72.7z M248.6,72.7c-0.4,0-0.8-0.3-0.8-0.8
		s0.3-0.8,0.7-0.8h0c0.4,0,0.8,0.3,0.8,0.8S249,72.7,248.6,72.7z M245.5,72.7c-0.4,0-0.8-0.3-0.8-0.8s0.3-0.8,0.7-0.8h0
		c0.4,0,0.8,0.3,0.8,0.8S245.9,72.7,245.5,72.7z M242.5,72.7c-0.4,0-0.8-0.3-0.8-0.8s0.3-0.8,0.7-0.8h0.1c0.4,0,0.8,0.3,0.8,0.8
		S242.9,72.7,242.5,72.7z M239.4,72.7c-0.4,0-0.8-0.3-0.8-0.8s0.3-0.8,0.7-0.8h0c0.4,0,0.8,0.3,0.8,0.8S239.8,72.7,239.4,72.7z
		 M236.4,72.7c-0.4,0-0.8-0.3-0.8-0.8s0.3-0.8,0.7-0.8h0c0.4,0,0.8,0.3,0.8,0.8S236.8,72.7,236.4,72.7z M233.3,72.7
		c-0.4,0-0.8-0.3-0.8-0.8s0.3-0.8,0.7-0.8h0.1c0.4,0,0.8,0.3,0.8,0.8S233.7,72.7,233.3,72.7z M230.3,72.7c-0.4,0-0.8-0.3-0.8-0.8
		s0.3-0.8,0.7-0.8h0c0.4,0,0.8,0.3,0.8,0.8S230.7,72.7,230.3,72.7z M227.2,72.7c-0.4,0-0.8-0.3-0.8-0.8s0.3-0.8,0.7-0.8h0.1
		c0.4,0,0.8,0.3,0.8,0.8S227.6,72.7,227.2,72.7z M224.2,72.7c-0.4,0-0.8-0.3-0.8-0.8s0.3-0.8,0.7-0.8h0c0.4,0,0.8,0.3,0.8,0.8
		S224.6,72.7,224.2,72.7z M221.1,72.7c-0.4,0-0.8-0.3-0.8-0.8s0.3-0.8,0.7-0.8h0c0.4,0,0.8,0.3,0.8,0.8S221.5,72.7,221.1,72.7z
		 M218.1,72.7c-0.4,0-0.8-0.3-0.8-0.8s0.3-0.8,0.7-0.8h0.1c0.4,0,0.8,0.3,0.8,0.8S218.5,72.7,218.1,72.7z M215,72.7
		c-0.4,0-0.8-0.3-0.8-0.8s0.3-0.8,0.7-0.8h0c0.4,0,0.8,0.3,0.8,0.8S215.4,72.7,215,72.7z M212,72.7c-0.4,0-0.8-0.3-0.8-0.8
		s0.3-0.8,0.7-0.8h0c0.4,0,0.8,0.3,0.8,0.8S212.4,72.7,212,72.7z M208.9,72.7c-0.4,0-0.8-0.3-0.8-0.8s0.3-0.8,0.7-0.8h0.1
		c0.4,0,0.8,0.3,0.8,0.8S209.3,72.7,208.9,72.7z M205.9,72.7c-0.4,0-0.8-0.3-0.8-0.8s0.3-0.8,0.7-0.8h0c0.4,0,0.8,0.3,0.8,0.8
		S206.3,72.7,205.9,72.7z M202.8,72.7c-0.4,0-0.8-0.3-0.8-0.8s0.3-0.8,0.7-0.8h0.1c0.4,0,0.8,0.3,0.8,0.8S203.2,72.7,202.8,72.7z
		 M199.8,72.7c-0.4,0-0.8-0.3-0.8-0.8s0.3-0.8,0.7-0.8h0c0.4,0,0.8,0.3,0.8,0.8S200.2,72.7,199.8,72.7z M196.7,72.7
		c-0.4,0-0.8-0.3-0.8-0.8s0.3-0.8,0.7-0.8h0c0.4,0,0.8,0.3,0.8,0.8S197.1,72.7,196.7,72.7z M193.7,72.7c-0.4,0-0.8-0.3-0.8-0.8
		s0.3-0.8,0.7-0.8h0.1c0.4,0,0.8,0.3,0.8,0.8S194.1,72.7,193.7,72.7z M190.6,72.7c-0.4,0-0.8-0.3-0.8-0.8s0.3-0.8,0.7-0.8h0
		c0.4,0,0.8,0.3,0.8,0.8S191,72.7,190.6,72.7z M187.6,72.7c-0.4,0-0.8-0.3-0.8-0.8s0.3-0.8,0.7-0.8h0.1c0.4,0,0.8,0.3,0.8,0.8
		S188,72.7,187.6,72.7z M184.5,72.7c-0.4,0-0.8-0.3-0.8-0.8s0.3-0.8,0.7-0.8h0c0.4,0,0.8,0.3,0.8,0.8S184.9,72.7,184.5,72.7z
		 M181.5,72.7c-0.4,0-0.8-0.3-0.8-0.8s0.3-0.8,0.7-0.8h0c0.4,0,0.8,0.3,0.8,0.8S181.9,72.7,181.5,72.7z M178.4,72.7
		c-0.4,0-0.8-0.3-0.8-0.8s0.3-0.8,0.7-0.8h0.1c0.4,0,0.8,0.3,0.8,0.8S178.8,72.7,178.4,72.7z M175.4,72.7c-0.4,0-0.8-0.3-0.8-0.8
		s0.3-0.8,0.7-0.8h0c0.4,0,0.8,0.3,0.8,0.8S175.8,72.7,175.4,72.7z M172.3,72.7c-0.4,0-0.8-0.3-0.8-0.8s0.3-0.8,0.7-0.8h0
		c0.4,0,0.8,0.3,0.8,0.8S172.7,72.7,172.3,72.7z M169.3,72.7c-0.4,0-0.8-0.3-0.8-0.8s0.3-0.8,0.7-0.8h0.1c0.4,0,0.8,0.3,0.8,0.8
		S169.7,72.7,169.3,72.7z M166.2,72.7c-0.4,0-0.8-0.3-0.8-0.8s0.3-0.8,0.7-0.8h0c0.4,0,0.8,0.3,0.8,0.8S166.6,72.7,166.2,72.7z
		 M163.2,72.7c-0.4,0-0.8-0.3-0.8-0.8s0.3-0.8,0.7-0.8h0.1c0.4,0,0.8,0.3,0.8,0.8S163.6,72.7,163.2,72.7z M160.1,72.7
		c-0.4,0-0.8-0.3-0.8-0.8s0.3-0.8,0.7-0.8h0c0.4,0,0.8,0.3,0.8,0.8S160.5,72.7,160.1,72.7z M157.1,72.7c-0.4,0-0.8-0.3-0.8-0.8
		s0.3-0.8,0.7-0.8h0c0.4,0,0.8,0.3,0.8,0.8S157.5,72.7,157.1,72.7z M154,72.7c-0.4,0-0.8-0.3-0.8-0.8s0.3-0.8,0.7-0.8h0.1
		c0.4,0,0.8,0.3,0.8,0.8S154.4,72.7,154,72.7z M151,72.7c-0.4,0-0.8-0.3-0.8-0.8s0.3-0.8,0.7-0.8h0c0.4,0,0.8,0.3,0.8,0.8
		S151.4,72.7,151,72.7z M147.9,72.7c-0.4,0-0.8-0.3-0.8-0.8s0.3-0.8,0.7-0.8h0.1c0.4,0,0.8,0.3,0.8,0.8S148.3,72.7,147.9,72.7z
		 M144.9,72.7c-0.4,0-0.8-0.3-0.8-0.8s0.3-0.8,0.7-0.8h0c0.4,0,0.8,0.3,0.8,0.8S145.3,72.7,144.9,72.7z M141.8,72.7
		c-0.4,0-0.8-0.3-0.8-0.8s0.3-0.8,0.7-0.8h0c0.4,0,0.8,0.3,0.8,0.8S142.2,72.7,141.8,72.7z M138.8,72.7c-0.4,0-0.8-0.3-0.8-0.8
		s0.3-0.8,0.7-0.8h0.1c0.4,0,0.8,0.3,0.8,0.8S139.2,72.7,138.8,72.7z M135.7,72.7c-0.4,0-0.8-0.3-0.8-0.8s0.3-0.8,0.7-0.8h0
		c0.4,0,0.8,0.3,0.8,0.8S136.1,72.7,135.7,72.7z M132.7,72.7c-0.4,0-0.8-0.3-0.8-0.8s0.3-0.8,0.7-0.8h0.1c0.4,0,0.8,0.3,0.8,0.8
		S133.1,72.7,132.7,72.7z M129.6,72.7c-0.4,0-0.8-0.3-0.8-0.8s0.3-0.8,0.7-0.8h0c0.4,0,0.8,0.3,0.8,0.8S130,72.7,129.6,72.7z
		 M126.6,72.7c-0.4,0-0.8-0.3-0.8-0.8s0.3-0.8,0.7-0.8h0c0.4,0,0.8,0.3,0.8,0.8S127,72.7,126.6,72.7z M123.5,72.7
		c-0.4,0-0.8-0.3-0.8-0.8s0.3-0.8,0.7-0.8h0.1c0.4,0,0.8,0.3,0.8,0.8S123.9,72.7,123.5,72.7z M120.5,72.7c-0.4,0-0.8-0.3-0.8-0.8
		s0.3-0.8,0.7-0.8h0c0.4,0,0.8,0.3,0.8,0.8S120.9,72.7,120.5,72.7z M117.4,72.7c-0.4,0-0.8-0.3-0.8-0.8s0.3-0.8,0.7-0.8h0.1
		c0.4,0,0.8,0.3,0.8,0.8S117.8,72.7,117.4,72.7z M114.4,72.7c-0.4,0-0.8-0.3-0.8-0.8s0.3-0.8,0.7-0.8h0c0.4,0,0.8,0.3,0.8,0.8
		S114.8,72.7,114.4,72.7z M111.3,72.7c-0.4,0-0.8-0.3-0.8-0.8s0.3-0.8,0.7-0.8h0c0.4,0,0.8,0.3,0.8,0.8S111.7,72.7,111.3,72.7z
		 M108.3,72.7c-0.4,0-0.8-0.3-0.8-0.8s0.3-0.8,0.7-0.8h0.1c0.4,0,0.8,0.3,0.8,0.8S108.7,72.7,108.3,72.7z M105.2,72.7
		c-0.4,0-0.8-0.3-0.8-0.8s0.3-0.8,0.7-0.8h0c0.4,0,0.8,0.3,0.8,0.8S105.6,72.7,105.2,72.7z M102.2,72.7c-0.4,0-0.8-0.3-0.8-0.8
		s0.3-0.8,0.7-0.8h0.1c0.4,0,0.8,0.3,0.8,0.8S102.6,72.7,102.2,72.7z M99.1,72.7c-0.4,0-0.8-0.3-0.8-0.8s0.3-0.8,0.7-0.8h0
		c0.4,0,0.8,0.3,0.8,0.8S99.5,72.7,99.1,72.7z M96.1,72.7c-0.4,0-0.8-0.3-0.8-0.8s0.3-0.8,0.7-0.8h0c0.4,0,0.8,0.3,0.8,0.8
		S96.5,72.7,96.1,72.7z M93,72.7c-0.4,0-0.8-0.3-0.8-0.8s0.3-0.8,0.7-0.8H93c0.4,0,0.8,0.3,0.8,0.8S93.4,72.7,93,72.7z M90,72.7
		c-0.4,0-0.8-0.3-0.8-0.8s0.3-0.8,0.7-0.8h0c0.4,0,0.8,0.3,0.8,0.8S90.4,72.7,90,72.7z M86.9,72.7c-0.4,0-0.8-0.3-0.8-0.8
		s0.3-0.8,0.7-0.8h0.1c0.4,0,0.8,0.3,0.8,0.8S87.3,72.7,86.9,72.7z M83.9,72.7c-0.4,0-0.8-0.3-0.8-0.8s0.3-0.8,0.7-0.8h0
		c0.4,0,0.8,0.3,0.8,0.8S84.3,72.7,83.9,72.7z M80.8,72.7c-0.4,0-0.8-0.3-0.8-0.8s0.3-0.8,0.7-0.8h0c0.4,0,0.8,0.3,0.8,0.8
		S81.2,72.7,80.8,72.7z M77.8,72.7c-0.4,0-0.8-0.3-0.8-0.8s0.3-0.8,0.7-0.8h0.1c0.4,0,0.8,0.3,0.8,0.8S78.2,72.7,77.8,72.7z
		 M74.7,72.7c-0.4,0-0.8-0.3-0.8-0.8s0.3-0.8,0.7-0.8h0c0.4,0,0.8,0.3,0.8,0.8S75.1,72.7,74.7,72.7z M71.7,72.7
		c-0.4,0-0.8-0.3-0.8-0.8s0.3-0.8,0.7-0.8h0.1c0.4,0,0.8,0.3,0.8,0.8S72.1,72.7,71.7,72.7z M68.6,72.7c-0.4,0-0.8-0.3-0.8-0.8
		s0.3-0.8,0.7-0.8h0c0.4,0,0.8,0.3,0.8,0.8S69,72.7,68.6,72.7z M65.6,72.7c-0.4,0-0.8-0.3-0.8-0.8s0.3-0.8,0.7-0.8h0
		c0.4,0,0.8,0.3,0.8,0.8S66,72.7,65.6,72.7z M62.5,72.7c-0.4,0-0.8-0.3-0.8-0.8s0.3-0.8,0.7-0.8h0.1c0.4,0,0.8,0.3,0.8,0.8
		S62.9,72.7,62.5,72.7z M59.5,72.7c-0.4,0-0.8-0.3-0.8-0.8s0.3-0.8,0.7-0.8h0c0.4,0,0.8,0.3,0.8,0.8S59.9,72.7,59.5,72.7z
		 M56.4,72.7c-0.4,0-0.8-0.3-0.8-0.8s0.3-0.8,0.7-0.8h0.1c0.4,0,0.8,0.3,0.8,0.8S56.8,72.7,56.4,72.7z M53.4,72.7
		c-0.4,0-0.8-0.3-0.8-0.8s0.3-0.8,0.7-0.8h0c0.4,0,0.8,0.3,0.8,0.8S53.8,72.7,53.4,72.7z M50.3,72.7c-0.4,0-0.8-0.3-0.8-0.8
		s0.3-0.8,0.7-0.8h0c0.4,0,0.8,0.3,0.8,0.8S50.7,72.7,50.3,72.7z M47.3,72.7c-0.4,0-0.8-0.3-0.8-0.8s0.3-0.8,0.7-0.8h0.1
		c0.4,0,0.8,0.3,0.8,0.8S47.7,72.7,47.3,72.7z M44.2,72.7c-0.4,0-0.8-0.3-0.8-0.8s0.3-0.8,0.7-0.8h0c0.4,0,0.8,0.3,0.8,0.8
		S44.6,72.7,44.2,72.7z M41.2,72.7c-0.4,0-0.8-0.3-0.8-0.8s0.3-0.8,0.7-0.8h0.1c0.4,0,0.8,0.3,0.8,0.8S41.6,72.7,41.2,72.7z
		 M38.1,72.7c-0.4,0-0.8-0.3-0.8-0.8s0.3-0.8,0.7-0.8h0c0.4,0,0.8,0.3,0.8,0.8S38.5,72.7,38.1,72.7z"/>
	<path class="st2" d="M568.8,4.5"/>
	<path class="st2" d="M38.1,4.5"/>
	<path class="st1" d="M568.8,106.4c-0.4,0-0.8-0.3-0.8-0.8s0.3-0.8,0.7-0.8h0c0.4,0,0.8,0.3,0.8,0.8S569.2,106.4,568.8,106.4z
		 M565.8,106.4c-0.4,0-0.8-0.3-0.8-0.8s0.3-0.8,0.7-0.8h0c0.4,0,0.8,0.3,0.8,0.8S566.2,106.4,565.8,106.4z M562.7,106.4
		c-0.4,0-0.8-0.3-0.8-0.8s0.3-0.8,0.7-0.8h0c0.4,0,0.8,0.3,0.8,0.8S563.1,106.4,562.7,106.4z M559.7,106.4c-0.4,0-0.8-0.3-0.8-0.8
		s0.3-0.8,0.7-0.8h0c0.4,0,0.8,0.3,0.8,0.8S560.1,106.4,559.7,106.4z M556.6,106.4c-0.4,0-0.8-0.3-0.8-0.8s0.3-0.8,0.7-0.8h0
		c0.4,0,0.8,0.3,0.8,0.8S557,106.4,556.6,106.4z M553.6,106.4c-0.4,0-0.8-0.3-0.8-0.8s0.3-0.8,0.7-0.8h0.1c0.4,0,0.8,0.3,0.8,0.8
		S554,106.4,553.6,106.4z M550.5,106.4c-0.4,0-0.8-0.3-0.8-0.8s0.3-0.8,0.7-0.8h0c0.4,0,0.8,0.3,0.8,0.8S550.9,106.4,550.5,106.4z
		 M547.5,106.4c-0.4,0-0.8-0.3-0.8-0.8s0.3-0.8,0.7-0.8h0c0.4,0,0.8,0.3,0.8,0.8S547.9,106.4,547.5,106.4z M544.4,106.4
		c-0.4,0-0.8-0.3-0.8-0.8s0.3-0.8,0.7-0.8h0c0.4,0,0.8,0.3,0.8,0.8S544.8,106.4,544.4,106.4z M541.4,106.4c-0.4,0-0.8-0.3-0.8-0.8
		s0.3-0.8,0.7-0.8h0c0.4,0,0.8,0.3,0.8,0.8S541.8,106.4,541.4,106.4z M538.3,106.4c-0.4,0-0.8-0.3-0.8-0.8s0.3-0.8,0.7-0.8h0.1
		c0.4,0,0.8,0.3,0.8,0.8S538.7,106.4,538.3,106.4z M535.3,106.4c-0.4,0-0.8-0.3-0.8-0.8s0.3-0.8,0.7-0.8h0c0.4,0,0.8,0.3,0.8,0.8
		S535.7,106.4,535.3,106.4z M532.2,106.4c-0.4,0-0.8-0.3-0.8-0.8s0.3-0.8,0.7-0.8h0c0.4,0,0.8,0.3,0.8,0.8S532.6,106.4,532.2,106.4z
		 M529.2,106.4c-0.4,0-0.8-0.3-0.8-0.8s0.3-0.8,0.7-0.8h0c0.4,0,0.8,0.3,0.8,0.8S529.6,106.4,529.2,106.4z M526.1,106.4
		c-0.4,0-0.8-0.3-0.8-0.8s0.3-0.8,0.7-0.8h0c0.4,0,0.8,0.3,0.8,0.8S526.5,106.4,526.1,106.4z M523.1,106.4c-0.4,0-0.8-0.3-0.8-0.8
		s0.3-0.8,0.7-0.8h0.1c0.4,0,0.8,0.3,0.8,0.8S523.5,106.4,523.1,106.4z M520,106.4c-0.4,0-0.8-0.3-0.8-0.8s0.3-0.8,0.7-0.8h0
		c0.4,0,0.8,0.3,0.8,0.8S520.4,106.4,520,106.4z M517,106.4c-0.4,0-0.8-0.3-0.8-0.8s0.3-0.8,0.7-0.8h0c0.4,0,0.8,0.3,0.8,0.8
		S517.4,106.4,517,106.4z M513.9,106.4c-0.4,0-0.8-0.3-0.8-0.8s0.3-0.8,0.7-0.8h0c0.4,0,0.8,0.3,0.8,0.8S514.3,106.4,513.9,106.4z
		 M510.9,106.4c-0.4,0-0.8-0.3-0.8-0.8s0.3-0.8,0.7-0.8h0.1c0.4,0,0.8,0.3,0.8,0.8S511.3,106.4,510.9,106.4z M507.8,106.4
		c-0.4,0-0.8-0.3-0.8-0.8s0.3-0.8,0.7-0.8h0c0.4,0,0.8,0.3,0.8,0.8S508.2,106.4,507.8,106.4z M504.8,106.4c-0.4,0-0.8-0.3-0.8-0.8
		s0.3-0.8,0.7-0.8h0c0.4,0,0.8,0.3,0.8,0.8S505.2,106.4,504.8,106.4z M501.7,106.4c-0.4,0-0.8-0.3-0.8-0.8s0.3-0.8,0.7-0.8h0
		c0.4,0,0.8,0.3,0.8,0.8S502.1,106.4,501.7,106.4z M498.7,106.4c-0.4,0-0.8-0.3-0.8-0.8s0.3-0.8,0.7-0.8h0c0.4,0,0.8,0.3,0.8,0.8
		S499.1,106.4,498.7,106.4z M495.6,106.4c-0.4,0-0.8-0.3-0.8-0.8s0.3-0.8,0.7-0.8h0.1c0.4,0,0.8,0.3,0.8,0.8S496,106.4,495.6,106.4z
		 M492.6,106.4c-0.4,0-0.8-0.3-0.8-0.8s0.3-0.8,0.7-0.8h0c0.4,0,0.8,0.3,0.8,0.8S493,106.4,492.6,106.4z M489.5,106.4
		c-0.4,0-0.8-0.3-0.8-0.8s0.3-0.8,0.7-0.8h0c0.4,0,0.8,0.3,0.8,0.8S489.9,106.4,489.5,106.4z M486.5,106.4c-0.4,0-0.8-0.3-0.8-0.8
		s0.3-0.8,0.7-0.8h0c0.4,0,0.8,0.3,0.8,0.8S486.9,106.4,486.5,106.4z M483.4,106.4c-0.4,0-0.8-0.3-0.8-0.8s0.3-0.8,0.7-0.8h0
		c0.4,0,0.8,0.3,0.8,0.8S483.8,106.4,483.4,106.4z M480.4,106.4c-0.4,0-0.8-0.3-0.8-0.8s0.3-0.8,0.7-0.8h0.1c0.4,0,0.8,0.3,0.8,0.8
		S480.8,106.4,480.4,106.4z M477.3,106.4c-0.4,0-0.8-0.3-0.8-0.8s0.3-0.8,0.7-0.8h0c0.4,0,0.8,0.3,0.8,0.8S477.7,106.4,477.3,106.4z
		 M474.3,106.4c-0.4,0-0.8-0.3-0.8-0.8s0.3-0.8,0.7-0.8h0c0.4,0,0.8,0.3,0.8,0.8S474.7,106.4,474.3,106.4z M471.2,106.4
		c-0.4,0-0.8-0.3-0.8-0.8s0.3-0.8,0.7-0.8h0c0.4,0,0.8,0.3,0.8,0.8S471.6,106.4,471.2,106.4z M468.2,106.4c-0.4,0-0.8-0.3-0.8-0.8
		s0.3-0.8,0.7-0.8h0c0.4,0,0.8,0.3,0.8,0.8S468.6,106.4,468.2,106.4z M465.1,106.4c-0.4,0-0.8-0.3-0.8-0.8s0.3-0.8,0.7-0.8h0.1
		c0.4,0,0.8,0.3,0.8,0.8S465.5,106.4,465.1,106.4z M462.1,106.4c-0.4,0-0.8-0.3-0.8-0.8s0.3-0.8,0.7-0.8h0c0.4,0,0.8,0.3,0.8,0.8
		S462.5,106.4,462.1,106.4z M459,106.4c-0.4,0-0.8-0.3-0.8-0.8s0.3-0.8,0.7-0.8h0c0.4,0,0.8,0.3,0.8,0.8S459.4,106.4,459,106.4z
		 M456,106.4c-0.4,0-0.8-0.3-0.8-0.8s0.3-0.8,0.7-0.8h0c0.4,0,0.8,0.3,0.8,0.8S456.4,106.4,456,106.4z M452.9,106.4
		c-0.4,0-0.8-0.3-0.8-0.8s0.3-0.8,0.7-0.8h0c0.4,0,0.8,0.3,0.8,0.8S453.3,106.4,452.9,106.4z M449.9,106.4c-0.4,0-0.8-0.3-0.8-0.8
		s0.3-0.8,0.7-0.8h0.1c0.4,0,0.8,0.3,0.8,0.8S450.3,106.4,449.9,106.4z M446.8,106.4c-0.4,0-0.8-0.3-0.8-0.8s0.3-0.8,0.7-0.8h0
		c0.4,0,0.8,0.3,0.8,0.8S447.2,106.4,446.8,106.4z M443.8,106.4c-0.4,0-0.8-0.3-0.8-0.8s0.3-0.8,0.7-0.8h0c0.4,0,0.8,0.3,0.8,0.8
		S444.2,106.4,443.8,106.4z M440.7,106.4c-0.4,0-0.8-0.3-0.8-0.8s0.3-0.8,0.7-0.8h0c0.4,0,0.8,0.3,0.8,0.8S441.1,106.4,440.7,106.4z
		 M437.7,106.4c-0.4,0-0.8-0.3-0.8-0.8s0.3-0.8,0.7-0.8h0c0.4,0,0.8,0.3,0.8,0.8S438.1,106.4,437.7,106.4z M434.6,106.4
		c-0.4,0-0.8-0.3-0.8-0.8s0.3-0.8,0.7-0.8h0.1c0.4,0,0.8,0.3,0.8,0.8S435,106.4,434.6,106.4z M431.6,106.4c-0.4,0-0.8-0.3-0.8-0.8
		s0.3-0.8,0.7-0.8h0c0.4,0,0.8,0.3,0.8,0.8S432,106.4,431.6,106.4z M428.5,106.4c-0.4,0-0.8-0.3-0.8-0.8s0.3-0.8,0.7-0.8h0
		c0.4,0,0.8,0.3,0.8,0.8S428.9,106.4,428.5,106.4z M425.5,106.4c-0.4,0-0.8-0.3-0.8-0.8s0.3-0.8,0.7-0.8h0c0.4,0,0.8,0.3,0.8,0.8
		S425.9,106.4,425.5,106.4z M422.4,106.4c-0.4,0-0.8-0.3-0.8-0.8s0.3-0.8,0.7-0.8h0c0.4,0,0.8,0.3,0.8,0.8S422.8,106.4,422.4,106.4z
		 M419.4,106.4c-0.4,0-0.8-0.3-0.8-0.8s0.3-0.8,0.7-0.8h0.1c0.4,0,0.8,0.3,0.8,0.8S419.8,106.4,419.4,106.4z M416.3,106.4
		c-0.4,0-0.8-0.3-0.8-0.8s0.3-0.8,0.7-0.8h0c0.4,0,0.8,0.3,0.8,0.8S416.7,106.4,416.3,106.4z M413.3,106.4c-0.4,0-0.8-0.3-0.8-0.8
		s0.3-0.8,0.7-0.8h0c0.4,0,0.8,0.3,0.8,0.8S413.7,106.4,413.3,106.4z M410.2,106.4c-0.4,0-0.8-0.3-0.8-0.8s0.3-0.8,0.7-0.8h0
		c0.4,0,0.8,0.3,0.8,0.8S410.6,106.4,410.2,106.4z M407.2,106.4c-0.4,0-0.8-0.3-0.8-0.8s0.3-0.8,0.7-0.8h0.1c0.4,0,0.8,0.3,0.8,0.8
		S407.6,106.4,407.2,106.4z M404.1,106.4c-0.4,0-0.8-0.3-0.8-0.8s0.3-0.8,0.7-0.8h0c0.4,0,0.8,0.3,0.8,0.8S404.5,106.4,404.1,106.4z
		 M401.1,106.4c-0.4,0-0.8-0.3-0.8-0.8s0.3-0.8,0.7-0.8h0c0.4,0,0.8,0.3,0.8,0.8S401.5,106.4,401.1,106.4z M398,106.4
		c-0.4,0-0.8-0.3-0.8-0.8s0.3-0.8,0.7-0.8h0c0.4,0,0.8,0.3,0.8,0.8S398.4,106.4,398,106.4z M395,106.4c-0.4,0-0.8-0.3-0.8-0.8
		s0.3-0.8,0.7-0.8h0c0.4,0,0.8,0.3,0.8,0.8S395.4,106.4,395,106.4z M391.9,106.4c-0.4,0-0.8-0.3-0.8-0.8s0.3-0.8,0.7-0.8h0.1
		c0.4,0,0.8,0.3,0.8,0.8S392.3,106.4,391.9,106.4z M388.9,106.4c-0.4,0-0.8-0.3-0.8-0.8s0.3-0.8,0.7-0.8h0c0.4,0,0.8,0.3,0.8,0.8
		S389.3,106.4,388.9,106.4z M385.8,106.4c-0.4,0-0.8-0.3-0.8-0.8s0.3-0.8,0.7-0.8h0c0.4,0,0.8,0.3,0.8,0.8S386.2,106.4,385.8,106.4z
		 M382.8,106.4c-0.4,0-0.8-0.3-0.8-0.8s0.3-0.8,0.7-0.8h0c0.4,0,0.8,0.3,0.8,0.8S383.2,106.4,382.8,106.4z M379.7,106.4
		c-0.4,0-0.8-0.3-0.8-0.8s0.3-0.8,0.7-0.8h0c0.4,0,0.8,0.3,0.8,0.8S380.1,106.4,379.7,106.4z M376.7,106.4c-0.4,0-0.8-0.3-0.8-0.8
		s0.3-0.8,0.7-0.8h0.1c0.4,0,0.8,0.3,0.8,0.8S377.1,106.4,376.7,106.4z M373.6,106.4c-0.4,0-0.8-0.3-0.8-0.8s0.3-0.8,0.7-0.8h0
		c0.4,0,0.8,0.3,0.8,0.8S374,106.4,373.6,106.4z M370.6,106.4c-0.4,0-0.8-0.3-0.8-0.8s0.3-0.8,0.7-0.8h0c0.4,0,0.8,0.3,0.8,0.8
		S371,106.4,370.6,106.4z M367.5,106.4c-0.4,0-0.8-0.3-0.8-0.8s0.3-0.8,0.7-0.8h0c0.4,0,0.8,0.3,0.8,0.8S367.9,106.4,367.5,106.4z
		 M364.5,106.4c-0.4,0-0.8-0.3-0.8-0.8s0.3-0.8,0.7-0.8h0c0.4,0,0.8,0.3,0.8,0.8S364.9,106.4,364.5,106.4z M361.4,106.4
		c-0.4,0-0.8-0.3-0.8-0.8s0.3-0.8,0.7-0.8h0.1c0.4,0,0.8,0.3,0.8,0.8S361.8,106.4,361.4,106.4z M358.4,106.4c-0.4,0-0.8-0.3-0.8-0.8
		s0.3-0.8,0.7-0.8h0c0.4,0,0.8,0.3,0.8,0.8S358.8,106.4,358.4,106.4z M355.3,106.4c-0.4,0-0.8-0.3-0.8-0.8s0.3-0.8,0.7-0.8h0
		c0.4,0,0.8,0.3,0.8,0.8S355.7,106.4,355.3,106.4z M352.3,106.4c-0.4,0-0.8-0.3-0.8-0.8s0.3-0.8,0.7-0.8h0c0.4,0,0.8,0.3,0.8,0.8
		S352.7,106.4,352.3,106.4z M349.2,106.4c-0.4,0-0.8-0.3-0.8-0.8s0.3-0.8,0.7-0.8h0c0.4,0,0.8,0.3,0.8,0.8S349.6,106.4,349.2,106.4z
		 M346.2,106.4c-0.4,0-0.8-0.3-0.8-0.8s0.3-0.8,0.7-0.8h0.1c0.4,0,0.8,0.3,0.8,0.8S346.6,106.4,346.2,106.4z M343.1,106.4
		c-0.4,0-0.8-0.3-0.8-0.8s0.3-0.8,0.7-0.8h0c0.4,0,0.8,0.3,0.8,0.8S343.5,106.4,343.1,106.4z M340.1,106.4c-0.4,0-0.8-0.3-0.8-0.8
		s0.3-0.8,0.7-0.8h0c0.4,0,0.8,0.3,0.8,0.8S340.5,106.4,340.1,106.4z M337,106.4c-0.4,0-0.8-0.3-0.8-0.8s0.3-0.8,0.7-0.8h0
		c0.4,0,0.8,0.3,0.8,0.8S337.4,106.4,337,106.4z M334,106.4c-0.4,0-0.8-0.3-0.8-0.8s0.3-0.8,0.7-0.8h0c0.4,0,0.8,0.3,0.8,0.8
		S334.4,106.4,334,106.4z M330.9,106.4c-0.4,0-0.8-0.3-0.8-0.8s0.3-0.8,0.7-0.8h0.1c0.4,0,0.8,0.3,0.8,0.8S331.3,106.4,330.9,106.4z
		 M327.9,106.4c-0.4,0-0.8-0.3-0.8-0.8s0.3-0.8,0.7-0.8h0c0.4,0,0.8,0.3,0.8,0.8S328.3,106.4,327.9,106.4z M324.8,106.4
		c-0.4,0-0.8-0.3-0.8-0.8s0.3-0.8,0.7-0.8h0c0.4,0,0.8,0.3,0.8,0.8S325.2,106.4,324.8,106.4z M321.8,106.4c-0.4,0-0.8-0.3-0.8-0.8
		s0.3-0.8,0.7-0.8h0c0.4,0,0.8,0.3,0.8,0.8S322.2,106.4,321.8,106.4z M318.7,106.4c-0.4,0-0.8-0.3-0.8-0.8s0.3-0.8,0.7-0.8h0.1
		c0.4,0,0.8,0.3,0.8,0.8S319.1,106.4,318.7,106.4z M315.7,106.4c-0.4,0-0.8-0.3-0.8-0.8s0.3-0.8,0.7-0.8h0c0.4,0,0.8,0.3,0.8,0.8
		S316.1,106.4,315.7,106.4z M312.6,106.4c-0.4,0-0.8-0.3-0.8-0.8s0.3-0.8,0.7-0.8h0c0.4,0,0.8,0.3,0.8,0.8S313,106.4,312.6,106.4z
		 M309.6,106.4c-0.4,0-0.8-0.3-0.8-0.8s0.3-0.8,0.7-0.8h0c0.4,0,0.8,0.3,0.8,0.8S310,106.4,309.6,106.4z M306.5,106.4
		c-0.4,0-0.8-0.3-0.8-0.8s0.3-0.8,0.7-0.8h0c0.4,0,0.8,0.3,0.8,0.8S306.9,106.4,306.5,106.4z M303.5,106.4c-0.4,0-0.8-0.3-0.8-0.8
		s0.3-0.8,0.7-0.8h0.1c0.4,0,0.8,0.3,0.8,0.8S303.9,106.4,303.5,106.4z M300.4,106.4c-0.4,0-0.8-0.3-0.8-0.8s0.3-0.8,0.7-0.8h0
		c0.4,0,0.8,0.3,0.8,0.8S300.8,106.4,300.4,106.4z M297.4,106.4c-0.4,0-0.8-0.3-0.8-0.8s0.3-0.8,0.7-0.8h0c0.4,0,0.8,0.3,0.8,0.8
		S297.8,106.4,297.4,106.4z M294.3,106.4c-0.4,0-0.8-0.3-0.8-0.8s0.3-0.8,0.7-0.8h0c0.4,0,0.8,0.3,0.8,0.8S294.7,106.4,294.3,106.4z
		 M291.3,106.4c-0.4,0-0.8-0.3-0.8-0.8s0.3-0.8,0.7-0.8h0c0.4,0,0.8,0.3,0.8,0.8S291.7,106.4,291.3,106.4z M288.2,106.4
		c-0.4,0-0.8-0.3-0.8-0.8s0.3-0.8,0.7-0.8h0c0.4,0,0.8,0.3,0.8,0.8S288.6,106.4,288.2,106.4z M285.2,106.4c-0.4,0-0.8-0.3-0.8-0.8
		s0.3-0.8,0.7-0.8h0c0.4,0,0.8,0.3,0.8,0.8S285.6,106.4,285.2,106.4z M282.1,106.4c-0.4,0-0.8-0.3-0.8-0.8s0.3-0.8,0.7-0.8h0.1
		c0.4,0,0.8,0.3,0.8,0.8S282.5,106.4,282.1,106.4z M279.1,106.4c-0.4,0-0.8-0.3-0.8-0.8s0.3-0.8,0.7-0.8h0c0.4,0,0.8,0.3,0.8,0.8
		S279.5,106.4,279.1,106.4z M276,106.4c-0.4,0-0.8-0.3-0.8-0.8s0.3-0.8,0.7-0.8h0c0.4,0,0.8,0.3,0.8,0.8S276.4,106.4,276,106.4z
		 M273,106.4c-0.4,0-0.8-0.3-0.8-0.8s0.3-0.8,0.7-0.8h0.1c0.4,0,0.8,0.3,0.8,0.8S273.4,106.4,273,106.4z M269.9,106.4
		c-0.4,0-0.8-0.3-0.8-0.8s0.3-0.8,0.7-0.8h0c0.4,0,0.8,0.3,0.8,0.8S270.3,106.4,269.9,106.4z M266.9,106.4c-0.4,0-0.8-0.3-0.8-0.8
		s0.3-0.8,0.7-0.8h0.1c0.4,0,0.8,0.3,0.8,0.8S267.3,106.4,266.9,106.4z M263.8,106.4c-0.4,0-0.8-0.3-0.8-0.8s0.3-0.8,0.7-0.8h0
		c0.4,0,0.8,0.3,0.8,0.8S264.2,106.4,263.8,106.4z M260.8,106.4c-0.4,0-0.8-0.3-0.8-0.8s0.3-0.8,0.7-0.8h0c0.4,0,0.8,0.3,0.8,0.8
		S261.2,106.4,260.8,106.4z M257.7,106.4c-0.4,0-0.8-0.3-0.8-0.8s0.3-0.8,0.7-0.8h0.1c0.4,0,0.8,0.3,0.8,0.8
		S258.1,106.4,257.7,106.4z M254.7,106.4c-0.4,0-0.8-0.3-0.8-0.8s0.3-0.8,0.7-0.8h0c0.4,0,0.8,0.3,0.8,0.8S255.1,106.4,254.7,106.4z
		 M251.6,106.4c-0.4,0-0.8-0.3-0.8-0.8s0.3-0.8,0.7-0.8h0.1c0.4,0,0.8,0.3,0.8,0.8S252,106.4,251.6,106.4z M248.6,106.4
		c-0.4,0-0.8-0.3-0.8-0.8s0.3-0.8,0.7-0.8h0c0.4,0,0.8,0.3,0.8,0.8S249,106.4,248.6,106.4z M245.5,106.4c-0.4,0-0.8-0.3-0.8-0.8
		s0.3-0.8,0.7-0.8h0c0.4,0,0.8,0.3,0.8,0.8S245.9,106.4,245.5,106.4z M242.5,106.4c-0.4,0-0.8-0.3-0.8-0.8s0.3-0.8,0.7-0.8h0.1
		c0.4,0,0.8,0.3,0.8,0.8S242.9,106.4,242.5,106.4z M239.4,106.4c-0.4,0-0.8-0.3-0.8-0.8s0.3-0.8,0.7-0.8h0c0.4,0,0.8,0.3,0.8,0.8
		S239.8,106.4,239.4,106.4z M236.4,106.4c-0.4,0-0.8-0.3-0.8-0.8s0.3-0.8,0.7-0.8h0c0.4,0,0.8,0.3,0.8,0.8S236.8,106.4,236.4,106.4z
		 M233.3,106.4c-0.4,0-0.8-0.3-0.8-0.8s0.3-0.8,0.7-0.8h0.1c0.4,0,0.8,0.3,0.8,0.8S233.7,106.4,233.3,106.4z M230.3,106.4
		c-0.4,0-0.8-0.3-0.8-0.8s0.3-0.8,0.7-0.8h0c0.4,0,0.8,0.3,0.8,0.8S230.7,106.4,230.3,106.4z M227.2,106.4c-0.4,0-0.8-0.3-0.8-0.8
		s0.3-0.8,0.7-0.8h0.1c0.4,0,0.8,0.3,0.8,0.8S227.6,106.4,227.2,106.4z M224.2,106.4c-0.4,0-0.8-0.3-0.8-0.8s0.3-0.8,0.7-0.8h0
		c0.4,0,0.8,0.3,0.8,0.8S224.6,106.4,224.2,106.4z M221.1,106.4c-0.4,0-0.8-0.3-0.8-0.8s0.3-0.8,0.7-0.8h0c0.4,0,0.8,0.3,0.8,0.8
		S221.5,106.4,221.1,106.4z M218.1,106.4c-0.4,0-0.8-0.3-0.8-0.8s0.3-0.8,0.7-0.8h0.1c0.4,0,0.8,0.3,0.8,0.8
		S218.5,106.4,218.1,106.4z M215,106.4c-0.4,0-0.8-0.3-0.8-0.8s0.3-0.8,0.7-0.8h0c0.4,0,0.8,0.3,0.8,0.8S215.4,106.4,215,106.4z
		 M212,106.4c-0.4,0-0.8-0.3-0.8-0.8s0.3-0.8,0.7-0.8h0c0.4,0,0.8,0.3,0.8,0.8S212.4,106.4,212,106.4z M208.9,106.4
		c-0.4,0-0.8-0.3-0.8-0.8s0.3-0.8,0.7-0.8h0.1c0.4,0,0.8,0.3,0.8,0.8S209.3,106.4,208.9,106.4z M205.9,106.4c-0.4,0-0.8-0.3-0.8-0.8
		s0.3-0.8,0.7-0.8h0c0.4,0,0.8,0.3,0.8,0.8S206.3,106.4,205.9,106.4z M202.8,106.4c-0.4,0-0.8-0.3-0.8-0.8s0.3-0.8,0.7-0.8h0.1
		c0.4,0,0.8,0.3,0.8,0.8S203.2,106.4,202.8,106.4z M199.8,106.4c-0.4,0-0.8-0.3-0.8-0.8s0.3-0.8,0.7-0.8h0c0.4,0,0.8,0.3,0.8,0.8
		S200.2,106.4,199.8,106.4z M196.7,106.4c-0.4,0-0.8-0.3-0.8-0.8s0.3-0.8,0.7-0.8h0c0.4,0,0.8,0.3,0.8,0.8S197.1,106.4,196.7,106.4z
		 M193.7,106.4c-0.4,0-0.8-0.3-0.8-0.8s0.3-0.8,0.7-0.8h0.1c0.4,0,0.8,0.3,0.8,0.8S194.1,106.4,193.7,106.4z M190.6,106.4
		c-0.4,0-0.8-0.3-0.8-0.8s0.3-0.8,0.7-0.8h0c0.4,0,0.8,0.3,0.8,0.8S191,106.4,190.6,106.4z M187.6,106.4c-0.4,0-0.8-0.3-0.8-0.8
		s0.3-0.8,0.7-0.8h0.1c0.4,0,0.8,0.3,0.8,0.8S188,106.4,187.6,106.4z M184.5,106.4c-0.4,0-0.8-0.3-0.8-0.8s0.3-0.8,0.7-0.8h0
		c0.4,0,0.8,0.3,0.8,0.8S184.9,106.4,184.5,106.4z M181.5,106.4c-0.4,0-0.8-0.3-0.8-0.8s0.3-0.8,0.7-0.8h0c0.4,0,0.8,0.3,0.8,0.8
		S181.9,106.4,181.5,106.4z M178.4,106.4c-0.4,0-0.8-0.3-0.8-0.8s0.3-0.8,0.7-0.8h0.1c0.4,0,0.8,0.3,0.8,0.8
		S178.8,106.4,178.4,106.4z M175.4,106.4c-0.4,0-0.8-0.3-0.8-0.8s0.3-0.8,0.7-0.8h0c0.4,0,0.8,0.3,0.8,0.8S175.8,106.4,175.4,106.4z
		 M172.3,106.4c-0.4,0-0.8-0.3-0.8-0.8s0.3-0.8,0.7-0.8h0c0.4,0,0.8,0.3,0.8,0.8S172.7,106.4,172.3,106.4z M169.3,106.4
		c-0.4,0-0.8-0.3-0.8-0.8s0.3-0.8,0.7-0.8h0.1c0.4,0,0.8,0.3,0.8,0.8S169.7,106.4,169.3,106.4z M166.2,106.4c-0.4,0-0.8-0.3-0.8-0.8
		s0.3-0.8,0.7-0.8h0c0.4,0,0.8,0.3,0.8,0.8S166.6,106.4,166.2,106.4z M163.2,106.4c-0.4,0-0.8-0.3-0.8-0.8s0.3-0.8,0.7-0.8h0.1
		c0.4,0,0.8,0.3,0.8,0.8S163.6,106.4,163.2,106.4z M160.1,106.4c-0.4,0-0.8-0.3-0.8-0.8s0.3-0.8,0.7-0.8h0c0.4,0,0.8,0.3,0.8,0.8
		S160.5,106.4,160.1,106.4z M157.1,106.4c-0.4,0-0.8-0.3-0.8-0.8s0.3-0.8,0.7-0.8h0c0.4,0,0.8,0.3,0.8,0.8S157.5,106.4,157.1,106.4z
		 M154,106.4c-0.4,0-0.8-0.3-0.8-0.8s0.3-0.8,0.7-0.8h0.1c0.4,0,0.8,0.3,0.8,0.8S154.4,106.4,154,106.4z M151,106.4
		c-0.4,0-0.8-0.3-0.8-0.8s0.3-0.8,0.7-0.8h0c0.4,0,0.8,0.3,0.8,0.8S151.4,106.4,151,106.4z M147.9,106.4c-0.4,0-0.8-0.3-0.8-0.8
		s0.3-0.8,0.7-0.8h0.1c0.4,0,0.8,0.3,0.8,0.8S148.3,106.4,147.9,106.4z M144.9,106.4c-0.4,0-0.8-0.3-0.8-0.8s0.3-0.8,0.7-0.8h0
		c0.4,0,0.8,0.3,0.8,0.8S145.3,106.4,144.9,106.4z M141.8,106.4c-0.4,0-0.8-0.3-0.8-0.8s0.3-0.8,0.7-0.8h0c0.4,0,0.8,0.3,0.8,0.8
		S142.2,106.4,141.8,106.4z M138.8,106.4c-0.4,0-0.8-0.3-0.8-0.8s0.3-0.8,0.7-0.8h0.1c0.4,0,0.8,0.3,0.8,0.8
		S139.2,106.4,138.8,106.4z M135.7,106.4c-0.4,0-0.8-0.3-0.8-0.8s0.3-0.8,0.7-0.8h0c0.4,0,0.8,0.3,0.8,0.8S136.1,106.4,135.7,106.4z
		 M132.7,106.4c-0.4,0-0.8-0.3-0.8-0.8s0.3-0.8,0.7-0.8h0.1c0.4,0,0.8,0.3,0.8,0.8S133.1,106.4,132.7,106.4z M129.6,106.4
		c-0.4,0-0.8-0.3-0.8-0.8s0.3-0.8,0.7-0.8h0c0.4,0,0.8,0.3,0.8,0.8S130,106.4,129.6,106.4z M126.6,106.4c-0.4,0-0.8-0.3-0.8-0.8
		s0.3-0.8,0.7-0.8h0c0.4,0,0.8,0.3,0.8,0.8S127,106.4,126.6,106.4z M123.5,106.4c-0.4,0-0.8-0.3-0.8-0.8s0.3-0.8,0.7-0.8h0.1
		c0.4,0,0.8,0.3,0.8,0.8S123.9,106.4,123.5,106.4z M120.5,106.4c-0.4,0-0.8-0.3-0.8-0.8s0.3-0.8,0.7-0.8h0c0.4,0,0.8,0.3,0.8,0.8
		S120.9,106.4,120.5,106.4z M117.4,106.4c-0.4,0-0.8-0.3-0.8-0.8s0.3-0.8,0.7-0.8h0.1c0.4,0,0.8,0.3,0.8,0.8
		S117.8,106.4,117.4,106.4z M114.4,106.4c-0.4,0-0.8-0.3-0.8-0.8s0.3-0.8,0.7-0.8h0c0.4,0,0.8,0.3,0.8,0.8S114.8,106.4,114.4,106.4z
		 M111.3,106.4c-0.4,0-0.8-0.3-0.8-0.8s0.3-0.8,0.7-0.8h0c0.4,0,0.8,0.3,0.8,0.8S111.7,106.4,111.3,106.4z M108.3,106.4
		c-0.4,0-0.8-0.3-0.8-0.8s0.3-0.8,0.7-0.8h0.1c0.4,0,0.8,0.3,0.8,0.8S108.7,106.4,108.3,106.4z M105.2,106.4c-0.4,0-0.8-0.3-0.8-0.8
		s0.3-0.8,0.7-0.8h0c0.4,0,0.8,0.3,0.8,0.8S105.6,106.4,105.2,106.4z M102.2,106.4c-0.4,0-0.8-0.3-0.8-0.8s0.3-0.8,0.7-0.8h0.1
		c0.4,0,0.8,0.3,0.8,0.8S102.6,106.4,102.2,106.4z M99.1,106.4c-0.4,0-0.8-0.3-0.8-0.8s0.3-0.8,0.7-0.8h0c0.4,0,0.8,0.3,0.8,0.8
		S99.5,106.4,99.1,106.4z M96.1,106.4c-0.4,0-0.8-0.3-0.8-0.8s0.3-0.8,0.7-0.8h0c0.4,0,0.8,0.3,0.8,0.8S96.5,106.4,96.1,106.4z
		 M93,106.4c-0.4,0-0.8-0.3-0.8-0.8s0.3-0.8,0.7-0.8H93c0.4,0,0.8,0.3,0.8,0.8S93.4,106.4,93,106.4z M90,106.4
		c-0.4,0-0.8-0.3-0.8-0.8s0.3-0.8,0.7-0.8h0c0.4,0,0.8,0.3,0.8,0.8S90.4,106.4,90,106.4z M86.9,106.4c-0.4,0-0.8-0.3-0.8-0.8
		s0.3-0.8,0.7-0.8h0.1c0.4,0,0.8,0.3,0.8,0.8S87.3,106.4,86.9,106.4z M83.9,106.4c-0.4,0-0.8-0.3-0.8-0.8s0.3-0.8,0.7-0.8h0
		c0.4,0,0.8,0.3,0.8,0.8S84.3,106.4,83.9,106.4z M80.8,106.4c-0.4,0-0.8-0.3-0.8-0.8s0.3-0.8,0.7-0.8h0c0.4,0,0.8,0.3,0.8,0.8
		S81.2,106.4,80.8,106.4z M77.8,106.4c-0.4,0-0.8-0.3-0.8-0.8s0.3-0.8,0.7-0.8h0.1c0.4,0,0.8,0.3,0.8,0.8S78.2,106.4,77.8,106.4z
		 M74.7,106.4c-0.4,0-0.8-0.3-0.8-0.8s0.3-0.8,0.7-0.8h0c0.4,0,0.8,0.3,0.8,0.8S75.1,106.4,74.7,106.4z M71.7,106.4
		c-0.4,0-0.8-0.3-0.8-0.8s0.3-0.8,0.7-0.8h0.1c0.4,0,0.8,0.3,0.8,0.8S72.1,106.4,71.7,106.4z M68.6,106.4c-0.4,0-0.8-0.3-0.8-0.8
		s0.3-0.8,0.7-0.8h0c0.4,0,0.8,0.3,0.8,0.8S69,106.4,68.6,106.4z M65.6,106.4c-0.4,0-0.8-0.3-0.8-0.8s0.3-0.8,0.7-0.8h0
		c0.4,0,0.8,0.3,0.8,0.8S66,106.4,65.6,106.4z M62.5,106.4c-0.4,0-0.8-0.3-0.8-0.8s0.3-0.8,0.7-0.8h0.1c0.4,0,0.8,0.3,0.8,0.8
		S62.9,106.4,62.5,106.4z M59.5,106.4c-0.4,0-0.8-0.3-0.8-0.8s0.3-0.8,0.7-0.8h0c0.4,0,0.8,0.3,0.8,0.8S59.9,106.4,59.5,106.4z
		 M56.4,106.4c-0.4,0-0.8-0.3-0.8-0.8s0.3-0.8,0.7-0.8h0.1c0.4,0,0.8,0.3,0.8,0.8S56.8,106.4,56.4,106.4z M53.4,106.4
		c-0.4,0-0.8-0.3-0.8-0.8s0.3-0.8,0.7-0.8h0c0.4,0,0.8,0.3,0.8,0.8S53.8,106.4,53.4,106.4z M50.3,106.4c-0.4,0-0.8-0.3-0.8-0.8
		s0.3-0.8,0.7-0.8h0c0.4,0,0.8,0.3,0.8,0.8S50.7,106.4,50.3,106.4z M47.3,106.4c-0.4,0-0.8-0.3-0.8-0.8s0.3-0.8,0.7-0.8h0.1
		c0.4,0,0.8,0.3,0.8,0.8S47.7,106.4,47.3,106.4z M44.2,106.4c-0.4,0-0.8-0.3-0.8-0.8s0.3-0.8,0.7-0.8h0c0.4,0,0.8,0.3,0.8,0.8
		S44.6,106.4,44.2,106.4z M41.2,106.4c-0.4,0-0.8-0.3-0.8-0.8s0.3-0.8,0.7-0.8h0.1c0.4,0,0.8,0.3,0.8,0.8S41.6,106.4,41.2,106.4z
		 M38.1,106.4c-0.4,0-0.8-0.3-0.8-0.8s0.3-0.8,0.7-0.8h0c0.4,0,0.8,0.3,0.8,0.8S38.5,106.4,38.1,106.4z"/>
	<path class="st1" d="M568.8,38.9c-0.4,0-0.8-0.3-0.8-0.8s0.3-0.8,0.7-0.8h0c0.4,0,0.8,0.3,0.8,0.8S569.2,38.9,568.8,38.9z
		 M565.8,38.9c-0.4,0-0.8-0.3-0.8-0.8s0.3-0.8,0.7-0.8h0c0.4,0,0.8,0.3,0.8,0.8S566.2,38.9,565.8,38.9z M562.7,38.9
		c-0.4,0-0.8-0.3-0.8-0.8s0.3-0.8,0.7-0.8h0c0.4,0,0.8,0.3,0.8,0.8S563.1,38.9,562.7,38.9z M559.7,38.9c-0.4,0-0.8-0.3-0.8-0.8
		s0.3-0.8,0.7-0.8h0c0.4,0,0.8,0.3,0.8,0.8S560.1,38.9,559.7,38.9z M556.6,38.9c-0.4,0-0.8-0.3-0.8-0.8s0.3-0.8,0.7-0.8h0
		c0.4,0,0.8,0.3,0.8,0.8S557,38.9,556.6,38.9z M553.6,38.9c-0.4,0-0.8-0.3-0.8-0.8s0.3-0.8,0.7-0.8h0.1c0.4,0,0.8,0.3,0.8,0.8
		S554,38.9,553.6,38.9z M550.5,38.9c-0.4,0-0.8-0.3-0.8-0.8s0.3-0.8,0.7-0.8h0c0.4,0,0.8,0.3,0.8,0.8S550.9,38.9,550.5,38.9z
		 M547.5,38.9c-0.4,0-0.8-0.3-0.8-0.8s0.3-0.8,0.7-0.8h0c0.4,0,0.8,0.3,0.8,0.8S547.9,38.9,547.5,38.9z M544.4,38.9
		c-0.4,0-0.8-0.3-0.8-0.8s0.3-0.8,0.7-0.8h0c0.4,0,0.8,0.3,0.8,0.8S544.8,38.9,544.4,38.9z M541.4,38.9c-0.4,0-0.8-0.3-0.8-0.8
		s0.3-0.8,0.7-0.8h0c0.4,0,0.8,0.3,0.8,0.8S541.8,38.9,541.4,38.9z M538.3,38.9c-0.4,0-0.8-0.3-0.8-0.8s0.3-0.8,0.7-0.8h0.1
		c0.4,0,0.8,0.3,0.8,0.8S538.7,38.9,538.3,38.9z M535.3,38.9c-0.4,0-0.8-0.3-0.8-0.8s0.3-0.8,0.7-0.8h0c0.4,0,0.8,0.3,0.8,0.8
		S535.7,38.9,535.3,38.9z M532.2,38.9c-0.4,0-0.8-0.3-0.8-0.8s0.3-0.8,0.7-0.8h0c0.4,0,0.8,0.3,0.8,0.8S532.6,38.9,532.2,38.9z
		 M529.2,38.9c-0.4,0-0.8-0.3-0.8-0.8s0.3-0.8,0.7-0.8h0c0.4,0,0.8,0.3,0.8,0.8S529.6,38.9,529.2,38.9z M526.1,38.9
		c-0.4,0-0.8-0.3-0.8-0.8s0.3-0.8,0.7-0.8h0c0.4,0,0.8,0.3,0.8,0.8S526.5,38.9,526.1,38.9z M523.1,38.9c-0.4,0-0.8-0.3-0.8-0.8
		s0.3-0.8,0.7-0.8h0.1c0.4,0,0.8,0.3,0.8,0.8S523.5,38.9,523.1,38.9z M520,38.9c-0.4,0-0.8-0.3-0.8-0.8s0.3-0.8,0.7-0.8h0
		c0.4,0,0.8,0.3,0.8,0.8S520.4,38.9,520,38.9z M517,38.9c-0.4,0-0.8-0.3-0.8-0.8s0.3-0.8,0.7-0.8h0c0.4,0,0.8,0.3,0.8,0.8
		S517.4,38.9,517,38.9z M513.9,38.9c-0.4,0-0.8-0.3-0.8-0.8s0.3-0.8,0.7-0.8h0c0.4,0,0.8,0.3,0.8,0.8S514.3,38.9,513.9,38.9z
		 M510.9,38.9c-0.4,0-0.8-0.3-0.8-0.8s0.3-0.8,0.7-0.8h0.1c0.4,0,0.8,0.3,0.8,0.8S511.3,38.9,510.9,38.9z M507.8,38.9
		c-0.4,0-0.8-0.3-0.8-0.8s0.3-0.8,0.7-0.8h0c0.4,0,0.8,0.3,0.8,0.8S508.2,38.9,507.8,38.9z M504.8,38.9c-0.4,0-0.8-0.3-0.8-0.8
		s0.3-0.8,0.7-0.8h0c0.4,0,0.8,0.3,0.8,0.8S505.2,38.9,504.8,38.9z M501.7,38.9c-0.4,0-0.8-0.3-0.8-0.8s0.3-0.8,0.7-0.8h0
		c0.4,0,0.8,0.3,0.8,0.8S502.1,38.9,501.7,38.9z M498.7,38.9c-0.4,0-0.8-0.3-0.8-0.8s0.3-0.8,0.7-0.8h0c0.4,0,0.8,0.3,0.8,0.8
		S499.1,38.9,498.7,38.9z M495.6,38.9c-0.4,0-0.8-0.3-0.8-0.8s0.3-0.8,0.7-0.8h0.1c0.4,0,0.8,0.3,0.8,0.8S496,38.9,495.6,38.9z
		 M492.6,38.9c-0.4,0-0.8-0.3-0.8-0.8s0.3-0.8,0.7-0.8h0c0.4,0,0.8,0.3,0.8,0.8S493,38.9,492.6,38.9z M489.5,38.9
		c-0.4,0-0.8-0.3-0.8-0.8s0.3-0.8,0.7-0.8h0c0.4,0,0.8,0.3,0.8,0.8S489.9,38.9,489.5,38.9z M486.5,38.9c-0.4,0-0.8-0.3-0.8-0.8
		s0.3-0.8,0.7-0.8h0c0.4,0,0.8,0.3,0.8,0.8S486.9,38.9,486.5,38.9z M483.4,38.9c-0.4,0-0.8-0.3-0.8-0.8s0.3-0.8,0.7-0.8h0
		c0.4,0,0.8,0.3,0.8,0.8S483.8,38.9,483.4,38.9z M480.4,38.9c-0.4,0-0.8-0.3-0.8-0.8s0.3-0.8,0.7-0.8h0.1c0.4,0,0.8,0.3,0.8,0.8
		S480.8,38.9,480.4,38.9z M477.3,38.9c-0.4,0-0.8-0.3-0.8-0.8s0.3-0.8,0.7-0.8h0c0.4,0,0.8,0.3,0.8,0.8S477.7,38.9,477.3,38.9z
		 M474.3,38.9c-0.4,0-0.8-0.3-0.8-0.8s0.3-0.8,0.7-0.8h0c0.4,0,0.8,0.3,0.8,0.8S474.7,38.9,474.3,38.9z M471.2,38.9
		c-0.4,0-0.8-0.3-0.8-0.8s0.3-0.8,0.7-0.8h0c0.4,0,0.8,0.3,0.8,0.8S471.6,38.9,471.2,38.9z M468.2,38.9c-0.4,0-0.8-0.3-0.8-0.8
		s0.3-0.8,0.7-0.8h0c0.4,0,0.8,0.3,0.8,0.8S468.6,38.9,468.2,38.9z M465.1,38.9c-0.4,0-0.8-0.3-0.8-0.8s0.3-0.8,0.7-0.8h0.1
		c0.4,0,0.8,0.3,0.8,0.8S465.5,38.9,465.1,38.9z M462.1,38.9c-0.4,0-0.8-0.3-0.8-0.8s0.3-0.8,0.7-0.8h0c0.4,0,0.8,0.3,0.8,0.8
		S462.5,38.9,462.1,38.9z M459,38.9c-0.4,0-0.8-0.3-0.8-0.8s0.3-0.8,0.7-0.8h0c0.4,0,0.8,0.3,0.8,0.8S459.4,38.9,459,38.9z
		 M456,38.9c-0.4,0-0.8-0.3-0.8-0.8s0.3-0.8,0.7-0.8h0c0.4,0,0.8,0.3,0.8,0.8S456.4,38.9,456,38.9z M452.9,38.9
		c-0.4,0-0.8-0.3-0.8-0.8s0.3-0.8,0.7-0.8h0c0.4,0,0.8,0.3,0.8,0.8S453.3,38.9,452.9,38.9z M449.9,38.9c-0.4,0-0.8-0.3-0.8-0.8
		s0.3-0.8,0.7-0.8h0.1c0.4,0,0.8,0.3,0.8,0.8S450.3,38.9,449.9,38.9z M446.8,38.9c-0.4,0-0.8-0.3-0.8-0.8s0.3-0.8,0.7-0.8h0
		c0.4,0,0.8,0.3,0.8,0.8S447.2,38.9,446.8,38.9z M443.8,38.9c-0.4,0-0.8-0.3-0.8-0.8s0.3-0.8,0.7-0.8h0c0.4,0,0.8,0.3,0.8,0.8
		S444.2,38.9,443.8,38.9z M440.7,38.9c-0.4,0-0.8-0.3-0.8-0.8s0.3-0.8,0.7-0.8h0c0.4,0,0.8,0.3,0.8,0.8S441.1,38.9,440.7,38.9z
		 M437.7,38.9c-0.4,0-0.8-0.3-0.8-0.8s0.3-0.8,0.7-0.8h0c0.4,0,0.8,0.3,0.8,0.8S438.1,38.9,437.7,38.9z M434.6,38.9
		c-0.4,0-0.8-0.3-0.8-0.8s0.3-0.8,0.7-0.8h0.1c0.4,0,0.8,0.3,0.8,0.8S435,38.9,434.6,38.9z M431.6,38.9c-0.4,0-0.8-0.3-0.8-0.8
		s0.3-0.8,0.7-0.8h0c0.4,0,0.8,0.3,0.8,0.8S432,38.9,431.6,38.9z M428.5,38.9c-0.4,0-0.8-0.3-0.8-0.8s0.3-0.8,0.7-0.8h0
		c0.4,0,0.8,0.3,0.8,0.8S428.9,38.9,428.5,38.9z M425.5,38.9c-0.4,0-0.8-0.3-0.8-0.8s0.3-0.8,0.7-0.8h0c0.4,0,0.8,0.3,0.8,0.8
		S425.9,38.9,425.5,38.9z M422.4,38.9c-0.4,0-0.8-0.3-0.8-0.8s0.3-0.8,0.7-0.8h0c0.4,0,0.8,0.3,0.8,0.8S422.8,38.9,422.4,38.9z
		 M419.4,38.9c-0.4,0-0.8-0.3-0.8-0.8s0.3-0.8,0.7-0.8h0.1c0.4,0,0.8,0.3,0.8,0.8S419.8,38.9,419.4,38.9z M416.3,38.9
		c-0.4,0-0.8-0.3-0.8-0.8s0.3-0.8,0.7-0.8h0c0.4,0,0.8,0.3,0.8,0.8S416.7,38.9,416.3,38.9z M413.3,38.9c-0.4,0-0.8-0.3-0.8-0.8
		s0.3-0.8,0.7-0.8h0c0.4,0,0.8,0.3,0.8,0.8S413.7,38.9,413.3,38.9z M410.2,38.9c-0.4,0-0.8-0.3-0.8-0.8s0.3-0.8,0.7-0.8h0
		c0.4,0,0.8,0.3,0.8,0.8S410.6,38.9,410.2,38.9z M407.2,38.9c-0.4,0-0.8-0.3-0.8-0.8s0.3-0.8,0.7-0.8h0.1c0.4,0,0.8,0.3,0.8,0.8
		S407.6,38.9,407.2,38.9z M404.1,38.9c-0.4,0-0.8-0.3-0.8-0.8s0.3-0.8,0.7-0.8h0c0.4,0,0.8,0.3,0.8,0.8S404.5,38.9,404.1,38.9z
		 M401.1,38.9c-0.4,0-0.8-0.3-0.8-0.8s0.3-0.8,0.7-0.8h0c0.4,0,0.8,0.3,0.8,0.8S401.5,38.9,401.1,38.9z M398,38.9
		c-0.4,0-0.8-0.3-0.8-0.8s0.3-0.8,0.7-0.8h0c0.4,0,0.8,0.3,0.8,0.8S398.4,38.9,398,38.9z M395,38.9c-0.4,0-0.8-0.3-0.8-0.8
		s0.3-0.8,0.7-0.8h0c0.4,0,0.8,0.3,0.8,0.8S395.4,38.9,395,38.9z M391.9,38.9c-0.4,0-0.8-0.3-0.8-0.8s0.3-0.8,0.7-0.8h0.1
		c0.4,0,0.8,0.3,0.8,0.8S392.3,38.9,391.9,38.9z M388.9,38.9c-0.4,0-0.8-0.3-0.8-0.8s0.3-0.8,0.7-0.8h0c0.4,0,0.8,0.3,0.8,0.8
		S389.3,38.9,388.9,38.9z M385.8,38.9c-0.4,0-0.8-0.3-0.8-0.8s0.3-0.8,0.7-0.8h0c0.4,0,0.8,0.3,0.8,0.8S386.2,38.9,385.8,38.9z
		 M382.8,38.9c-0.4,0-0.8-0.3-0.8-0.8s0.3-0.8,0.7-0.8h0c0.4,0,0.8,0.3,0.8,0.8S383.2,38.9,382.8,38.9z M379.7,38.9
		c-0.4,0-0.8-0.3-0.8-0.8s0.3-0.8,0.7-0.8h0c0.4,0,0.8,0.3,0.8,0.8S380.1,38.9,379.7,38.9z M376.7,38.9c-0.4,0-0.8-0.3-0.8-0.8
		s0.3-0.8,0.7-0.8h0.1c0.4,0,0.8,0.3,0.8,0.8S377.1,38.9,376.7,38.9z M373.6,38.9c-0.4,0-0.8-0.3-0.8-0.8s0.3-0.8,0.7-0.8h0
		c0.4,0,0.8,0.3,0.8,0.8S374,38.9,373.6,38.9z M370.6,38.9c-0.4,0-0.8-0.3-0.8-0.8s0.3-0.8,0.7-0.8h0c0.4,0,0.8,0.3,0.8,0.8
		S371,38.9,370.6,38.9z M367.5,38.9c-0.4,0-0.8-0.3-0.8-0.8s0.3-0.8,0.7-0.8h0c0.4,0,0.8,0.3,0.8,0.8S367.9,38.9,367.5,38.9z
		 M364.5,38.9c-0.4,0-0.8-0.3-0.8-0.8s0.3-0.8,0.7-0.8h0c0.4,0,0.8,0.3,0.8,0.8S364.9,38.9,364.5,38.9z M361.4,38.9
		c-0.4,0-0.8-0.3-0.8-0.8s0.3-0.8,0.7-0.8h0.1c0.4,0,0.8,0.3,0.8,0.8S361.8,38.9,361.4,38.9z M358.4,38.9c-0.4,0-0.8-0.3-0.8-0.8
		s0.3-0.8,0.7-0.8h0c0.4,0,0.8,0.3,0.8,0.8S358.8,38.9,358.4,38.9z M355.3,38.9c-0.4,0-0.8-0.3-0.8-0.8s0.3-0.8,0.7-0.8h0
		c0.4,0,0.8,0.3,0.8,0.8S355.7,38.9,355.3,38.9z M352.3,38.9c-0.4,0-0.8-0.3-0.8-0.8s0.3-0.8,0.7-0.8h0c0.4,0,0.8,0.3,0.8,0.8
		S352.7,38.9,352.3,38.9z M349.2,38.9c-0.4,0-0.8-0.3-0.8-0.8s0.3-0.8,0.7-0.8h0c0.4,0,0.8,0.3,0.8,0.8S349.6,38.9,349.2,38.9z
		 M346.2,38.9c-0.4,0-0.8-0.3-0.8-0.8s0.3-0.8,0.7-0.8h0.1c0.4,0,0.8,0.3,0.8,0.8S346.6,38.9,346.2,38.9z M343.1,38.9
		c-0.4,0-0.8-0.3-0.8-0.8s0.3-0.8,0.7-0.8h0c0.4,0,0.8,0.3,0.8,0.8S343.5,38.9,343.1,38.9z M340.1,38.9c-0.4,0-0.8-0.3-0.8-0.8
		s0.3-0.8,0.7-0.8h0c0.4,0,0.8,0.3,0.8,0.8S340.5,38.9,340.1,38.9z M337,38.9c-0.4,0-0.8-0.3-0.8-0.8s0.3-0.8,0.7-0.8h0
		c0.4,0,0.8,0.3,0.8,0.8S337.4,38.9,337,38.9z M334,38.9c-0.4,0-0.8-0.3-0.8-0.8s0.3-0.8,0.7-0.8h0c0.4,0,0.8,0.3,0.8,0.8
		S334.4,38.9,334,38.9z M330.9,38.9c-0.4,0-0.8-0.3-0.8-0.8s0.3-0.8,0.7-0.8h0.1c0.4,0,0.8,0.3,0.8,0.8S331.3,38.9,330.9,38.9z
		 M327.9,38.9c-0.4,0-0.8-0.3-0.8-0.8s0.3-0.8,0.7-0.8h0c0.4,0,0.8,0.3,0.8,0.8S328.3,38.9,327.9,38.9z M324.8,38.9
		c-0.4,0-0.8-0.3-0.8-0.8s0.3-0.8,0.7-0.8h0c0.4,0,0.8,0.3,0.8,0.8S325.2,38.9,324.8,38.9z M321.8,38.9c-0.4,0-0.8-0.3-0.8-0.8
		s0.3-0.8,0.7-0.8h0c0.4,0,0.8,0.3,0.8,0.8S322.2,38.9,321.8,38.9z M318.7,38.9c-0.4,0-0.8-0.3-0.8-0.8s0.3-0.8,0.7-0.8h0.1
		c0.4,0,0.8,0.3,0.8,0.8S319.1,38.9,318.7,38.9z M315.7,38.9c-0.4,0-0.8-0.3-0.8-0.8s0.3-0.8,0.7-0.8h0c0.4,0,0.8,0.3,0.8,0.8
		S316.1,38.9,315.7,38.9z M312.6,38.9c-0.4,0-0.8-0.3-0.8-0.8s0.3-0.8,0.7-0.8h0c0.4,0,0.8,0.3,0.8,0.8S313,38.9,312.6,38.9z
		 M309.6,38.9c-0.4,0-0.8-0.3-0.8-0.8s0.3-0.8,0.7-0.8h0c0.4,0,0.8,0.3,0.8,0.8S310,38.9,309.6,38.9z M306.5,38.9
		c-0.4,0-0.8-0.3-0.8-0.8s0.3-0.8,0.7-0.8h0c0.4,0,0.8,0.3,0.8,0.8S306.9,38.9,306.5,38.9z M303.5,38.9c-0.4,0-0.8-0.3-0.8-0.8
		s0.3-0.8,0.7-0.8h0.1c0.4,0,0.8,0.3,0.8,0.8S303.9,38.9,303.5,38.9z M300.4,38.9c-0.4,0-0.8-0.3-0.8-0.8s0.3-0.8,0.7-0.8h0
		c0.4,0,0.8,0.3,0.8,0.8S300.8,38.9,300.4,38.9z M297.4,38.9c-0.4,0-0.8-0.3-0.8-0.8s0.3-0.8,0.7-0.8h0c0.4,0,0.8,0.3,0.8,0.8
		S297.8,38.9,297.4,38.9z M294.3,38.9c-0.4,0-0.8-0.3-0.8-0.8s0.3-0.8,0.7-0.8h0c0.4,0,0.8,0.3,0.8,0.8S294.7,38.9,294.3,38.9z
		 M291.3,38.9c-0.4,0-0.8-0.3-0.8-0.8s0.3-0.8,0.7-0.8h0c0.4,0,0.8,0.3,0.8,0.8S291.7,38.9,291.3,38.9z M288.2,38.9
		c-0.4,0-0.8-0.3-0.8-0.8s0.3-0.8,0.7-0.8h0c0.4,0,0.8,0.3,0.8,0.8S288.6,38.9,288.2,38.9z M285.2,38.9c-0.4,0-0.8-0.3-0.8-0.8
		s0.3-0.8,0.7-0.8h0c0.4,0,0.8,0.3,0.8,0.8S285.6,38.9,285.2,38.9z M282.1,38.9c-0.4,0-0.8-0.3-0.8-0.8s0.3-0.8,0.7-0.8h0.1
		c0.4,0,0.8,0.3,0.8,0.8S282.5,38.9,282.1,38.9z M279.1,38.9c-0.4,0-0.8-0.3-0.8-0.8s0.3-0.8,0.7-0.8h0c0.4,0,0.8,0.3,0.8,0.8
		S279.5,38.9,279.1,38.9z M276,38.9c-0.4,0-0.8-0.3-0.8-0.8s0.3-0.8,0.7-0.8h0c0.4,0,0.8,0.3,0.8,0.8S276.4,38.9,276,38.9z
		 M273,38.9c-0.4,0-0.8-0.3-0.8-0.8s0.3-0.8,0.7-0.8h0.1c0.4,0,0.8,0.3,0.8,0.8S273.4,38.9,273,38.9z M269.9,38.9
		c-0.4,0-0.8-0.3-0.8-0.8s0.3-0.8,0.7-0.8h0c0.4,0,0.8,0.3,0.8,0.8S270.3,38.9,269.9,38.9z M266.9,38.9c-0.4,0-0.8-0.3-0.8-0.8
		s0.3-0.8,0.7-0.8h0.1c0.4,0,0.8,0.3,0.8,0.8S267.3,38.9,266.9,38.9z M263.8,38.9c-0.4,0-0.8-0.3-0.8-0.8s0.3-0.8,0.7-0.8h0
		c0.4,0,0.8,0.3,0.8,0.8S264.2,38.9,263.8,38.9z M260.8,38.9c-0.4,0-0.8-0.3-0.8-0.8s0.3-0.8,0.7-0.8h0c0.4,0,0.8,0.3,0.8,0.8
		S261.2,38.9,260.8,38.9z M257.7,38.9c-0.4,0-0.8-0.3-0.8-0.8s0.3-0.8,0.7-0.8h0.1c0.4,0,0.8,0.3,0.8,0.8S258.1,38.9,257.7,38.9z
		 M254.7,38.9c-0.4,0-0.8-0.3-0.8-0.8s0.3-0.8,0.7-0.8h0c0.4,0,0.8,0.3,0.8,0.8S255.1,38.9,254.7,38.9z M251.6,38.9
		c-0.4,0-0.8-0.3-0.8-0.8s0.3-0.8,0.7-0.8h0.1c0.4,0,0.8,0.3,0.8,0.8S252,38.9,251.6,38.9z M248.6,38.9c-0.4,0-0.8-0.3-0.8-0.8
		s0.3-0.8,0.7-0.8h0c0.4,0,0.8,0.3,0.8,0.8S249,38.9,248.6,38.9z M245.5,38.9c-0.4,0-0.8-0.3-0.8-0.8s0.3-0.8,0.7-0.8h0
		c0.4,0,0.8,0.3,0.8,0.8S245.9,38.9,245.5,38.9z M242.5,38.9c-0.4,0-0.8-0.3-0.8-0.8s0.3-0.8,0.7-0.8h0.1c0.4,0,0.8,0.3,0.8,0.8
		S242.9,38.9,242.5,38.9z M239.4,38.9c-0.4,0-0.8-0.3-0.8-0.8s0.3-0.8,0.7-0.8h0c0.4,0,0.8,0.3,0.8,0.8S239.8,38.9,239.4,38.9z
		 M236.4,38.9c-0.4,0-0.8-0.3-0.8-0.8s0.3-0.8,0.7-0.8h0c0.4,0,0.8,0.3,0.8,0.8S236.8,38.9,236.4,38.9z M233.3,38.9
		c-0.4,0-0.8-0.3-0.8-0.8s0.3-0.8,0.7-0.8h0.1c0.4,0,0.8,0.3,0.8,0.8S233.7,38.9,233.3,38.9z M230.3,38.9c-0.4,0-0.8-0.3-0.8-0.8
		s0.3-0.8,0.7-0.8h0c0.4,0,0.8,0.3,0.8,0.8S230.7,38.9,230.3,38.9z M227.2,38.9c-0.4,0-0.8-0.3-0.8-0.8s0.3-0.8,0.7-0.8h0.1
		c0.4,0,0.8,0.3,0.8,0.8S227.6,38.9,227.2,38.9z M224.2,38.9c-0.4,0-0.8-0.3-0.8-0.8s0.3-0.8,0.7-0.8h0c0.4,0,0.8,0.3,0.8,0.8
		S224.6,38.9,224.2,38.9z M221.1,38.9c-0.4,0-0.8-0.3-0.8-0.8s0.3-0.8,0.7-0.8h0c0.4,0,0.8,0.3,0.8,0.8S221.5,38.9,221.1,38.9z
		 M218.1,38.9c-0.4,0-0.8-0.3-0.8-0.8s0.3-0.8,0.7-0.8h0.1c0.4,0,0.8,0.3,0.8,0.8S218.5,38.9,218.1,38.9z M215,38.9
		c-0.4,0-0.8-0.3-0.8-0.8s0.3-0.8,0.7-0.8h0c0.4,0,0.8,0.3,0.8,0.8S215.4,38.9,215,38.9z M212,38.9c-0.4,0-0.8-0.3-0.8-0.8
		s0.3-0.8,0.7-0.8h0c0.4,0,0.8,0.3,0.8,0.8S212.4,38.9,212,38.9z M208.9,38.9c-0.4,0-0.8-0.3-0.8-0.8s0.3-0.8,0.7-0.8h0.1
		c0.4,0,0.8,0.3,0.8,0.8S209.3,38.9,208.9,38.9z M205.9,38.9c-0.4,0-0.8-0.3-0.8-0.8s0.3-0.8,0.7-0.8h0c0.4,0,0.8,0.3,0.8,0.8
		S206.3,38.9,205.9,38.9z M202.8,38.9c-0.4,0-0.8-0.3-0.8-0.8s0.3-0.8,0.7-0.8h0.1c0.4,0,0.8,0.3,0.8,0.8S203.2,38.9,202.8,38.9z
		 M199.8,38.9c-0.4,0-0.8-0.3-0.8-0.8s0.3-0.8,0.7-0.8h0c0.4,0,0.8,0.3,0.8,0.8S200.2,38.9,199.8,38.9z M196.7,38.9
		c-0.4,0-0.8-0.3-0.8-0.8s0.3-0.8,0.7-0.8h0c0.4,0,0.8,0.3,0.8,0.8S197.1,38.9,196.7,38.9z M193.7,38.9c-0.4,0-0.8-0.3-0.8-0.8
		s0.3-0.8,0.7-0.8h0.1c0.4,0,0.8,0.3,0.8,0.8S194.1,38.9,193.7,38.9z M190.6,38.9c-0.4,0-0.8-0.3-0.8-0.8s0.3-0.8,0.7-0.8h0
		c0.4,0,0.8,0.3,0.8,0.8S191,38.9,190.6,38.9z M187.6,38.9c-0.4,0-0.8-0.3-0.8-0.8s0.3-0.8,0.7-0.8h0.1c0.4,0,0.8,0.3,0.8,0.8
		S188,38.9,187.6,38.9z M184.5,38.9c-0.4,0-0.8-0.3-0.8-0.8s0.3-0.8,0.7-0.8h0c0.4,0,0.8,0.3,0.8,0.8S184.9,38.9,184.5,38.9z
		 M181.5,38.9c-0.4,0-0.8-0.3-0.8-0.8s0.3-0.8,0.7-0.8h0c0.4,0,0.8,0.3,0.8,0.8S181.9,38.9,181.5,38.9z M178.4,38.9
		c-0.4,0-0.8-0.3-0.8-0.8s0.3-0.8,0.7-0.8h0.1c0.4,0,0.8,0.3,0.8,0.8S178.8,38.9,178.4,38.9z M175.4,38.9c-0.4,0-0.8-0.3-0.8-0.8
		s0.3-0.8,0.7-0.8h0c0.4,0,0.8,0.3,0.8,0.8S175.8,38.9,175.4,38.9z M172.3,38.9c-0.4,0-0.8-0.3-0.8-0.8s0.3-0.8,0.7-0.8h0
		c0.4,0,0.8,0.3,0.8,0.8S172.7,38.9,172.3,38.9z M169.3,38.9c-0.4,0-0.8-0.3-0.8-0.8s0.3-0.8,0.7-0.8h0.1c0.4,0,0.8,0.3,0.8,0.8
		S169.7,38.9,169.3,38.9z M166.2,38.9c-0.4,0-0.8-0.3-0.8-0.8s0.3-0.8,0.7-0.8h0c0.4,0,0.8,0.3,0.8,0.8S166.6,38.9,166.2,38.9z
		 M163.2,38.9c-0.4,0-0.8-0.3-0.8-0.8s0.3-0.8,0.7-0.8h0.1c0.4,0,0.8,0.3,0.8,0.8S163.6,38.9,163.2,38.9z M160.1,38.9
		c-0.4,0-0.8-0.3-0.8-0.8s0.3-0.8,0.7-0.8h0c0.4,0,0.8,0.3,0.8,0.8S160.5,38.9,160.1,38.9z M157.1,38.9c-0.4,0-0.8-0.3-0.8-0.8
		s0.3-0.8,0.7-0.8h0c0.4,0,0.8,0.3,0.8,0.8S157.5,38.9,157.1,38.9z M154,38.9c-0.4,0-0.8-0.3-0.8-0.8s0.3-0.8,0.7-0.8h0.1
		c0.4,0,0.8,0.3,0.8,0.8S154.4,38.9,154,38.9z M151,38.9c-0.4,0-0.8-0.3-0.8-0.8s0.3-0.8,0.7-0.8h0c0.4,0,0.8,0.3,0.8,0.8
		S151.4,38.9,151,38.9z M147.9,38.9c-0.4,0-0.8-0.3-0.8-0.8s0.3-0.8,0.7-0.8h0.1c0.4,0,0.8,0.3,0.8,0.8S148.3,38.9,147.9,38.9z
		 M144.9,38.9c-0.4,0-0.8-0.3-0.8-0.8s0.3-0.8,0.7-0.8h0c0.4,0,0.8,0.3,0.8,0.8S145.3,38.9,144.9,38.9z M141.8,38.9
		c-0.4,0-0.8-0.3-0.8-0.8s0.3-0.8,0.7-0.8h0c0.4,0,0.8,0.3,0.8,0.8S142.2,38.9,141.8,38.9z M138.8,38.9c-0.4,0-0.8-0.3-0.8-0.8
		s0.3-0.8,0.7-0.8h0.1c0.4,0,0.8,0.3,0.8,0.8S139.2,38.9,138.8,38.9z M135.7,38.9c-0.4,0-0.8-0.3-0.8-0.8s0.3-0.8,0.7-0.8h0
		c0.4,0,0.8,0.3,0.8,0.8S136.1,38.9,135.7,38.9z M132.7,38.9c-0.4,0-0.8-0.3-0.8-0.8s0.3-0.8,0.7-0.8h0.1c0.4,0,0.8,0.3,0.8,0.8
		S133.1,38.9,132.7,38.9z M129.6,38.9c-0.4,0-0.8-0.3-0.8-0.8s0.3-0.8,0.7-0.8h0c0.4,0,0.8,0.3,0.8,0.8S130,38.9,129.6,38.9z
		 M126.6,38.9c-0.4,0-0.8-0.3-0.8-0.8s0.3-0.8,0.7-0.8h0c0.4,0,0.8,0.3,0.8,0.8S127,38.9,126.6,38.9z M123.5,38.9
		c-0.4,0-0.8-0.3-0.8-0.8s0.3-0.8,0.7-0.8h0.1c0.4,0,0.8,0.3,0.8,0.8S123.9,38.9,123.5,38.9z M120.5,38.9c-0.4,0-0.8-0.3-0.8-0.8
		s0.3-0.8,0.7-0.8h0c0.4,0,0.8,0.3,0.8,0.8S120.9,38.9,120.5,38.9z M117.4,38.9c-0.4,0-0.8-0.3-0.8-0.8s0.3-0.8,0.7-0.8h0.1
		c0.4,0,0.8,0.3,0.8,0.8S117.8,38.9,117.4,38.9z M114.4,38.9c-0.4,0-0.8-0.3-0.8-0.8s0.3-0.8,0.7-0.8h0c0.4,0,0.8,0.3,0.8,0.8
		S114.8,38.9,114.4,38.9z M111.3,38.9c-0.4,0-0.8-0.3-0.8-0.8s0.3-0.8,0.7-0.8h0c0.4,0,0.8,0.3,0.8,0.8S111.7,38.9,111.3,38.9z
		 M108.3,38.9c-0.4,0-0.8-0.3-0.8-0.8s0.3-0.8,0.7-0.8h0.1c0.4,0,0.8,0.3,0.8,0.8S108.7,38.9,108.3,38.9z M105.2,38.9
		c-0.4,0-0.8-0.3-0.8-0.8s0.3-0.8,0.7-0.8h0c0.4,0,0.8,0.3,0.8,0.8S105.6,38.9,105.2,38.9z M102.2,38.9c-0.4,0-0.8-0.3-0.8-0.8
		s0.3-0.8,0.7-0.8h0.1c0.4,0,0.8,0.3,0.8,0.8S102.6,38.9,102.2,38.9z M99.1,38.9c-0.4,0-0.8-0.3-0.8-0.8s0.3-0.8,0.7-0.8h0
		c0.4,0,0.8,0.3,0.8,0.8S99.5,38.9,99.1,38.9z M96.1,38.9c-0.4,0-0.8-0.3-0.8-0.8s0.3-0.8,0.7-0.8h0c0.4,0,0.8,0.3,0.8,0.8
		S96.5,38.9,96.1,38.9z M93,38.9c-0.4,0-0.8-0.3-0.8-0.8s0.3-0.8,0.7-0.8H93c0.4,0,0.8,0.3,0.8,0.8S93.4,38.9,93,38.9z M90,38.9
		c-0.4,0-0.8-0.3-0.8-0.8s0.3-0.8,0.7-0.8h0c0.4,0,0.8,0.3,0.8,0.8S90.4,38.9,90,38.9z M86.9,38.9c-0.4,0-0.8-0.3-0.8-0.8
		s0.3-0.8,0.7-0.8h0.1c0.4,0,0.8,0.3,0.8,0.8S87.3,38.9,86.9,38.9z M83.9,38.9c-0.4,0-0.8-0.3-0.8-0.8s0.3-0.8,0.7-0.8h0
		c0.4,0,0.8,0.3,0.8,0.8S84.3,38.9,83.9,38.9z M80.8,38.9c-0.4,0-0.8-0.3-0.8-0.8s0.3-0.8,0.7-0.8h0c0.4,0,0.8,0.3,0.8,0.8
		S81.2,38.9,80.8,38.9z M77.8,38.9c-0.4,0-0.8-0.3-0.8-0.8s0.3-0.8,0.7-0.8h0.1c0.4,0,0.8,0.3,0.8,0.8S78.2,38.9,77.8,38.9z
		 M74.7,38.9c-0.4,0-0.8-0.3-0.8-0.8s0.3-0.8,0.7-0.8h0c0.4,0,0.8,0.3,0.8,0.8S75.1,38.9,74.7,38.9z M71.7,38.9
		c-0.4,0-0.8-0.3-0.8-0.8s0.3-0.8,0.7-0.8h0.1c0.4,0,0.8,0.3,0.8,0.8S72.1,38.9,71.7,38.9z M68.6,38.9c-0.4,0-0.8-0.3-0.8-0.8
		s0.3-0.8,0.7-0.8h0c0.4,0,0.8,0.3,0.8,0.8S69,38.9,68.6,38.9z M65.6,38.9c-0.4,0-0.8-0.3-0.8-0.8s0.3-0.8,0.7-0.8h0
		c0.4,0,0.8,0.3,0.8,0.8S66,38.9,65.6,38.9z M62.5,38.9c-0.4,0-0.8-0.3-0.8-0.8s0.3-0.8,0.7-0.8h0.1c0.4,0,0.8,0.3,0.8,0.8
		S62.9,38.9,62.5,38.9z M59.5,38.9c-0.4,0-0.8-0.3-0.8-0.8s0.3-0.8,0.7-0.8h0c0.4,0,0.8,0.3,0.8,0.8S59.9,38.9,59.5,38.9z
		 M56.4,38.9c-0.4,0-0.8-0.3-0.8-0.8s0.3-0.8,0.7-0.8h0.1c0.4,0,0.8,0.3,0.8,0.8S56.8,38.9,56.4,38.9z M53.4,38.9
		c-0.4,0-0.8-0.3-0.8-0.8s0.3-0.8,0.7-0.8h0c0.4,0,0.8,0.3,0.8,0.8S53.8,38.9,53.4,38.9z M50.3,38.9c-0.4,0-0.8-0.3-0.8-0.8
		s0.3-0.8,0.7-0.8h0c0.4,0,0.8,0.3,0.8,0.8S50.7,38.9,50.3,38.9z M47.3,38.9c-0.4,0-0.8-0.3-0.8-0.8s0.3-0.8,0.7-0.8h0.1
		c0.4,0,0.8,0.3,0.8,0.8S47.7,38.9,47.3,38.9z M44.2,38.9c-0.4,0-0.8-0.3-0.8-0.8s0.3-0.8,0.7-0.8h0c0.4,0,0.8,0.3,0.8,0.8
		S44.6,38.9,44.2,38.9z M41.2,38.9c-0.4,0-0.8-0.3-0.8-0.8s0.3-0.8,0.7-0.8h0.1c0.4,0,0.8,0.3,0.8,0.8S41.6,38.9,41.2,38.9z
		 M38.1,38.9c-0.4,0-0.8-0.3-0.8-0.8s0.3-0.8,0.7-0.8h0c0.4,0,0.8,0.3,0.8,0.8S38.5,38.9,38.1,38.9z"/>
</g>
<rect x="36.7" y="4" class="st3" width="532.1" height="1"/>
<g>
	<g>
		<path class="st3" d="M21.9,141h-4.7v-0.7l1.9-1.9c0.6-0.6,1-1,1.1-1.2s0.3-0.5,0.4-0.7s0.1-0.5,0.1-0.8c0-0.4-0.1-0.7-0.3-0.9
			c-0.2-0.2-0.6-0.3-1-0.3c-0.3,0-0.6,0-0.8,0.1s-0.6,0.3-0.9,0.5l-0.4-0.6c0.7-0.5,1.4-0.8,2.1-0.8c0.7,0,1.2,0.2,1.6,0.5
			c0.4,0.3,0.6,0.8,0.6,1.4c0,0.5-0.1,0.9-0.4,1.3s-0.7,1-1.4,1.7l-1.6,1.5v0h3.7V141z"/>
		<path class="st3" d="M27.7,137.4c0,1.2-0.2,2.2-0.6,2.8s-1,0.9-1.8,0.9c-0.8,0-1.4-0.3-1.8-0.9c-0.4-0.6-0.6-1.5-0.6-2.7
			c0-1.2,0.2-2.2,0.6-2.8s1-0.9,1.8-0.9c0.8,0,1.4,0.3,1.8,0.9S27.7,136.2,27.7,137.4z M23.8,137.4c0,1,0.1,1.8,0.4,2.3
			c0.2,0.5,0.6,0.7,1.2,0.7c0.5,0,0.9-0.2,1.2-0.7c0.2-0.5,0.4-1.2,0.4-2.3s-0.1-1.8-0.4-2.3c-0.2-0.5-0.6-0.7-1.2-0.7
			c-0.5,0-0.9,0.2-1.2,0.7C23.9,135.6,23.8,136.4,23.8,137.4z"/>
	</g>
</g>
<g>
	<g>
		<path class="st3" d="M27.7,170.8c0,1.2-0.2,2.2-0.6,2.8s-1,0.9-1.8,0.9c-0.8,0-1.4-0.3-1.8-0.9c-0.4-0.6-0.6-1.5-0.6-2.7
			c0-1.2,0.2-2.2,0.6-2.8s1-0.9,1.8-0.9c0.8,0,1.4,0.3,1.8,0.9S27.7,169.7,27.7,170.8z M23.8,170.8c0,1,0.1,1.8,0.4,2.3
			c0.2,0.5,0.6,0.7,1.2,0.7c0.5,0,0.9-0.2,1.2-0.7c0.2-0.5,0.4-1.2,0.4-2.3s-0.1-1.8-0.4-2.3c-0.2-0.5-0.6-0.7-1.2-0.7
			c-0.5,0-0.9,0.2-1.2,0.7C23.9,169.1,23.8,169.8,23.8,170.8z"/>
	</g>
</g>
<g>
	<g>
		<path class="st3" d="M17.3,71.1c0-1.4,0.3-2.5,0.8-3.1c0.5-0.7,1.4-1,2.4-1c0.4,0,0.7,0,0.9,0.1v0.7c-0.3-0.1-0.5-0.1-0.9-0.1
			c-0.8,0-1.3,0.2-1.8,0.7c-0.4,0.5-0.6,1.2-0.7,2.2h0.1c0.4-0.6,0.9-0.8,1.7-0.8c0.6,0,1.1,0.2,1.5,0.6c0.4,0.4,0.6,0.9,0.6,1.6
			c0,0.7-0.2,1.3-0.6,1.8s-1,0.6-1.6,0.6c-0.7,0-1.3-0.3-1.8-0.8C17.5,72.8,17.3,72.1,17.3,71.1z M19.7,73.5c0.5,0,0.8-0.1,1.1-0.4
			c0.3-0.3,0.4-0.7,0.4-1.3c0-0.5-0.1-0.8-0.4-1.1c-0.2-0.3-0.6-0.4-1.1-0.4c-0.3,0-0.6,0.1-0.8,0.2c-0.2,0.1-0.4,0.3-0.6,0.5
			c-0.1,0.2-0.2,0.4-0.2,0.7c0,0.3,0.1,0.6,0.2,0.9c0.1,0.3,0.3,0.5,0.6,0.7C19.1,73.4,19.4,73.5,19.7,73.5z"/>
		<path class="st3" d="M27.7,70.5c0,1.2-0.2,2.2-0.6,2.8c-0.4,0.6-1,0.9-1.8,0.9c-0.8,0-1.4-0.3-1.8-0.9c-0.4-0.6-0.6-1.5-0.6-2.7
			c0-1.2,0.2-2.2,0.6-2.8c0.4-0.6,1-0.9,1.8-0.9c0.8,0,1.4,0.3,1.8,0.9C27.5,68.4,27.7,69.3,27.7,70.5z M23.8,70.5
			c0,1,0.1,1.8,0.4,2.3s0.6,0.7,1.2,0.7c0.5,0,0.9-0.2,1.2-0.7c0.2-0.5,0.4-1.2,0.4-2.3s-0.1-1.8-0.4-2.3c-0.2-0.5-0.6-0.7-1.2-0.7
			c-0.5,0-0.9,0.2-1.2,0.7C23.9,68.7,23.8,69.5,23.8,70.5z"/>
	</g>
</g>
<g>
	<g>
		<path class="st3" d="M14.5,7.3h-0.8V2.2c0-0.4,0-0.8,0-1.2c-0.1,0.1-0.1,0.1-0.2,0.2c-0.1,0.1-0.5,0.4-1.2,1l-0.4-0.6l1.9-1.5h0.7
			V7.3z"/>
		<path class="st3" d="M21.9,3.7c0,1.2-0.2,2.2-0.6,2.8c-0.4,0.6-1,0.9-1.8,0.9c-0.8,0-1.4-0.3-1.8-0.9c-0.4-0.6-0.6-1.5-0.6-2.7
			c0-1.2,0.2-2.2,0.6-2.8c0.4-0.6,1-0.9,1.8-0.9c0.8,0,1.4,0.3,1.8,0.9C21.7,1.6,21.9,2.5,21.9,3.7z M18,3.7c0,1,0.1,1.8,0.4,2.3
			s0.6,0.7,1.2,0.7c0.5,0,0.9-0.2,1.2-0.7c0.2-0.5,0.4-1.2,0.4-2.3S21,1.9,20.7,1.4c-0.2-0.5-0.6-0.7-1.2-0.7
			c-0.5,0-0.9,0.2-1.2,0.7C18.2,1.9,18,2.6,18,3.7z"/>
		<path class="st3" d="M27.7,3.7c0,1.2-0.2,2.2-0.6,2.8c-0.4,0.6-1,0.9-1.8,0.9c-0.8,0-1.4-0.3-1.8-0.9c-0.4-0.6-0.6-1.5-0.6-2.7
			c0-1.2,0.2-2.2,0.6-2.8c0.4-0.6,1-0.9,1.8-0.9c0.8,0,1.4,0.3,1.8,0.9C27.5,1.6,27.7,2.5,27.7,3.7z M23.8,3.7c0,1,0.1,1.8,0.4,2.3
			s0.6,0.7,1.2,0.7c0.5,0,0.9-0.2,1.2-0.7c0.2-0.5,0.4-1.2,0.4-2.3s-0.1-1.8-0.4-2.3c-0.2-0.5-0.6-0.7-1.2-0.7
			c-0.5,0-0.9,0.2-1.2,0.7C23.9,1.9,23.8,2.6,23.8,3.7z"/>
	</g>
</g>
<g>
	<g>
		<path class="st3" d="M22.2,105.9h-1.1v1.6h-0.8v-1.6h-3.5v-0.7l3.4-4.8h0.9v4.8h1.1V105.9z M20.4,105.2v-2.4c0-0.5,0-1,0-1.6h0
			c-0.2,0.3-0.3,0.6-0.4,0.8l-2.2,3.2H20.4z"/>
		<path class="st3" d="M27.7,104c0,1.2-0.2,2.2-0.6,2.8s-1,0.9-1.8,0.9c-0.8,0-1.4-0.3-1.8-0.9c-0.4-0.6-0.6-1.5-0.6-2.7
			c0-1.2,0.2-2.2,0.6-2.8s1-0.9,1.8-0.9c0.8,0,1.4,0.3,1.8,0.9S27.7,102.8,27.7,104z M23.8,104c0,1,0.1,1.8,0.4,2.3
			c0.2,0.5,0.6,0.7,1.2,0.7c0.5,0,0.9-0.2,1.2-0.7c0.2-0.5,0.4-1.2,0.4-2.3s-0.1-1.8-0.4-2.3c-0.2-0.5-0.6-0.7-1.2-0.7
			c-0.5,0-0.9,0.2-1.2,0.7C23.9,102.2,23.8,102.9,23.8,104z"/>
	</g>
</g>
<g>
	<g>
		<path class="st3" d="M19.6,33.4c0.7,0,1.2,0.2,1.5,0.5s0.6,0.7,0.6,1.3c0,0.4-0.1,0.7-0.3,1c-0.2,0.3-0.6,0.6-1,0.8
			c0.6,0.3,1,0.6,1.2,0.9c0.2,0.3,0.4,0.7,0.4,1.1c0,0.6-0.2,1.1-0.6,1.4c-0.4,0.4-1,0.5-1.7,0.5c-0.8,0-1.3-0.2-1.8-0.5
			c-0.4-0.3-0.6-0.8-0.6-1.4c0-0.8,0.5-1.5,1.5-1.9c-0.4-0.3-0.8-0.5-1-0.8c-0.2-0.3-0.3-0.6-0.3-1c0-0.5,0.2-0.9,0.6-1.2
			S18.9,33.4,19.6,33.4z M18,38.9c0,0.4,0.1,0.7,0.4,0.9c0.3,0.2,0.7,0.3,1.1,0.3c0.5,0,0.9-0.1,1.1-0.3c0.3-0.2,0.4-0.5,0.4-0.9
			c0-0.3-0.1-0.6-0.4-0.8c-0.3-0.2-0.7-0.5-1.3-0.7c-0.5,0.2-0.8,0.4-1.1,0.7C18.1,38.2,18,38.5,18,38.9z M19.6,34.1
			c-0.4,0-0.7,0.1-1,0.3s-0.3,0.5-0.3,0.8c0,0.3,0.1,0.6,0.3,0.8s0.5,0.4,1.1,0.6c0.5-0.2,0.8-0.4,1-0.6s0.3-0.5,0.3-0.8
			c0-0.3-0.1-0.6-0.4-0.8C20.3,34.2,20,34.1,19.6,34.1z"/>
		<path class="st3" d="M27.7,37.1c0,1.2-0.2,2.2-0.6,2.8c-0.4,0.6-1,0.9-1.8,0.9c-0.8,0-1.4-0.3-1.8-0.9c-0.4-0.6-0.6-1.5-0.6-2.7
			c0-1.2,0.2-2.2,0.6-2.8c0.4-0.6,1-0.9,1.8-0.9c0.8,0,1.4,0.3,1.8,0.9C27.5,35,27.7,35.9,27.7,37.1z M23.8,37.1
			c0,1,0.1,1.8,0.4,2.3s0.6,0.7,1.2,0.7c0.5,0,0.9-0.2,1.2-0.7c0.2-0.5,0.4-1.2,0.4-2.3s-0.1-1.8-0.4-2.3c-0.2-0.5-0.6-0.7-1.2-0.7
			c-0.5,0-0.9,0.2-1.2,0.7C23.9,35.3,23.8,36.1,23.8,37.1z"/>
	</g>
</g>
<rect x="36.7" y="3.7" class="st3" width="1" height="169.1"/>
<path class="st2" d="M68.3,183.5"/>
<path class="st2" d="M38.1,173.1"/>
<rect x="31.6" y="171.8" class="st1" width="6.2" height="1.5"/>
<rect x="31.6" y="104.9" class="st1" width="5.8" height="1.5"/>
<g>
	<rect x="31.6" y="138.3" class="st1" width="6.2" height="1.5"/>
</g>
<rect x="31.6" y="37.6" class="st1" width="5.8" height="1.5"/>
<g>
	<rect x="31.6" y="71" class="st1" width="6.2" height="1.5"/>
</g>
<g>
	<rect x="31.6" y="3.7" class="st1" width="6.2" height="1.5"/>
</g>
<rect x="31.6" y="138.3" class="st1" width="6.2" height="1.5"/>
<g>
	<g>
		<path class="st3" d="M2.2,99.2c0.7,0,1.3,0.2,1.7,0.7s0.6,1.2,0.6,2.1v0.7h2.7v1.2H0v-2.1c0-0.9,0.2-1.6,0.5-2S1.4,99.2,2.2,99.2z
			 M3.5,102.8v-0.6c0-0.6-0.1-1-0.3-1.3s-0.5-0.4-1-0.4c-0.4,0-0.7,0.1-0.9,0.4S1,101.5,1,102v0.8H3.5z"/>
		<path class="st3" d="M7.2,95.6c0,0.8-0.2,1.5-0.7,2s-1.2,0.7-2,0.7c-0.9,0-1.6-0.2-2.1-0.7s-0.8-1-0.8-1.8c0-0.7,0.2-1.3,0.6-1.7
			c0.4-0.4,1-0.6,1.8-0.6h0.6v3.6c0.5,0,0.9-0.2,1.2-0.4c0.3-0.3,0.4-0.6,0.4-1.1c0-0.3,0-0.6-0.1-0.9c-0.1-0.3-0.2-0.6-0.3-0.9h0.9
			C7,94,7.1,94.3,7.2,94.6C7.2,94.9,7.2,95.2,7.2,95.6z M2.5,95.8c0,0.4,0.1,0.7,0.3,0.9s0.6,0.4,1,0.4v-2.5c-0.4,0-0.8,0.1-1,0.3
			C2.6,95.1,2.5,95.4,2.5,95.8z"/>
		<path class="st3" d="M1.6,89.4c0-0.2,0-0.4,0-0.6L2.8,89c0,0.2-0.1,0.3-0.1,0.5c0,0.5,0.1,0.8,0.4,1.1C3.4,90.9,3.8,91,4.3,91h2.8
			v1.1H1.7v-0.9l1-0.2v-0.1c-0.3-0.2-0.6-0.4-0.8-0.7S1.6,89.8,1.6,89.4z"/>
		<path class="st3" d="M7.2,85.7c0,0.8-0.2,1.4-0.7,1.9s-1.2,0.6-2.1,0.6c-0.9,0-1.6-0.2-2.1-0.7s-0.7-1.1-0.7-1.9
			C1.6,85,1.7,84.5,2,84l0.9,0.3c-0.2,0.5-0.3,0.9-0.3,1.2c0,0.9,0.6,1.4,1.9,1.4c0.6,0,1.1-0.1,1.4-0.3c0.3-0.2,0.5-0.6,0.5-1
			c0-0.5-0.1-1-0.4-1.5h1c0.1,0.2,0.2,0.4,0.3,0.7C7.2,85.1,7.2,85.3,7.2,85.7z"/>
		<path class="st3" d="M7.2,80.5c0,0.8-0.2,1.5-0.7,2s-1.2,0.7-2,0.7c-0.9,0-1.6-0.2-2.1-0.7s-0.8-1-0.8-1.8c0-0.7,0.2-1.3,0.6-1.7
			c0.4-0.4,1-0.6,1.8-0.6h0.6V82c0.5,0,0.9-0.2,1.2-0.4c0.3-0.3,0.4-0.6,0.4-1.1c0-0.3,0-0.6-0.1-0.9c-0.1-0.3-0.2-0.6-0.3-0.9h0.9
			C7,79,7.1,79.3,7.2,79.6C7.2,79.9,7.2,80.2,7.2,80.5z M2.5,80.8c0,0.4,0.1,0.7,0.3,0.9s0.6,0.4,1,0.4v-2.5c-0.4,0-0.8,0.1-1,0.3
			C2.6,80.1,2.5,80.4,2.5,80.8z"/>
		<path class="st3" d="M7.1,72.4v1.2H3.8c-0.4,0-0.7,0.1-0.9,0.3c-0.2,0.2-0.3,0.4-0.3,0.8c0,0.5,0.1,0.8,0.4,1.1S3.8,76,4.4,76h2.7
			v1.1H1.7v-0.9l0.7-0.2V76c-0.3-0.2-0.5-0.4-0.6-0.7c-0.1-0.3-0.2-0.6-0.2-1c0-1.3,0.7-1.9,2-1.9H7.1z"/>
		<path class="st3" d="M6.3,68.8c0-0.3,0-0.6-0.1-0.8H7c0.1,0.1,0.1,0.3,0.1,0.5s0.1,0.4,0.1,0.6c0,1.1-0.6,1.6-1.7,1.6H2.6v0.7H2.1
			l-0.4-0.8l-1.1-0.4v-0.7h1.2V68h0.9v1.5h2.9c0.3,0,0.5-0.1,0.6-0.2C6.2,69.2,6.3,69,6.3,68.8z"/>
	</g>
</g>
<rect x="33.4" y="155.3" class="st3" width="3.4" height="1"/>
<rect x="33.4" y="121.8" class="st3" width="3.4" height="1"/>
<rect x="33.4" y="88.4" class="st3" width="3.4" height="1"/>
<rect x="33.4" y="54.5" class="st3" width="3.4" height="1"/>
<rect x="33.4" y="20.9" class="st3" width="3.4" height="1"/>
<rect x="36.7" y="172.3" class="st3" width="532.1" height="1"/>
</svg>
