<?xml version="1.0" standalone="no"?>
<!DOCTYPE svg PUBLIC "-//W3C//DTD SVG 20010904//EN"
 "http://www.w3.org/TR/2001/REC-SVG-20010904/DTD/svg10.dtd">
<svg version="1.0" xmlns="http://www.w3.org/2000/svg"
 width="760.000000pt" height="760.000000pt" viewBox="0 0 760.000000 760.000000"
 preserveAspectRatio="xMidYMid meet">
<metadata>
Created by potrace 1.11, written by Peter Selinger 2001-2013
</metadata>
<g transform="translate(0.000000,760.000000) scale(0.100000,-0.100000)"
fill="#000000" stroke="none">
<path d="M3770 7533 c0 -16 529 -2655 533 -2659 3 -4 294 94 1127 378 129 44
252 85 273 90 26 7 37 16 37 30 0 17 -36 205 -175 903 -30 149 -88 441 -129
650 -41 209 -83 401 -92 427 -23 70 -93 142 -160 167 -53 20 -73 21 -734 21
-374 0 -680 -3 -680 -7z"/>
<path d="M1565 6191 c-22 -10 -50 -29 -61 -42 -32 -35 -426 -719 -422 -731 2
-6 35 -21 73 -34 61 -20 750 -253 1324 -448 107 -36 198 -63 202 -59 6 7 175
848 181 902 3 22 -5 27 -92 57 -639 219 -1108 374 -1134 374 -17 0 -49 -9 -71
-19z"/>
<path d="M6045 4290 c-506 -445 -921 -813 -923 -819 -4 -12 1014 -906 1032
-906 12 0 1194 1029 1345 1170 29 27 62 68 73 90 26 49 35 150 18 199 -14 42
-605 1070 -617 1072 -4 2 -422 -362 -928 -806z"/>
<path d="M561 3694 c-355 -312 -526 -468 -538 -493 -12 -23 -18 -57 -18 -96 1
-60 2 -62 230 -457 127 -219 233 -398 237 -398 4 0 137 114 295 253 158 139
469 411 691 605 221 194 402 357 402 361 0 7 -765 681 -773 681 -3 0 -239
-205 -526 -456z"/>
<path d="M2475 2000 c-93 -32 -329 -112 -523 -178 -194 -66 -355 -122 -357
-124 -3 -3 62 -339 145 -748 168 -830 161 -807 253 -860 l52 -30 518 0 c489 0
518 1 513 18 -3 9 -91 449 -195 977 -105 528 -193 970 -196 983 -3 13 -13 22
-23 21 -9 0 -93 -27 -187 -59z"/>
<path d="M4295 2038 c-10 -47 -233 -1164 -237 -1187 -2 -19 3 -26 22 -32 22
-6 798 -269 1360 -461 181 -61 211 -69 261 -65 63 5 122 32 162 74 34 36 569
962 564 976 -2 6 -174 68 -383 138 -208 70 -680 229 -1049 353 -368 124 -675
226 -682 226 -7 0 -15 -10 -18 -22z"/>
</g>
</svg>
