<svg xmlns="http://www.w3.org/2000/svg" xmlns:xlink="http://www.w3.org/1999/xlink"><symbol viewBox="0 0 40 40" id="MT_Act-1time" xmlns="http://www.w3.org/2000/svg"><path fill="#444" d="M20 14h-4v2h4v2h-4v6h6v-2h-4v-2h4v-6zM32 14h-4v2h4v2h-4v2h4v2h-4v2h6V14zM8 22v-8H4v2h2v6H4v2h6v-2z"/><path fill="#444" d="M12 12v14H2V12h10zm2-2H0v18h14V10z"/><path fill="#444" d="M24 12v14H14V12h10zm2-2H12v18h14V10z"/><path fill="#444" d="M36 12v14H26V12h10zm2-2H24v18h14V10z"/></symbol><symbol viewBox="0 0 40 40" id="MT_Act-Learn" xmlns="http://www.w3.org/2000/svg"><path fill="#444" d="M8 10H2c-1.2 0-2 .8-2 2v16h2v-8h6v8h2V12c0-1.2-.8-2-2-2zm0 8H2v-6h6v6zM38 26h-8V12h8v-2h-8c-1.2 0-2 .8-2 2v14c0 1.2.8 2 2 2h8v-2zM24 17.6V12c0-1.2-.8-2-2-2h-8v18h8c1.2 0 2-.8 2-2v-5.6c0-.6-.4-1.4-1-1.4.6 0 1-.8 1-1.4zM22 26h-6v-6h6v6zm0-8h-6v-6h6v6z"/></symbol><symbol viewBox="0 0 40 40" id="MT_Act-Serial" xmlns="http://www.w3.org/2000/svg"><path fill="#444" d="M4.2 16h-4v2h4v2h-4v6h6v-2h-4v-2h4v-6zM4 30H0v2h4v2H0v2h4v2H0v2h6V30zM4.2 10V2h-4v2h2v6h-2v2h6v-2zM10 6h30v2H10V6zM10 20h30v2H10v-2zM10 34h30v2H10v-2z"/></symbol><symbol viewBox="0 0 43 32" id="add_person" xmlns="http://www.w3.org/2000/svg"><path fill="#444" d="M29.043 24.786c-.519-.76 1.201.995 2.376 3.096.028-.271.95 1.796 1.428 4.026L0 32.018c-.171.009.453-2.19 1.456-4.163-.605.717.633-1.396 2.31-3.069.528-.701 2.2-1.739 4.102-2.174.987-.044 2.505-.668 3.731-1.644.813-.704 1.465-1.917 1.583-3.283-.38-.085-1.526-1.199-2.222-2.579a7.258 7.258 0 0 1-.885-3.483l.001-.103-.001-.12c0-1.871.716-3.575 1.889-4.852a5.9 5.9 0 0 1 4.487-2.062c1.793 0 3.401.799 4.485 2.059a7.154 7.154 0 0 1 1.891 4.855l-.001.132v.064a7.512 7.512 0 0 1-.886 3.549c-.031.418-.984 1.651-2.234 2.468.032 1.172.654 2.393 1.609 3.251.535.552 1.992 1.3 3.609 1.579.964.058 2.758.983 4.118 2.343zM42.849 5.424a.433.433 0 0 1 .132.311V8.38a.452.452 0 0 1-.432.433H37.67v4.878a.452.452 0 0 1-.432.433H34.6a.452.452 0 0 1-.433-.432v-4.86h-4.859a.452.452 0 0 1-.433-.432V5.649a.452.452 0 0 1 .432-.433h4.86V.432.423c0-.113.043-.215.113-.292a.433.433 0 0 1 .311-.132H37.264c.122 0 .232.051.311.132a.433.433 0 0 1 .095.271l-.001.032v4.858h4.868c.122 0 .232.051.311.132z"/></symbol><symbol viewBox="0 0 22 32" id="alert" xmlns="http://www.w3.org/2000/svg"><path fill="#444" d="M8.24 25.001h5.765v5.377H8.24v-5.377zm.215-23.453h5.377v8.576l-1.42 12.864H9.874l-1.42-12.864V1.548z"/></symbol><symbol viewBox="0 0 32 32" id="android" xmlns="http://www.w3.org/2000/svg"><path fill="#444" d="M28 12c-1.1 0-2 .9-2 2v8c0 1.1.9 2 2 2s2-.9 2-2v-8c0-1.1-.9-2-2-2zM4 12c-1.1 0-2 .9-2 2v8c0 1.1.9 2 2 2s2-.9 2-2v-8c0-1.1-.9-2-2-2zm3 11a3 3 0 0 0 3 3v4c0 1.1.9 2 2 2s2-.9 2-2v-4h4v4c0 1.1.9 2 2 2s2-.9 2-2v-4a3 3 0 0 0 3-3V12H7v11zM24.944 10a8.994 8.994 0 0 0-4.051-6.551l1.001-2.001a1 1 0 0 0-1.789-.895l-1.004 2.009-.261-.104C17.947 2.161 16.992 2 16 2s-1.947.161-2.84.458l-.261.104L11.895.553a1 1 0 0 0-1.789.895l1.001 2.001A8.996 8.996 0 0 0 7.056 10v1H25v-1h-.056zM13 8a1 1 0 0 1-.002-2h.005a1 1 0 0 1-.002 2zm6 0a1 1 0 0 1-.002-2h.005a1 1 0 0 1-.002 2z"/></symbol><symbol viewBox="0 0 21 32" id="angle-down" xmlns="http://www.w3.org/2000/svg"><path fill="#444" d="M19.192 12.286q0 .232-.179.411l-8.321 8.321q-.179.179-.411.179t-.411-.179l-8.321-8.321q-.179-.179-.179-.411t.179-.411l.893-.893q.179-.179.411-.179t.411.179L10.282 18l7.018-7.018q.179-.179.411-.179t.411.179l.893.893q.179.179.179.411z"/></symbol><symbol viewBox="0 0 11 32" id="angle-left" xmlns="http://www.w3.org/2000/svg"><path fill="#444" d="M11.196 9.714q0 .232-.179.411l-7.018 7.018 7.018 7.018q.179.179.179.411t-.179.411l-.893.893q-.179.179-.411.179t-.411-.179L.981 17.555q-.179-.179-.179-.411t.179-.411l8.321-8.321q.179-.179.411-.179t.411.179l.893.893q.179.179.179.411z"/></symbol><symbol viewBox="0 0 11 32" id="angle-right" xmlns="http://www.w3.org/2000/svg"><path fill="#444" d="M10.625 17.143q0 .232-.179.411l-8.321 8.321q-.179.179-.411.179t-.411-.179l-.893-.893q-.179-.179-.179-.411t.179-.411l7.018-7.018L.41 10.124q-.179-.179-.179-.411t.179-.411l.893-.893q.179-.179.411-.179t.411.179l8.321 8.321q.179.179.179.411z"/></symbol><symbol viewBox="0 0 21 32" id="angle-up" xmlns="http://www.w3.org/2000/svg"><path fill="#444" d="M19.192 19.714q0 .232-.179.411l-.893.893q-.179.179-.411.179t-.411-.179L10.28 14l-7.018 7.018q-.179.179-.411.179t-.411-.179l-.893-.893q-.179-.179-.179-.411t.179-.411l8.321-8.321q.179-.179.411-.179t.411.179l8.321 8.321q.179.179.179.411z"/></symbol><symbol viewBox="0 0 32 32" id="apple" xmlns="http://www.w3.org/2000/svg"><path fill="#444" d="M24.734 17.003c-.04-4.053 3.305-5.996 3.454-6.093-1.88-2.751-4.808-3.127-5.851-3.171-2.492-.252-4.862 1.467-6.127 1.467-1.261 0-3.213-1.43-5.28-1.392-2.716.04-5.221 1.579-6.619 4.012-2.822 4.897-.723 12.151 2.028 16.123 1.344 1.944 2.947 4.127 5.051 4.049 2.026-.081 2.793-1.311 5.242-1.311s3.138 1.311 5.283 1.271c2.18-.041 3.562-1.981 4.897-3.931 1.543-2.255 2.179-4.439 2.216-4.551-.048-.022-4.252-1.632-4.294-6.473zM20.705 5.11C21.822 3.755 22.576 1.875 22.37 0c-1.609.066-3.559 1.072-4.713 2.423-1.036 1.199-1.942 3.113-1.699 4.951 1.796.14 3.629-.913 4.747-2.264z"/></symbol><symbol viewBox="0 0 30 32" id="arrow-down3" xmlns="http://www.w3.org/2000/svg"><path fill="#444" d="M28.768 14.857q0 .946-.661 1.607L16.482 28.107q-.696.661-1.625.661-.946 0-1.607-.661L1.625 16.464q-.679-.643-.679-1.607 0-.946.679-1.625l1.321-1.339q.696-.661 1.625-.661.946 0 1.607.661l5.25 5.25V4.572q0-.929.679-1.607t1.607-.679H16q.929 0 1.607.679t.679 1.607v12.571l5.25-5.25q.661-.661 1.607-.661.929 0 1.625.661l1.339 1.339q.661.696.661 1.625z"/></symbol><symbol viewBox="0 0 27 32" id="arrow-left3" xmlns="http://www.w3.org/2000/svg"><path fill="#444" d="M27.429 16v2.286q0 .946-.58 1.616t-1.509.67H12.769l5.232 5.25q.679.643.679 1.607t-.679 1.607l-1.339 1.357q-.661.661-1.607.661-.929 0-1.625-.661L1.805 18.75q-.661-.661-.661-1.607 0-.929.661-1.625L13.43 3.911q.679-.679 1.625-.679.929 0 1.607.679l1.339 1.321q.679.679.679 1.625t-.679 1.625l-5.232 5.232H25.34q.929 0 1.509.67t.58 1.616z"/></symbol><symbol viewBox="0 0 27 32" id="arrow-right3" xmlns="http://www.w3.org/2000/svg"><path fill="#444" d="M26.286 17.143q0 .964-.661 1.625L14 30.393q-.696.661-1.625.661-.911 0-1.607-.661l-1.339-1.339q-.679-.679-.679-1.625t.679-1.625l5.232-5.232H2.09q-.929 0-1.509-.67t-.58-1.616V16q0-.946.58-1.616t1.509-.67h12.571l-5.232-5.25q-.679-.643-.679-1.607t.679-1.607l1.339-1.339q.679-.679 1.607-.679.946 0 1.625.679l11.625 11.625q.661.625.661 1.607z"/></symbol><symbol viewBox="0 0 30 32" id="arrow-up3" xmlns="http://www.w3.org/2000/svg"><path fill="#444" d="M28.768 17.339q0 .911-.661 1.607l-1.339 1.339q-.679.679-1.625.679-.964 0-1.607-.679l-5.25-5.232v12.571q0 .929-.67 1.509t-1.616.58h-2.286q-.946 0-1.616-.58t-.67-1.509V15.053l-5.25 5.232q-.643.679-1.607.679t-1.607-.679l-1.339-1.339q-.679-.679-.679-1.607 0-.946.679-1.625L13.25 4.089q.625-.661 1.607-.661.964 0 1.625.661l11.625 11.625q.661.696.661 1.625z"/></symbol><symbol viewBox="0 0 32 32" id="assign" xmlns="http://www.w3.org/2000/svg"><path fill="#444" d="M6.901 28.045V4.044h12.001V11.6h7.111v10.667l2.222 2.667V10.267l-7.926-8.445H4.679v28.446h18.297l-2.667-2.222z"/><path fill="#444" d="M16.958 17.067l-2.81-.943.952 2.828 11.324 11.314h1.811V28.38z"/></symbol><symbol viewBox="0 0 32 32" id="attachment" xmlns="http://www.w3.org/2000/svg"><path fill="#444" d="M20.807 10.22l-2.03-2.029-10.15 10.148c-1.682 1.681-1.682 4.408 0 6.089s4.408 1.681 6.09 0l12.18-12.178a7.173 7.173 0 0 0 0-10.148 7.176 7.176 0 0 0-10.149 0L3.96 14.889l-.027.026c-3.909 3.909-3.909 10.245 0 14.153 3.908 3.908 10.246 3.908 14.156 0l.026-.027.001.001 8.729-8.728-2.031-2.029-8.729 8.727-.026.026a7.148 7.148 0 0 1-10.096 0 7.144 7.144 0 0 1 0-10.093l.028-.026-.001-.002L18.78 4.131c1.678-1.679 4.411-1.679 6.09 0s1.678 4.411 0 6.089L12.69 22.398c-.56.56-1.47.56-2.03 0a1.437 1.437 0 0 1 0-2.029L20.81 10.22z"/></symbol><symbol viewBox="0 0 32 32" id="backward" xmlns="http://www.w3.org/2000/svg"><path fill="#444" d="M16 32c8.837 0 16-7.163 16-16S24.837 0 16 0 0 7.163 0 16s7.163 16 16 16zm0-29c7.18 0 13 5.82 13 13s-5.82 13-13 13S3 23.18 3 16 8.82 3 16 3zm6 18l-7-5 7-5zm-8 0l-7-5 7-5z"/></symbol><symbol viewBox="0 0 32 32" id="backward2" xmlns="http://www.w3.org/2000/svg"><path fill="#444" d="M18 5v10L28 5v22L18 17v10L7 16z"/></symbol><symbol viewBox="0 0 34 32" id="bank" xmlns="http://www.w3.org/2000/svg"><path fill="#444" d="M17.143 0l17.143 6.857v2.286H32q0 .464-.366.804t-.866.339H3.518q-.5 0-.866-.339t-.366-.804H0V6.857zM4.571 11.429h4.571v13.714h2.286V11.429h4.571v13.714h2.286V11.429h4.571v13.714h2.286V11.429h4.571v13.714h1.054q.5 0 .866.339t.366.804v1.143H2.285v-1.143q0-.464.366-.804t.866-.339h1.054V11.429zm28.483 17.142q.5 0 .866.339t.366.804V32H0v-2.286q0-.464.366-.804t.866-.339h31.821z"/></symbol><symbol viewBox="0 0 36 32" id="bell" xmlns="http://www.w3.org/2000/svg"><path fill="#444" d="M24.44 11.372c0-5.477-6.104-7.416-6.104-7.416V2.13h-2.282v1.826S9.95 5.896 9.95 11.372 7.383 23.238 5.101 23.238v2.168h8.443s0 3.651 3.651 3.651 3.651-3.651 3.651-3.651h8.443v-2.168c-2.282 0-4.849-6.389-4.849-11.866z"/></symbol><symbol viewBox="0 0 23 32" id="bitcoin" xmlns="http://www.w3.org/2000/svg"><path fill="#444" d="M20.839 11.429q.321 3.25-2.339 4.607 2.089.5 3.125 1.839t.804 3.821q-.125 1.268-.58 2.232t-1.152 1.589-1.732 1.045-2.17.616-2.598.268V32h-2.75v-4.482q-1.429 0-2.179-.018V32h-2.75v-4.554q-.321 0-.964-.009t-.982-.009H1.001l.554-3.268h1.982q.893 0 1.036-.911V16.07h.286q-.107-.018-.286-.018v-5.125q-.232-1.214-1.589-1.214H1.002V6.784l3.786.018q1.143 0 1.732-.018v-4.5h2.75v4.411q1.464-.036 2.179-.036V2.284h2.75v4.5q1.411.125 2.5.402t2.018.804 1.473 1.393.652 2.045zM17 21.161q0-.643-.268-1.143t-.661-.821-1.027-.545-1.17-.33-1.321-.161-1.232-.054-1.152.018-.848.018v6.036q.143 0 .661.009t.857.009.946-.027 1.045-.071 1.018-.152.991-.25.848-.375.705-.536.438-.714.17-.911zm-1.268-8.5q0-.589-.223-1.045t-.545-.75-.857-.5-.982-.295-1.098-.143-1.036-.045-.964.018-.705.009v5.482q.089 0 .616.009t.83 0 .893-.036.982-.098.92-.196.866-.33.661-.482.482-.688.161-.911z"/></symbol><symbol viewBox="0 0 32 32" id="blocked" xmlns="http://www.w3.org/2000/svg"><path fill="#444" d="M27.314 4.686C24.292 1.664 20.274 0 16 0S7.708 1.664 4.686 4.686C1.664 7.708 0 11.726 0 16s1.664 8.292 4.686 11.314C7.708 30.336 11.726 32 16 32s8.292-1.664 11.314-4.686C30.336 24.292 32 20.274 32 16s-1.664-8.292-4.686-11.314zM28 16c0 2.588-.824 4.987-2.222 6.949L9.051 6.222A11.93 11.93 0 0 1 16 4c6.617 0 12 5.383 12 12zM4 16c0-2.588.824-4.987 2.222-6.949l16.727 16.727A11.93 11.93 0 0 1 16 28C9.383 28 4 22.617 4 16z"/></symbol><symbol viewBox="0 0 30 32" id="book2" xmlns="http://www.w3.org/2000/svg"><path fill="#444" d="M29.268 8.536q.714 1.018.321 2.304l-4.911 16.179q-.339 1.143-1.366 1.92t-2.188.777H4.642q-1.375 0-2.652-.955T.213 26.413q-.429-1.196-.036-2.268 0-.071.054-.482t.071-.661q.018-.143-.054-.384t-.054-.348q.036-.196.143-.375t.295-.42.295-.42q.411-.679.804-1.634t.536-1.634q.054-.179.009-.536t-.009-.5q.054-.196.304-.5t.304-.411q.375-.643.75-1.643t.446-1.607q.018-.161-.045-.571t.009-.5q.071-.232.393-.545t.393-.402q.339-.464.759-1.509t.491-1.723q.018-.143-.054-.455t-.036-.473q.036-.143.161-.321t.321-.411.304-.375q.143-.214.295-.545t.268-.625.286-.643.348-.571.473-.42.643-.205.848.098l-.018.054q.679-.161.911-.161H24.41q1.321 0 2.036 1t.321 2.321l-4.893 16.179q-.643 2.125-1.277 2.741t-2.295.616H2.784q-.482 0-.679.268-.196.286-.018.768.429 1.25 2.571 1.25H21.14q.518 0 1-.277t.625-.741l5.357-17.625q.125-.393.089-1.018.679.268 1.054.768zm-19 .035q-.071.232.036.402t.357.17h10.857q.232 0 .455-.17t.295-.402l.375-1.143q.071-.232-.036-.402t-.357-.17H11.393q-.232 0-.455.17t-.295.402zm-1.482 4.572q-.071.232.036.402t.357.17h10.857q.232 0 .455-.17t.295-.402L21.161 12q.071-.232-.036-.402t-.357-.17H9.911q-.232 0-.455.17T9.161 12z"/></symbol><symbol viewBox="0 0 32 32" id="bookmark" xmlns="http://www.w3.org/2000/svg"><path fill="#444" d="M6 0v32l10-10 10 10V0z"/></symbol><symbol viewBox="0 0 32 32" id="bubble" xmlns="http://www.w3.org/2000/svg"><path fill="#444" d="M27.452 1.229H4.92C2.667 1.229.55 2.872.55 5.125v14.339c0 2.253 2.117 4.298 4.37 4.298h16.033l7.864 6.35v-6.867c1.639-.619 2.458-2.083 2.458-3.781V5.125c0-2.253-1.57-3.896-3.824-3.896z"/></symbol><symbol viewBox="0 0 30 32" id="bug2" xmlns="http://www.w3.org/2000/svg"><path fill="#444" d="M29.143 17.143q0 .464-.339.804t-.804.339h-4q0 3.054-1.196 5.179l3.714 3.732q.339.339.339.804t-.339.804q-.321.339-.804.339t-.804-.339l-3.536-3.518q-.089.089-.268.232t-.75.509-1.161.652-1.464.518-1.732.232v-16h-2.286v16q-.911 0-1.813-.241t-1.554-.589-1.179-.696-.777-.58l-.268-.25-3.268 3.696q-.357.375-.857.375-.429 0-.768-.286-.339-.321-.366-.795t.277-.83l3.607-4.054q-1.036-2.036-1.036-4.893h-4q-.464 0-.804-.339t-.339-.804.339-.804.804-.339h4v-5.25L2.622 7.662q-.339-.339-.339-.804t.339-.804.804-.339.804.339l3.089 3.089H22.39l3.089-3.089q.339-.339.804-.339t.804.339.339.804-.339.804l-3.089 3.089v5.25h4q.464 0 .804.339t.339.804zM20.571 6.857H9.142q0-2.375 1.67-4.045t4.045-1.67 4.045 1.67 1.67 4.045z"/></symbol><symbol viewBox="0 0 31 32" id="calendar" xmlns="http://www.w3.org/2000/svg"><path fill="#444" d="M29.867 3.793h-2.252v5.926h-6.4V3.793H10.548v5.926h-6.4V3.793H-.119v28.326h32V3.793h-2.015zm-.119 26.192H2.015V11.852h27.733v18.133z"/><path fill="#444" d="M5.215.119h4.267v8.533H5.215V.119zM4.148 13.985h4.267v3.2H4.148v-3.2zM10.548 13.985h4.267v3.2h-4.267v-3.2zM16.948 13.985h4.267v3.2h-4.267v-3.2zM23.348 13.985h4.267v3.2h-4.267v-3.2zM4.148 19.319h4.267v3.2H4.148v-3.2zM10.548 19.319h4.267v3.2h-4.267v-3.2zM16.948 19.319h4.267v3.2h-4.267v-3.2zM23.348 19.319h4.267v3.2h-4.267v-3.2zM4.148 24.652h4.267v3.2H4.148v-3.2zM10.548 24.652h4.267v3.2h-4.267v-3.2zM16.948 24.652h4.267v3.2h-4.267v-3.2zM23.348 24.652h4.267v3.2h-4.267v-3.2zM22.281.119h4.267v8.533h-4.267V.119z"/></symbol><symbol viewBox="0 0 32 32" id="cancel-circle" xmlns="http://www.w3.org/2000/svg"><path fill="#444" d="M16 0C7.163 0 0 7.163 0 16s7.163 16 16 16 16-7.163 16-16S24.837 0 16 0zm0 29C8.82 29 3 23.18 3 16S8.82 3 16 3s13 5.82 13 13-5.82 13-13 13z"/><path fill="#444" d="M21 8l-5 5-5-5-3 3 5 5-5 5 3 3 5-5 5 5 3-3-5-5 5-5z"/></symbol><symbol viewBox="0 0 18 32" id="caret-down" xmlns="http://www.w3.org/2000/svg"><path fill="#444" d="M18.286 12.571q0 .464-.339.804l-8 8q-.339.339-.804.339t-.804-.339l-8-8Q0 13.036 0 12.571t.339-.804.804-.339h16q.464 0 .804.339t.339.804z"/></symbol><symbol viewBox="0 0 11 32" id="caret-left" xmlns="http://www.w3.org/2000/svg"><path fill="#444" d="M11.429 8v16q0 .464-.339.804t-.804.339-.804-.339l-8-8q-.339-.339-.339-.804t.339-.804l8-8q.339-.339.804-.339t.804.339.339.804z"/></symbol><symbol viewBox="0 0 11 32" id="caret-right" xmlns="http://www.w3.org/2000/svg"><path fill="#444" d="M10.286 16q0 .464-.339.804l-8 8q-.339.339-.804.339t-.804-.339T0 24V8q0-.464.339-.804t.804-.339.804.339l8 8q.339.339.339.804z"/></symbol><symbol viewBox="0 0 18 32" id="caret-up" xmlns="http://www.w3.org/2000/svg"><path fill="#444" d="M18.286 21.714q0 .464-.339.804t-.804.339h-16q-.464 0-.804-.339T0 21.714t.339-.804l8-8q.339-.339.804-.339t.804.339l8 8q.339.339.339.804z"/></symbol><symbol viewBox="0 0 32 32" id="cart" xmlns="http://www.w3.org/2000/svg"><path fill="#444" d="M12 29a3 3 0 1 1-6 0 3 3 0 0 1 6 0zM32 29a3 3 0 1 1-6 0 3 3 0 0 1 6 0zM32 16V4H8a2 2 0 0 0-2-2H0v2h4l1.502 12.877A4 4 0 0 0 8 24h24v-2H8a2 2 0 0 1-2-2v-.02L32 16z"/></symbol><symbol viewBox="0 0 41 32" id="cc-amex" xmlns="http://www.w3.org/2000/svg"><path fill="#444" d="M2.125 12.179h1.589L2.91 10.25zm11.089 9.392l1.321-1.411-1.25-1.411h-2.911v.875h2.536v.982h-2.536v.964h2.839zm2.822-1.392l1.768 1.964v-3.875zm5.143-.84q0-.589-.714-.589h-1.5v1.232h1.482q.732 0 .732-.643zm5.16-.071q0-.518-.75-.518h-1.464v1.089h1.446q.768 0 .768-.571zm-4.964-8.322q0-.518-.75-.518h-1.464v1.071h1.446q.768 0 .768-.554zm8.196 1.233h1.589l-.786-1.929zM12.482 9.411v4.839h-1.179v-3.786L9.624 14.25H8.606l-1.679-3.786v3.786H4.57l-.446-1.071H1.713l-.446 1.071H.017l2.071-4.839h1.714L5.766 14V9.411h1.893l1.518 3.286 1.375-3.286h1.929zm9.929 9.928q0 .357-.098.625t-.25.446-.402.295-.464.179-.563.08-.563.018-.58-.009-.527-.009v1.625h-2.25l-1.429-1.607-1.482 1.607H9.232V17.75h4.643l1.429 1.589 1.464-1.589h3.696q1.946 0 1.946 1.589zm-5.197-6.089v1h-3.875V9.411h3.875v1.018H14.5v.875h2.643v.982H14.5v.964h2.714zm23.929 9.982v4.089q0 .982-.688 1.688t-1.67.705H2.356q-.982 0-1.67-.705t-.688-1.688V15.214H1.98l.446-1.089h.982l.446 1.089h3.893v-.821l.339.821h2.018l.357-.839v.839h9.661v-1.768l.179-.018q.179 0 .179.25v1.536h4.982v-.411q.411.214.982.321t.938.116 1.125-.009.92-.018l.446-1.089h1l.446 1.089h4.054v-1.036l.607 1.036h3.25v-6.75h-3.214v.786l-.446-.786h-3.304v.786l-.411-.786h-4.446q-1.232 0-1.946.393v-.393h-3.071v.393q-.429-.393-1.304-.393H9.874l-.768 1.732-.768-1.732H4.802v.786l-.393-.786H1.391l-1.393 3.196V4.677q0-.982.688-1.688t1.67-.705h36.429q.982 0 1.67.705t.688 1.688v12.107H39q-.911 0-1.446.393v-.393h-3.161q-.982 0-1.393.393v-.393h-5.643v.393q-.554-.393-1.554-.393h-3.732v.393q-.411-.393-1.625-.393h-4.179l-.964 1.036-.893-1.036H8.178v6.75h6.125l.982-1.054.929 1.054h3.768v-1.589h.375q1.054 0 1.607-.232v1.821h3.107v-1.768h.143q.143 0 .179.036t.036.179v1.554h9.446q1.018 0 1.571-.429v.429h3q1.071 0 1.696-.304zm-13.536-4.178q0 .411-.214.768t-.607.518q.446.161.607.464t.161.821v.964h-1.161v-.804q0-.589-.214-.777t-.821-.188h-1.232v1.768h-1.161v-4.839h2.75q.857 0 1.375.268t.518 1.036zm-4.946-8.34q0 .429-.223.786t-.598.518q.464.161.616.455t.152.83v.946h-1.161q0-.161.009-.473t0-.446-.054-.33-.152-.286-.313-.152-.527-.063h-1.25v1.75h-1.143V9.41l2.732.018q.875 0 1.393.259t.518 1.027zm9.446 10.875v1H28.25V17.75h3.857v1h-2.696v.875h2.643v.982h-2.643v.964zM24.5 9.411v4.839h-1.179V9.411H24.5zm12.375 11.643q0 1.536-1.821 1.536h-2.25v-1.036h2.25q.607 0 .607-.446 0-.286-.304-.375t-.741-.089-.884-.063-.75-.402-.304-.982q0-.696.464-1.071t1.179-.375h2.321v1.018h-2.125q-.643 0-.643.446 0 .286.313.366t.75.071.875.045.75.384.313.973zm4.268-.893v1.804q-.429.625-1.571.625H37.34v-1.036h2.232q.589 0 .589-.446 0-.232-.223-.339t-.554-.098-.714-.036-.714-.143-.554-.429-.223-.866q0-.696.473-1.071t1.188-.375h2.304v1.018h-2.107q-.643 0-.643.446 0 .357.518.393t1.223.089 1.009.464zM38.196 9.429v4.821h-1.643l-2.179-3.625v3.625h-2.357l-.464-1.071H29.16l-.446 1.071h-1.339q-2.304 0-2.304-2.375 0-2.464 2.375-2.464h1.125v1.054q-.125 0-.5-.018t-.509-.009-.411.036-.384.116-.259.241-.205.411-.054.598q0 .679.241 1.036t.884.357h.518l1.643-3.804h1.732L33.213 14V9.429h1.768l2.036 3.357V9.429h1.179z"/></symbol><symbol viewBox="0 0 41 32" id="cc-discover" xmlns="http://www.w3.org/2000/svg"><path fill="#444" d="M5.589 13.875q0 .911-.643 1.5-.518.464-1.589.464h-.304V11.91h.304q1.089 0 1.589.482.643.554.643 1.482zm31.715-1.161q0 .929-1.143.929h-.339v-1.804h.357q1.125 0 1.125.875zM6.786 13.875q0-1.321-.893-2.152t-2.304-.83H1.893v5.946h1.696q1.321 0 2.125-.679 1.071-.911 1.071-2.286zm.535 2.964h1.161v-5.946H7.321v5.946zm5.715-1.803q0-.714-.366-1.107t-1.348-.75q-.518-.179-.705-.339t-.188-.411q0-.286.241-.473t.616-.188q.518 0 .946.482l.607-.786q-.732-.661-1.75-.661-.786 0-1.321.491t-.536 1.205q0 .625.321.991t1.143.652q.661.232.804.339.339.214.339.607 0 .357-.25.598t-.643.241q-.857 0-1.268-.786l-.75.714q.786 1.143 2.054 1.143.911 0 1.482-.545t.571-1.42zM18 16.643v-1.375q-.661.661-1.393.661-.875 0-1.438-.58t-.563-1.473q0-.857.563-1.455t1.384-.598q.768 0 1.446.679v-1.375q-.714-.357-1.429-.357-1.321 0-2.241.902t-.92 2.205.911 2.205 2.232.902q.75 0 1.446-.339zm22 10.786v-9.411q-1.161.714-2.58 1.5t-4.241 2.089-5.884 2.455-7.455 2.402-9 2.107h28.018q.464 0 .804-.339t.339-.804zM24.804 13.911q0-1.339-.946-2.286t-2.286-.946-2.286.946-.946 2.286.946 2.286 2.286.946 2.286-.946.946-2.286zM27.518 17l2.571-6.107h-1.268l-1.607 4-1.589-4h-1.268L26.893 17h.625zm3.089-.161h3.286v-1h-2.125v-1.607h2.054v-1h-2.054v-1.321h2.125v-1.018h-3.286v5.946zm6.982 0h1.429l-1.875-2.5q1.357-.286 1.357-1.679 0-.839-.554-1.304t-1.554-.464H34.66v5.946h1.161v-2.375h.161zm3.554-12.16v22.643q0 1-.688 1.696t-1.67.696H2.356q-.982 0-1.67-.696t-.688-1.696V4.679q0-1 .688-1.696t1.67-.696h36.429q.982 0 1.67.696t.688 1.696z"/></symbol><symbol viewBox="0 0 41 32" id="cc-mastercard" xmlns="http://www.w3.org/2000/svg"><path fill="#444" d="M11.982 16.661h-.232q-.839 0-.839.571 0 .393.357.393.304 0 .5-.268t.214-.696zm7.054-.643h1.107v-.054q.018-.071.009-.116t-.018-.125-.036-.143-.08-.116-.134-.089-.205-.036q-.5 0-.643.679zm9.643.643h-.214q-.857 0-.857.571 0 .393.357.393.304 0 .5-.268t.214-.696zm5.696-.465q0-.732-.536-.732-.339 0-.554.357t-.214.911q0 .75.5.75.357 0 .58-.357t.223-.929zM8.571 13.679h1.554l-.786 4.679h-1l.571-3.589-1.268 3.589h-.696l-.071-3.571-.607 3.571h-.946l.786-4.679h1.446l.036 2.911zm4.518 1.91q0 .107-.071.75-.286 1.804-.304 2.018h-.839l.018-.393q-.357.464-1.036.464-.411 0-.67-.286t-.259-.75q0-.696.464-1.08t1.304-.384q.25 0 .411.018 0-.054.009-.098t.018-.08.009-.054q0-.357-.643-.357-.518 0-1.054.179 0-.071.125-.857.679-.196 1.196-.196 1.321 0 1.321 1.107zm2.786-1.035l-.143.875q-.393-.054-.732-.054-.482 0-.482.304 0 .143.08.214t.384.196q.714.339.714 1.071 0 1.286-1.554 1.268-.607 0-1.036-.107 0-.036.125-.875.518.143.911.143.571 0 .571-.339 0-.125-.08-.205t-.384-.223q-.768-.357-.768-1.054 0-1.286 1.5-1.286.536 0 .893.071zm1.571 0h.5l-.125.929h-.518q-.036.304-.116.723t-.125.688-.045.321q0 .286.339.286.143 0 .286-.036l-.143.839q-.375.125-.714.125-.768 0-.804-.839 0-.214.143-1 .054-.357.446-2.607h.982zm3.625 1.303q0 .411-.125.929h-1.982q-.054.393.179.589t.679.196q.536 0 1.036-.25l-.161.964q-.536.143-1.018.143-1.696 0-1.696-1.696 0-.982.491-1.616t1.241-.634q.625 0 .991.375t.366 1zm2.483-1.321q-.232.411-.393 1.107-.393-.036-.554.429t-.446 2.286h-1l.054-.25q.393-2.321.518-3.554h.911l-.054.589q.25-.375.455-.527t.509-.08zm3.339-.732l-.161 1.018q-.5-.25-.893-.25-.554 0-.911.491t-.357 1.259q0 .536.241.839t.688.304q.375 0 .857-.232l-.179 1.054q-.5.143-.893.143-.804 0-1.277-.545t-.473-1.473q0-1.25.634-2.045t1.634-.795q.464 0 1.089.232zm2.893 1.785q0 .321-.071.75-.232 1.411-.304 2.018h-.821l.018-.393q-.357.464-1.054.464-.411 0-.661-.286t-.25-.75q0-.696.455-1.08t1.295-.384q.268 0 .411.018.036-.125.036-.232 0-.357-.643-.357-.518 0-1.054.179 0-.071.143-.857.679-.196 1.196-.196 1.304 0 1.304 1.107zm2.518-1.053q-.25.429-.375 1.107-.411-.036-.563.411t-.455 2.304h-1l.054-.25q.339-1.857.518-3.554h.929q0 .196-.071.589.268-.375.473-.527t.491-.08zm2.517-.857h1l-.768 4.679h-.946l.054-.339q-.411.411-.929.411-.554 0-.884-.429t-.33-1.143q0-.946.491-1.643t1.152-.696q.554 0 .946.518zM36.804 16q0-2.643-1.295-4.875t-3.536-3.536-4.884-1.304q-3.232 0-5.857 1.964 2.268 2.071 3.054 5.071h-.893q-.786-2.679-2.821-4.518-2.036 1.839-2.821 4.518h-.893q.786-3 3.054-5.071-2.625-1.964-5.857-1.964-2.643 0-4.884 1.304t-3.536 3.536T4.34 16t1.295 4.875 3.536 3.536 4.884 1.304q3.232 0 5.857-1.964-2.143-1.982-2.946-4.714h.893q.821 2.464 2.714 4.161 1.893-1.696 2.714-4.161h.893q-.804 2.732-2.946 4.714 2.625 1.964 5.857 1.964 2.643 0 4.884-1.304t3.536-3.536T36.806 16zm4.339-11.429v22.857q0 .929-.679 1.607t-1.607.679H2.286q-.929 0-1.607-.679T0 27.428V4.571q0-.929.679-1.607t1.607-.679h36.571q.929 0 1.607.679t.679 1.607z"/></symbol><symbol viewBox="0 0 41 32" id="cc-paypal" xmlns="http://www.w3.org/2000/svg"><path fill="#444" d="M13.304 16.179q0 .661-.455 1.098t-1.116.438q-.518 0-.83-.286t-.313-.786q0-.661.446-1.116t1.107-.455q.5 0 .83.295t.33.812zm14.017-2.661q0 .75-.393 1.018t-1.179.268l-.571.018.304-1.911q.036-.196.232-.196h.321q.393 0 .625.036t.446.223.214.545zm6.268 2.661q0 .643-.455 1.089t-1.098.446q-.518 0-.839-.286t-.321-.786q0-.661.446-1.116t1.107-.455q.5 0 .83.295t.33.813zM9.161 13.125q0-1.054-.688-1.527t-1.795-.473H3.821q-.339 0-.375.339L2.285 18.75q-.018.107.054.196t.179.089h1.357q.357 0 .393-.339l.321-1.964q.018-.143.125-.232t.268-.116.304-.027.339.018.25.018q1.536 0 2.411-.866t.875-2.402zm5.518 5.571l.732-4.661q.018-.107-.054-.196t-.179-.089h-1.357q-.25 0-.304.589-.482-.714-1.696-.714-1.286 0-2.188.964t-.902 2.268q0 1.054.616 1.679t1.652.625q.5 0 1.036-.214t.857-.571q-.071.214-.071.375 0 .286.232.286h1.232q.339 0 .393-.339zM22.661 14q0-.089-.071-.17t-.161-.08h-1.375q-.196 0-.321.179l-1.893 2.786-.786-2.679q-.089-.286-.393-.286h-1.339q-.089 0-.161.08t-.071.17q0 .036.348 1.054t.75 2.196.42 1.25q-1.464 2-1.464 2.143 0 .232.232.232h1.375q.196 0 .321-.179l4.554-6.571q.036-.036.036-.125zm6.785-.875q0-1.054-.688-1.527t-1.795-.473h-2.839q-.357 0-.393.339L22.57 18.75q-.018.107.054.196t.179.089h1.464q.214 0 .286-.232l.321-2.071q.018-.143.125-.232t.268-.116.304-.027.339.018.25.018q1.536 0 2.411-.866t.875-2.402zm5.518 5.571l.732-4.661q.018-.107-.054-.196t-.179-.089h-1.357q-.25 0-.304.589-.464-.714-1.696-.714-1.286 0-2.188.964t-.902 2.268q0 1.054.616 1.679t1.652.625q.518 0 1.054-.214t.839-.571q0 .018-.036.161t-.036.214q0 .286.232.286h1.232q.339 0 .393-.339zm3.893-7.303v-.018q0-.25-.232-.25h-1.321q-.196 0-.232.196l-1.161 7.429-.018.036q0 .089.071.17t.179.08h1.179q.339 0 .375-.339zM7 13.786q-.089.625-.464.821t-1.071.196l-.589.018.304-1.911q.036-.196.232-.196h.339q.714 0 1.036.205t.214.866zm34.143-9.215v22.857q0 .929-.679 1.607t-1.607.679H2.286q-.929 0-1.607-.679T0 27.428V4.571q0-.929.679-1.607t1.607-.679h36.571q.929 0 1.607.679t.679 1.607z"/></symbol><symbol viewBox="0 0 41 32" id="cc-stripe" xmlns="http://www.w3.org/2000/svg"><path fill="#444" d="M28.518 16.125q0 1.232-.375 1.893-.339.625-.929.625-.411 0-.732-.161v-4q.518-.536 1.018-.536 1.018 0 1.018 2.179zm7.821-.643h-1.964q.107-1.75 1-1.75.911 0 .964 1.75zM8.5 17.893q0-1.054-.589-1.634t-1.804-1.027q-.643-.232-.929-.429t-.286-.446q0-.464.679-.464 1.036 0 2.214.589l.321-2q-1.196-.571-2.661-.571-1.375 0-2.196.679-.857.696-.857 1.946 0 1.036.58 1.616t1.777 1.009q.696.25.973.455t.277.491q0 .554-.857.554-.518 0-1.25-.223t-1.286-.545l-.321 2.018q1.286.732 3 .732 1.446 0 2.304-.661.911-.732.911-2.089zm5.268-3.839l.339-1.982h-1.714V9.661l-2.304.375-.321 2.036-.821.143-.304 1.839H9.75v3.911q0 1.5.786 2.143.679.536 1.982.536.571 0 1.411-.196v-2.107q-.571.125-.786.125-.75 0-.75-.893v-3.518h1.375zm5.643.446v-2.482q-.268-.054-.5-.054-.571 0-.991.286t-.598.821l-.179-1h-2.339v8.411h2.679v-5.464q.464-.554 1.464-.554.286 0 .464.036zm.66 5.982h2.679v-8.411h-2.679v8.411zm11.108-4.446q0-2.179-.804-3.196-.714-.929-1.982-.929-1.143 0-2.089 1l-.143-.839h-2.357V23.59l2.679-.446v-2.696q.643.196 1.214.196 1.482 0 2.393-1 1.089-1.161 1.089-3.607zm-8.358-6.215q0-.589-.411-1t-1-.411-1 .411-.411 1 .411 1.009 1 .42 1-.42.411-1.009zm16.036 6.375q0-2.018-.857-3.143-.893-1.143-2.571-1.143-1.714 0-2.705 1.179t-.991 3.214q0 2.286 1.125 3.357.982.982 2.875.982 1.804 0 2.857-.714l-.286-1.839q-1.018.554-2.286.554-.768 0-1.125-.339-.411-.339-.5-1.179h4.429q.036-.25.036-.929zm2.286-11.625v22.857q0 .929-.679 1.607t-1.607.679H2.286q-.929 0-1.607-.679T0 27.428V4.571q0-.929.679-1.607t1.607-.679h36.571q.929 0 1.607.679t.679 1.607z"/></symbol><symbol viewBox="0 0 41 32" id="cc-visa" xmlns="http://www.w3.org/2000/svg"><path fill="#444" d="M35.268 17.679h-2.464q.25-.661 1.179-3.196l.054-.161q.071-.179.179-.464t.161-.464l.214.982zM9.482 16.518L8.446 11.25q-.196-.964-1.339-.964H2.321l-.036.232q5.554 1.411 7.196 6zm3.197-6.232l-2.893 7.821-.304-1.589q-.464-1.25-1.518-2.313t-2.339-1.58l2.411 9.107h3.125l4.661-11.446h-3.143zm2.482 11.464h2.964l1.857-11.464h-2.964zm13.714-11.179q-1.232-.482-2.661-.482-2.196 0-3.589 1.054t-1.411 2.732q-.018 1.821 2.589 3.107.857.411 1.196.732t.339.696q0 .536-.536.821t-1.232.286q-1.536 0-2.786-.589l-.393-.196-.411 2.571q1.321.607 3.304.607 2.321.018 3.723-1.054t1.438-2.857q0-1.893-2.5-3.107-.875-.446-1.268-.75t-.393-.679q0-.393.438-.688t1.259-.295q1.25-.018 2.214.429l.268.143zm7.589-.285h-2.286q-1.161 0-1.554.964l-4.393 10.5h3.107l.625-1.714h3.786q.089.393.357 1.714h2.75zm4.679-5.715v22.857q0 .929-.679 1.607t-1.607.679H2.286q-.929 0-1.607-.679T0 27.428V4.571q0-.929.679-1.607t1.607-.679h36.571q.929 0 1.607.679t.679 1.607z"/></symbol><symbol viewBox="0 0 36 32" id="check" xmlns="http://www.w3.org/2000/svg"><path fill="#444" d="M30.551 3.773L13.609 20.715l-8.552-8.552-4.034 4.034 12.586 12.586L34.585 7.807z"/></symbol><symbol viewBox="0 0 32 32" id="checkmark" xmlns="http://www.w3.org/2000/svg"><path fill="#444" d="M27 4L12 19l-7-7-5 5 12 12L32 9z"/></symbol><symbol viewBox="0 0 32 32" id="circle-down" xmlns="http://www.w3.org/2000/svg"><path fill="#444" d="M32 16c0-8.837-7.163-16-16-16S0 7.163 0 16s7.163 16 16 16 16-7.163 16-16zM3 16C3 8.82 8.82 3 16 3s13 5.82 13 13-5.82 13-13 13S3 23.18 3 16z"/><path fill="#444" d="M9.914 11.086l-2.829 2.829 8.914 8.914 8.914-8.914-2.828-2.828-6.086 6.086z"/></symbol><symbol viewBox="0 0 32 32" id="circle-left" xmlns="http://www.w3.org/2000/svg"><path fill="#444" d="M16 32c8.837 0 16-7.163 16-16S24.837 0 16 0 0 7.163 0 16s7.163 16 16 16zm0-29c7.18 0 13 5.82 13 13s-5.82 13-13 13S3 23.18 3 16 8.82 3 16 3z"/><path fill="#444" d="M20.914 9.914l-2.829-2.829-8.914 8.914 8.914 8.914 2.828-2.828-6.086-6.086z"/></symbol><symbol viewBox="0 0 32 32" id="circle-right" xmlns="http://www.w3.org/2000/svg"><path fill="#444" d="M16 0C7.163 0 0 7.163 0 16s7.163 16 16 16 16-7.163 16-16S24.837 0 16 0zm0 29C8.82 29 3 23.18 3 16S8.82 3 16 3s13 5.82 13 13-5.82 13-13 13z"/><path fill="#444" d="M11.086 22.086l2.829 2.829 8.914-8.914-8.914-8.914-2.828 2.828 6.086 6.086z"/></symbol><symbol viewBox="0 0 32 32" id="circle-up" xmlns="http://www.w3.org/2000/svg"><path fill="#444" d="M0 16c0 8.837 7.163 16 16 16s16-7.163 16-16S24.837 0 16 0 0 7.163 0 16zm29 0c0 7.18-5.82 13-13 13S3 23.18 3 16 8.82 3 16 3s13 5.82 13 13z"/><path fill="#444" d="M22.086 20.914l2.829-2.829-8.914-8.914-8.914 8.914 2.828 2.828 6.086-6.086z"/></symbol><symbol viewBox="0 0 31 32" id="clock" xmlns="http://www.w3.org/2000/svg"><path fill="#fff" d="M23.347 17.112v-2.224h2.901c-.52-5.037-4.536-9.053-9.574-9.573v2.901H14.45V5.315c-5.037.52-9.053 4.536-9.573 9.573h2.901v2.224H4.877c.52 5.037 4.536 9.053 9.573 9.574v-2.902h2.224v2.902c5.038-.521 9.053-4.536 9.574-9.574h-2.901zm-3.038 5.207l-5.858-5.855v-5.9h2.224v4.976l5.207 5.206-1.573 1.573z"/><path fill="#414042" d="M15.563 3.404C8.606 3.404 2.967 9.044 2.967 16s5.64 12.596 12.596 12.596c6.957 0 12.596-5.639 12.596-12.596S22.519 3.404 15.563 3.404zm1.112 23.282v-2.902h-2.224v2.902c-5.037-.521-9.053-4.536-9.573-9.574h2.901v-2.224H4.878c.52-5.037 4.536-9.053 9.573-9.573v2.901h2.224V5.315c5.037.52 9.053 4.536 9.574 9.573h-2.901v2.224h2.901c-.52 5.037-4.536 9.053-9.574 9.574z"/><path fill="#414042" d="M16.675 10.563h-2.224v5.9l5.858 5.855 1.573-1.573-5.206-5.207z"/></symbol><symbol viewBox="0 0 34 32" id="cloud2" xmlns="http://www.w3.org/2000/svg"><path fill="#444" d="M34.286 20.571q0 2.839-2.009 4.848t-4.848 2.009H8q-3.304 0-5.652-2.348T0 19.428q0-2.357 1.268-4.313t3.339-2.92q-.036-.5-.036-.768 0-3.786 2.679-6.464t6.464-2.679q2.821 0 5.116 1.571t3.348 4.107q1.25-1.107 2.964-1.107 1.893 0 3.232 1.339t1.339 3.232q0 1.339-.732 2.464 2.304.536 3.804 2.402t1.5 4.277z"/></symbol><symbol viewBox="0 0 18 32" id="cny" xmlns="http://www.w3.org/2000/svg"><path fill="#444" d="M10.768 27.429H7.697q-.232 0-.402-.161t-.17-.411v-5.893H1.982q-.232 0-.402-.161t-.17-.411v-1.839q0-.232.17-.402t.402-.17h5.143v-1.518H1.982q-.232 0-.402-.161t-.17-.411v-1.857q0-.232.17-.402t.402-.17h3.821L.071 3.141q-.143-.286 0-.571.179-.286.5-.286h3.464q.339 0 .518.321l3.839 7.589q.339.679 1 2.232.179-.429.545-1.214t.491-1.089l3.411-7.5q.143-.339.518-.339h3.411q.304 0 .482.286.161.25.018.554l-5.589 10.339h3.839q.232 0 .402.17t.17.402v1.857q0 .25-.17.411t-.402.161h-5.179v1.518h5.179q.232 0 .402.17t.17.402v1.839q0 .25-.17.411t-.402.161h-5.179v5.893q0 .232-.17.402t-.402.17z"/></symbol><symbol viewBox="0 0 27 32" id="cog2" xmlns="http://www.w3.org/2000/svg"><path fill="#444" d="M18.286 16q0-1.893-1.339-3.232t-3.232-1.339-3.232 1.339T9.144 16t1.339 3.232 3.232 1.339 3.232-1.339T18.286 16zm9.143-1.946v3.964q0 .214-.143.411t-.357.232l-3.304.5q-.339.964-.696 1.625.625.893 1.911 2.464.179.214.179.446t-.161.411q-.482.661-1.768 1.929t-1.679 1.268q-.214 0-.464-.161l-2.464-1.929q-.786.411-1.625.679-.286 2.429-.518 3.321-.125.5-.643.5h-3.964q-.25 0-.438-.152t-.205-.384l-.5-3.286q-.875-.286-1.607-.661l-2.518 1.911q-.179.161-.446.161-.25 0-.446-.196-2.25-2.036-2.946-3-.125-.179-.125-.411 0-.214.143-.411.268-.375.911-1.188t.964-1.259q-.482-.893-.732-1.768L.52 18.588q-.232-.036-.375-.223t-.143-.42v-3.964q0-.214.143-.411t.339-.232l3.321-.5q.25-.821.696-1.643-.714-1.018-1.911-2.464-.179-.214-.179-.429 0-.179.161-.411.464-.643 1.759-1.92t1.688-1.277q.232 0 .464.179l2.464 1.911q.786-.411 1.625-.679.286-2.429.518-3.321.125-.5.643-.5h3.964q.25 0 .438.152t.205.384l.5 3.286q.875.286 1.607.661l2.536-1.911q.161-.161.429-.161.232 0 .446.179 2.304 2.125 2.946 3.036.125.143.125.393 0 .214-.143.411-.268.375-.911 1.188t-.964 1.259q.464.893.732 1.75l3.268.5q.232.036.375.223t.143.42z"/></symbol><symbol viewBox="0 0 40 32" id="connection" xmlns="http://www.w3.org/2000/svg"><path fill="#444" d="M20 18c3.308 0 6.308 1.346 8.481 3.519l-2.827 2.827C24.205 22.897 22.205 22 20 22s-4.206.897-5.654 2.346l-2.827-2.827A11.963 11.963 0 0 1 20 18zM5.858 15.858C9.635 12.081 14.658 10 20 10s10.365 2.08 14.142 5.858l-2.828 2.828C28.292 15.664 24.274 14 20 14s-8.292 1.664-11.314 4.686l-2.828-2.828zM30.899 4.201a27.89 27.89 0 0 1 8.899 6l-2.828 2.828C32.437 8.496 26.41 6 19.999 6S7.561 8.496 3.028 13.029L.2 10.201A27.917 27.917 0 0 1 19.998 2c3.779 0 7.446.741 10.899 2.201zM18 28a2 2 0 1 1 3.999-.001A2 2 0 0 1 18 28z"/></symbol><symbol viewBox="0 0 32 32" id="copy" xmlns="http://www.w3.org/2000/svg"><path fill="#444" d="M20 8V0H6L0 6v18h12v8h20V8H20zM6 2.828V6H2.828L6 2.828zM2 22V8h6V2h10v6l-6 6v8H2zm16-11.172V14h-3.172L18 10.828zM30 30H14V16h6v-6h10v20z"/></symbol><symbol viewBox="0 0 32 32" id="cross" xmlns="http://www.w3.org/2000/svg"><path fill="#444" d="M31.708 25.708L22 16l9.708-9.708a1 1 0 0 0 0-1.414L27.122.292a1 1 0 0 0-1.414-.001L16 9.999 6.292.291a.998.998 0 0 0-1.414.001L.292 4.878a1 1 0 0 0 0 1.414L10 16 .292 25.708a.999.999 0 0 0 0 1.414l4.586 4.586a1 1 0 0 0 1.414 0L16 22l9.708 9.708a1 1 0 0 0 1.414 0l4.586-4.586a.999.999 0 0 0 0-1.414z"/></symbol><symbol viewBox="0 0 32 32" id="dashboard" xmlns="http://www.w3.org/2000/svg"><path fill="#444" d="M26.074 21.096c-.616 0-1.126-.51-1.126-1.126a8.979 8.979 0 0 0-1.28-4.634c-.32-.533-.154-1.221.379-1.541s1.221-.154 1.541.379a11.17 11.17 0 0 1 1.6 5.796 1.116 1.116 0 0 1-1.114 1.126zM5.807 21.096c-.616 0-1.126-.51-1.126-1.126 0-6.21 5.049-11.259 11.259-11.259.616 0 1.126.51 1.126 1.126s-.51 1.126-1.126 1.126c-4.966 0-9.007 4.041-9.007 9.007 0 .616-.51 1.126-1.126 1.126zM17.991 21.333s0-.012 0 0c0-.012 0-.012.012-.012 2.892-5.144 4.136-11.876 4.136-11.876s-5.132 4.527-8.059 9.659v.012c-.012.012-.012.036-.024.047-.569 1.079-.19 2.418.877 3.01a2.243 2.243 0 0 0 3.034-.794c0-.024.012-.036.024-.047z"/></symbol><symbol viewBox="0 0 18 32" id="dollar" xmlns="http://www.w3.org/2000/svg"><path fill="#444" d="M17.464 21.161q0 2.732-1.777 4.705t-4.616 2.438v3.125q0 .25-.161.411t-.411.161H8.088q-.232 0-.402-.17t-.17-.402v-3.125q-1.179-.161-2.277-.554t-1.813-.795-1.321-.857-.83-.67-.313-.321q-.304-.375-.036-.732l1.839-2.411q.125-.179.411-.214.268-.036.429.161l.036.036q2.018 1.768 4.339 2.232.661.143 1.321.143 1.446 0 2.545-.768t1.098-2.179q0-.5-.268-.946t-.598-.75-1.045-.67-1.179-.571-1.429-.58q-.696-.286-1.098-.446t-1.098-.473-1.116-.554-1.009-.634-.955-.759-.777-.875-.634-1.036-.375-1.188-.152-1.393q0-2.464 1.75-4.321t4.554-2.393V.572q0-.232.17-.402T8.087 0h2.411q.25 0 .411.161t.161.411v3.143q1.018.107 1.973.411t1.554.598 1.134.67.696.518.268.25q.304.321.089.679l-1.446 2.607q-.143.268-.411.286-.25.054-.482-.125-.054-.054-.259-.214t-.696-.473-1.045-.571-1.33-.464-1.527-.205q-1.696 0-2.768.768t-1.071 1.982q0 .464.152.857t.527.741.705.589 1 .554 1.08.482 1.25.491q.946.357 1.446.563t1.357.625 1.348.759 1.107.893.946 1.134.563 1.366.232 1.679z"/></symbol><symbol viewBox="0 0 27 32" id="dot-circle-o" xmlns="http://www.w3.org/2000/svg"><path fill="#444" d="M18.286 16q0 1.893-1.339 3.232t-3.232 1.339-3.232-1.339T9.144 16t1.339-3.232 3.232-1.339 3.232 1.339T18.286 16zm-4.572-9.714q-2.643 0-4.875 1.304t-3.536 3.536-1.304 4.875 1.304 4.875 3.536 3.536 4.875 1.304 4.875-1.304 3.536-3.536 1.304-4.875-1.304-4.875-3.536-3.536-4.875-1.304zM27.429 16q0 3.732-1.839 6.884t-4.991 4.991-6.884 1.839-6.884-1.839-4.991-4.991T.001 16 1.84 9.116t4.991-4.991 6.884-1.839 6.884 1.839 4.991 4.991T27.429 16z"/></symbol><symbol viewBox="0 0 32 32" id="download2" xmlns="http://www.w3.org/2000/svg"><path fill="#444" d="M28 16h-5l-7 7-7-7H4l-4 8v2h32v-2l-4-8zM0 28h32v2H0v-2zm18-18V2h-4v8H7l9 9 9-9h-7z"/></symbol><symbol viewBox="0 0 25 32" id="ellipsis-h" xmlns="http://www.w3.org/2000/svg"><path fill="#444" d="M6.857 13.143v3.429q0 .714-.5 1.214t-1.214.5H1.714q-.714 0-1.214-.5T0 16.572v-3.429q0-.714.5-1.214t1.214-.5h3.429q.714 0 1.214.5t.5 1.214zm9.143 0v3.429q0 .714-.5 1.214t-1.214.5h-3.429q-.714 0-1.214-.5t-.5-1.214v-3.429q0-.714.5-1.214t1.214-.5h3.429q.714 0 1.214.5t.5 1.214zm9.143 0v3.429q0 .714-.5 1.214t-1.214.5H20q-.714 0-1.214-.5t-.5-1.214v-3.429q0-.714.5-1.214t1.214-.5h3.429q.714 0 1.214.5t.5 1.214z"/></symbol><symbol viewBox="0 0 7 32" id="ellipsis-v" xmlns="http://www.w3.org/2000/svg"><path fill="#444" d="M6.857 22.286v3.429q0 .714-.5 1.214t-1.214.5H1.714q-.714 0-1.214-.5T0 25.715v-3.429q0-.714.5-1.214t1.214-.5h3.429q.714 0 1.214.5t.5 1.214zm0-9.143v3.429q0 .714-.5 1.214t-1.214.5H1.714q-.714 0-1.214-.5T0 16.572v-3.429q0-.714.5-1.214t1.214-.5h3.429q.714 0 1.214.5t.5 1.214zm0-9.143v3.429q0 .714-.5 1.214t-1.214.5H1.714Q1 9.143.5 8.643T0 7.429V4q0-.714.5-1.214t1.214-.5h3.429q.714 0 1.214.5T6.857 4z"/></symbol><symbol viewBox="0 0 32 32" id="enlarge" xmlns="http://www.w3.org/2000/svg"><path fill="#444" d="M32 0H19l5 5-6 6 3 3 6-6 5 5zM32 32V19l-5 5-6-6-3 3 6 6-5 5zM0 32h13l-5-5 6-6-3-3-6 6-5-5zM0 0v13l5-5 6 6 3-3-6-6 5-5z"/></symbol><symbol viewBox="0 0 32 32" id="enlarge2" xmlns="http://www.w3.org/2000/svg"><path fill="#444" d="M32 0v13l-5-5-6 6-3-3 6-6-5-5zM14 21l-6 6 5 5H0V19l5 5 6-6z"/></symbol><symbol viewBox="0 0 32 32" id="entypo" xmlns="http://www.w3.org/2000/svg"><path fill="#444" d="M26.264 6.886v14.601c0 .45-.273.865-.735 1.055l-9.079 3.65s-.178.047-.225.047c-.095 0-.142.047-.225.047-.095 0-.142-.047-.225-.047-.047 0-.225-.047-.225-.047l-9.079-3.65a1.136 1.136 0 0 1-.735-1.055V6.886c0-.415.178-.77.498-.96.32-.225.735-.273 1.055-.142L16 9.304l8.711-3.508c.32-.142.735-.095 1.055.142.32.178.498.545.498.948zm-11.402 4.243L7.561 8.213v12.776l7.301 2.916V11.129zm-1.375 4.243l-4.563-1.825v-1.553l4.563 1.825v1.553zm0 4.752l-4.563-1.825v-1.553l4.563 1.825v1.553zM24.439 8.213l-7.301 2.916v12.776l7.301-2.916V8.213zm-1.363 5.334l-4.563 1.825v-1.553l4.563-1.825v1.553zm0 4.752l-4.563 1.825v-1.553l4.563-1.825v1.553z"/></symbol><symbol viewBox="0 0 32 32" id="envelope" xmlns="http://www.w3.org/2000/svg"><path fill="#444" d="M32 12.679v14.179q0 1.179-.839 2.018t-2.018.839H2.857q-1.179 0-2.018-.839T0 26.858V12.679q.786.875 1.804 1.554 6.464 4.393 8.875 6.161 1.018.75 1.652 1.17t1.688.857 1.964.438h.036q.911 0 1.964-.438t1.688-.857 1.652-1.17q3.036-2.196 8.893-6.161 1.018-.696 1.786-1.554zm0-5.25q0 1.411-.875 2.696t-2.179 2.196q-6.714 4.661-8.357 5.804-.179.125-.759.545t-.964.679-.929.58-1.027.482-.893.161h-.036q-.411 0-.893-.161t-1.027-.482-.929-.58-.964-.679-.759-.545q-1.625-1.143-4.679-3.259t-3.661-2.545q-1.107-.75-2.089-2.063T-.002 7.82q0-1.393.741-2.321t2.116-.929h26.286q1.161 0 2.009.839t.848 2.018z"/></symbol><symbol viewBox="0 0 32 32" id="envelope-o" xmlns="http://www.w3.org/2000/svg"><path fill="#444" d="M29.714 26.857V13.143q-.571.643-1.232 1.179-4.786 3.679-7.607 6.036-.911.768-1.482 1.196t-1.545.866-1.83.438h-.036q-.857 0-1.83-.438t-1.545-.866-1.482-1.196q-2.821-2.357-7.607-6.036-.661-.536-1.232-1.179v13.714q0 .232.17.402t.402.17h26.286q.232 0 .402-.17t.17-.402zm0-18.768v-.438l-.009-.232-.054-.223-.098-.161-.161-.134-.25-.045H2.856q-.232 0-.402.17t-.17.402q0 3 2.625 5.071 3.446 2.714 7.161 5.661l.625.527q.518.438.821.67t.795.563.902.491.768.161h.036q.357 0 .768-.161t.902-.491.795-.563.821-.67.625-.527q3.714-2.946 7.161-5.661.964-.768 1.795-2.063t.83-2.348zM32 7.429v19.429q0 1.179-.839 2.018t-2.018.839H2.857q-1.179 0-2.018-.839T0 26.858V7.429Q0 6.25.839 5.411t2.018-.839h26.286q1.179 0 2.018.839T32 7.429z"/></symbol><symbol viewBox="0 0 18 32" id="eur" xmlns="http://www.w3.org/2000/svg"><path fill="#444" d="M17.429 23.339l.625 2.839q.054.214-.054.402t-.304.259l-.089.018q-.071.036-.188.063t-.286.08-.384.098-.455.089-.536.089-.598.08-.652.054-.688.018q-4.179 0-7.304-2.33t-4.25-6.277H.57q-.232 0-.402-.17t-.17-.402v-2.018q0-.232.17-.402t.402-.17h1.179q-.036-1.018.018-1.875H.571q-.25 0-.411-.161t-.161-.411v-2.036q0-.25.161-.411t.411-.161h1.75q1.196-3.75 4.348-6.036t7.152-2.286q1.821 0 3.464.411.196.054.357.268.107.196.054.429l-.768 2.839q-.054.232-.25.348t-.429.045l-.071-.018q-.071-.018-.205-.045l-.313-.063-.402-.063-.464-.054-.518-.045-.527-.018q-2.25 0-4.036 1.143t-2.679 3.143h8.357q.286 0 .446.214.179.214.125.464l-.429 2.036q-.089.464-.571.464H6.248q-.054.661 0 1.875h8.196q.268 0 .446.214.161.214.107.482l-.429 2q-.036.196-.196.33t-.357.134H7.104q.857 2.089 2.67 3.313t4.08 1.223q.321 0 .643-.027t.598-.063.527-.08.438-.089.33-.08l.214-.054.089-.036q.232-.089.464.036.214.125.268.375z"/></symbol><symbol viewBox="0 0 11 32" id="exclamation" xmlns="http://www.w3.org/2000/svg"><path fill="#444" d="M9.143 22.286v4q0 .464-.339.804T8 27.429H3.429q-.464 0-.804-.339t-.339-.804v-4q0-.464.339-.804t.804-.339H8q.464 0 .804.339t.339.804zm.536-18.857l-.5 13.714q-.018.464-.366.804T8 18.286H3.429q-.464 0-.813-.339t-.366-.804l-.5-13.714q-.018-.464.313-.804t.795-.339h5.714q.464 0 .795.339t.313.804z"/></symbol><symbol viewBox="0 0 32 32" id="external-link" xmlns="http://www.w3.org/2000/svg"><path fill="#444" d="M25.143 16.571v5.714q0 2.125-1.509 3.634T20 27.428H5.143q-2.125 0-3.634-1.509T0 22.285V7.428q0-2.125 1.509-3.634t3.634-1.509h12.571q.25 0 .411.161t.161.411V4q0 .25-.161.411t-.411.161H5.143q-1.179 0-2.018.839t-.839 2.018v14.857q0 1.179.839 2.018t2.018.839H20q1.179 0 2.018-.839t.839-2.018v-5.714q0-.25.161-.411t.411-.161h1.143q.25 0 .411.161t.161.411zM32 1.143v9.143q0 .464-.339.804t-.804.339-.804-.339L26.91 7.947 15.267 19.59q-.179.179-.411.179t-.411-.179l-2.036-2.036q-.179-.179-.179-.411t.179-.411L24.052 5.089l-3.143-3.143q-.339-.339-.339-.804t.339-.804.804-.339h9.143q.464 0 .804.339t.339.804z"/></symbol><symbol viewBox="0 0 43 32" id="extracredit2" xmlns="http://www.w3.org/2000/svg"><path fill="#444" d="M17.469 10.566v-3.17H5.695v17.66h11.774v-3.17H8.865v-4.075h6.34v-3.17h-6.34v-4.075zM34.674 18.717c-.876 1.811-2.673 2.959-4.752 2.959-2.94 0-5.324-2.371-5.324-5.311s2.383-5.293 5.324-5.293c1.763 0 3.32.853 4.29 2.211h3.954c-1.268-3.17-4.476-5.711-8.244-5.711-4.877 0-8.83 3.941-8.83 8.818s3.953 8.799 8.83 8.799c4.048 0 7.451-2.849 8.494-6.472h-3.742z"/></symbol><symbol viewBox="0 0 32 32" id="eye-slash" xmlns="http://www.w3.org/2000/svg"><path fill="#444" d="M9.911 23.839l1.393-2.518q-1.554-1.125-2.429-2.839T8 14.857q0-2.161 1.089-4.018Q5 12.928 2.285 17.143q2.982 4.607 7.625 6.696zm6.946-13.553q0-.357-.25-.607T16 9.429q-2.232 0-3.83 1.598t-1.598 3.83q0 .357.25.607t.607.25.607-.25.25-.607q0-1.536 1.089-2.625T16 11.143q.357 0 .607-.25t.25-.607zm6.482-3.411q0 .125-.018.161-1.875 3.357-5.625 10.107t-5.643 10.125l-.875 1.589q-.179.286-.5.286-.214 0-2.393-1.25-.286-.179-.286-.5 0-.214.786-1.554-2.554-1.161-4.705-3.089T.357 18.375Q0 17.821 0 17.143t.357-1.232q2.732-4.196 6.786-6.625T16 6.857q1.589 0 3.214.304l.964-1.732q.179-.286.5-.286.089 0 .321.107t.554.277.589.33.563.33.348.205q.286.179.286.482zM24 14.857q0 2.482-1.411 4.527t-3.732 2.938l5-8.964q.143.804.143 1.5zm8 2.286q0 .625-.357 1.232-.696 1.143-1.946 2.589-2.679 3.071-6.205 4.768t-7.491 1.696l1.321-2.357q3.786-.321 7.009-2.446t5.384-5.482q-2.054-3.196-5.036-5.25l1.125-2q1.696 1.143 3.259 2.732t2.58 3.286q.357.607.357 1.232z"/></symbol><symbol viewBox="0 0 32 32" id="eye2" xmlns="http://www.w3.org/2000/svg"><path fill="#444" d="M29.714 17.143Q27 12.929 22.91 10.839q1.089 1.857 1.089 4.018 0 3.304-2.348 5.652t-5.652 2.348-5.652-2.348-2.348-5.652q0-2.161 1.089-4.018-4.089 2.089-6.804 6.304 2.375 3.661 5.955 5.83t7.759 2.17 7.759-2.17 5.955-5.83zm-12.857-6.857q0-.357-.25-.607T16 9.429q-2.232 0-3.83 1.598t-1.598 3.83q0 .357.25.607t.607.25.607-.25.25-.607q0-1.536 1.089-2.625T16 11.143q.357 0 .607-.25t.25-.607zM32 17.143q0 .607-.357 1.232-2.5 4.107-6.723 6.58T16 27.428t-8.92-2.482-6.723-6.571Q0 17.75 0 17.143t.357-1.232q2.5-4.089 6.723-6.571T16 6.858t8.92 2.482 6.723 6.571q.357.625.357 1.232z"/></symbol><symbol viewBox="0 0 25 32" id="feed5" xmlns="http://www.w3.org/2000/svg"><path fill="#444" d="M6.857 24q0 1.429-1 2.429t-2.429 1-2.429-1-1-2.429 1-2.429 2.429-1 2.429 1 1 2.429zM16 26.196q.036.5-.304.857-.321.375-.839.375h-2.411q-.446 0-.768-.295t-.357-.741q-.393-4.089-3.295-6.991t-6.991-3.295q-.446-.036-.741-.357t-.295-.768V12.57q0-.518.375-.839.304-.304.768-.304h.089q2.857.232 5.464 1.438t4.625 3.241q2.036 2.018 3.241 4.625t1.438 5.464zm9.143.036q.036.482-.321.839-.321.357-.821.357h-2.554q-.464 0-.795-.313t-.348-.759q-.214-3.839-1.804-7.295t-4.134-6-6-4.134-7.295-1.821q-.446-.018-.759-.348t-.313-.777V3.427q0-.5.357-.821.321-.321.786-.321h.054q4.679.232 8.955 2.143t7.598 5.25q3.339 3.321 5.25 7.598t2.143 8.955z"/></symbol><symbol viewBox="0 0 27 32" id="file-archive-o" xmlns="http://www.w3.org/2000/svg"><path fill="#444" d="M11.429 6.857V4.571H9.143v2.286h2.286zm2.285 2.286V6.857h-2.286v2.286h2.286zm-2.285 2.286V9.143H9.143v2.286h2.286zm2.285 2.285v-2.286h-2.286v2.286h2.286zm12.5-6.928q.5.5.857 1.357t.357 1.571v20.571q0 .714-.5 1.214t-1.214.5h-24q-.714 0-1.214-.5T0 30.285V1.714Q0 1 .5.5T1.714 0h16q.714 0 1.571.357t1.357.857zm-7.928-4.357v6.714H25q-.179-.518-.393-.732l-5.589-5.589q-.214-.214-.732-.393zm6.857 27.285V11.428h-7.429q-.714 0-1.214-.5T16 9.714V2.285h-2.286v2.286h-2.286V2.285H2.285v27.429h22.857zM13.946 16.839l1.911 6.232Q16 23.553 16 24q0 1.482-1.295 2.455t-3.277.973-3.277-.973T6.856 24q0-.446.143-.929.375-1.125 2.143-7.071v-2.286h2.286V16h1.411q.393 0 .696.232t.411.607zm-2.517 8.304q.946 0 1.616-.339t.67-.804-.67-.804-1.616-.339-1.616.339-.67.804.67.804 1.616.339z"/></symbol><symbol viewBox="0 0 27 32" id="file-audio-o" xmlns="http://www.w3.org/2000/svg"><path fill="#444" d="M26.214 6.786q.5.5.857 1.357t.357 1.571v20.571q0 .714-.5 1.214t-1.214.5h-24q-.714 0-1.214-.5T0 30.285V1.714Q0 1 .5.5T1.714 0h16q.714 0 1.571.357t1.357.857zm-7.928-4.357v6.714H25q-.179-.518-.393-.732l-5.589-5.589q-.214-.214-.732-.393zm6.857 27.285V11.428h-7.429q-.714 0-1.214-.5T16 9.714V2.285H2.286v27.429h22.857zM11.071 15.179q.357.143.357.536v9.714q0 .393-.357.536-.143.036-.214.036-.214 0-.411-.161l-2.964-2.982H5.143q-.25 0-.411-.161t-.161-.411v-3.429q0-.25.161-.411t.411-.161h2.339l2.964-2.982q.286-.268.625-.125zm7.447 12.303q.554 0 .893-.429 2.304-2.839 2.304-6.482t-2.304-6.482q-.286-.375-.768-.429t-.839.25q-.375.304-.42.777t.259.848q1.786 2.196 1.786 5.036t-1.786 5.036q-.304.375-.259.848t.42.759q.321.268.714.268zm-3.768-2.643q.482 0 .839-.357 1.554-1.661 1.554-3.911t-1.554-3.911q-.321-.339-.804-.357t-.821.304-.357.795.321.83q.929 1.018.929 2.339t-.929 2.339q-.339.357-.321.83t.357.795q.357.304.786.304z"/></symbol><symbol viewBox="0 0 27 32" id="file-code-o" xmlns="http://www.w3.org/2000/svg"><path fill="#444" d="M26.214 6.786q.5.5.857 1.357t.357 1.571v20.571q0 .714-.5 1.214t-1.214.5h-24q-.714 0-1.214-.5T0 30.285V1.714Q0 1 .5.5T1.714 0h16q.714 0 1.571.357t1.357.857zm-7.928-4.357v6.714H25q-.179-.518-.393-.732l-5.589-5.589q-.214-.214-.732-.393zm6.857 27.285V11.428h-7.429q-.714 0-1.214-.5T16 9.714V2.285H2.286v27.429h22.857zm-16.572-16q.143-.196.375-.223t.429.116l.911.679q.196.143.223.375t-.116.429l-3.25 4.339 3.25 4.339q.143.196.116.429t-.223.375l-.911.679q-.196.143-.429.116t-.375-.223l-4.036-5.375q-.25-.339 0-.679zm14.322 5.375q.25.339 0 .679l-4.036 5.375q-.143.196-.375.223t-.429-.116l-.911-.679q-.196-.143-.223-.375t.116-.429l3.25-4.339-3.25-4.339q-.143-.196-.116-.429t.223-.375l.911-.679q.196-.143.429-.116t.375.223zm-11.072 8.232q-.232-.036-.366-.232t-.098-.429l2.464-14.839q.036-.232.232-.366t.429-.098l1.125.179q.232.036.366.232t.098.429l-2.464 14.839q-.036.232-.232.366t-.429.098z"/></symbol><symbol viewBox="0 0 27 32" id="file-excel-o" xmlns="http://www.w3.org/2000/svg"><path fill="#444" d="M26.214 6.786q.5.5.857 1.357t.357 1.571v20.571q0 .714-.5 1.214t-1.214.5h-24q-.714 0-1.214-.5T0 30.285V1.714Q0 1 .5.5T1.714 0h16q.714 0 1.571.357t1.357.857zm-7.928-4.357v6.714H25q-.179-.518-.393-.732l-5.589-5.589q-.214-.214-.732-.393zm6.857 27.285V11.428h-7.429q-.714 0-1.214-.5T16 9.714V2.285H2.286v27.429h22.857zM7.661 25.536v1.893h5.018v-1.893H11.34l1.839-2.875q.089-.125.179-.295t.134-.241.063-.071h.036q.018.071.089.179.036.071.08.134t.107.143.116.152l1.911 2.875h-1.357v1.893h5.196v-1.893h-1.214l-3.429-4.875 3.482-5.036h1.196v-1.911h-4.982v1.911h1.321l-1.839 2.839q-.071.125-.179.295t-.161.241l-.036.054h-.036q-.018-.071-.089-.179-.107-.196-.304-.411l-1.893-2.839h1.357v-1.911H7.748v1.911h1.214l3.375 4.857-3.464 5.054H7.659z"/></symbol><symbol viewBox="0 0 27 32" id="file-image-o" xmlns="http://www.w3.org/2000/svg"><path fill="#444" d="M26.214 6.786q.5.5.857 1.357t.357 1.571v20.571q0 .714-.5 1.214t-1.214.5h-24q-.714 0-1.214-.5T0 30.285V1.714Q0 1 .5.5T1.714 0h16q.714 0 1.571.357t1.357.857zm-7.928-4.357v6.714H25q-.179-.518-.393-.732l-5.589-5.589q-.214-.214-.732-.393zm6.857 27.285V11.428h-7.429q-.714 0-1.214-.5T16 9.714V2.285H2.286v27.429h22.857zm-2.286-8v5.714H4.571v-3.429L8 20.57l2.286 2.286 6.857-6.857zM8 18.286q-1.429 0-2.429-1t-1-2.429 1-2.429 2.429-1 2.429 1 1 2.429-1 2.429-2.429 1z"/></symbol><symbol viewBox="0 0 27 32" id="file-movie-o" xmlns="http://www.w3.org/2000/svg"><path fill="#444" d="M26.214 6.786q.5.5.857 1.357t.357 1.571v20.571q0 .714-.5 1.214t-1.214.5h-24q-.714 0-1.214-.5T0 30.285V1.714Q0 1 .5.5T1.714 0h16q.714 0 1.571.357t1.357.857zm-7.928-4.357v6.714H25q-.179-.518-.393-.732l-5.589-5.589q-.214-.214-.732-.393zm6.857 27.285V11.428h-7.429q-.714 0-1.214-.5T16 9.714V2.285H2.286v27.429h22.857zm-11.429-16q.929 0 1.607.679T16 16v6.857q0 .929-.679 1.607t-1.607.679H6.857q-.929 0-1.607-.679t-.679-1.607V16q0-.929.679-1.607t1.607-.679h6.857zm8.786.036q.357.143.357.536v10.286q0 .393-.357.536-.143.036-.214.036-.25 0-.411-.161l-4.732-4.75v-1.607l4.732-4.75q.161-.161.411-.161.071 0 .214.036z"/></symbol><symbol viewBox="0 0 27 32" id="file-o" xmlns="http://www.w3.org/2000/svg"><path fill="#444" d="M26.214 6.786q.5.5.857 1.357t.357 1.571v20.571q0 .714-.5 1.214t-1.214.5h-24q-.714 0-1.214-.5T0 30.285V1.714Q0 1 .5.5T1.714 0h16q.714 0 1.571.357t1.357.857zm-7.928-4.357v6.714H25q-.179-.518-.393-.732l-5.589-5.589q-.214-.214-.732-.393zm6.857 27.285V11.428h-7.429q-.714 0-1.214-.5T16 9.714V2.285H2.286v27.429h22.857z"/></symbol><symbol viewBox="0 0 27 32" id="file-pdf-o" xmlns="http://www.w3.org/2000/svg"><path fill="#444" d="M26.214 6.786q.5.5.857 1.357t.357 1.571v20.571q0 .714-.5 1.214t-1.214.5h-24q-.714 0-1.214-.5T0 30.285V1.714Q0 1 .5.5T1.714 0h16q.714 0 1.571.357t1.357.857zm-7.928-4.357v6.714H25q-.179-.518-.393-.732l-5.589-5.589q-.214-.214-.732-.393zm6.857 27.285V11.428h-7.429q-.714 0-1.214-.5T16 9.714V2.285H2.286v27.429h22.857zm-9.179-10.589q.589.464 1.5 1Q18.518 20 19.553 20q2.625 0 3.161.875.286.393.036.929 0 .018-.018.036l-.036.036v.018q-.107.679-1.268.679-.857 0-2.054-.357t-2.321-.946q-3.946.429-7 1.482-2.732 4.679-4.321 4.679-.268 0-.5-.125l-.429-.214q-.018-.018-.107-.089-.179-.179-.107-.643.161-.714 1-1.634t2.357-1.723q.25-.161.411.107.036.036.036.071.929-1.518 1.911-3.518 1.214-2.429 1.857-4.679-.429-1.464-.545-2.848t.116-2.277q.196-.714.75-.714h.393q.411 0 .625.268.321.375.161 1.214-.036.107-.071.143.018.054.018.143v.536q-.036 2.196-.25 3.429.982 2.929 2.607 4.25zM5.679 26.464q.929-.429 2.446-2.821-.911.714-1.563 1.5t-.884 1.321zm7.107-16.428q-.268.75-.036 2.357.018-.125.125-.786 0-.054.125-.768.018-.071.071-.143-.018-.018-.018-.036t-.009-.027-.009-.027q-.018-.393-.232-.643 0 .018-.018.036v.036zm-2.215 11.803q2.411-.964 5.071-1.446-.036-.018-.232-.17t-.286-.241q-1.357-1.196-2.268-3.143-.482 1.536-1.482 3.518-.536 1-.804 1.482zm11.536-.285q-.429-.429-2.5-.429 1.357.5 2.214.5.25 0 .321-.018 0-.018-.036-.054z"/></symbol><symbol viewBox="0 0 27 32" id="file-powerpoint-o" xmlns="http://www.w3.org/2000/svg"><path fill="#444" d="M26.214 6.786q.5.5.857 1.357t.357 1.571v20.571q0 .714-.5 1.214t-1.214.5h-24q-.714 0-1.214-.5T0 30.285V1.714Q0 1 .5.5T1.714 0h16q.714 0 1.571.357t1.357.857zm-7.928-4.357v6.714H25q-.179-.518-.393-.732l-5.589-5.589q-.214-.214-.732-.393zm6.857 27.285V11.428h-7.429q-.714 0-1.214-.5T16 9.714V2.285H2.286v27.429h22.857zM7.429 25.536v1.893h5.839v-1.893h-1.661v-2.982h2.446q1.357 0 2.107-.268 1.196-.411 1.902-1.554t.705-2.607q0-1.446-.661-2.518t-1.786-1.554q-.857-.339-2.321-.339H7.428v1.911h1.643v9.911H7.428zm6.303-5h-2.125V15.75h2.143q.929 0 1.482.321 1 .589 1 2.054 0 1.589-1.107 2.143-.554.268-1.393.268z"/></symbol><symbol viewBox="0 0 27 32" id="file-word-o" xmlns="http://www.w3.org/2000/svg"><path fill="#444" d="M26.214 6.786q.5.5.857 1.357t.357 1.571v20.571q0 .714-.5 1.214t-1.214.5h-24q-.714 0-1.214-.5T0 30.285V1.714Q0 1 .5.5T1.714 0h16q.714 0 1.571.357t1.357.857zm-7.928-4.357v6.714H25q-.179-.518-.393-.732l-5.589-5.589q-.214-.214-.732-.393zm6.857 27.285V11.428h-7.429q-.714 0-1.214-.5T16 9.714V2.285H2.286v27.429h22.857zm-20.982-16v1.911h1.25L8.34 27.429h2.839l2.286-8.661q.125-.357.179-.821.036-.286.036-.429h.071l.054.429q.018.054.063.357t.098.464l2.286 8.661h2.839l2.929-11.804h1.25v-1.911h-5.357v1.911h1.607l-1.768 7.821q-.089.357-.125.821l-.036.375h-.071l-.054-.375q-.018-.089-.071-.375t-.089-.446l-2.571-9.732h-2.036l-2.571 9.732q-.036.161-.08.438t-.063.384l-.071.375h-.071l-.036-.375q-.036-.464-.125-.821l-1.768-7.821h1.607v-1.911H4.164z"/></symbol><symbol viewBox="0 0 32 32" id="first" xmlns="http://www.w3.org/2000/svg"><path fill="#444" d="M4 28V4h4v11L18 5v10L28 5v22L18 17v10L8 17v11z"/></symbol><symbol viewBox="0 0 32 32" id="flag-o" xmlns="http://www.w3.org/2000/svg"><path fill="#444" d="M29.714 18.661v-11q-3.018 1.625-5.464 1.625-1.464 0-2.589-.571-1.786-.875-3.286-1.366t-3.179-.491q-3.089 0-7.196 2.268v10.696q4.375-2.018 7.732-2.018.982 0 1.848.134t1.75.464 1.375.554 1.473.705l.5.25q.786.393 1.804.393 2.143 0 5.232-1.643zm-24-14.09q0 .625-.313 1.143t-.83.821v22.607q0 .25-.161.411t-.411.161H2.856q-.25 0-.411-.161t-.161-.411V6.535q-.518-.304-.83-.821t-.313-1.143q0-.946.67-1.616t1.616-.67 1.616.67.67 1.616zM32 5.714v13.625q0 .696-.625 1.018-.179.089-.304.161-3.893 2.071-6.589 2.071-1.571 0-2.821-.625l-.5-.25q-1.143-.589-1.768-.857t-1.625-.518-2.036-.25q-1.821 0-4.205.786t-4.08 1.821q-.268.161-.589.161-.286 0-.571-.143-.571-.339-.571-1V8.464q0-.625.554-.982.625-.375 1.402-.759t2.036-.929 2.723-.884 2.768-.339q2 0 3.732.554t3.732 1.536Q23.342 7 24.252 7q2.179 0 5.536-2 .393-.214.554-.304.554-.286 1.107.036.554.357.554.982z"/></symbol><symbol viewBox="0 0 32 32" id="flag3" xmlns="http://www.w3.org/2000/svg"><path fill="#444" d="M5.714 4.571q0 1.286-1.143 1.964v22.607q0 .232-.17.402t-.402.17H2.856q-.232 0-.402-.17t-.17-.402V6.535q-1.143-.679-1.143-1.964 0-.946.67-1.616t1.616-.67 1.616.67.67 1.616zM32 5.714v13.625q0 .446-.223.688t-.705.491q-3.839 2.071-6.589 2.071-1.089 0-2.205-.393t-1.938-.857-2.063-.857-2.545-.393q-3.429 0-8.286 2.607-.304.161-.589.161-.464 0-.804-.339t-.339-.804V8.464q0-.571.554-.982.375-.25 1.411-.768 4.214-2.143 7.518-2.143 1.911 0 3.571.518t3.911 1.571q.679.339 1.571.339.964 0 2.098-.375t1.964-.839 1.571-.839.973-.375q.464 0 .804.339t.339.804z"/></symbol><symbol viewBox="0 0 31 32" id="flashcards" xmlns="http://www.w3.org/2000/svg"><path fill="#444" d="M9.968 9.646h15.568v1.853H9.968V9.646z"/><path fill="#444" d="M5.52 5.198v4.448H1.072v15.568h24.465v-4.448h4.448V5.198H5.52zm18.163 18.163H2.925V11.499H5.52v9.267h18.163v2.595zm4.448-4.448H7.373V7.051h20.758v11.862z"/></symbol><symbol viewBox="0 0 30 32" id="folder-o" xmlns="http://www.w3.org/2000/svg"><path fill="#444" d="M27.429 23.429V10.858q0-.714-.5-1.214t-1.214-.5H13.144q-.714 0-1.214-.5t-.5-1.214V6.287q0-.714-.5-1.214t-1.214-.5H4.002q-.714 0-1.214.5t-.5 1.214V23.43q0 .714.5 1.214t1.214.5h21.714q.714 0 1.214-.5t.5-1.214zm2.285-12.572v12.571q0 1.643-1.179 2.821t-2.821 1.179H4q-1.643 0-2.821-1.179T0 23.428V6.285q0-1.643 1.179-2.821T4 2.285h5.714q1.643 0 2.821 1.179t1.179 2.821v.571h12q1.643 0 2.821 1.179t1.179 2.821z"/></symbol><symbol viewBox="0 0 34 32" id="folder-open-o" xmlns="http://www.w3.org/2000/svg"><path fill="#444" d="M31.804 16.625q0-.625-.946-.625H11.429q-.714 0-1.527.384t-1.277.938l-5.25 6.482q-.321.429-.321.714 0 .625.946.625h19.429q.714 0 1.536-.393t1.268-.946l5.25-6.482q.321-.393.321-.696zm-20.375-2.911h13.714v-2.857q0-.714-.5-1.214t-1.214-.5H13.143q-.714 0-1.214-.5t-.5-1.214V6.286q0-.714-.5-1.214t-1.214-.5H4.001q-.714 0-1.214.5t-.5 1.214v15.232l4.571-5.625q.786-.946 2.071-1.563t2.5-.616zm22.66 2.911q0 1.107-.821 2.143L28 25.25q-.768.946-2.071 1.563t-2.5.616H4q-1.643 0-2.821-1.179T0 23.429V6.286q0-1.643 1.179-2.821T4 2.286h5.714q1.643 0 2.821 1.179t1.179 2.821v.571h9.714q1.643 0 2.821 1.179t1.179 2.821v2.857h3.429q.964 0 1.768.438t1.196 1.259q.268.571.268 1.214z"/></symbol><symbol viewBox="0 0 32 32" id="forward" xmlns="http://www.w3.org/2000/svg"><path fill="#444" d="M8.192 0C4.638 6.439 4.039 16.259 18 15.932V8l12 12-12 12v-7.762C1.282 24.674-.58 9.481 8.192 0z"/></symbol><symbol viewBox="0 0 32 32" id="forward2" xmlns="http://www.w3.org/2000/svg"><path fill="#444" d="M16 0C7.163 0 0 7.163 0 16s7.163 16 16 16 16-7.163 16-16S24.837 0 16 0zm0 29C8.82 29 3 23.18 3 16S8.82 3 16 3s13 5.82 13 13-5.82 13-13 13zm-6-18l7 5-7 5zm8 0l7 5-7 5z"/></symbol><symbol viewBox="0 0 32 32" id="forward3" xmlns="http://www.w3.org/2000/svg"><path fill="#444" d="M16 27V17L6 27V5l10 10V5l11 11z"/></symbol><symbol viewBox="0 0 18 32" id="gbp" xmlns="http://www.w3.org/2000/svg"><path fill="#444" d="M18.214 20.304v6.554q0 .25-.161.411t-.411.161H.571q-.25 0-.411-.161t-.161-.411v-2.679q0-.232.17-.402t.402-.17h1.732v-6.839H.607q-.25 0-.411-.17t-.161-.402v-2.339q0-.25.161-.411t.411-.161h1.696V9.303q0-3.054 2.205-5.036t5.616-1.982q3.304 0 5.982 2.232.161.143.179.366t-.125.402l-1.839 2.268q-.161.196-.393.214-.232.036-.411-.125-.089-.089-.464-.339t-1.232-.571-1.661-.321q-1.518 0-2.446.839t-.929 2.196v3.839h5.446q.232 0 .402.161t.17.411v2.339q0 .232-.17.402t-.402.17H6.785v6.768h7.393v-3.232q0-.232.161-.402t.411-.17h2.893q.25 0 .411.17t.161.402z"/></symbol><symbol viewBox="0 0 41 32" id="graduation-cap" xmlns="http://www.w3.org/2000/svg"><path fill="#444" d="M31.679 14.929L32 20.572q.071 1.232-1.464 2.286t-4.196 1.67-5.768.616-5.768-.616-4.196-1.67-1.464-2.286l.321-5.643 10.25 3.232q.393.125.857.125t.857-.125zm9.464-5.786q0 .411-.393.554l-20 6.286q-.071.018-.179.018t-.179-.018L8.749 12.304q-.768.607-1.268 1.991t-.607 3.188q1.125.643 1.125 1.946 0 1.232-1.036 1.911l1.036 7.732q.036.25-.143.446-.161.196-.429.196H3.998q-.268 0-.429-.196-.179-.196-.143-.446l1.036-7.732q-1.036-.679-1.036-1.911 0-1.304 1.161-1.982.196-3.696 1.75-5.893L.391 9.697q-.393-.143-.393-.554t.393-.554l20-6.286q.071-.018.179-.018t.179.018l20 6.286q.393.143.393.554z"/></symbol><symbol viewBox="0 0 32 32" id="highlight" xmlns="http://www.w3.org/2000/svg"><path fill="#444" d="M10.845 5.599l-5.254 5.254c-.836.835-.799 2.176.036 3.011l11.077 11.083c.57.57 1.377.812 2.231.812h6.686v-6.758c0-.855-.146-1.722-.716-2.292L13.842 5.633c-.835-.836-2.162-.871-2.997-.035z"/></symbol><symbol viewBox="0 0 32 32" id="home32" xmlns="http://www.w3.org/2000/svg"><path fill="#444" d="M32 19l-6-6V4h-4v5l-6-6L0 19v1h4v10h10v-6h4v6h10V20h4z"/></symbol><symbol viewBox="0 0 32 32" id="image" xmlns="http://www.w3.org/2000/svg"><path fill="#444" d="M29.996 4l.004.004v23.993l-.004.004H2.003l-.004-.004V4.004L2.003 4h27.993zM30 2H2C.9 2 0 2.9 0 4v24c0 1.1.9 2 2 2h28c1.1 0 2-.9 2-2V4c0-1.1-.9-2-2-2z"/><path fill="#444" d="M26 9a3 3 0 1 1-6 0 3 3 0 0 1 6 0zM28 26H4v-4l7-12 8 10h2l7-6z"/></symbol><symbol viewBox="0 0 36 32" id="images" xmlns="http://www.w3.org/2000/svg"><path fill="#444" d="M34 4h-2V2c0-1.1-.9-2-2-2H2C.9 0 0 .9 0 2v24c0 1.1.9 2 2 2h2v2c0 1.1.9 2 2 2h28c1.1 0 2-.9 2-2V6c0-1.1-.9-2-2-2zM4 6v20H2.004L2 25.996V2.003l.004-.004h27.993l.004.004v1.996h-24c-1.1 0-2 .9-2 2zm30 23.996l-.004.004H6.003l-.004-.004V6.003l.004-.004h27.993l.004.004v23.993z"/><path fill="#444" d="M30 11a3 3 0 1 1-6 0 3 3 0 0 1 6 0zM32 28H8v-4l7-12 8 10h2l7-6z"/></symbol><symbol viewBox="0 0 32 32" id="indent-decrease" xmlns="http://www.w3.org/2000/svg"><path fill="#444" d="M0 2h32v4H0zm12 6h20v4H12zm0 6h20v4H12zm0 6h20v4H12zM0 26h32v4H0zm8-16v12l-8-6z"/></symbol><symbol viewBox="0 0 32 32" id="indent-increase" xmlns="http://www.w3.org/2000/svg"><path fill="#444" d="M0 2h32v4H0zm12 6h20v4H12zm0 6h20v4H12zm0 6h20v4H12zM0 26h32v4H0zm0-4V10l8 6z"/></symbol><symbol viewBox="0 0 32 32" id="info" xmlns="http://www.w3.org/2000/svg"><path fill="#444" d="M14 9.5c0-.825.675-1.5 1.5-1.5h1c.825 0 1.5.675 1.5 1.5v1c0 .825-.675 1.5-1.5 1.5h-1c-.825 0-1.5-.675-1.5-1.5v-1zM20 24h-8v-2h2v-6h-2v-2h6v8h2z"/><path fill="#444" d="M16 0C7.163 0 0 7.163 0 16s7.163 16 16 16 16-7.163 16-16S24.837 0 16 0zm0 29C8.82 29 3 23.18 3 16S8.82 3 16 3s13 5.82 13 13-5.82 13-13 13z"/></symbol><symbol viewBox="0 0 11 32" id="info2" xmlns="http://www.w3.org/2000/svg"><path fill="#444" d="M11.429 24v2.286q0 .464-.339.804t-.804.339H1.143q-.464 0-.804-.339T0 26.286V24q0-.464.339-.804t.804-.339h1.143V16H1.143q-.464 0-.804-.339T0 14.857v-2.286q0-.464.339-.804t.804-.339H8q.464 0 .804.339t.339.804v10.286h1.143q.464 0 .804.339t.339.804zM9.143 3.429v3.429q0 .464-.339.804T8 8.001H3.429q-.464 0-.804-.339t-.339-.804V3.429q0-.464.339-.804t.804-.339H8q.464 0 .804.339t.339.804z"/></symbol><symbol viewBox="0 0 16 32" id="inr" xmlns="http://www.w3.org/2000/svg"><path fill="#444" d="M16.036 8.393v1.821q0 .25-.161.411t-.411.161h-3q-.411 2.571-2.304 4.179t-4.929 1.964q2.982 3.179 8.196 9.571.25.286.071.607-.143.321-.518.321H9.498q-.286 0-.446-.214Q3.588 20.66.159 17.018q-.161-.161-.161-.393v-2.268q0-.232.17-.402t.402-.17h2q2.357 0 3.795-.768t1.83-2.232H.57q-.25 0-.411-.161t-.161-.411V8.392q0-.25.161-.411T.57 7.82h7.375Q6.927 5.802 3.159 5.802H.57q-.232 0-.402-.17t-.17-.402V2.855q0-.25.161-.411t.411-.161h14.857q.25 0 .411.161t.161.411v1.821q0 .25-.161.411t-.411.161h-4.161q.839 1.089 1.143 2.571h3.054q.25 0 .411.161t.161.411z"/></symbol><symbol viewBox="0 0 32 32" id="key3" xmlns="http://www.w3.org/2000/svg"><path fill="#444" d="M14.857 9.143q0-1.429-1-2.429t-2.429-1-2.429 1-1 2.429q0 .75.339 1.482-.732-.339-1.482-.339-1.429 0-2.429 1t-1 2.429 1 2.429 2.429 1 2.429-1 1-2.429q0-.75-.339-1.482.732.339 1.482.339 1.429 0 2.429-1t1-2.429zm15.197 12.571q0 .304-.875 1.179T28 23.768q-.161 0-.509-.286t-.652-.589-.688-.714-.438-.464l-1.714 1.714 3.929 3.929q.5.5.5 1.214 0 .75-.696 1.446t-1.446.696q-.714 0-1.214-.5L13.09 18.232q-3.143 2.339-6.518 2.339-2.911 0-4.741-1.83T.001 14q0-2.857 1.696-5.589t4.429-4.429 5.589-1.696q2.911 0 4.741 1.83t1.83 4.741q0 3.375-2.339 6.518l6.339 6.339L24 20q-.054-.054-.464-.438t-.714-.688-.589-.652-.286-.509q0-.304.875-1.179t1.179-.875q.232 0 .411.179.107.107.821.795t1.464 1.42 1.545 1.536 1.304 1.393.509.732z"/></symbol><symbol viewBox="0 0 32 32" id="krw" xmlns="http://www.w3.org/2000/svg"><path fill="#444" d="M9.179 21.339L10.625 16H7.786l1.339 5.357q.018.018.018.054t.018.054q0-.018.009-.063t.009-.063zm2.071-7.625l.625-2.286H6.661l.571 2.286h4.018zm3.429 0h2.482l-.625-2.286h-1.25zm8.017 7.643L24.089 16h-2.893l1.446 5.339q0 .018.009.063t.027.063q0-.018.009-.054t.009-.054zm1.983-7.643l.589-2.286h-5.304l.607 2.286h4.107zm7.321.572v1.143q0 .25-.161.411t-.411.161h-3.804l-2.929 11q-.125.429-.554.429h-2.839q-.429 0-.554-.429l-2.964-11h-3.732l-2.982 11q-.125.429-.554.429H7.677q-.196 0-.348-.125t-.188-.304l-2.857-11H.57q-.25 0-.411-.161t-.161-.411v-1.143q0-.25.161-.411t.411-.161h3.125l-.589-2.286H.57q-.25 0-.411-.161t-.161-.411V9.713q0-.25.161-.411t.411-.161h1.946L.927 2.998q-.089-.268.089-.5.179-.214.464-.214h2.446q.464 0 .554.429l1.607 6.429h6.411l1.732-6.429q.125-.429.554-.429h2.25q.429 0 .554.429l1.75 6.429h6.518l1.661-6.429q.089-.429.554-.429h2.446q.286 0 .464.214.179.232.089.5l-1.625 6.143h1.982q.25 0 .411.161t.161.411v1.143q0 .25-.161.411t-.411.161h-2.589l-.607 2.286h3.196q.25 0 .411.161t.161.411z"/></symbol><symbol viewBox="0 0 32 32" id="last" xmlns="http://www.w3.org/2000/svg"><path fill="#444" d="M28 4v24h-4V17L14 27V17L4 27V5l10 10V5l10 10V4z"/></symbol><symbol viewBox="0 0 32 32" id="lifebuoy" xmlns="http://www.w3.org/2000/svg"><path fill="#444" d="M16 0C7.163 0 0 7.163 0 16s7.163 16 16 16 16-7.163 16-16S24.837 0 16 0zm-6 16a6 6 0 1 1 12 0 6 6 0 0 1-12 0zm18.937 5.359l-5.544-2.297c.391-.943.608-1.977.608-3.062s-.216-2.119-.608-3.062l5.544-2.297C29.622 12.292 30 14.101 30 16s-.379 3.708-1.063 5.359zM21.359 3.063l-2.297 5.544C18.119 8.216 17.085 8 16 8s-2.119.216-3.062.607l-2.297-5.544C12.292 2.379 14.101 2 16 2s3.708.379 5.359 1.063zM3.063 10.641l5.544 2.297c-.391.943-.608 1.977-.608 3.062s.216 2.119.607 3.062l-5.544 2.297c-.685-1.651-1.063-3.46-1.063-5.359s.379-3.708 1.063-5.359zm7.578 18.296l2.297-5.544c.943.391 1.977.608 3.062.608s2.119-.216 3.062-.608l2.297 5.544C19.708 29.621 17.899 30 16 30s-3.708-.379-5.359-1.063z"/></symbol><symbol viewBox="0 0 26 32" id="lightning" xmlns="http://www.w3.org/2000/svg"><path fill="#444" d="M20.078 12.118l-6.521 1.258L16.222.644 5.258 19.754l6.52-1.255-2.696 12.729z"/></symbol><symbol viewBox="0 0 32 32" id="link" xmlns="http://www.w3.org/2000/svg"><path fill="#444" d="M13.757 19.868a1.62 1.62 0 0 1-1.149-.476c-2.973-2.973-2.973-7.81 0-10.783l6-6C20.048 1.169 21.963.376 24 .376s3.951.793 5.392 2.233c2.973 2.973 2.973 7.81 0 10.783l-2.743 2.743a1.624 1.624 0 1 1-2.298-2.298l2.743-2.743a4.38 4.38 0 0 0 0-6.187c-.826-.826-1.925-1.281-3.094-1.281s-2.267.455-3.094 1.281l-6 6a4.38 4.38 0 0 0 0 6.187 1.624 1.624 0 0 1-1.149 2.774z"/><path fill="#444" d="M8 31.625a7.575 7.575 0 0 1-5.392-2.233c-2.973-2.973-2.973-7.81 0-10.783l2.743-2.743a1.624 1.624 0 1 1 2.298 2.298l-2.743 2.743a4.38 4.38 0 0 0 0 6.187c.826.826 1.925 1.281 3.094 1.281s2.267-.455 3.094-1.281l6-6a4.38 4.38 0 0 0 0-6.187 1.624 1.624 0 1 1 2.298-2.298c2.973 2.973 2.973 7.81 0 10.783l-6 6A7.575 7.575 0 0 1 8 31.625z"/></symbol><symbol viewBox="0 0 31 32" id="list" xmlns="http://www.w3.org/2000/svg"><path fill="#444" d="M1.677 3.268h27.554V7.35H1.677V3.268zM1.677 13.473h18.369v4.082H1.677v-4.082zM1.677 23.576h10.205v4.082H1.677v-4.082z"/></symbol><symbol viewBox="0 0 32 32" id="list-numbered" xmlns="http://www.w3.org/2000/svg"><path fill="#444" d="M12 26h20v4H12zm0-12h20v4H12zm0-12h20v4H12zM6 0v8H4V2H2V0zM4 16.438v1.563h4v2H2v-4.563l4-1.875V12H2v-2h6v4.563zM8 22v10H2v-2h4v-2H2v-2h4v-2H2v-2z"/></symbol><symbol viewBox="0 0 32 32" id="list2" xmlns="http://www.w3.org/2000/svg"><path fill="#444" d="M12 2h20v4H12V2zm0 12h20v4H12v-4zm0 12h20v4H12v-4zM0 4a4 4 0 1 1 8 0 4 4 0 0 1-8 0zm0 12a4 4 0 1 1 8 0 4 4 0 0 1-8 0zm0 12a4 4 0 1 1 8 0 4 4 0 0 1-8 0z"/></symbol><symbol viewBox="0 0 32 32" id="list3" xmlns="http://www.w3.org/2000/svg"><path fill="#444" d="M0 0h8v8H0zm12 2h20v4H12zM0 12h8v8H0zm12 2h20v4H12zM0 24h8v8H0zm12 2h20v4H12z"/></symbol><symbol viewBox="0 0 32 32" id="lock" xmlns="http://www.w3.org/2000/svg"><path fill="#444" d="M18.5 14H18V8c0-3.308-2.692-6-6-6H8C4.692 2 2 4.692 2 8v6h-.5c-.825 0-1.5.675-1.5 1.5v15c0 .825.675 1.5 1.5 1.5h17c.825 0 1.5-.675 1.5-1.5v-15c0-.825-.675-1.5-1.5-1.5zM6 8c0-1.103.897-2 2-2h4c1.103 0 2 .897 2 2v6H6V8z"/></symbol><symbol viewBox="0 0 18 32" id="map-marker" xmlns="http://www.w3.org/2000/svg"><path fill="#444" d="M13.714 11.429q0-1.893-1.339-3.232T9.143 6.858 5.911 8.197t-1.339 3.232 1.339 3.232T9.143 16t3.232-1.339 1.339-3.232zm4.572 0q0 1.946-.589 3.196l-6.5 13.821q-.286.589-.848.929t-1.205.339-1.205-.339-.83-.929L.591 14.625q-.589-1.25-.589-3.196 0-3.786 2.679-6.464t6.464-2.679 6.464 2.679 2.679 6.464z"/></symbol><symbol viewBox="0 0 32 32" id="menu" xmlns="http://www.w3.org/2000/svg"><path fill="#444" d="M2 6h28v6H2zm0 8h28v6H2zm0 8h28v6H2z"/></symbol><symbol viewBox="0 0 44 32" id="menu2" xmlns="http://www.w3.org/2000/svg"><path fill="#444" d="M0 6h28v6H0V6zm0 8h28v6H0v-6zm0 8h28v6H0v-6zM31 18l6 6 6-6zM43 16l-6-6-6 6z"/></symbol><symbol viewBox="0 0 44 32" id="menu3" xmlns="http://www.w3.org/2000/svg"><path fill="#444" d="M0 6h28v6H0V6zm0 8h28v6H0v-6zm0 8h28v6H0v-6zM31 14l6 6 6-6z"/></symbol><symbol viewBox="0 0 44 32" id="menu4" xmlns="http://www.w3.org/2000/svg"><path fill="#444" d="M0 6h28v6H0V6zm0 8h28v6H0v-6zm0 8h28v6H0v-6zM31 20l6-6 6 6z"/></symbol><symbol viewBox="0 0 21 32" id="microphone" xmlns="http://www.w3.org/2000/svg"><path fill="#444" d="M20.571 12.571v2.286q0 3.946-2.634 6.866t-6.509 3.348v2.357h4.571q.464 0 .804.339t.339.804-.339.804-.804.339H4.57q-.464 0-.804-.339t-.339-.804.339-.804.804-.339h4.571v-2.357q-3.875-.429-6.509-3.348t-2.634-6.866v-2.286q0-.464.339-.804t.804-.339.804.339.339.804v2.286q0 3.304 2.348 5.652t5.652 2.348 5.652-2.348 2.348-5.652v-2.286q0-.464.339-.804t.804-.339.804.339.339.804zM16 5.714v9.143q0 2.357-1.679 4.036t-4.036 1.679-4.036-1.679-1.679-4.036V5.714q0-2.357 1.679-4.036t4.036-1.679 4.036 1.679T16 5.714z"/></symbol><symbol viewBox="0 0 25 32" id="microphone-slash" xmlns="http://www.w3.org/2000/svg"><path fill="#444" d="M4.839 16.875l-1.804 1.804q-.75-1.839-.75-3.821v-2.286q0-.464.339-.804t.804-.339.804.339.339.804v2.286q0 .946.268 2.018zm19.893-10.75l-6.446 6.446v2.286q0 2.357-1.679 4.036t-4.036 1.679q-.982 0-1.946-.339l-1.714 1.714q1.732.911 3.661.911 3.304 0 5.652-2.348t2.348-5.652v-2.286q0-.464.339-.804t.804-.339.804.339.339.804v2.286q0 3.946-2.634 6.866t-6.509 3.348v2.357h4.571q.464 0 .804.339t.339.804-.339.804-.804.339H6.857q-.464 0-.804-.339t-.339-.804.339-.804.804-.339h4.571v-2.357q-2.232-.232-4.196-1.446l-4.536 4.536q-.179.179-.411.179t-.411-.179L.41 26.698q-.179-.179-.179-.411t.179-.411L22.446 3.84q.179-.179.411-.179t.411.179l1.464 1.464q.179.179.179.411t-.179.411zm-6.786-2.357L6.857 14.857V5.714q0-2.357 1.679-4.036t4.036-1.679q1.821 0 3.295 1.054t2.08 2.714z"/></symbol><symbol viewBox="0 0 32 32" id="minus" xmlns="http://www.w3.org/2000/svg"><path fill="#444" d="M0 13v6a1 1 0 0 0 1 1h30a1 1 0 0 0 1-1v-6a1 1 0 0 0-1-1H1a1 1 0 0 0-1 1z"/></symbol><symbol viewBox="0 0 27 32" id="music2" xmlns="http://www.w3.org/2000/svg"><path fill="#444" d="M27.429 4v20q0 .893-.607 1.589t-1.536 1.08-1.848.571-1.723.188-1.723-.188-1.848-.571-1.536-1.08T16.001 24t.607-1.589 1.536-1.08 1.848-.571 1.723-.188q1.875 0 3.429.696v-9.589L11.43 15.911v12.661q0 .893-.607 1.589t-1.536 1.08-1.848.571T5.716 32t-1.723-.188-1.848-.571-1.536-1.08-.607-1.589.607-1.589 1.536-1.08 1.848-.571 1.723-.188q1.875 0 3.429.696V8.572q0-.554.339-1.009t.875-.634l14.857-4.571q.214-.071.5-.071.714 0 1.214.5t.5 1.214z"/></symbol><symbol viewBox="0 0 32 32" id="next" xmlns="http://www.w3.org/2000/svg"><path fill="#444" d="M16 0c8.837 0 16 7.163 16 16s-7.163 16-16 16S0 24.837 0 16 7.163 0 16 0zm0 29c7.18 0 13-5.82 13-13S23.18 3 16 3 3 8.82 3 16s5.82 13 13 13z"/><path fill="#444" d="M18 16l-8-6v12zM22 10h-4v12h4V10z"/></symbol><symbol viewBox="0 0 32 32" id="next2" xmlns="http://www.w3.org/2000/svg"><path fill="#444" d="M24 4v24h-4V17L10 27V5l10 10V4z"/></symbol><symbol viewBox="0 0 32 32" id="notification" xmlns="http://www.w3.org/2000/svg"><path fill="#444" d="M16 3c-3.472 0-6.737 1.352-9.192 3.808S3 12.528 3 16c0 3.472 1.352 6.737 3.808 9.192S12.528 29 16 29c3.472 0 6.737-1.352 9.192-3.808S29 19.472 29 16c0-3.472-1.352-6.737-3.808-9.192S19.472 3 16 3zm0-3c8.837 0 16 7.163 16 16s-7.163 16-16 16S0 24.837 0 16 7.163 0 16 0zm-2 22h4v4h-4zm0-16h4v12h-4z"/></symbol><symbol viewBox="0 0 32 32" id="paragraph-center" xmlns="http://www.w3.org/2000/svg"><path fill="#444" d="M0 2h32v4H0zm6 6h20v4H6zm0 12h20v4H6zm-6-6h32v4H0zm0 12h32v4H0z"/></symbol><symbol viewBox="0 0 32 32" id="paragraph-justify" xmlns="http://www.w3.org/2000/svg"><path fill="#444" d="M0 2h32v4H0zm0 6h32v4H0zm0 6h32v4H0zm0 6h32v4H0zm0 6h32v4H0z"/></symbol><symbol viewBox="0 0 32 32" id="paragraph-left" xmlns="http://www.w3.org/2000/svg"><path fill="#444" d="M0 2h32v4H0zm0 6h20v4H0zm0 12h20v4H0zm0-6h32v4H0zm0 12h32v4H0z"/></symbol><symbol viewBox="0 0 32 32" id="paragraph-right" xmlns="http://www.w3.org/2000/svg"><path fill="#444" d="M0 2h32v4H0zm12 6h20v4H12zm0 12h20v4H12zM0 14h32v4H0zm0 12h32v4H0z"/></symbol><symbol viewBox="0 0 32 32" id="pause" xmlns="http://www.w3.org/2000/svg"><path fill="#444" d="M16 0C7.163 0 0 7.163 0 16s7.163 16 16 16 16-7.163 16-16S24.837 0 16 0zm0 29C8.82 29 3 23.18 3 16S8.82 3 16 3s13 5.82 13 13-5.82 13-13 13zm-6-19h4v12h-4zm8 0h4v12h-4z"/></symbol><symbol viewBox="0 0 32 32" id="pause2" xmlns="http://www.w3.org/2000/svg"><path fill="#444" d="M4 4h10v24H4zm14 0h10v24H18z"/></symbol><symbol viewBox="0 0 27 32" id="pencil3" xmlns="http://www.w3.org/2000/svg"><path fill="#444" d="M6.482 27.429l1.625-1.625-4.196-4.196-1.625 1.625v1.911h2.286v2.286h1.911zm9.339-16.572q0-.393-.393-.393-.179 0-.304.125l-9.679 9.679q-.125.125-.125.304 0 .393.393.393.179 0 .304-.125l9.679-9.679q.125-.125.125-.304zm-.964-3.428l7.429 7.429L7.429 29.715H0v-7.429zm12.197 1.714q0 .946-.661 1.607l-2.964 2.964L16 6.285l2.964-2.946q.643-.679 1.607-.679.946 0 1.625.679l4.196 4.179q.661.696.661 1.625z"/></symbol><symbol viewBox="0 0 32 32" id="phone" xmlns="http://www.w3.org/2000/svg"><path fill="#444" d="M22 20c-2 2-2 4-4 4s-4-2-6-4-4-4-4-6 2-2 4-4-4-8-6-8-6 6-6 6c0 4 4.109 12.109 8 16s12 8 16 8c0 0 6-4 6-6s-6-8-8-6z"/></symbol><symbol viewBox="0 0 32 32" id="phone-hang-up" xmlns="http://www.w3.org/2000/svg"><path fill="#444" d="M31.793 18c.25 1.734.413 4.106-.364 5.014-1.286 1.501-9.428 1.501-9.428-1.501 0-1.512 1.339-2.504.053-4.006-1.265-1.477-3.532-1.501-6.054-1.501s-4.789.024-6.054 1.501C8.66 19.008 10 20 10 21.513c0 3.003-8.143 3.003-9.429 1.501-.777-.908-.615-3.28-.364-5.014.193-1.157.679-2.406 2.236-4 2.336-2.179 5.87-3.961 13.432-3.999V10h.25v.001c7.562.038 11.096 1.82 13.432 3.999 1.557 1.594 2.043 2.842 2.236 4z"/></symbol><symbol viewBox="0 0 32 32" id="pie-chart" xmlns="http://www.w3.org/2000/svg"><path fill="#444" d="M14 18V4C6.268 4 0 10.268 0 18s6.268 14 14 14 14-6.268 14-14a13.94 13.94 0 0 0-1.476-6.262L14 18zM28.524 7.738C26.225 3.15 21.481 0 16 0v14l12.524-6.262z"/></symbol><symbol viewBox="0 0 31 32" id="pin" xmlns="http://www.w3.org/2000/svg"><path fill="#444" d="M16.792 11.106l-5.909-5.349 2.121-2.121-2.52-2.022-8.873 8.873 2.022 2.52 2.121-2.121 5.413 5.98c-3.081 4.722.937 9.625.937 9.625l6.435-6.435 8.517 8.517 2.46.946-.946-2.46-8.517-8.517 6.435-6.435S21.097 8 16.792 11.106z"/></symbol><symbol viewBox="0 0 32 32" id="play2" xmlns="http://www.w3.org/2000/svg"><path fill="#444" d="M16 0C7.163 0 0 7.163 0 16s7.163 16 16 16 16-7.163 16-16S24.837 0 16 0zm0 29C8.82 29 3 23.18 3 16S8.82 3 16 3s13 5.82 13 13-5.82 13-13 13zM12 9l12 7-12 7z"/></symbol><symbol viewBox="0 0 32 32" id="play3" xmlns="http://www.w3.org/2000/svg"><path fill="#444" d="M6 4l20 12L6 28z"/></symbol><symbol viewBox="0 0 32 32" id="plus" xmlns="http://www.w3.org/2000/svg"><path fill="#444" d="M31 12H20V1a1 1 0 0 0-1-1h-6a1 1 0 0 0-1 1v11H1a1 1 0 0 0-1 1v6a1 1 0 0 0 1 1h11v11a1 1 0 0 0 1 1h6a1 1 0 0 0 1-1V20h11a1 1 0 0 0 1-1v-6a1 1 0 0 0-1-1z"/></symbol><symbol viewBox="0 0 32 32" id="previous" xmlns="http://www.w3.org/2000/svg"><path fill="#444" d="M16 0C7.163 0 0 7.163 0 16s7.163 16 16 16 16-7.163 16-16S24.837 0 16 0zm0 29C8.82 29 3 23.18 3 16S8.82 3 16 3s13 5.82 13 13-5.82 13-13 13z"/><path fill="#444" d="M14 16l8-6v12zM10 10h4v12h-4V10z"/></symbol><symbol viewBox="0 0 32 32" id="previous2" xmlns="http://www.w3.org/2000/svg"><path fill="#444" d="M8 28V4h4v11L22 5v22L12 17v11z"/></symbol><symbol viewBox="0 0 30 32" id="print" xmlns="http://www.w3.org/2000/svg"><path fill="#444" d="M6.857 27.429h16v-4.571h-16v4.571zm0-11.429h16V9.143H20q-.714 0-1.214-.5t-.5-1.214V4.572H6.857v11.429zm20.572 1.143q0-.464-.339-.804T26.286 16t-.804.339-.339.804.339.804.804.339.804-.339.339-.804zm2.285 0v7.429q0 .232-.17.402t-.402.17h-4v2.857q0 .714-.5 1.214t-1.214.5H6.285q-.714 0-1.214-.5t-.5-1.214v-2.857h-4q-.232 0-.402-.17t-.17-.402v-7.429q0-1.411 1.009-2.42t2.42-1.009h1.143V4q0-.714.5-1.214t1.214-.5h12q.714 0 1.571.357t1.357.857l2.714 2.714q.5.5.857 1.357t.357 1.571v4.571h1.143q1.411 0 2.42 1.009t1.009 2.42z"/></symbol><symbol viewBox="0 0 32 32" id="profile" xmlns="http://www.w3.org/2000/svg"><path fill="#444" d="M22.464 19.733c-2.398-.526-3.741-1.534-4.077-3.728 1.458-.942 2.439-2.713 2.439-4.713 0-2.998-2.201-5.441-4.916-5.441s-4.916 2.424-4.916 5.422c0 2 .98 3.743 2.438 4.684-.337 2.194-1.679 3.251-4.077 3.777C4.097 21.1 3.21 27.038 3.21 27.038h25.4s-.888-5.94-6.145-7.306z"/></symbol><symbol viewBox="0 0 32 32" id="question" xmlns="http://www.w3.org/2000/svg"><path fill="#444" d="M14 22h4v4h-4zm8-14a2 2 0 0 1 2 2v6l-6 4h-4v-2l6-4v-2H10V8h12zm-6-5c-3.472 0-6.737 1.352-9.192 3.808S3 12.528 3 16c0 3.472 1.352 6.737 3.808 9.192S12.528 29 16 29c3.472 0 6.737-1.352 9.192-3.808S29 19.472 29 16c0-3.472-1.352-6.737-3.808-9.192S19.472 3 16 3zm0-3c8.837 0 16 7.163 16 16s-7.163 16-16 16S0 24.837 0 16 7.163 0 16 0z"/></symbol><symbol viewBox="0 0 18 32" id="question2" xmlns="http://www.w3.org/2000/svg"><path fill="#444" d="M12.571 22.429v4.286q0 .286-.214.5t-.5.214H7.571q-.286 0-.5-.214t-.214-.5v-4.286q0-.286.214-.5t.5-.214h4.286q.286 0 .5.214t.214.5zm5.643-10.715q0 .964-.277 1.804t-.625 1.366-.982 1.063-1.027.777-1.089.634q-.732.411-1.223 1.161t-.491 1.196q0 .304-.214.58t-.5.277H7.5q-.268 0-.455-.33t-.188-.67v-.804q0-1.482 1.161-2.795t2.554-1.938q1.054-.482 1.5-1t.446-1.357q0-.75-.83-1.321t-1.92-.571q-1.161 0-1.929.518-.625.446-1.911 2.054-.232.286-.554.286-.214 0-.446-.143l-2.929-2.232q-.232-.179-.277-.446t.098-.5q2.857-4.75 8.286-4.75 1.429 0 2.875.554t2.607 1.482 1.893 2.277.732 2.83z"/></symbol><symbol viewBox="0 0 31 32" id="reading2" xmlns="http://www.w3.org/2000/svg"><path fill="#444" d="M5.065 9.714h8.031v1.853H5.065V9.714zM5.065 14.038h8.031v1.853H5.065v-1.853zM5.065 18.486h8.031v1.853H5.065v-1.853zM17.915 9.714h8.031v1.853h-8.031V9.714zM17.915 14.038h8.031v1.853h-8.031v-1.853zM17.915 18.486h8.031v1.853h-8.031v-1.853z"/><path fill="#444" d="M1.111 5.142v20.016h28.913V5.142H1.111zm1.854 18.163V6.995H14.95v16.31H2.965zm25.205 0H16.061V6.995H28.17v16.31z"/></symbol><symbol viewBox="0 0 32 32" id="redo" xmlns="http://www.w3.org/2000/svg"><path fill="#444" d="M0 18a15.96 15.96 0 0 0 5.417 12l2.646-3A11.973 11.973 0 0 1 4 18C4 11.373 9.373 6 16 6c3.314 0 6.314 1.343 8.485 3.515L20 14h12V2l-4.687 4.687A15.946 15.946 0 0 0 16 2C7.163 2 0 9.163 0 18z"/></symbol><symbol viewBox="0 0 32 32" id="redo2" xmlns="http://www.w3.org/2000/svg"><path fill="#444" d="M18 7.762V0l12 12-12 12v-7.932C4.039 15.74 4.638 25.561 8.192 32-.58 22.518 1.283 7.326 18 7.762z"/></symbol><symbol viewBox="0 0 32 32" id="reply" xmlns="http://www.w3.org/2000/svg"><path fill="#444" d="M14 24.238V32L2 20 14 8v7.932C27.961 16.259 27.362 6.439 23.808 0 32.58 9.482 30.717 24.674 14 24.238z"/></symbol><symbol viewBox="0 0 23 32" id="rouble" xmlns="http://www.w3.org/2000/svg"><path fill="#444" d="M18.625 10.089q0-1.786-1.161-2.893T14.41 6.089H8.696v8h5.714q1.893 0 3.054-1.107t1.161-2.893zm4.232 0q0 3.446-2.259 5.625t-5.83 2.179H8.697V20h9.018q.25 0 .411.161t.161.411v2.286q0 .25-.161.411t-.411.161H8.697v3.429q0 .25-.17.411t-.402.161H5.143q-.25 0-.411-.161t-.161-.411V23.43h-4q-.25 0-.411-.161t-.161-.411v-2.286q0-.25.161-.411T.571 20h4v-2.107h-4q-.25 0-.411-.161t-.161-.411V14.66q0-.232.161-.402t.411-.17h4V2.856q0-.25.161-.411t.411-.161h9.625q3.571 0 5.83 2.179t2.259 5.625z"/></symbol><symbol viewBox="0 0 30 32" id="search-minus" xmlns="http://www.w3.org/2000/svg"><path fill="#444" d="M18.286 14.286v1.143q0 .232-.17.402t-.402.17H7.428q-.232 0-.402-.17t-.17-.402v-1.143q0-.232.17-.402t.402-.17h10.286q.232 0 .402.17t.17.402zm2.285.571q0-3.304-2.348-5.652t-5.652-2.348-5.652 2.348-2.348 5.652 2.348 5.652 5.652 2.348 5.652-2.348 2.348-5.652zm9.143 14.857q0 .946-.67 1.616t-1.616.67q-.964 0-1.607-.679l-6.125-6.107q-3.196 2.214-7.125 2.214-2.554 0-4.884-.991t-4.018-2.679T.99 19.74t-.991-4.884.991-4.884 2.679-4.018 4.018-2.679 4.884-.991 4.884.991 4.018 2.679 2.679 4.018.991 4.884q0 3.929-2.214 7.125l6.125 6.125q.661.661.661 1.607z"/></symbol><symbol viewBox="0 0 30 32" id="search-plus" xmlns="http://www.w3.org/2000/svg"><path fill="#444" d="M18.286 14.286v1.143q0 .232-.17.402t-.402.17h-4v4q0 .232-.17.402t-.402.17h-1.143q-.232 0-.402-.17t-.17-.402v-4h-4q-.232 0-.402-.17t-.17-.402v-1.143q0-.232.17-.402t.402-.17h4v-4q0-.232.17-.402t.402-.17h1.143q.232 0 .402.17t.17.402v4h4q.232 0 .402.17t.17.402zm2.285.571q0-3.304-2.348-5.652t-5.652-2.348-5.652 2.348-2.348 5.652 2.348 5.652 5.652 2.348 5.652-2.348 2.348-5.652zm9.143 14.857q0 .946-.67 1.616t-1.616.67q-.964 0-1.607-.679l-6.125-6.107q-3.196 2.214-7.125 2.214-2.554 0-4.884-.991t-4.018-2.679T.99 19.74t-.991-4.884.991-4.884 2.679-4.018 4.018-2.679 4.884-.991 4.884.991 4.018 2.679 2.679 4.018.991 4.884q0 3.929-2.214 7.125l6.125 6.125q.661.661.661 1.607z"/></symbol><symbol viewBox="0 0 30 32" id="search2" xmlns="http://www.w3.org/2000/svg"><path fill="#444" d="M20.571 14.857q0-3.304-2.348-5.652t-5.652-2.348-5.652 2.348-2.348 5.652 2.348 5.652 5.652 2.348 5.652-2.348 2.348-5.652zm9.143 14.857q0 .929-.679 1.607T27.428 32q-.964 0-1.607-.679l-6.125-6.107q-3.196 2.214-7.125 2.214-2.554 0-4.884-.991t-4.018-2.679T.99 19.74t-.991-4.884.991-4.884 2.679-4.018 4.018-2.679 4.884-.991 4.884.991 4.018 2.679 2.679 4.018.991 4.884q0 3.929-2.214 7.125l6.125 6.125q.661.661.661 1.607z"/></symbol><symbol viewBox="0 0 32 32" id="shrink" xmlns="http://www.w3.org/2000/svg"><path fill="#444" d="M18 14h13l-5-5 6-6-3-3-6 6-5-5zM18 18v13l5-5 6 6 3-3-6-6 5-5zM14 18H1l5 5-6 6 3 3 6-6 5 5zM14 14V1L9 6 3 0 0 3l6 6-5 5z"/></symbol><symbol viewBox="0 0 32 32" id="shrink2" xmlns="http://www.w3.org/2000/svg"><path fill="#444" d="M14 18v13l-5-5-6 6-3-3 6-6-5-5zM32 3l-6 6 5 5H18V1l5 5 6-6z"/></symbol><symbol viewBox="0 0 27 32" id="sign-in" xmlns="http://www.w3.org/2000/svg"><path fill="#444" d="M21.143 16q0 .464-.339.804l-9.714 9.714q-.339.339-.804.339t-.804-.339-.339-.804v-5.143h-8q-.464 0-.804-.339T0 19.428v-6.857q0-.464.339-.804t.804-.339h8V6.285q0-.464.339-.804t.804-.339.804.339l9.714 9.714q.339.339.339.804zm6.286-6.286v12.571q0 2.125-1.509 3.634t-3.634 1.509h-5.714q-.232 0-.402-.17t-.17-.402q0-.071-.018-.357t-.009-.473.054-.42.179-.348.366-.116h5.714q1.179 0 2.018-.839t.839-2.018V9.714q0-1.179-.839-2.018t-2.018-.839h-5.571l-.205-.018-.205-.054-.143-.098-.125-.161-.036-.241q0-.071-.018-.357t-.009-.473.054-.42.179-.348.366-.116h5.714q2.125 0 3.634 1.509t1.509 3.634z"/></symbol><symbol viewBox="0 0 32 32" id="spinner2" xmlns="http://www.w3.org/2000/svg"><path fill="#444" d="M31.522 16.5a15.832 15.832 0 0 0-4.864-11.137 15.717 15.717 0 0 0-5.156-3.302A15.512 15.512 0 0 0 15.521 1 15.335 15.335 0 0 0 4.738 5.716a15.23 15.23 0 0 0-3.193 4.994A15.027 15.027 0 0 0 .522 16.5a14.92 14.92 0 0 0 1.254 5.694 14.84 14.84 0 0 0 3.316 4.736 14.708 14.708 0 0 0 4.832 3.085 14.534 14.534 0 0 0 5.598.985c1.897-.04 3.78-.455 5.502-1.216a14.346 14.346 0 0 0 4.574-3.208 14.213 14.213 0 0 0 2.977-4.67c.407-1.046.684-2.137.829-3.244a2 2 0 0 0 2.111-2.163h.007zm-3.178 5.311c-.733 1.663-1.796 3.169-3.099 4.412s-2.844 2.225-4.508 2.868a13.536 13.536 0 0 1-5.215.909 13.328 13.328 0 0 1-9.369-4.131 13.246 13.246 0 0 1-2.76-4.346 13.048 13.048 0 0 1 .231-9.952c.683-1.541 1.672-2.937 2.883-4.088s2.642-2.058 4.184-2.652a12.539 12.539 0 0 1 9.568.231c1.48.658 2.82 1.609 3.926 2.774s1.975 2.54 2.543 4.021c.57 1.481.837 3.064.794 4.641h.007a2 2 0 0 0 1.777 2.155 13.829 13.829 0 0 1-.962 3.156z"/></symbol><symbol viewBox="0 0 27 32" id="spotify" xmlns="http://www.w3.org/2000/svg"><path fill="#444" d="M20.125 21.607q0-.571-.536-.911-3.446-2.054-7.982-2.054-2.375 0-5.125.607-.75.161-.75.929 0 .357.241.616t.634.259q.089 0 .661-.143 2.357-.482 4.339-.482 4.036 0 7.089 1.839.339.196.589.196.339 0 .589-.241t.25-.616zm1.714-3.839q0-.714-.625-1.089-4.232-2.518-9.786-2.518-2.732 0-5.411.75-.857.232-.857 1.143 0 .446.313.759t.759.313q.125 0 .661-.143 2.179-.589 4.482-.589 4.982 0 8.714 2.214.429.232.679.232.446 0 .759-.313t.313-.759zm1.929-4.429q0-.839-.714-1.25-2.25-1.304-5.232-1.973t-6.125-.67q-3.643 0-6.5.839-.411.125-.688.455t-.277.866q0 .554.366.929t.92.375q.196 0 .714-.143 2.375-.661 5.482-.661 2.839 0 5.527.607t4.527 1.696q.375.214.714.214.518 0 .902-.366t.384-.92zM27.429 16q0 3.732-1.839 6.884t-4.991 4.991-6.884 1.839-6.884-1.839-4.991-4.991T.001 16 1.84 9.116t4.991-4.991 6.884-1.839 6.884 1.839 4.991 4.991T27.429 16z"/></symbol><symbol viewBox="0 0 32 32" id="stack" xmlns="http://www.w3.org/2000/svg"><path fill="#444" d="M32 10L16 2 0 10l16 8 16-8zM16 4.655L26.689 10 16 15.345 5.311 10 16 4.655zm12.795 9.743L32 16l-16 8-16-8 3.205-1.602L16 20.796zm0 6L32 22l-16 8-16-8 3.205-1.602L16 26.796z"/></symbol><symbol viewBox="0 0 30 32" id="star" xmlns="http://www.w3.org/2000/svg"><path fill="#444" d="M29.714 11.554q0 .393-.464.857l-6.482 6.321 1.536 8.929q.018.125.018.357 0 .375-.188.634t-.545.259q-.339 0-.714-.214l-8.018-4.214-8.018 4.214q-.393.214-.714.214-.375 0-.563-.259t-.188-.634q0-.107.036-.357l1.536-8.929-6.5-6.321Q0 11.929 0 11.554q0-.661 1-.821l8.964-1.304 4.018-8.125q.339-.732.875-.732t.875.732l4.018 8.125 8.964 1.304q1 .161 1 .821z"/></symbol><symbol viewBox="0 0 32 32" id="star-full" xmlns="http://www.w3.org/2000/svg"><path fill="#444" d="M32 12.408l-11.056-1.607L16 .783l-4.944 10.018L0 12.408l8 7.798-1.889 11.011L16 26.018l9.889 5.199L24 20.206l8-7.798z"/></symbol><symbol viewBox="0 0 32 32" id="star-half" xmlns="http://www.w3.org/2000/svg"><path fill="#444" d="M32 12.408l-11.056-1.607L16 .783l-4.944 10.018L0 12.408l8 7.798-1.889 11.011L16 26.018l9.889 5.199L24 20.206l8-7.798zM16 23.547l-.029.015L16 5.725l3.492 7.075 7.807 1.134-5.65 5.507 1.334 7.776L16 23.546z"/></symbol><symbol viewBox="0 0 32 32" id="stats-bars" xmlns="http://www.w3.org/2000/svg"><path fill="#444" d="M0 26h32v4H0zm4-8h4v6H4zm6-8h4v14h-4zm6 6h4v8h-4zm6-12h4v20h-4z"/></symbol><symbol viewBox="0 0 32 32" id="stats-bars2" xmlns="http://www.w3.org/2000/svg"><path fill="#444" d="M9 12H3c-.55 0-1 .45-1 1v18c0 .55.45 1 1 1h6c.55 0 1-.45 1-1V13c0-.55-.45-1-1-1zm0 18H3v-8h6v8zM19 8h-6c-.55 0-1 .45-1 1v22c0 .55.45 1 1 1h6c.55 0 1-.45 1-1V9c0-.55-.45-1-1-1zm0 22h-6V20h6v10zM29 4h-6c-.55 0-1 .45-1 1v26c0 .55.45 1 1 1h6c.55 0 1-.45 1-1V5c0-.55-.45-1-1-1zm0 26h-6V18h6v12z"/></symbol><symbol viewBox="0 0 32 32" id="stats-dots" xmlns="http://www.w3.org/2000/svg"><path fill="#444" d="M4 28h28v4H0V0h4zm5-2a3 3 0 1 1 .262-5.988l3.225-5.375a3 3 0 1 1 5.026 0l3.225 5.375a3.238 3.238 0 0 1 .46-.005l5.324-9.316a3 3 0 1 1 2.28 1.302l-5.324 9.316a3 3 0 1 1-4.991.053l-3.225-5.375c-.086.007-.174.012-.262.012s-.176-.005-.262-.012l-3.225 5.375A3 3 0 0 1 9 25.999z"/></symbol><symbol viewBox="0 0 32 32" id="stop" xmlns="http://www.w3.org/2000/svg"><path fill="#444" d="M16 0C7.163 0 0 7.163 0 16s7.163 16 16 16 16-7.163 16-16S24.837 0 16 0zm0 29C8.82 29 3 23.18 3 16S8.82 3 16 3s13 5.82 13 13-5.82 13-13 13zm-6-19h12v12H10z"/></symbol><symbol viewBox="0 0 32 32" id="stop2" xmlns="http://www.w3.org/2000/svg"><path fill="#444" d="M4 4h24v24H4z"/></symbol><symbol viewBox="0 0 32 32" id="target" xmlns="http://www.w3.org/2000/svg"><path fill="#444" d="M16.33 5.089c6.041 0 10.955 4.915 10.955 10.955S22.37 26.999 16.33 26.999 5.375 22.084 5.375 16.044 10.29 5.089 16.33 5.089zm0-4.149C7.989.94 1.226 7.702 1.226 16.044S7.988 31.148 16.33 31.148c8.342 0 15.104-6.762 15.104-15.104S24.672.94 16.33.94z"/><path fill="#444" d="M22.997 16.044a6.667 6.667 0 1 1-13.334 0 6.667 6.667 0 0 1 13.334 0z"/></symbol><symbol viewBox="0 0 32 32" id="th" xmlns="http://www.w3.org/2000/svg"><path fill="#444" d="M9.143 22.286v3.429q0 .714-.5 1.214t-1.214.5H1.715q-.714 0-1.214-.5t-.5-1.214v-3.429q0-.714.5-1.214t1.214-.5h5.714q.714 0 1.214.5t.5 1.214zm0-9.143v3.429q0 .714-.5 1.214t-1.214.5H1.715q-.714 0-1.214-.5t-.5-1.214v-3.429q0-.714.5-1.214t1.214-.5h5.714q.714 0 1.214.5t.5 1.214zm11.428 9.143v3.429q0 .714-.5 1.214t-1.214.5h-5.714q-.714 0-1.214-.5t-.5-1.214v-3.429q0-.714.5-1.214t1.214-.5h5.714q.714 0 1.214.5t.5 1.214zM9.143 4v3.429q0 .714-.5 1.214t-1.214.5H1.715q-.714 0-1.214-.5t-.5-1.214V4q0-.714.5-1.214t1.214-.5h5.714q.714 0 1.214.5T9.143 4zm11.428 9.143v3.429q0 .714-.5 1.214t-1.214.5h-5.714q-.714 0-1.214-.5t-.5-1.214v-3.429q0-.714.5-1.214t1.214-.5h5.714q.714 0 1.214.5t.5 1.214zM32 22.286v3.429q0 .714-.5 1.214t-1.214.5h-5.714q-.714 0-1.214-.5t-.5-1.214v-3.429q0-.714.5-1.214t1.214-.5h5.714q.714 0 1.214.5t.5 1.214zM20.571 4v3.429q0 .714-.5 1.214t-1.214.5h-5.714q-.714 0-1.214-.5t-.5-1.214V4q0-.714.5-1.214t1.214-.5h5.714q.714 0 1.214.5t.5 1.214zM32 13.143v3.429q0 .714-.5 1.214t-1.214.5h-5.714q-.714 0-1.214-.5t-.5-1.214v-3.429q0-.714.5-1.214t1.214-.5h5.714q.714 0 1.214.5t.5 1.214zM32 4v3.429q0 .714-.5 1.214t-1.214.5h-5.714q-.714 0-1.214-.5t-.5-1.214V4q0-.714.5-1.214t1.214-.5h5.714q.714 0 1.214.5T32 4z"/></symbol><symbol viewBox="0 0 32 32" id="th-list" xmlns="http://www.w3.org/2000/svg"><path fill="#444" d="M9.143 22.286v3.429q0 .714-.5 1.214t-1.214.5H1.715q-.714 0-1.214-.5t-.5-1.214v-3.429q0-.714.5-1.214t1.214-.5h5.714q.714 0 1.214.5t.5 1.214zm0-9.143v3.429q0 .714-.5 1.214t-1.214.5H1.715q-.714 0-1.214-.5t-.5-1.214v-3.429q0-.714.5-1.214t1.214-.5h5.714q.714 0 1.214.5t.5 1.214zM32 22.286v3.429q0 .714-.5 1.214t-1.214.5H13.143q-.714 0-1.214-.5t-.5-1.214v-3.429q0-.714.5-1.214t1.214-.5h17.143q.714 0 1.214.5t.5 1.214zM9.143 4v3.429q0 .714-.5 1.214t-1.214.5H1.715q-.714 0-1.214-.5t-.5-1.214V4q0-.714.5-1.214t1.214-.5h5.714q.714 0 1.214.5T9.143 4zM32 13.143v3.429q0 .714-.5 1.214t-1.214.5H13.143q-.714 0-1.214-.5t-.5-1.214v-3.429q0-.714.5-1.214t1.214-.5h17.143q.714 0 1.214.5t.5 1.214zM32 4v3.429q0 .714-.5 1.214t-1.214.5H13.143q-.714 0-1.214-.5t-.5-1.214V4q0-.714.5-1.214t1.214-.5h17.143q.714 0 1.214.5T32 4z"/></symbol><symbol viewBox="0 0 27 32" id="thumbs-o-down" xmlns="http://www.w3.org/2000/svg"><path fill="#444" d="M4.571 8q0-.464-.339-.804t-.804-.339-.804.339T2.285 8t.339.804.804.339.804-.339T4.571 8zm20.572 10.286q0-.625-.384-1.446t-.955-.839q.268-.304.446-.848t.179-.991q0-1.232-.946-2.125.321-.571.321-1.232t-.313-1.313-.848-.938q.089-.536.089-1 0-1.518-.875-2.25t-2.429-.732h-2.286q-2.339 0-6.107 1.304-.089.036-.518.188t-.634.223-.625.205-.679.196-.589.116-.563.054h-.571v11.429h.571q.286 0 .634.161t.714.482.688.634.714.786.616.759.563.732.411.536q.982 1.214 1.375 1.625.732.768 1.063 1.955t.545 2.241.679 1.518q1.714 0 2.286-.839t.571-2.589q0-1.054-.857-2.866t-.857-2.848h6.286q.893 0 1.589-.688t.696-1.598zm2.286.018q0 1.839-1.357 3.196t-3.214 1.357h-3.143q.857 1.768.857 3.429 0 2.107-.625 3.321-.625 1.232-1.821 1.813T15.43 32q-.911 0-1.607-.661-.607-.589-.964-1.464t-.455-1.616-.313-1.509-.554-1.143q-.857-.893-1.911-2.268Q7.822 21 7.18 20.571H2.287q-.946 0-1.616-.67t-.67-1.616V6.856q0-.946.67-1.616t1.616-.67H7.43q.393 0 2.464-.714 2.286-.786 3.982-1.179t3.571-.393h2q2.5 0 4.045 1.411t1.527 3.857v.089q1.071 1.375 1.071 3.179 0 .393-.054.768.679 1.196.679 2.571 0 .643-.161 1.232.875 1.321.875 2.911z"/></symbol><symbol viewBox="0 0 27 32" id="thumbs-o-up" xmlns="http://www.w3.org/2000/svg"><path fill="#444" d="M4.571 24q0-.464-.339-.804t-.804-.339-.804.339-.339.804.339.804.804.339.804-.339.339-.804zm20.572-10.286q0-.911-.696-1.598t-1.589-.688h-6.286q0-1.036.857-2.848t.857-2.866q0-1.75-.571-2.589t-2.286-.839q-.464.464-.679 1.518t-.545 2.241T13.142 8q-.393.411-1.375 1.625-.071.089-.411.536t-.563.732-.616.759-.714.786-.688.634-.714.482-.634.161h-.571v11.429h.571q.232 0 .563.054t.589.116.679.196.625.205.634.223.518.188q3.768 1.304 6.107 1.304h2.161q3.429 0 3.429-2.982 0-.464-.089-1 .536-.286.848-.938t.313-1.313-.321-1.232q.946-.893.946-2.125 0-.446-.179-.991t-.446-.848q.571-.018.955-.839t.384-1.446zm2.286-.018q0 1.589-.875 2.911.161.589.161 1.232 0 1.375-.679 2.571.054.375.054.768 0 1.804-1.071 3.179.018 2.482-1.518 3.92t-4.054 1.438h-2.304q-1.714 0-3.384-.402t-3.866-1.17q-2.071-.714-2.464-.714H2.286q-.946 0-1.616-.67T0 25.143V13.714q0-.946.67-1.616t1.616-.67h4.893q.643-.429 2.446-2.768 1.036-1.339 1.911-2.286.429-.446.634-1.527t.545-2.259T13.822.659q.696-.661 1.607-.661 1.5 0 2.696.58t1.821 1.813.625 3.321q0 1.661-.857 3.429h3.143q1.857 0 3.214 1.357t1.357 3.196z"/></symbol><symbol viewBox="0 0 31 32" id="timed" xmlns="http://www.w3.org/2000/svg"><path fill="#444" d="M17.199 2.762c-6.957 0-12.596 5.677-12.596 12.596H.536l5.055 5.055 5.054-5.054H6.456c0-5.555 4.228-10.128 9.631-10.685v2.901h2.224V4.674c5.038.52 9.053 4.536 9.574 9.573h-2.901v2.224h2.901c-.52 5.038-4.536 9.053-9.574 9.574v-2.902h-2.224v4.763c.366.032.737.049 1.112.049 6.957 0 12.596-5.639 12.596-12.596S24.155 2.763 17.199 2.763z"/><path fill="#444" d="M16.087 9.921v5.9l5.858 5.855 1.573-1.573-5.207-5.207V9.92z"/></symbol><symbol viewBox="0 0 32 32" id="timer" xmlns="http://www.w3.org/2000/svg"><path fill="#444" d="M16 6.213c5.691 0 10.32 4.629 10.32 10.32S21.691 26.853 16 26.853s-10.32-4.63-10.32-10.32c0-5.691 4.629-10.32 10.32-10.32zm0-2.16c-6.892 0-12.48 5.588-12.48 12.48S9.108 29.013 16 29.013s12.48-5.588 12.48-12.48S22.892 4.053 16 4.053z"/><path fill="#444" d="M14.161.533h3.679v3.679h-3.679V.533zM24.712 5.22l2.601 2.601-1.301 1.301-2.601-2.601 1.301-1.301zM22.248 22.794A8.76 8.76 0 0 0 16 7.896v8.638l6.248 6.26z"/></symbol><symbol viewBox="0 0 25 32" id="trash-o" xmlns="http://www.w3.org/2000/svg"><path fill="#444" d="M9.143 13.143v10.286q0 .25-.161.411t-.411.161H7.428q-.25 0-.411-.161t-.161-.411V13.143q0-.25.161-.411t.411-.161h1.143q.25 0 .411.161t.161.411zm4.571 0v10.286q0 .25-.161.411t-.411.161h-1.143q-.25 0-.411-.161t-.161-.411V13.143q0-.25.161-.411t.411-.161h1.143q.25 0 .411.161t.161.411zm4.572 0v10.286q0 .25-.161.411t-.411.161h-1.143q-.25 0-.411-.161t-.161-.411V13.143q0-.25.161-.411t.411-.161h1.143q.25 0 .411.161t.161.411zm2.285 12.928V9.142h-16v16.929q0 .393.125.723t.259.482.188.152H20q.054 0 .188-.152t.259-.482.125-.723zm-12-19.214h8l-.857-2.089q-.125-.161-.304-.196H9.749q-.179.036-.304.196zm16.572.572v1.143q0 .25-.161.411t-.411.161h-1.714v16.929q0 1.482-.839 2.563T20 29.716H5.143q-1.179 0-2.018-1.045t-.839-2.527v-17H.572q-.25 0-.411-.161T0 8.572V7.429q0-.25.161-.411t.411-.161H6.09l1.25-2.982q.268-.661.964-1.125t1.411-.464h5.714q.714 0 1.411.464t.964 1.125l1.25 2.982h5.518q.25 0 .411.161t.161.411z"/></symbol><symbol viewBox="0 0 32 32" id="truck" xmlns="http://www.w3.org/2000/svg"><path fill="#444" d="M32 18l-4-8h-6V6c0-1.1-.9-2-2-2H2C.9 4 0 4.9 0 6v16l2 2h2.536a4 4 0 1 0 6.928 0h11.073a4 4 0 1 0 6.926 0H32v-6zm-10 0v-6h4.146l3 6H22z"/></symbol><symbol viewBox="0 0 32 32" id="undo" xmlns="http://www.w3.org/2000/svg"><path fill="#444" d="M16 2A15.946 15.946 0 0 0 4.687 6.687L.001 2v12h12L7.516 9.515A11.962 11.962 0 0 1 16.001 6c6.627 0 12 5.373 12 12 0 3.584-1.572 6.801-4.063 9l2.646 3a15.96 15.96 0 0 0 5.417-12c0-8.837-7.163-16-16-16z"/></symbol><symbol viewBox="0 0 32 32" id="undo2" xmlns="http://www.w3.org/2000/svg"><path fill="#444" d="M23.808 32c3.554-6.439 4.153-16.26-9.808-15.932V24L2 12 14 0v7.762C30.718 7.326 32.58 22.519 23.808 32z"/></symbol><symbol viewBox="0 0 30 32" id="unlock" xmlns="http://www.w3.org/2000/svg"><path fill="#444" d="M29.714 10.286v4.571q0 .464-.339.804t-.804.339h-1.143q-.464 0-.804-.339t-.339-.804v-4.571q0-1.893-1.339-3.232t-3.232-1.339-3.232 1.339-1.339 3.232v3.429h1.714q.714 0 1.214.5t.5 1.214v10.286q0 .714-.5 1.214t-1.214.5H1.714q-.714 0-1.214-.5T0 25.715V15.429q0-.714.5-1.214t1.214-.5h12v-3.429q0-3.304 2.348-5.652t5.652-2.348 5.652 2.348 2.348 5.652z"/></symbol><symbol viewBox="0 0 32 32" id="unlocked" xmlns="http://www.w3.org/2000/svg"><path fill="#444" d="M24 2c3.308 0 6 2.692 6 6v6h-4V8c0-1.103-.897-2-2-2h-4c-1.103 0-2 .897-2 2v6h.5c.825 0 1.5.675 1.5 1.5v15c0 .825-.675 1.5-1.5 1.5h-17C.675 32 0 31.325 0 30.5v-15c0-.825.675-1.5 1.5-1.5H14V8c0-3.308 2.692-6 6-6h4z"/></symbol><symbol viewBox="0 0 32 32" id="upload2" xmlns="http://www.w3.org/2000/svg"><path fill="#444" d="M0 28h32v2H0zm32-4v2H0v-2l4-8h8v4h8v-4h8zM7 10l9-9 9 9h-7v8h-4v-8z"/></symbol><symbol viewBox="0 0 31 32" id="video" xmlns="http://www.w3.org/2000/svg"><path fill="#444" d="M15.568 4.656c5.924 0 10.743 4.819 10.743 10.743s-4.819 10.743-10.743 10.743S4.825 21.323 4.825 15.399 9.644 4.656 15.568 4.656zm0-1.853c-6.957 0-12.596 5.64-12.596 12.596s5.64 12.596 12.596 12.596c6.957 0 12.596-5.639 12.596-12.596S22.524 2.803 15.568 2.803z"/><path fill="#444" d="M10.872 9.221l10.7 6.178-10.7 6.178z"/></symbol><symbol viewBox="0 0 32 32" id="warning" xmlns="http://www.w3.org/2000/svg"><path fill="#444" d="M16 2.899l13.409 26.726H2.59L15.999 2.899zM16 0c-.69 0-1.379.465-1.903 1.395L.438 28.617C-.608 30.477.282 32 2.416 32h27.166c2.134 0 3.025-1.522 1.978-3.383L17.901 1.395C17.378.465 16.688 0 15.998 0z"/><path fill="#444" d="M18 26a2 2 0 1 1-3.999.001A2 2 0 0 1 18 26zM16 22a2 2 0 0 1-2-2v-6a2 2 0 1 1 4 0v6a2 2 0 0 1-2 2z"/></symbol><symbol viewBox="0 0 32 32" id="windows8" xmlns="http://www.w3.org/2000/svg"><path fill="#444" d="M.011 16L0 6.248l12-1.63V16zM14 4.328L29.996 2v14H14zM30 18l-.004 14L14 29.75V18zM12 29.495L.01 27.851.009 18H12z"/></symbol><symbol viewBox="0 0 32 32" id="wrench" xmlns="http://www.w3.org/2000/svg"><path fill="#444" d="M15.31 17.454a10.459 10.459 0 0 1-2.059-2.915L2.876 24.914a2.782 2.782 0 0 0 0 3.935l.984.984a2.782 2.782 0 0 0 3.935 0l10.356-10.357a10.486 10.486 0 0 1-2.841-2.023zm-9.701 9.647a1.545 1.545 0 1 1 2.184-2.186 1.545 1.545 0 0 1-2.184 2.186z"/><path fill="#444" d="M30.752 10.289l-5.971 3.784a2.783 2.783 0 0 1-3.84-.861l-.745-1.175a2.783 2.783 0 0 1 .861-3.84l6.669-4.226a8.31 8.31 0 1 0 3.025 6.318z"/></symbol><symbol viewBox="0 0 30 32" id="wrench3" xmlns="http://www.w3.org/2000/svg"><path fill="#444" d="M6.857 26.286q0-.464-.339-.804t-.804-.339-.804.339-.339.804.339.804.804.339.804-.339.339-.804zm11.5-7.5L6.178 30.965q-.661.661-1.607.661-.929 0-1.625-.661l-1.893-1.929q-.679-.643-.679-1.607 0-.946.679-1.625l12.161-12.161q.696 1.75 2.045 3.098t3.098 2.045zm11.322-7.768q0 .696-.411 1.893-.839 2.393-2.938 3.884t-4.616 1.491q-3.304 0-5.652-2.348t-2.348-5.652 2.348-5.652 5.652-2.348q1.036 0 2.17.295t1.92.83q.286.196.286.5t-.286.5l-5.232 3.018v4l3.446 1.911 1.411-.866q1.322-.812 2.42-1.446t1.259-.634q.268 0 .42.179t.152.446z"/></symbol></svg>