<?xml version="1.0" encoding="utf-8"?>
<!-- Generated by IcoMoon.io -->
<!DOCTYPE svg PUBLIC "-//W3C//DTD SVG 1.1//EN" "http://www.w3.org/Graphics/SVG/1.1/DTD/svg11.dtd">
<svg version="1.1" xmlns="http://www.w3.org/2000/svg" xmlns:xlink="http://www.w3.org/1999/xlink" width="43" height="32" viewBox="0 0 43 32">
<path fill="#444" d="M29.043 24.786c-0.519-0.76 1.201 0.995 2.376 3.096 0.028-0.271 0.95 1.796 1.428 4.026l-32.847 0.11c-0.171 0.009 0.453-2.19 1.456-4.163-0.605 0.717 0.633-1.396 2.31-3.069 0.528-0.701 2.2-1.739 4.102-2.174 0.987-0.044 2.505-0.668 3.731-1.644 0.813-0.704 1.465-1.917 1.583-3.283-0.38-0.085-1.526-1.199-2.222-2.579-0.564-1.035-0.885-2.222-0.885-3.483 0-0.034 0-0.069 0.001-0.103-0.001-0.032-0.001-0.076-0.001-0.12 0-1.871 0.716-3.575 1.889-4.852 1.086-1.264 2.694-2.062 4.487-2.062s3.401 0.799 4.485 2.059c1.175 1.28 1.891 2.984 1.891 4.855 0 0.044-0 0.088-0.001 0.132 0 0.014 0 0.039 0 0.064 0 1.283-0.321 2.491-0.886 3.549-0.031 0.418-0.984 1.651-2.234 2.468 0.032 1.172 0.654 2.393 1.609 3.251 0.535 0.552 1.992 1.3 3.609 1.579 0.964 0.058 2.758 0.983 4.118 2.343z"></path>
<path fill="#444" d="M42.849 5.424c0.081 0.079 0.132 0.189 0.132 0.311 0 0.003-0 0.006-0 0.009v2.636c-0.010 0.235-0.198 0.423-0.432 0.433l-4.879 0v4.878c-0.010 0.235-0.198 0.423-0.432 0.433l-2.638 0c-0.235-0.010-0.423-0.198-0.433-0.432l-0-4.86h-4.859c-0.235-0.010-0.423-0.198-0.433-0.432l-0-2.751c0.010-0.235 0.198-0.423 0.432-0.433l4.86-0v-4.784c-0-0.003-0-0.006-0-0.009 0-0.113 0.043-0.215 0.113-0.292 0.079-0.081 0.189-0.132 0.311-0.132 0.003 0 0.006 0 0.009 0h2.655c0.003-0 0.006-0 0.009-0 0.122 0 0.232 0.051 0.311 0.132 0.059 0.074 0.095 0.168 0.095 0.271 0 0.011-0 0.021-0.001 0.032l0 4.858h4.859c0.003-0 0.006-0 0.009-0 0.122 0 0.232 0.051 0.311 0.132z"></path>
</svg>
