<?xml version="1.0" encoding="utf-8"?>
<!-- Generated by IcoMoon.io -->
<!DOCTYPE svg PUBLIC "-//W3C//DTD SVG 1.1//EN" "http://www.w3.org/Graphics/SVG/1.1/DTD/svg11.dtd">
<svg version="1.1" xmlns="http://www.w3.org/2000/svg" xmlns:xlink="http://www.w3.org/1999/xlink" width="32" height="32" viewBox="0 0 32 32">
<path fill="#444" d="M26.264 6.886v14.601c0 0.45-0.273 0.865-0.735 1.055l-9.079 3.65c0 0-0.178 0.047-0.225 0.047-0.095 0-0.142 0.047-0.225 0.047-0.095 0-0.142-0.047-0.225-0.047-0.047 0-0.225-0.047-0.225-0.047l-9.079-3.65c-0.45-0.178-0.735-0.593-0.735-1.055v-14.601c0-0.415 0.178-0.77 0.498-0.96 0.32-0.225 0.735-0.273 1.055-0.142l8.711 3.52 8.711-3.508c0.32-0.142 0.735-0.095 1.055 0.142 0.32 0.178 0.498 0.545 0.498 0.948zM14.862 11.129l-7.301-2.916v12.776l7.301 2.916v-12.776zM13.487 15.372l-4.563-1.825v-1.553l4.563 1.825v1.553zM13.487 20.124l-4.563-1.825v-1.553l4.563 1.825v1.553zM24.439 8.213l-7.301 2.916v12.776l7.301-2.916v-12.776zM23.076 13.547l-4.563 1.825v-1.553l4.563-1.825v1.553zM23.076 18.299l-4.563 1.825v-1.553l4.563-1.825v1.553z"></path>
</svg>
