<?xml version="1.0" encoding="utf-8"?>
<!-- Generated by IcoMoon.io -->
<!DOCTYPE svg PUBLIC "-//W3C//DTD SVG 1.1//EN" "http://www.w3.org/Graphics/SVG/1.1/DTD/svg11.dtd">
<svg version="1.1" xmlns="http://www.w3.org/2000/svg" xmlns:xlink="http://www.w3.org/1999/xlink" width="43" height="32" viewBox="0 0 43 32">
<path fill="#444" d="M17.469 10.566v-3.17h-11.774v17.66h11.774v-3.17h-8.604v-4.075h6.34v-3.17h-6.34v-4.075z"></path>
<path fill="#444" d="M34.674 18.717c-0.876 1.811-2.673 2.959-4.752 2.959-2.94 0-5.324-2.371-5.324-5.311s2.383-5.293 5.324-5.293c1.763 0 3.32 0.853 4.29 2.211h3.954c-1.268-3.17-4.476-5.711-8.244-5.711-4.877 0-8.83 3.941-8.83 8.818s3.953 8.799 8.83 8.799c4.048 0 7.451-2.849 8.494-6.472h-3.742z"></path>
</svg>
