<?xml version="1.0" encoding="utf-8"?>
<!-- Generated by IcoMoon.io -->
<!DOCTYPE svg PUBLIC "-//W3C//DTD SVG 1.1//EN" "http://www.w3.org/Graphics/SVG/1.1/DTD/svg11.dtd">
<svg version="1.1" xmlns="http://www.w3.org/2000/svg" xmlns:xlink="http://www.w3.org/1999/xlink" width="31" height="32" viewBox="0 0 31 32">
<path fill="#444" d="M29.867 3.793h-2.252v5.926h-6.4v-5.926h-10.667v5.926h-6.4v-5.926h-4.267v28.326h32v-28.326h-2.015zM29.748 29.985h-27.733v-18.133h27.733v18.133z"></path>
<path fill="#444" d="M5.215 0.119h4.267v8.533h-4.267v-8.533z"></path>
<path fill="#444" d="M4.148 13.985h4.267v3.2h-4.267v-3.2z"></path>
<path fill="#444" d="M10.548 13.985h4.267v3.2h-4.267v-3.2z"></path>
<path fill="#444" d="M16.948 13.985h4.267v3.2h-4.267v-3.2z"></path>
<path fill="#444" d="M23.348 13.985h4.267v3.2h-4.267v-3.2z"></path>
<path fill="#444" d="M4.148 19.319h4.267v3.2h-4.267v-3.2z"></path>
<path fill="#444" d="M10.548 19.319h4.267v3.2h-4.267v-3.2z"></path>
<path fill="#444" d="M16.948 19.319h4.267v3.2h-4.267v-3.2z"></path>
<path fill="#444" d="M23.348 19.319h4.267v3.2h-4.267v-3.2z"></path>
<path fill="#444" d="M4.148 24.652h4.267v3.2h-4.267v-3.2z"></path>
<path fill="#444" d="M10.548 24.652h4.267v3.2h-4.267v-3.2z"></path>
<path fill="#444" d="M16.948 24.652h4.267v3.2h-4.267v-3.2z"></path>
<path fill="#444" d="M23.348 24.652h4.267v3.2h-4.267v-3.2z"></path>
<path fill="#444" d="M22.281 0.119h4.267v8.533h-4.267v-8.533z"></path>
</svg>
