<?xml version="1.0" encoding="utf-8"?>
<!-- Generated by IcoMoon.io -->
<!DOCTYPE svg PUBLIC "-//W3C//DTD SVG 1.1//EN" "http://www.w3.org/Graphics/SVG/1.1/DTD/svg11.dtd">
<svg version="1.1" xmlns="http://www.w3.org/2000/svg" xmlns:xlink="http://www.w3.org/1999/xlink" width="31" height="32" viewBox="0 0 31 32">
<path fill="#fff" d="M23.347 17.112v-2.224h2.901c-0.52-5.037-4.536-9.053-9.574-9.573v2.901h-2.224v-2.901c-5.037 0.52-9.053 4.536-9.573 9.573h2.901v2.224h-2.901c0.52 5.037 4.536 9.053 9.573 9.574v-2.902h2.224v2.902c5.038-0.521 9.053-4.536 9.574-9.574h-2.901zM20.309 22.319l-5.858-5.855v-5.9h2.224v4.976l5.207 5.206-1.573 1.573z"></path>
<path fill="#414042" d="M15.563 3.404c-6.957 0-12.596 5.64-12.596 12.596s5.64 12.596 12.596 12.596c6.957 0 12.596-5.639 12.596-12.596s-5.64-12.596-12.596-12.596zM16.675 26.686v-2.902h-2.224v2.902c-5.037-0.521-9.053-4.536-9.573-9.574h2.901v-2.224h-2.901c0.52-5.037 4.536-9.053 9.573-9.573v2.901h2.224v-2.901c5.037 0.52 9.053 4.536 9.574 9.573h-2.901v2.224h2.901c-0.52 5.037-4.536 9.053-9.574 9.574z"></path>
<path fill="#414042" d="M16.675 10.563h-2.224v5.9l5.858 5.855 1.573-1.573-5.206-5.207z"></path>
</svg>
