<?xml version="1.0" encoding="utf-8"?>
<!-- Generated by IcoMoon.io -->
<!DOCTYPE svg PUBLIC "-//W3C//DTD SVG 1.1//EN" "http://www.w3.org/Graphics/SVG/1.1/DTD/svg11.dtd">
<svg version="1.1" xmlns="http://www.w3.org/2000/svg" xmlns:xlink="http://www.w3.org/1999/xlink" width="32" height="32" viewBox="0 0 32 32">
<path fill="#444" d="M16.33 5.089c6.041 0 10.955 4.915 10.955 10.955s-4.915 10.955-10.955 10.955-10.955-4.915-10.955-10.955 4.915-10.955 10.955-10.955zM16.33 0.94c-8.341 0-15.104 6.762-15.104 15.104s6.762 15.104 15.104 15.104c8.342 0 15.104-6.762 15.104-15.104s-6.762-15.104-15.104-15.104v0z"></path>
<path fill="#444" d="M22.997 16.044c0 3.682-2.985 6.667-6.667 6.667s-6.667-2.985-6.667-6.667c0-3.682 2.985-6.667 6.667-6.667s6.667 2.985 6.667 6.667z"></path>
</svg>
