<?xml version="1.0" encoding="utf-8"?>
<!-- Generated by IcoMoon.io -->
<!DOCTYPE svg PUBLIC "-//W3C//DTD SVG 1.1//EN" "http://www.w3.org/Graphics/SVG/1.1/DTD/svg11.dtd">
<svg version="1.1" xmlns="http://www.w3.org/2000/svg" xmlns:xlink="http://www.w3.org/1999/xlink" width="40" height="40" viewBox="0 0 40 40">
<path fill="#444" d="M20 14h-4v2h4v2h-4v6h6v-2h-4v-2h4v-6z"></path>
<path fill="#444" d="M32 14h-4v2h4v2h-4v2h4v2h-4v2h6v-10z"></path>
<path fill="#444" d="M8 22v-8h-4v2h2v6h-2v2h6v-2z"></path>
<path fill="#444" d="M12 12v14h-10v-14h10zM14 10h-14v18h14v-18z"></path>
<path fill="#444" d="M24 12v14h-10v-14h10zM26 10h-14v18h14v-18z"></path>
<path fill="#444" d="M36 12v14h-10v-14h10zM38 10h-14v18h14v-18z"></path>
</svg>
