<?xml version="1.0" encoding="utf-8"?>
<!-- Generated by IcoMoon.io -->
<!DOCTYPE svg PUBLIC "-//W3C//DTD SVG 1.1//EN" "http://www.w3.org/Graphics/SVG/1.1/DTD/svg11.dtd">
<svg version="1.1" xmlns="http://www.w3.org/2000/svg" xmlns:xlink="http://www.w3.org/1999/xlink" width="31" height="32" viewBox="0 0 31 32">
<path fill="#444" d="M17.199 2.762c-6.957 0-12.596 5.677-12.596 12.596l-4.067-0 5.055 5.055 5.054-5.054-4.189-0c0-5.555 4.228-10.128 9.631-10.685v2.901h2.224v-2.901c5.038 0.52 9.053 4.536 9.574 9.573h-2.901v2.224h2.901c-0.52 5.038-4.536 9.053-9.574 9.574v-2.902h-2.224v4.763c0.366 0.032 0.737 0.049 1.112 0.049 6.957 0 12.596-5.639 12.596-12.596s-5.64-12.596-12.596-12.596z"></path>
<path fill="#444" d="M16.087 9.921v5.9l5.858 5.855 1.573-1.573-5.207-5.207v-4.976z"></path>
</svg>
