<?xml version="1.0" encoding="utf-8"?>
<!-- Generated by IcoMoon.io -->
<!DOCTYPE svg PUBLIC "-//W3C//DTD SVG 1.1//EN" "http://www.w3.org/Graphics/SVG/1.1/DTD/svg11.dtd">
<svg version="1.1" xmlns="http://www.w3.org/2000/svg" xmlns:xlink="http://www.w3.org/1999/xlink" width="32" height="32" viewBox="0 0 32 32">
<path fill="#444" d="M15.31 17.454c-0.873-0.872-1.558-1.861-2.059-2.915l-10.375 10.375c-1.087 1.087-1.087 2.849 0 3.935l0.984 0.984c1.087 1.087 2.849 1.087 3.935 0l10.356-10.357c-1.026-0.498-1.989-1.171-2.841-2.023zM5.609 27.101c-0.604-0.604-0.604-1.583 0-2.186s1.583-0.604 2.186 0 0.604 1.583 0 2.186-1.583 0.604-2.186 0z"></path>
<path fill="#444" d="M30.752 10.289l-5.971 3.784c-1.298 0.823-3.017 0.437-3.84-0.861l-0.745-1.175c-0.823-1.298-0.437-3.017 0.861-3.84l6.669-4.226c-2.697-2.222-6.619-2.577-9.731-0.605-3.876 2.456-5.027 7.59-2.571 11.466s7.59 5.027 11.466 2.571c2.523-1.599 3.89-4.332 3.861-7.114z"></path>
</svg>
