<?xml version="1.0" encoding="utf-8"?>
<!-- Generated by IcoMoon.io -->
<!DOCTYPE svg PUBLIC "-//W3C//DTD SVG 1.1//EN" "http://www.w3.org/Graphics/SVG/1.1/DTD/svg11.dtd">
<svg version="1.1" xmlns="http://www.w3.org/2000/svg" xmlns:xlink="http://www.w3.org/1999/xlink" width="32" height="32" viewBox="0 0 32 32">
<path fill="#444" d="M26.074 21.096c-0.616 0-1.126-0.51-1.126-1.126 0-1.636-0.439-3.236-1.28-4.634-0.32-0.533-0.154-1.221 0.379-1.541s1.221-0.154 1.541 0.379c1.055 1.742 1.6 3.745 1.6 5.796 0.012 0.616-0.498 1.126-1.114 1.126z"></path>
<path fill="#444" d="M5.807 21.096c-0.616 0-1.126-0.51-1.126-1.126 0-6.21 5.049-11.259 11.259-11.259 0.616 0 1.126 0.51 1.126 1.126s-0.51 1.126-1.126 1.126c-4.966 0-9.007 4.041-9.007 9.007 0 0.616-0.51 1.126-1.126 1.126z"></path>
<path fill="#444" d="M17.991 21.333c0 0 0-0.012 0 0 0-0.012 0-0.012 0.012-0.012 2.892-5.144 4.136-11.876 4.136-11.876s-5.132 4.527-8.059 9.659c0 0 0 0 0 0.012 0 0 0 0 0 0-0.012 0.012-0.012 0.036-0.024 0.047 0 0 0 0 0 0-0.569 1.079-0.19 2.418 0.877 3.010 1.067 0.604 2.406 0.249 3.034-0.794v0c0-0.024 0.012-0.036 0.024-0.047z"></path>
</svg>
