<?xml version="1.0" encoding="utf-8"?>
<!-- Generated by IcoMoon.io -->
<!DOCTYPE svg PUBLIC "-//W3C//DTD SVG 1.1//EN" "http://www.w3.org/Graphics/SVG/1.1/DTD/svg11.dtd">
<svg version="1.1" xmlns="http://www.w3.org/2000/svg" xmlns:xlink="http://www.w3.org/1999/xlink" width="32" height="32" viewBox="0 0 32 32">
<path fill="#444" d="M16 6.213c5.691 0 10.32 4.629 10.32 10.32s-4.629 10.32-10.32 10.32-10.32-4.63-10.32-10.32c0-5.691 4.629-10.32 10.32-10.32zM16 4.053c-6.892 0-12.48 5.588-12.48 12.48s5.588 12.48 12.48 12.48 12.48-5.588 12.48-12.48-5.588-12.48-12.48-12.48v0z"></path>
<path fill="#444" d="M14.161 0.533h3.679v3.679h-3.679v-3.679z"></path>
<path fill="#444" d="M24.712 5.22l2.601 2.601-1.301 1.301-2.601-2.601 1.301-1.301z"></path>
<path fill="#444" d="M22.248 22.794c1.553-1.581 2.512-3.747 2.512-6.138 0-4.838-3.922-8.76-8.76-8.76v8.638l6.248 6.26z"></path>
</svg>
