<?xml version="1.0" encoding="utf-8"?>
<!-- Generated by IcoMoon.io -->
<!DOCTYPE svg PUBLIC "-//W3C//DTD SVG 1.1//EN" "http://www.w3.org/Graphics/SVG/1.1/DTD/svg11.dtd">
<svg version="1.1" xmlns="http://www.w3.org/2000/svg" xmlns:xlink="http://www.w3.org/1999/xlink" width="40" height="40" viewBox="0 0 40 40">
<path fill="#444" d="M8 10h-6c-1.2 0-2 0.8-2 2v16h2v-8h6v8h2v-16c0-1.2-0.8-2-2-2zM8 18h-6v-6h6v6z"></path>
<path fill="#444" d="M38 26h-8v-14h8v-2h-8c-1.2 0-2 0.8-2 2v14c0 1.2 0.8 2 2 2h8v-2z"></path>
<path fill="#444" d="M24 17.6v-5.6c0-1.2-0.8-2-2-2h-8v18h8c1.2 0 2-0.8 2-2v-5.6c0-0.6-0.4-1.4-1-1.4 0.6 0 1-0.8 1-1.4zM22 26h-6v-6h6v6zM22 18h-6v-6h6v6z"></path>
</svg>
