<?xml version="1.0" encoding="utf-8"?>
<!-- Generator: Adobe Illustrator 15.1.0, SVG Export Plug-In . SVG Version: 6.00 Build 0)  -->
<!DOCTYPE svg PUBLIC "-//W3C//DTD SVG 1.1//EN" "http://www.w3.org/Graphics/SVG/1.1/DTD/svg11.dtd">
<svg version="1.1" id="Layer_1" xmlns="http://www.w3.org/2000/svg" xmlns:xlink="http://www.w3.org/1999/xlink" x="0px" y="0px"
	 width="498.355px" height="300.214px" viewBox="0 0 498.355 300.214" enable-background="new 0 0 498.355 300.214"
	 xml:space="preserve">
	  <defs>
  						<style type="text/css">
							@import url(https://fonts.googleapis.com/css?family=Open+Sans:400,600,400italic,700,600italic,800,300italic);
						 	[font-family="'OpenSans'"]{font-family: 'Open Sans';font-weight:400;}
						 	[font-family="'OpenSans-Semibold'"]{font-family: 'Open Sans';font-weight:600;}
						 	[font-family="'OpenSans-Bold'"]{font-family: 'Open Sans';font-weight:700;}
						 	[font-family="'OpenSans-Extrabold'"]{font-family: 'Open Sans';font-weight:800;}
						 	[font-family="'OpenSans-Italic'"]{font-family: 'Open Sans';font-weight:400;font-style:italic;}
						 	[font-family="'OpenSansLight-Italic'"]{font-family: 'Open Sans';font-weight:300;font-style:italic;}
 						</style>
					</defs>
<g id="black_type">
	<text transform="matrix(1 0 0 1 453.3318 131.3433)" font-family="'OpenSans'" font-size="7.005">Manzikert</text>
	<text transform="matrix(1 0 0 1 438.7771 214.1519)" font-family="'OpenSans'" font-size="7.005">Hattin</text>
	<path d="M485.857,132.838l2.399,1.119c0,0,0.223,0.172,0.21,0.324c-0.024,0.294-0.172,0.418-0.464,0.315
		c-0.166-0.058-0.185-0.481-0.185-0.481l-2.474-1.153c0,0-0.237-0.314-0.168-0.463c0.067-0.148,0.313-0.238,0.463-0.168
		C485.791,132.399,485.857,132.838,485.857,132.838z"/>
	<path d="M491.777,124.122c0,0-1.058,1.396-1.243,1.796c-0.14,0.297-5.023,10.968-5.023,10.968l-0.371-0.173
		c0,0,4.547-9.946,4.954-10.819C490.502,125.019,491.777,124.122,491.777,124.122z"/>
	<circle cx="485.135" cy="137.131" r="0.566"/>
	<path d="M492.01,132.819l-2.398,1.118c0,0-0.223,0.173-0.211,0.325c0.024,0.294,0.172,0.417,0.464,0.315
		c0.167-0.058,0.185-0.481,0.185-0.481l2.474-1.153c0,0,0.237-0.314,0.169-0.464c-0.069-0.148-0.313-0.238-0.463-0.168
		C492.075,132.38,492.01,132.819,492.01,132.819z"/>
	<path d="M486.089,124.103c0,0,1.059,1.396,1.243,1.796c0.141,0.297,5.024,10.968,5.024,10.968l0.372-0.173
		c0,0-4.548-9.945-4.954-10.82C487.365,125,486.089,124.103,486.089,124.103z"/>
	<circle cx="492.73" cy="137.112" r="0.566"/>
	<path d="M491.546,133.908c0.595-0.277,1.227,0.061,1.505,0.656c0.276,0.596,0.139,1.316-0.457,1.593l-0.035,0.434
		c0.821-0.383,1.177-1.358,0.794-2.179c-0.384-0.82-1.358-1.176-2.18-0.793L491.546,133.908z"/>
	<polygon points="492.157,136.44 491.51,135.339 491.101,134.125 491.49,133.943 492.121,135.053 492.558,136.23 	"/>
	<path d="M486.322,133.927c-0.596-0.277-1.228,0.063-1.506,0.656c-0.277,0.596-0.14,1.315,0.457,1.594l0.036,0.433
		c-0.821-0.382-1.177-1.358-0.794-2.178c0.383-0.821,1.356-1.176,2.179-0.793L486.322,133.927z"/>
	<polygon points="485.708,136.458 486.358,135.357 486.766,134.145 486.377,133.962 485.744,135.072 485.309,136.25 	"/>
	<path d="M432.109,216.427l2.398,1.119c0,0,0.224,0.172,0.211,0.324c-0.024,0.295-0.172,0.418-0.464,0.314
		c-0.166-0.059-0.185-0.48-0.185-0.48l-2.474-1.152c0,0-0.237-0.315-0.168-0.465c0.067-0.148,0.313-0.237,0.463-0.168
		C432.045,215.99,432.109,216.427,432.109,216.427z"/>
	<path d="M438.029,207.71c0,0-1.058,1.396-1.244,1.797c-0.14,0.298-5.022,10.968-5.022,10.968l-0.371-0.173
		c0,0,4.547-9.946,4.954-10.82S438.029,207.71,438.029,207.71z"/>
	<circle cx="431.387" cy="220.72" r="0.566"/>
	<path d="M438.26,216.408l-2.398,1.119c0,0-0.224,0.172-0.211,0.324c0.024,0.295,0.172,0.418,0.464,0.316
		c0.167-0.06,0.185-0.481,0.185-0.481l2.474-1.153c0,0,0.237-0.314,0.169-0.463c-0.069-0.148-0.313-0.238-0.463-0.168
		C438.327,215.97,438.26,216.408,438.26,216.408z"/>
	<path d="M432.341,207.692c0,0,1.059,1.396,1.245,1.796c0.139,0.299,5.022,10.969,5.022,10.969l0.372-0.172
		c0,0-4.548-9.945-4.955-10.82S432.341,207.692,432.341,207.692z"/>
	<circle cx="438.982" cy="220.701" r="0.566"/>
	<path d="M437.798,217.498c0.595-0.276,1.227,0.063,1.505,0.656c0.276,0.596,0.139,1.316-0.457,1.594l-0.034,0.435
		c0.82-0.384,1.176-1.356,0.793-2.181c-0.384-0.818-1.358-1.176-2.18-0.793L437.798,217.498z"/>
	<polygon points="438.409,220.029 437.76,218.927 437.353,217.714 437.742,217.533 438.373,218.642 438.81,219.819 	"/>
	<path d="M432.573,217.516c-0.595-0.276-1.227,0.062-1.505,0.655c-0.277,0.597-0.14,1.314,0.457,1.594l0.036,0.434
		c-0.821-0.383-1.177-1.357-0.794-2.178c0.382-0.82,1.358-1.176,2.179-0.793L432.573,217.516z"/>
	<polygon points="431.962,220.048 432.609,218.947 433.018,217.733 432.628,217.55 431.996,218.662 431.561,219.837 	"/>
</g>
</svg>
