<?xml version="1.0" encoding="utf-8"?>
<!-- Generator: Adobe Illustrator 19.0.0, SVG Export Plug-In . SVG Version: 6.00 Build 0)  -->
<svg version="1.1" id="Legend_off5" xmlns="http://www.w3.org/2000/svg" xmlns:xlink="http://www.w3.org/1999/xlink" x="0px"
	 y="0px" viewBox="0 0 498.355 300.214" enable-background="new 0 0 498.355 300.214" xml:space="preserve">
<g id="knife_1_" opacity="0.8">
	<g>
		<path fill="#959595" d="M33.576,275.97l2.399,1.119c0,0,0.223,0.172,0.21,0.324c-0.024,0.295-0.172,0.418-0.464,0.316
			c-0.167-0.059-0.183-0.482-0.183-0.482l-2.473-1.153c0,0-0.238-0.315-0.169-0.464c0.069-0.148,0.315-0.238,0.463-0.168
			C33.509,275.531,33.576,275.97,33.576,275.97z"/>
		<path fill="#959595" d="M39.497,267.253c0,0-1.059,1.396-1.245,1.796c-0.139,0.297-5.024,10.968-5.024,10.968l-0.372-0.173
			c0,0,4.547-9.946,4.955-10.82C38.218,268.151,39.497,267.253,39.497,267.253z"/>
		<circle fill="#959595" cx="32.854" cy="280.262" r="0.566"/>
		<path fill="#959595" d="M39.727,275.951l-2.398,1.119c0,0-0.224,0.172-0.211,0.324c0.024,0.295,0.172,0.418,0.464,0.316
			c0.167-0.059,0.183-0.482,0.183-0.482l2.473-1.153c0,0,0.238-0.315,0.169-0.463c-0.069-0.149-0.315-0.238-0.463-0.169
			C39.794,275.512,39.727,275.951,39.727,275.951z"/>
		<path fill="#959595" d="M33.806,267.234c0,0,1.058,1.396,1.245,1.796c0.139,0.297,5.024,10.969,5.024,10.969l0.372-0.173
			c0,0-4.547-9.946-4.955-10.82C35.085,268.132,33.806,267.234,33.806,267.234z"/>
		<circle fill="#959595" cx="40.449" cy="280.243" r="0.566"/>
		<g>
			<path fill="#959595" d="M39.263,277.04c0.595-0.278,1.227,0.061,1.505,0.655c0.278,0.596,0.139,1.316-0.457,1.594l-0.035,0.434
				c0.82-0.383,1.176-1.358,0.792-2.179c-0.382-0.82-1.358-1.175-2.178-0.793L39.263,277.04z"/>
		</g>
		<g>
			<polygon fill="#959595" points="39.875,279.571 39.227,278.471 38.819,277.257 39.21,277.075 39.84,278.184 40.276,279.362 			
				"/>
		</g>
		<g>
			<path fill="#959595" d="M34.041,277.059c-0.595-0.278-1.228,0.06-1.505,0.656c-0.278,0.595-0.139,1.315,0.456,1.593l0.036,0.433
				c-0.821-0.382-1.175-1.357-0.793-2.178c0.383-0.821,1.358-1.175,2.179-0.793L34.041,277.059z"/>
		</g>
		<g>
			<polygon fill="#959595" points="33.427,279.59 34.077,278.489 34.484,277.276 34.093,277.094 33.463,278.203 33.027,279.381 			
				"/>
		</g>
		<text transform="matrix(1 0 0 1 51.3862 275.6821)"><tspan x="0" y="0" fill="#959595" font-family="'OpenSans'" font-size="7px">Battl</tspan><tspan x="16.051" y="0" fill="#959595" font-family="'OpenSans'" font-size="7px">e </tspan><tspan x="21.796" y="0" fill="#959595" font-family="'OpenSans'" font-size="7px">sit</tspan><tspan x="29.923" y="0" fill="#959595" font-family="'OpenSans'" font-size="7px">e </tspan></text>
	</g>
</g>
</svg>
