<?xml version="1.0" encoding="utf-8"?>
<!-- Generator: Adobe Illustrator 15.1.0, SVG Export Plug-In . SVG Version: 6.00 Build 0)  -->
<!DOCTYPE svg PUBLIC "-//W3C//DTD SVG 1.1//EN" "http://www.w3.org/Graphics/SVG/1.1/DTD/svg11.dtd">
<svg version="1.1" id="Layer_1" xmlns="http://www.w3.org/2000/svg" xmlns:xlink="http://www.w3.org/1999/xlink" x="0px" y="0px"
	 width="498.355px" height="300.214px" viewBox="0 0 498.355 300.214" enable-background="new 0 0 498.355 300.214"
	 xml:space="preserve">
	  <defs>
  						<style type="text/css">
							@import url(https://fonts.googleapis.com/css?family=Open+Sans:400,600,400italic,700,600italic,800,300italic);
						 	[font-family="'OpenSans'"]{font-family: 'Open Sans';font-weight:400;}
						 	[font-family="'OpenSans-Semibold'"]{font-family: 'Open Sans';font-weight:600;}
						 	[font-family="'OpenSans-Bold'"]{font-family: 'Open Sans';font-weight:700;}
						 	[font-family="'OpenSans-Extrabold'"]{font-family: 'Open Sans';font-weight:800;}
						 	[font-family="'OpenSans-Italic'"]{font-family: 'Open Sans';font-weight:400;font-style:italic;}
						 	[font-family="'OpenSansLight-Italic'"]{font-family: 'Open Sans';font-weight:300;font-style:italic;}
 						</style>
					</defs>
<g id="crusader_x5F_region" opacity="0.8">
	<path fill="#E08B4F" d="M430.109,171.078l0.097,0.42v0.364l-0.345,0.231l-0.446,0.227l-0.592,0.297l-0.462,0.348l-0.446,0.397
		l-0.265,0.382l-0.11,0.159l-0.084,0.542l-0.168,0.127l-0.332,0.248l0.125,0.333l0.229,0.485l0.319,0.445l0.367,0.485l0.357,0.626
		l0.449,0.658l0.317,0.465l-0.25,0.75l-0.833,0.458l-0.25,0.792l0.25,0.667l-0.042,1.75l-0.417,0.292l0.334,0.708l1,1.042
		l0.541,0.917l-0.041,0.75l0.458,0.625l0.333,0.333l-0.25,0.542l0.084,0.625l-0.167,1.083l-0.167,0.833l0.334,0.875l0.375,1.042
		l0.291,1.083l0.459,1v0.542l-1.167,0.458l-0.75,0.917l-0.5,1.292l-0.375,1.667l0.083,0.918l0.042,1.416h-0.75l-0.583,0.459
		l-0.209,0.719l0.375,0.322l-0.458,1.793l-0.833,2.332l-0.542,2.334l-0.417,1.166l-0.125,0.875v1.043v0.625l-0.583,0.25h-0.583
		l-0.292,0.666l0.083,2.125l-0.25,1.584l-0.208,2.707l-0.417,2.834l-0.75,1.666l-1.375,3.043l-0.625,0.916l-0.625,0.5l-0.75,1.209
		l-0.708,0.25l0.22,1.572l0.344,1.094l0.469,1.344l0.438,0.906l0.405,0.938l0.313,0.845l0.281,0.72l0.063,0.625l-0.188,0.905
		l-0.156,0.813l-0.219,1.25l-0.188,1l0.156,1.063l0.375,1.063l1.219,1.781l0.438,0.594l0.53,0.845l0.595,0.719l1.03,0.813
		c0,0,0.156-0.156,0.656,0.5s0.5,0.656,0.5,0.656l1.219,0.5h1.5h1.22l1.063-0.313l1.177-1.063L432.56,249l1.188-1.094l1.281-1.406
		l1.031-1.688l0.719-1.969l0.281-2.031l0.219-1.844v-2.094v-3.438l0.156-0.75l0.625-0.938l0.938-0.75l0.845-0.719l0.75-1.063v-1.375
		l-0.47-0.969l-2.125-0.188l-1.219,0.22l-0.719,0.375l-0.938-0.064l-0.563-0.719l0.031-3.469l0.125-2.5l0.313-2.125l0.063-1.219
		l0.655-1.313l0.688-1.188l0.344-1.095l0.25-2.469l0.563-2.563l0.563-1.875l0.469-1.563l0.313-1.531l0.406-1.219l0.188-1
		l0.156-2.345l-0.719-0.375h-0.97l-0.75,0.281l-0.28,0.375l-0.595,0.25l-0.438-0.313l0.094-0.875l0.313-1.188v-1.563l0.188-1.75
		l0.344-2.031l0.313-1.063l0.375-0.125c0,0,0.469,0.281,0.5,0.406s0.656,1.063,0.656,1.063l0.719,0.53l0.719,0.281l0.906-0.281
		l0.344-0.938l0.188-1.188l-0.281-1.375l-0.75-1.594l-0.688-1.531l-0.438-1l-0.031-1.313l0.563-0.844l0.405-1.375l-0.188-1.031
		l0.031-1.688l0.25-1.53l0.563-1.439l0.563-1.125l0.938-1.125l0.844-1l3.406,0.031l1.094,0.406l0.97,0.125l1.28,0.219l1.188,0.219
		l1.281,0.031l0.813-0.281l0.813-0.28l0.563-0.75l-0.375-0.938l-0.531-0.688l-0.875-0.594l-0.438-0.438l-0.156-1.25l0.875-1
		l0.781-0.564h1.688h1.906h1.5l1.594-0.25l1.97-0.469l1.688-0.875l1.5-0.813l1.594-0.844l1.345-1.063l1.53-1.563l0.781-1.655
		l0.5-2.156l0.313-1.875l-0.313-1.938l-0.844-1.188l-1.438-0.563h-2.375l-0.688,0.344l-1.313,0.531l-2.655,0.094l-1.438-0.375
		l-1.281-0.438l-1.344-0.563l-1-0.25h-5.188h-1.188l-1.375-0.5l-1.281-0.296l-0.719-0.235h-3.063l-0.938,0.75l-0.938,1.595l-0.781,2
		l-1.344,3.344l-0.688,1.438l-1.031,2.656l-0.813,1.969l-0.563,1.375l-0.344,0.969l-0.531,1l-0.594,0.656l-1.188,0.813l-1.125,0.97
		l-1.031,0.53c0,0-0.656,0.095-0.75,0.125c-0.094,0.031-1,0.595-1,0.595L430.109,171.078z"/>
	<path fill="none" stroke="#2AACE3" stroke-width="0.5" stroke-miterlimit="10" d="M481.831,174.07"/>
	<path fill="none" stroke="#C16733" stroke-miterlimit="10" d="M430.373,171.028l1.563-0.905l0.781-0.313l1-0.406l0.844-0.469
		l0.656-0.72l0.905-0.844l0.875-1.5l0.531-1.531l0.969-2.155l0.906-2.125l0.656-1.845l0.594-1.844l0.875-2.031l1-1.719l0.5-1.188
		l0.813-1.063l0.75-0.594h3.313l1.219,0.5l1,0.281l0.781,0.219l1,0.22l5.813-0.095l1.78,0.563l1,0.375l0.813,0.25l0.469,0.156
		l0.688,0.25l2.188-0.031l1.156-0.438l1.063-0.469l1.031-0.125l1.375,0.125l1.25,0.313l1,0.78l0.281,0.97v1.28v1.563v0.75
		l-0.281,0.656l-0.125,1.094l-0.188,0.406l-0.095,0.5l-0.469,0.813l-0.5,0.719l-1.031,0.875l-1.219,0.813l-1.125,0.75l-1.969,1.095
		l-1.688,0.844l-1.313,0.5l-1.844,0.375h-3.531h-1.938l-0.938,0.47l-0.75,0.844l-0.219,0.656l-0.095,0.905l0.188,0.531l1.063,0.625
		l0.688,0.344l0.25,0.75l-0.031,0.688l-0.688,0.688l-1.156,0.25h-2.219l-1.72-0.219l-0.969-0.188l-1-0.188l-2.969-0.125
		l-1.469,0.719l-0.156,0.595l-0.969,1.375l-0.656,1.094l-0.281,0.813l-0.156,1.094l-0.03,2.344l-0.063,1.5l-0.375,0.564
		l-0.344,0.813l-0.094,0.688l0.188,0.938c0,0,0.344,0.689,0.344,0.781c0,0.094,0.47,0.875,0.47,0.875l0.53,1.031l0.531,1.094
		l0.188,0.563l0.094,0.845l-0.125,0.813l-0.031,0.594l-0.281,0.656l-0.344,0.375h-1.375l-0.719-0.875l-0.531-0.969l-0.5-0.531
		l-0.625,0.188l-0.281,1.031l-0.063,1.156l-0.25,1.281l-0.063,1.375l-0.28,1.531l-0.125,1.313l0.125,0.906l0.438,0.313l0.844-0.469
		l0.438-0.313l0.594,0.063l0.875,0.031l0.438,0.844l-0.095,1.125l-0.125,1.094l-0.844,2.375l-0.531,2.063l-0.563,2.095l-0.406,1.75
		l-0.188,1.155l-0.031,1.72l-0.281,1l-0.625,0.875l-0.563,1.28l-0.345,1.406l-0.155,1.594l-0.345,3.438l-0.063,0.927l-0.094,1.448
		l0.125,1.47l0.313,0.625c0,0,0.781,0.188,0.875,0.188s0.844-0.406,0.844-0.406l0.563-0.281h1.219l1.25,0.125l0.719,0.563
		l0.25,0.938l-0.188,1.094l-0.594,0.844l-0.875,0.469l-0.781,0.625l-0.438,1.063l-0.375,0.906l-0.155,1.156l0.03,4.969l-0.155,1.125
		l-0.22,1.531l-0.53,1.563l-0.72,1.625l-0.469,1.22l-0.906,1.063l-1.594,1.531l-1.625,1.063l-0.781,0.813l-0.655,0.469l-0.22,0.188
		h-3.375l-1.625-1.155l-1.625-1.906l-1-1.313l-1.188-1.313l-0.719-1.438l-0.406-0.875l0.156-1.75l0.28-1.219l0.406-0.813
		l0.094-1.125l-0.469-1.344l-0.781-1.688l-0.78-1.781l-0.875-2.53"/>
</g>
<g id="black_type">
	<text transform="matrix(1 0 0 1 422.1736 151.3589)" font-family="'OpenSans-Semibold'" font-size="7">COUNTY OF</text>
	<text transform="matrix(1 0 0 1 429.4275 158.3589)" font-family="'OpenSans-Semibold'" font-size="7">EDESSA</text>
	<text transform="matrix(1 0 0 1 443.2107 198.6421)" font-family="'OpenSans-Semibold'" font-size="7">COUNTY</text>
	<text transform="matrix(1 0 0 1 438.8894 205.6421)" font-family="'OpenSans-Semibold'" font-size="7">OF TRIPOLI</text>
	<text transform="matrix(1 0 0 1 433.908 227.6626)" font-family="'OpenSans-Semibold'" font-size="7">KINGDOM OF</text>
	<text transform="matrix(1 0 0 1 437.4236 234.6626)" font-family="'OpenSans-Semibold'" font-size="7">JERUSALEM</text>
	<text transform="matrix(1 0 0 1 436.1052 181.8804)" font-family="'OpenSans-Semibold'" font-size="7">PRINCIPALITY</text>
	<text transform="matrix(1 0 0 1 437.8435 188.8804)" font-family="'OpenSans-Semibold'" font-size="7">OF ANTIOCH</text>
</g>
</svg>
