<?xml version="1.0" encoding="utf-8"?>
<!-- Generator: Adobe Illustrator 15.1.0, SVG Export Plug-In . SVG Version: 6.00 Build 0)  -->
<!DOCTYPE svg PUBLIC "-//W3C//DTD SVG 1.1//EN" "http://www.w3.org/Graphics/SVG/1.1/DTD/svg11.dtd">
<svg version="1.1" id="Layer_1" xmlns="http://www.w3.org/2000/svg" xmlns:xlink="http://www.w3.org/1999/xlink" x="0px" y="0px"
	 width="498.355px" height="300.214px" viewBox="0 0 498.355 300.214" enable-background="new 0 0 498.355 300.214"
	 xml:space="preserve">
<g id="crusade_paths">
	<path display="none" fill="none" stroke="#598527" stroke-width="1.25" stroke-linecap="round" stroke-miterlimit="10" d="
		M123.755,0.095c-5.547,6.555-9.185,9.483-13.135,12.509c-3.95,3.025-8.054,6.202-12.509,7.63
		C93.657,21.663,87.73,23.14,82.1,24.737c-5.631,1.597-11.3,1.524-16.763,3.877c-5.463,2.353-10.703,6.48-12.384,9.507
		c-1.681,3.025-0.856,7.348,0.876,10.883c2.343,4.783,4.276,7.816,6.629,10.757c2.354,2.942,3.57,4.012,5.254,5.629
		c3.14,3.015,4.333,3.706,5.879,4.503c2.605,1.345,5.685,3.368,9.382,4.628c3.697,1.261,5.504,1.876,5.504,1.876"/>
	<path display="none" fill="none" stroke="#598527" stroke-width="1.25" stroke-linecap="round" stroke-miterlimit="10" d="
		M86.979,76.649c-5.883,1.008-9.536,2.076-11.133,3.252c-1.598,1.177-2.91,2.203-4.004,3.127c-1.093,0.925-3.104,2.115-6.129,3.628
		c-3.024,1.513-5.774,2.375-8.381,2.627c-2.604,0.252-5.766,0.375-9.632,0.375s-7.354-0.123-10.633-0.375
		c-3.277-0.252-6.644-0.375-10.257-0.375c-3.614,0-6.856,0.903-9.882,2.752c-3.026,1.849-5.488,5.132-7.506,10.007
		c-2.018,4.874-3.084,9.841-3.252,15.136c-0.168,5.294-0.25,10.466-0.25,15.761s0.575,8.661,1.751,10.257
		c1.177,1.597,3.107,4.328,5.629,5.504"/>
	<path display="none" fill="none" stroke="#598527" stroke-width="1.25" stroke-linecap="round" stroke-miterlimit="10" d="
		M13.426,148.325c-2.688,1.009-4.5,1.574-5.003,3.002c-0.504,1.428-1.255,3.26-0.75,7.629c0.504,4.371,2.311,8.188,5.504,11.633
		c3.193,3.447,7.331,7.582,13.635,8.507s14.109,0.506,22.767-0.25c8.656-0.757,18.908-3.146,27.145-6.255
		c8.235-3.109,12.515-7.887,17.137-12.51c4.623-4.621,9.261-10.574,14.135-18.138s10.005-13.885,15.636-19.264
		c5.632-5.379,9.859-9.976,12.885-14.01c3.024-4.034,5.323-7.154,7.005-9.507c1.681-2.354,2.502-3.585,2.502-3.753"/>
	<path display="none" fill="none" stroke="#598527" stroke-width="1.25" stroke-linecap="round" stroke-miterlimit="10" d="
		M145.771,96.163c0.84,4.034,2.194,6.948,4.128,8.881c1.933,1.933,5.873,4.313,12.008,7.255c6.135,2.941,11.635,5.322,16.762,7.255
		c5.127,1.933,10.832,4.108,17.389,6.629c6.555,2.521,12.219,5.313,17.262,8.506c5.042,3.193,9.476,5.861,13.51,8.13
		s9.534,3.608,11.383,6.129c1.85,2.52,0.784,7.572,1.876,9.756c1.093,2.187,4.032,3.078,5.629,4.254
		c1.598,1.176,2.597,1.49,6.63,3.002c4.033,1.513,12.119,3.893,24.643,7.254c12.522,3.361,22.168,5.742,29.396,7.256
		c7.228,1.513,12.687,2.332,16.637,2.502c3.95,0.168,8.998,0.496,15.386,1c6.389,0.504,11.889,1.078,16.763,1.751
		c4.875,0.672,10.579,1.247,17.388,1.751c6.808,0.504,13.169,1.201,19.389,2.126c6.219,0.925,10.159,2.36,12.009,4.378
		s4.641,4.891,8.507,8.756c3.865,3.866,6.533,6.986,8.131,9.508c1.597,2.521,3.854,5.065,6.88,7.756"/>
	<path display="none" fill="none" stroke="#598527" stroke-width="1.25" stroke-linecap="round" stroke-miterlimit="10" d="
		M427.533,220.063c-31.643-5.757-53.622-10.169-66.984-13.446c-1.552-0.381-3.107-0.771-4.669-1.168"/>
	<path display="none" fill="none" stroke="#598527" stroke-width="1.25" stroke-linecap="round" stroke-miterlimit="10" d="
		M329.647,198.074c-3.609-1.104-7.274-2.258-11.004-3.466c-14.792-4.791-29.65-9.716-45.282-15.011
		c-15.633-5.295-24.827-9.235-28.021-12.01c-3.192-2.772-5.082-5.358-5.754-7.879c-0.672-2.521,0.025-4.779,2.126-6.881
		c2.102-2.101,3.62-4.399,4.628-7.004c1.009-2.605,0.886-5.15-0.375-7.756c-1.26-2.605-3.065-4.822-5.504-6.755
		c-2.437-1.933-5.434-3.205-9.131-3.877s-8.582-1.822-14.886-3.502c-6.303-1.681-11.721-4.472-16.512-8.506
		c-4.791-4.034-7.869-7.441-9.381-10.383c-1.514-2.941-2.253-5.814-2.253-8.756s0-4.378,0-4.378s-1.189-0.041-3.627-0.125
		c-2.437-0.084-4.406-0.741-6.004-2.001c-1.597-1.261-2.664-2.369-3.252-3.377c-0.588-1.008-0.876-1.501-0.876-1.501
		s-0.328,1.026-1,3.127c-0.672,2.101-1.781,4.276-3.377,6.629c-1.597,2.354-3.566,4.159-6.004,5.504
		c-2.437,1.345-5.022,1.755-7.88,1.251s-5.197-1.612-7.13-3.377c-1.934-1.765-2.877-2.627-2.877-2.627s-0.082,0-0.25,0
		s-0.25,0-0.25,0s-0.083,0.082-0.25,0.25"/>
	<path display="none" fill="none" stroke="#598527" stroke-width="1.25" stroke-linecap="round" stroke-miterlimit="10" d="
		M403.954,175.97c-2.354-5.211-4.24-8.536-5.755-10.133c-1.513-1.596-3.481-2.582-6.004-3.002c-2.521-0.42-4.778-0.502-6.88-0.25
		c-2.101,0.252-4.851,0.418-8.381,0.5c-3.53,0.084-6.362-0.039-8.631-0.375c-2.271-0.336-4.198-1.238-5.88-2.752
		c-1.682-1.513-3.24-3.153-4.753-5.002c-1.514-1.85-3.277-5.173-5.38-10.132c-2.101-4.958-3.947-9.392-5.629-13.51
		c-1.681-4.118-2.918-7.036-3.753-8.818c-0.363-0.779-1.787-3.603-2.604-4.663c-0.814-1.061-2.578-1.999-3.447-2.249
		c-0.87-0.25-9.136-3.02-13.338-4.785c-4.202-1.765-8.171-3.623-12.354-5.661c-4.182-2.038-8.965-4.377-14.196-7.13
		c-5.232-2.753-10.004-5.432-14.542-8.037s-8.24-4.893-11.664-7.099c-3.426-2.206-5.89-4.135-7.507-5.879
		c-1.617-1.744-3.146-3.704-4.658-5.973c-1.514-2.269-2.457-4.198-2.877-5.879c-0.422-1.681-1.241-3.651-2.502-6.004
		c-1.262-2.354-2.656-4.159-4.254-5.504c-1.597-1.345-3.279-2.494-5.129-3.503c-1.849-1.008-4.476-1.87-8.005-2.627
		c-3.529-0.756-6.771-1.167-9.882-1.25c-3.109-0.084-5.859-0.209-8.381-0.188c-3.606,0.031-9.235-2.658-20.39-7.63"/>
	<path fill="none" stroke="#9E0040" stroke-width="1.25" stroke-linecap="round" stroke-miterlimit="10" d="M427.346,220.689
		c4.37-17.313,6.835-29.251,7.255-34.462c0.42-5.21,0.543-8.822,0.375-11.009c-0.168-2.184-0.865-4.236-2.126-6.254
		c-1.261-2.016-3.272-3.33-6.13-4.002s-6.798-2.108-12.009-4.377c-5.21-2.27-10.874-5.512-17.263-9.883
		c-6.388-4.371-11.847-8.516-16.637-12.634c-4.791-4.118-8.361-7.155-10.883-9.256c-2.522-2.101-4.875-3.741-7.169-4.996
		c-2.296-1.255-4.718-2.151-7.381-2.729c-2.664-0.578-5.036-1.058-7.231-1.462c-2.196-0.405-6.362-1.495-12.696-3.323
		c-6.335-1.828-13.129-4.47-20.701-8.053c-7.575-3.583-14.573-7.097-21.329-10.71c-6.755-3.614-13.214-7.308-19.686-11.258
		c-6.472-3.95-12.159-7.439-16.949-10.632c-4.791-3.194-10.714-7.239-17.794-12.071s-12.456-8.225-17.262-11.289
		c-4.588-2.926-9.466-5.484-14.698-8.068s-9.776-4.596-14.104-6.129c-4.328-1.533-8.125-2.427-11.571-2.721
		s-7.714,0.527-13.009,2.501c-5.294,1.976-10.057,4.161-14.511,6.661s-7.851,4.604-10.352,6.411c-2.5,1.807-3.721,2.689-3.721,2.689
		s-2.693-1.863-5.754-4.754c-3.543-3.346-5.921-4.847-7.631-6.379c-2.287-2.049-7.066-5.772-12.613-6.445"/>
	<path fill="none" stroke="#9E0040" stroke-width="1.25" stroke-linecap="round" stroke-miterlimit="10" d="M118.501,13.854
		c4.37,3.866,7.367,7.313,9.131,10.507c1.766,3.194,3.571,7.544,5.505,13.259c1.933,5.715,3.984,10.723,6.254,15.261
		c2.27,4.539,4.362,8.438,6.38,11.884c2.017,3.446,4.438,5.785,7.38,7.13c2.941,1.345,6.595,2.822,11.133,4.503
		c4.539,1.681,7.188,4.707,10.549,6.723c3.362,2.017,7.527,2.809,10.216,4.91c2.689,2.101,5.439,4.851,8.382,8.381
		c2.94,3.53,7.005,6.896,12.384,10.257c5.379,3.361,10.92,6.276,16.887,8.881s12,4.493,18.388,5.754
		c6.389,1.261,11.971,2.041,17.013,2.377c5.043,0.336,8.695,0.377,11.134,0.125c2.437-0.252,5.351-0.088,8.881,0.5
		c3.53,0.588,7.84,0.958,13.135,1.126c5.294,0.168,10.221-0.078,15.012-0.75c4.79-0.672,9.634-1.493,14.76-2.502
		c5.127-1.008,8.985-1.296,11.759-0.875c2.773,0.42,5.935,0.625,9.632,0.625c3.698,0,7.188-0.041,10.634-0.125
		c3.444-0.084,4.835-0.063,5.003-0.063"/>
	<path fill="none" stroke="#9E0040" stroke-width="1.25" stroke-linecap="round" stroke-miterlimit="10" d="M272.36,123.683
		c-4.544,0.531-8.307,3.061-12.509,6.254"/>
	<path fill="none" stroke="#9E0040" stroke-width="1.25" stroke-linecap="round" d="M412.795,159.615
		c5.004,2,12.009-4.504,16.012-5.505s10.007-3.002,15.011-3.002"/>
	<path display="none" fill="none" stroke="#007DC5" stroke-width="1.25" stroke-linecap="round" stroke-miterlimit="10" d="
		M427.408,218.875c-29.5-5.41-45.639-8.582-48.543-10.528c-2.903-1.948-6.394-4.288-10.632-7.13
		c-4.239-2.844-10.086-8.049-17.816-15.864c-7.732-7.815-13.068-14.917-16.263-21.64c-3.193-6.723-4.466-13.374-3.878-20.265
		c0.588-6.892,2.148-11.119,4.753-12.884c2.605-1.765,6.095-2.915,10.633-3.503c4.539-0.588,8.809-2.271,13.011-5.128"/>
	<path display="none" fill="none" stroke="#007DC5" stroke-width="1.25" stroke-linecap="round" stroke-miterlimit="10" d="
		M140.868,54.422c4.539-3.362,8.628-6.027,12.158-8.044s7.101-3.782,10.883-5.379s7.404-2.9,11.039-3.972
		c3.635-1.071,7.822-0.866,12.759,0.625c4.938,1.492,10.141,3.534,15.855,6.223s11.256,5.686,16.887,9.131
		c5.631,3.446,14.076,9.018,25.737,16.981c11.66,7.963,22.138,14.648,31.929,20.374s18.691,10.469,27.254,14.713
		c8.563,4.244,15.243,7.345,20.233,9.194c4.989,1.849,10.345,3.596,11.992,3.894c1.76,0.317,5.515-0.288,7.179-0.246
		c1.662,0.042,4.075,0.727,5.213,0.918c2.38,0.399,4.702,0.869,7.075,1.431c2.375,0.562,4.532,1.26,6.575,2.127
		c2.043,0.867,3.924,1.78,5.729,2.783c1.809,1.003,2.505,2.193,2.127,3.627c-0.378,1.434-1.589,1.929-3.689,1.509
		c-2.102-0.42-3.496-0.133-4.253,0.875c-0.756,1.009-1.249,2.322-1.501,4.003s-0.662,3.364-1.251,5.129
		c-0.588,1.765-0.711,4.104-0.375,7.13c0.336,3.026,1.566,5.816,3.753,8.506c2.185,2.688,4.894,4.578,8.256,5.754
		c3.361,1.176,6.438,2.326,9.381,3.502s5.035,2.408,6.38,3.752s3.521,3.191,6.63,5.629c3.109,2.437,6.559,4.283,10.508,5.629
		c3.949,1.345,6.74,2.082,8.507,2.251c1.765,0.168,3.898,1.646,6.505,4.503c2.604,2.857,4.657,5.115,6.254,6.88
		s3.197,5.089,4.879,10.132"/>
</g>
</svg>
