<?xml version="1.0" encoding="utf-8"?>
<!-- Generator: Adobe Illustrator 15.1.0, SVG Export Plug-In . SVG Version: 6.00 Build 0)  -->
<!DOCTYPE svg PUBLIC "-//W3C//DTD SVG 1.1//EN" "http://www.w3.org/Graphics/SVG/1.1/DTD/svg11.dtd">
<svg version="1.1" id="Layer_1" xmlns="http://www.w3.org/2000/svg" xmlns:xlink="http://www.w3.org/1999/xlink" x="0px" y="0px"
	 width="498.355px" height="300.214px" viewBox="0 0 498.355 300.214" enable-background="new 0 0 498.355 300.214"
	 xml:space="preserve">
<g id="crusade_paths">
	<path fill="none" stroke="#007DC5" stroke-width="1.25" stroke-linecap="round" stroke-miterlimit="10" d="M427.408,218.875
		c-29.5-5.41-45.639-8.582-48.543-10.528c-2.903-1.948-6.394-4.288-10.632-7.13c-4.239-2.844-10.086-8.049-17.816-15.864
		c-7.732-7.815-13.068-14.917-16.263-21.64c-3.193-6.723-4.466-13.374-3.878-20.265c0.588-6.892,2.148-11.119,4.753-12.884
		c2.605-1.765,6.095-2.915,10.633-3.503c4.539-0.588,8.809-2.271,13.011-5.128"/>
	<path fill="none" stroke="#007DC5" stroke-width="1.25" stroke-linecap="round" stroke-miterlimit="10" d="M140.868,54.422
		c4.539-3.362,8.628-6.027,12.158-8.044s7.101-3.782,10.883-5.379s7.404-2.9,11.039-3.972c3.635-1.071,7.822-0.866,12.759,0.625
		c4.938,1.492,10.141,3.534,15.855,6.223s11.256,5.686,16.887,9.131c5.631,3.446,14.076,9.018,25.737,16.981
		c11.66,7.963,22.138,14.648,31.929,20.374s18.691,10.469,27.254,14.713c8.563,4.244,15.243,7.345,20.233,9.194
		c4.989,1.849,10.345,3.596,11.992,3.894c1.76,0.317,5.515-0.288,7.179-0.246c1.662,0.042,4.075,0.727,5.213,0.918
		c2.38,0.399,4.702,0.869,7.075,1.431c2.375,0.562,4.532,1.26,6.575,2.127c2.043,0.867,3.924,1.78,5.729,2.783
		c1.809,1.003,2.505,2.193,2.127,3.627c-0.378,1.434-1.589,1.929-3.689,1.509c-2.102-0.42-3.496-0.133-4.253,0.875
		c-0.756,1.009-1.249,2.322-1.501,4.003s-0.662,3.364-1.251,5.129c-0.588,1.765-0.711,4.104-0.375,7.13
		c0.336,3.026,1.566,5.816,3.753,8.506c2.185,2.688,4.894,4.578,8.256,5.754c3.361,1.176,6.438,2.326,9.381,3.502
		s5.035,2.408,6.38,3.752s3.521,3.191,6.63,5.629c3.109,2.437,6.559,4.283,10.508,5.629c3.949,1.345,6.74,2.082,8.507,2.251
		c1.765,0.168,3.898,1.646,6.505,4.503c2.604,2.857,4.657,5.115,6.254,6.88s3.197,5.089,4.879,10.132"/>
</g>
</svg>
